G04 #@! TF.GenerationSoftware,KiCad,Pcbnew,8.0.6*
G04 #@! TF.CreationDate,2025-01-03T22:06:48-07:00*
G04 #@! TF.ProjectId,AD9744 Ersatz Eval Board Rev. A,41443937-3434-4204-9572-7361747a2045,rev?*
G04 #@! TF.SameCoordinates,Original*
G04 #@! TF.FileFunction,Legend,Top*
G04 #@! TF.FilePolarity,Positive*
%FSLAX46Y46*%
G04 Gerber Fmt 4.6, Leading zero omitted, Abs format (unit mm)*
G04 Created by KiCad (PCBNEW 8.0.6) date 2025-01-03 22:06:48*
%MOMM*%
%LPD*%
G01*
G04 APERTURE LIST*
G04 Aperture macros list*
%AMRoundRect*
0 Rectangle with rounded corners*
0 $1 Rounding radius*
0 $2 $3 $4 $5 $6 $7 $8 $9 X,Y pos of 4 corners*
0 Add a 4 corners polygon primitive as box body*
4,1,4,$2,$3,$4,$5,$6,$7,$8,$9,$2,$3,0*
0 Add four circle primitives for the rounded corners*
1,1,$1+$1,$2,$3*
1,1,$1+$1,$4,$5*
1,1,$1+$1,$6,$7*
1,1,$1+$1,$8,$9*
0 Add four rect primitives between the rounded corners*
20,1,$1+$1,$2,$3,$4,$5,0*
20,1,$1+$1,$4,$5,$6,$7,0*
20,1,$1+$1,$6,$7,$8,$9,0*
20,1,$1+$1,$8,$9,$2,$3,0*%
G04 Aperture macros list end*
%ADD10C,0.200000*%
%ADD11C,0.300000*%
%ADD12C,0.220000*%
%ADD13C,0.150000*%
%ADD14C,0.153000*%
%ADD15C,0.120000*%
%ADD16RoundRect,0.237500X0.250000X0.237500X-0.250000X0.237500X-0.250000X-0.237500X0.250000X-0.237500X0*%
%ADD17R,1.700000X1.700000*%
%ADD18O,1.700000X1.700000*%
%ADD19C,3.800000*%
%ADD20RoundRect,0.237500X0.300000X0.237500X-0.300000X0.237500X-0.300000X-0.237500X0.300000X-0.237500X0*%
%ADD21RoundRect,0.237500X-0.237500X0.300000X-0.237500X-0.300000X0.237500X-0.300000X0.237500X0.300000X0*%
%ADD22RoundRect,0.237500X-0.250000X-0.237500X0.250000X-0.237500X0.250000X0.237500X-0.250000X0.237500X0*%
%ADD23RoundRect,0.237500X-0.300000X-0.237500X0.300000X-0.237500X0.300000X0.237500X-0.300000X0.237500X0*%
%ADD24RoundRect,0.237500X-0.237500X0.287500X-0.237500X-0.287500X0.237500X-0.287500X0.237500X0.287500X0*%
%ADD25C,2.000000*%
%ADD26R,1.600000X1.600000*%
%ADD27O,1.600000X1.600000*%
%ADD28RoundRect,0.237500X-0.237500X0.250000X-0.237500X-0.250000X0.237500X-0.250000X0.237500X0.250000X0*%
%ADD29RoundRect,0.237500X0.237500X-0.250000X0.237500X0.250000X-0.237500X0.250000X-0.237500X-0.250000X0*%
%ADD30C,2.050000*%
%ADD31C,2.250000*%
%ADD32RoundRect,0.250000X-0.450000X0.325000X-0.450000X-0.325000X0.450000X-0.325000X0.450000X0.325000X0*%
%ADD33RoundRect,0.100000X-0.637500X-0.100000X0.637500X-0.100000X0.637500X0.100000X-0.637500X0.100000X0*%
%ADD34RoundRect,0.250000X0.550000X-1.412500X0.550000X1.412500X-0.550000X1.412500X-0.550000X-1.412500X0*%
%ADD35R,2.600000X2.600000*%
%ADD36C,2.600000*%
%ADD37RoundRect,0.237500X0.237500X-0.300000X0.237500X0.300000X-0.237500X0.300000X-0.237500X-0.300000X0*%
G04 APERTURE END LIST*
D10*
X158125000Y-82100000D02*
X142025000Y-82100000D01*
X120916101Y-101071980D02*
X120868482Y-101119600D01*
X120868482Y-101119600D02*
X120725625Y-101167219D01*
X120725625Y-101167219D02*
X120630387Y-101167219D01*
X120630387Y-101167219D02*
X120487530Y-101119600D01*
X120487530Y-101119600D02*
X120392292Y-101024361D01*
X120392292Y-101024361D02*
X120344673Y-100929123D01*
X120344673Y-100929123D02*
X120297054Y-100738647D01*
X120297054Y-100738647D02*
X120297054Y-100595790D01*
X120297054Y-100595790D02*
X120344673Y-100405314D01*
X120344673Y-100405314D02*
X120392292Y-100310076D01*
X120392292Y-100310076D02*
X120487530Y-100214838D01*
X120487530Y-100214838D02*
X120630387Y-100167219D01*
X120630387Y-100167219D02*
X120725625Y-100167219D01*
X120725625Y-100167219D02*
X120868482Y-100214838D01*
X120868482Y-100214838D02*
X120916101Y-100262457D01*
X121820863Y-101167219D02*
X121344673Y-101167219D01*
X121344673Y-101167219D02*
X121344673Y-100167219D01*
X122154197Y-101167219D02*
X122154197Y-100167219D01*
X122725625Y-101167219D02*
X122297054Y-100595790D01*
X122725625Y-100167219D02*
X122154197Y-100738647D01*
D11*
X142646177Y-80890639D02*
X143455701Y-80890639D01*
X142484272Y-81376353D02*
X143050939Y-79676353D01*
X143050939Y-79676353D02*
X143617606Y-81376353D01*
X144184272Y-81376353D02*
X144184272Y-79676353D01*
X144184272Y-79676353D02*
X144589034Y-79676353D01*
X144589034Y-79676353D02*
X144831891Y-79757305D01*
X144831891Y-79757305D02*
X144993796Y-79919210D01*
X144993796Y-79919210D02*
X145074749Y-80081115D01*
X145074749Y-80081115D02*
X145155701Y-80404924D01*
X145155701Y-80404924D02*
X145155701Y-80647781D01*
X145155701Y-80647781D02*
X145074749Y-80971591D01*
X145074749Y-80971591D02*
X144993796Y-81133496D01*
X144993796Y-81133496D02*
X144831891Y-81295401D01*
X144831891Y-81295401D02*
X144589034Y-81376353D01*
X144589034Y-81376353D02*
X144184272Y-81376353D01*
X145965225Y-81376353D02*
X146289034Y-81376353D01*
X146289034Y-81376353D02*
X146450939Y-81295401D01*
X146450939Y-81295401D02*
X146531891Y-81214448D01*
X146531891Y-81214448D02*
X146693796Y-80971591D01*
X146693796Y-80971591D02*
X146774749Y-80647781D01*
X146774749Y-80647781D02*
X146774749Y-80000162D01*
X146774749Y-80000162D02*
X146693796Y-79838258D01*
X146693796Y-79838258D02*
X146612844Y-79757305D01*
X146612844Y-79757305D02*
X146450939Y-79676353D01*
X146450939Y-79676353D02*
X146127130Y-79676353D01*
X146127130Y-79676353D02*
X145965225Y-79757305D01*
X145965225Y-79757305D02*
X145884272Y-79838258D01*
X145884272Y-79838258D02*
X145803320Y-80000162D01*
X145803320Y-80000162D02*
X145803320Y-80404924D01*
X145803320Y-80404924D02*
X145884272Y-80566829D01*
X145884272Y-80566829D02*
X145965225Y-80647781D01*
X145965225Y-80647781D02*
X146127130Y-80728734D01*
X146127130Y-80728734D02*
X146450939Y-80728734D01*
X146450939Y-80728734D02*
X146612844Y-80647781D01*
X146612844Y-80647781D02*
X146693796Y-80566829D01*
X146693796Y-80566829D02*
X146774749Y-80404924D01*
X147341416Y-79676353D02*
X148474749Y-79676353D01*
X148474749Y-79676353D02*
X147746178Y-81376353D01*
X149850940Y-80243020D02*
X149850940Y-81376353D01*
X149446178Y-79595401D02*
X149041416Y-80809686D01*
X149041416Y-80809686D02*
X150093797Y-80809686D01*
X151469988Y-80243020D02*
X151469988Y-81376353D01*
X151065226Y-79595401D02*
X150660464Y-80809686D01*
X150660464Y-80809686D02*
X151712845Y-80809686D01*
X153655702Y-81376353D02*
X153655702Y-79676353D01*
X153655702Y-79676353D02*
X154060464Y-79676353D01*
X154060464Y-79676353D02*
X154303321Y-79757305D01*
X154303321Y-79757305D02*
X154465226Y-79919210D01*
X154465226Y-79919210D02*
X154546179Y-80081115D01*
X154546179Y-80081115D02*
X154627131Y-80404924D01*
X154627131Y-80404924D02*
X154627131Y-80647781D01*
X154627131Y-80647781D02*
X154546179Y-80971591D01*
X154546179Y-80971591D02*
X154465226Y-81133496D01*
X154465226Y-81133496D02*
X154303321Y-81295401D01*
X154303321Y-81295401D02*
X154060464Y-81376353D01*
X154060464Y-81376353D02*
X153655702Y-81376353D01*
X155274750Y-80890639D02*
X156084274Y-80890639D01*
X155112845Y-81376353D02*
X155679512Y-79676353D01*
X155679512Y-79676353D02*
X156246179Y-81376353D01*
X157784274Y-81214448D02*
X157703322Y-81295401D01*
X157703322Y-81295401D02*
X157460464Y-81376353D01*
X157460464Y-81376353D02*
X157298560Y-81376353D01*
X157298560Y-81376353D02*
X157055703Y-81295401D01*
X157055703Y-81295401D02*
X156893798Y-81133496D01*
X156893798Y-81133496D02*
X156812845Y-80971591D01*
X156812845Y-80971591D02*
X156731893Y-80647781D01*
X156731893Y-80647781D02*
X156731893Y-80404924D01*
X156731893Y-80404924D02*
X156812845Y-80081115D01*
X156812845Y-80081115D02*
X156893798Y-79919210D01*
X156893798Y-79919210D02*
X157055703Y-79757305D01*
X157055703Y-79757305D02*
X157298560Y-79676353D01*
X157298560Y-79676353D02*
X157460464Y-79676353D01*
X157460464Y-79676353D02*
X157703322Y-79757305D01*
X157703322Y-79757305D02*
X157784274Y-79838258D01*
X138258082Y-123437542D02*
X138258082Y-124408971D01*
X138258082Y-124408971D02*
X138315225Y-124523257D01*
X138315225Y-124523257D02*
X138372368Y-124580400D01*
X138372368Y-124580400D02*
X138486653Y-124637542D01*
X138486653Y-124637542D02*
X138715225Y-124637542D01*
X138715225Y-124637542D02*
X138829510Y-124580400D01*
X138829510Y-124580400D02*
X138886653Y-124523257D01*
X138886653Y-124523257D02*
X138943796Y-124408971D01*
X138943796Y-124408971D02*
X138943796Y-123437542D01*
X139515225Y-124637542D02*
X139515225Y-123437542D01*
X139515225Y-123437542D02*
X140200939Y-124637542D01*
X140200939Y-124637542D02*
X140200939Y-123437542D01*
X140715225Y-124580400D02*
X140886654Y-124637542D01*
X140886654Y-124637542D02*
X141172368Y-124637542D01*
X141172368Y-124637542D02*
X141286654Y-124580400D01*
X141286654Y-124580400D02*
X141343796Y-124523257D01*
X141343796Y-124523257D02*
X141400939Y-124408971D01*
X141400939Y-124408971D02*
X141400939Y-124294685D01*
X141400939Y-124294685D02*
X141343796Y-124180400D01*
X141343796Y-124180400D02*
X141286654Y-124123257D01*
X141286654Y-124123257D02*
X141172368Y-124066114D01*
X141172368Y-124066114D02*
X140943796Y-124008971D01*
X140943796Y-124008971D02*
X140829511Y-123951828D01*
X140829511Y-123951828D02*
X140772368Y-123894685D01*
X140772368Y-123894685D02*
X140715225Y-123780400D01*
X140715225Y-123780400D02*
X140715225Y-123666114D01*
X140715225Y-123666114D02*
X140772368Y-123551828D01*
X140772368Y-123551828D02*
X140829511Y-123494685D01*
X140829511Y-123494685D02*
X140943796Y-123437542D01*
X140943796Y-123437542D02*
X141229511Y-123437542D01*
X141229511Y-123437542D02*
X141400939Y-123494685D01*
X141915225Y-124637542D02*
X141915225Y-123437542D01*
X143115225Y-123494685D02*
X143000940Y-123437542D01*
X143000940Y-123437542D02*
X142829511Y-123437542D01*
X142829511Y-123437542D02*
X142658082Y-123494685D01*
X142658082Y-123494685D02*
X142543797Y-123608971D01*
X142543797Y-123608971D02*
X142486654Y-123723257D01*
X142486654Y-123723257D02*
X142429511Y-123951828D01*
X142429511Y-123951828D02*
X142429511Y-124123257D01*
X142429511Y-124123257D02*
X142486654Y-124351828D01*
X142486654Y-124351828D02*
X142543797Y-124466114D01*
X142543797Y-124466114D02*
X142658082Y-124580400D01*
X142658082Y-124580400D02*
X142829511Y-124637542D01*
X142829511Y-124637542D02*
X142943797Y-124637542D01*
X142943797Y-124637542D02*
X143115225Y-124580400D01*
X143115225Y-124580400D02*
X143172368Y-124523257D01*
X143172368Y-124523257D02*
X143172368Y-124123257D01*
X143172368Y-124123257D02*
X142943797Y-124123257D01*
X143686654Y-124637542D02*
X143686654Y-123437542D01*
X143686654Y-123437542D02*
X144372368Y-124637542D01*
X144372368Y-124637542D02*
X144372368Y-123437542D01*
X144943797Y-124008971D02*
X145343797Y-124008971D01*
X145515225Y-124637542D02*
X144943797Y-124637542D01*
X144943797Y-124637542D02*
X144943797Y-123437542D01*
X144943797Y-123437542D02*
X145515225Y-123437542D01*
X146029511Y-124637542D02*
X146029511Y-123437542D01*
X146029511Y-123437542D02*
X146315225Y-123437542D01*
X146315225Y-123437542D02*
X146486654Y-123494685D01*
X146486654Y-123494685D02*
X146600939Y-123608971D01*
X146600939Y-123608971D02*
X146658082Y-123723257D01*
X146658082Y-123723257D02*
X146715225Y-123951828D01*
X146715225Y-123951828D02*
X146715225Y-124123257D01*
X146715225Y-124123257D02*
X146658082Y-124351828D01*
X146658082Y-124351828D02*
X146600939Y-124466114D01*
X146600939Y-124466114D02*
X146486654Y-124580400D01*
X146486654Y-124580400D02*
X146315225Y-124637542D01*
X146315225Y-124637542D02*
X146029511Y-124637542D01*
D10*
X120244673Y-116367219D02*
X120244673Y-115367219D01*
X120244673Y-115367219D02*
X120482768Y-115367219D01*
X120482768Y-115367219D02*
X120625625Y-115414838D01*
X120625625Y-115414838D02*
X120720863Y-115510076D01*
X120720863Y-115510076D02*
X120768482Y-115605314D01*
X120768482Y-115605314D02*
X120816101Y-115795790D01*
X120816101Y-115795790D02*
X120816101Y-115938647D01*
X120816101Y-115938647D02*
X120768482Y-116129123D01*
X120768482Y-116129123D02*
X120720863Y-116224361D01*
X120720863Y-116224361D02*
X120625625Y-116319600D01*
X120625625Y-116319600D02*
X120482768Y-116367219D01*
X120482768Y-116367219D02*
X120244673Y-116367219D01*
X121197054Y-115462457D02*
X121244673Y-115414838D01*
X121244673Y-115414838D02*
X121339911Y-115367219D01*
X121339911Y-115367219D02*
X121578006Y-115367219D01*
X121578006Y-115367219D02*
X121673244Y-115414838D01*
X121673244Y-115414838D02*
X121720863Y-115462457D01*
X121720863Y-115462457D02*
X121768482Y-115557695D01*
X121768482Y-115557695D02*
X121768482Y-115652933D01*
X121768482Y-115652933D02*
X121720863Y-115795790D01*
X121720863Y-115795790D02*
X121149435Y-116367219D01*
X121149435Y-116367219D02*
X121768482Y-116367219D01*
X129244673Y-108767219D02*
X129244673Y-107767219D01*
X129244673Y-107767219D02*
X129482768Y-107767219D01*
X129482768Y-107767219D02*
X129625625Y-107814838D01*
X129625625Y-107814838D02*
X129720863Y-107910076D01*
X129720863Y-107910076D02*
X129768482Y-108005314D01*
X129768482Y-108005314D02*
X129816101Y-108195790D01*
X129816101Y-108195790D02*
X129816101Y-108338647D01*
X129816101Y-108338647D02*
X129768482Y-108529123D01*
X129768482Y-108529123D02*
X129720863Y-108624361D01*
X129720863Y-108624361D02*
X129625625Y-108719600D01*
X129625625Y-108719600D02*
X129482768Y-108767219D01*
X129482768Y-108767219D02*
X129244673Y-108767219D01*
X130149435Y-107767219D02*
X130816101Y-107767219D01*
X130816101Y-107767219D02*
X130387530Y-108767219D01*
X120244673Y-108767219D02*
X120244673Y-107767219D01*
X120244673Y-107767219D02*
X120482768Y-107767219D01*
X120482768Y-107767219D02*
X120625625Y-107814838D01*
X120625625Y-107814838D02*
X120720863Y-107910076D01*
X120720863Y-107910076D02*
X120768482Y-108005314D01*
X120768482Y-108005314D02*
X120816101Y-108195790D01*
X120816101Y-108195790D02*
X120816101Y-108338647D01*
X120816101Y-108338647D02*
X120768482Y-108529123D01*
X120768482Y-108529123D02*
X120720863Y-108624361D01*
X120720863Y-108624361D02*
X120625625Y-108719600D01*
X120625625Y-108719600D02*
X120482768Y-108767219D01*
X120482768Y-108767219D02*
X120244673Y-108767219D01*
X121387530Y-108195790D02*
X121292292Y-108148171D01*
X121292292Y-108148171D02*
X121244673Y-108100552D01*
X121244673Y-108100552D02*
X121197054Y-108005314D01*
X121197054Y-108005314D02*
X121197054Y-107957695D01*
X121197054Y-107957695D02*
X121244673Y-107862457D01*
X121244673Y-107862457D02*
X121292292Y-107814838D01*
X121292292Y-107814838D02*
X121387530Y-107767219D01*
X121387530Y-107767219D02*
X121578006Y-107767219D01*
X121578006Y-107767219D02*
X121673244Y-107814838D01*
X121673244Y-107814838D02*
X121720863Y-107862457D01*
X121720863Y-107862457D02*
X121768482Y-107957695D01*
X121768482Y-107957695D02*
X121768482Y-108005314D01*
X121768482Y-108005314D02*
X121720863Y-108100552D01*
X121720863Y-108100552D02*
X121673244Y-108148171D01*
X121673244Y-108148171D02*
X121578006Y-108195790D01*
X121578006Y-108195790D02*
X121387530Y-108195790D01*
X121387530Y-108195790D02*
X121292292Y-108243409D01*
X121292292Y-108243409D02*
X121244673Y-108291028D01*
X121244673Y-108291028D02*
X121197054Y-108386266D01*
X121197054Y-108386266D02*
X121197054Y-108576742D01*
X121197054Y-108576742D02*
X121244673Y-108671980D01*
X121244673Y-108671980D02*
X121292292Y-108719600D01*
X121292292Y-108719600D02*
X121387530Y-108767219D01*
X121387530Y-108767219D02*
X121578006Y-108767219D01*
X121578006Y-108767219D02*
X121673244Y-108719600D01*
X121673244Y-108719600D02*
X121720863Y-108671980D01*
X121720863Y-108671980D02*
X121768482Y-108576742D01*
X121768482Y-108576742D02*
X121768482Y-108386266D01*
X121768482Y-108386266D02*
X121720863Y-108291028D01*
X121720863Y-108291028D02*
X121673244Y-108243409D01*
X121673244Y-108243409D02*
X121578006Y-108195790D01*
X129244673Y-103567219D02*
X129244673Y-102567219D01*
X129244673Y-102567219D02*
X129482768Y-102567219D01*
X129482768Y-102567219D02*
X129625625Y-102614838D01*
X129625625Y-102614838D02*
X129720863Y-102710076D01*
X129720863Y-102710076D02*
X129768482Y-102805314D01*
X129768482Y-102805314D02*
X129816101Y-102995790D01*
X129816101Y-102995790D02*
X129816101Y-103138647D01*
X129816101Y-103138647D02*
X129768482Y-103329123D01*
X129768482Y-103329123D02*
X129720863Y-103424361D01*
X129720863Y-103424361D02*
X129625625Y-103519600D01*
X129625625Y-103519600D02*
X129482768Y-103567219D01*
X129482768Y-103567219D02*
X129244673Y-103567219D01*
X130768482Y-103567219D02*
X130197054Y-103567219D01*
X130482768Y-103567219D02*
X130482768Y-102567219D01*
X130482768Y-102567219D02*
X130387530Y-102710076D01*
X130387530Y-102710076D02*
X130292292Y-102805314D01*
X130292292Y-102805314D02*
X130197054Y-102852933D01*
X131720863Y-103567219D02*
X131149435Y-103567219D01*
X131435149Y-103567219D02*
X131435149Y-102567219D01*
X131435149Y-102567219D02*
X131339911Y-102710076D01*
X131339911Y-102710076D02*
X131244673Y-102805314D01*
X131244673Y-102805314D02*
X131149435Y-102852933D01*
X129244673Y-101067219D02*
X129244673Y-100067219D01*
X129244673Y-100067219D02*
X129482768Y-100067219D01*
X129482768Y-100067219D02*
X129625625Y-100114838D01*
X129625625Y-100114838D02*
X129720863Y-100210076D01*
X129720863Y-100210076D02*
X129768482Y-100305314D01*
X129768482Y-100305314D02*
X129816101Y-100495790D01*
X129816101Y-100495790D02*
X129816101Y-100638647D01*
X129816101Y-100638647D02*
X129768482Y-100829123D01*
X129768482Y-100829123D02*
X129720863Y-100924361D01*
X129720863Y-100924361D02*
X129625625Y-101019600D01*
X129625625Y-101019600D02*
X129482768Y-101067219D01*
X129482768Y-101067219D02*
X129244673Y-101067219D01*
X130768482Y-101067219D02*
X130197054Y-101067219D01*
X130482768Y-101067219D02*
X130482768Y-100067219D01*
X130482768Y-100067219D02*
X130387530Y-100210076D01*
X130387530Y-100210076D02*
X130292292Y-100305314D01*
X130292292Y-100305314D02*
X130197054Y-100352933D01*
X131101816Y-100067219D02*
X131720863Y-100067219D01*
X131720863Y-100067219D02*
X131387530Y-100448171D01*
X131387530Y-100448171D02*
X131530387Y-100448171D01*
X131530387Y-100448171D02*
X131625625Y-100495790D01*
X131625625Y-100495790D02*
X131673244Y-100543409D01*
X131673244Y-100543409D02*
X131720863Y-100638647D01*
X131720863Y-100638647D02*
X131720863Y-100876742D01*
X131720863Y-100876742D02*
X131673244Y-100971980D01*
X131673244Y-100971980D02*
X131625625Y-101019600D01*
X131625625Y-101019600D02*
X131530387Y-101067219D01*
X131530387Y-101067219D02*
X131244673Y-101067219D01*
X131244673Y-101067219D02*
X131149435Y-101019600D01*
X131149435Y-101019600D02*
X131101816Y-100971980D01*
X120244673Y-103567219D02*
X120244673Y-102567219D01*
X120244673Y-102567219D02*
X120482768Y-102567219D01*
X120482768Y-102567219D02*
X120625625Y-102614838D01*
X120625625Y-102614838D02*
X120720863Y-102710076D01*
X120720863Y-102710076D02*
X120768482Y-102805314D01*
X120768482Y-102805314D02*
X120816101Y-102995790D01*
X120816101Y-102995790D02*
X120816101Y-103138647D01*
X120816101Y-103138647D02*
X120768482Y-103329123D01*
X120768482Y-103329123D02*
X120720863Y-103424361D01*
X120720863Y-103424361D02*
X120625625Y-103519600D01*
X120625625Y-103519600D02*
X120482768Y-103567219D01*
X120482768Y-103567219D02*
X120244673Y-103567219D01*
X121768482Y-103567219D02*
X121197054Y-103567219D01*
X121482768Y-103567219D02*
X121482768Y-102567219D01*
X121482768Y-102567219D02*
X121387530Y-102710076D01*
X121387530Y-102710076D02*
X121292292Y-102805314D01*
X121292292Y-102805314D02*
X121197054Y-102852933D01*
X122149435Y-102662457D02*
X122197054Y-102614838D01*
X122197054Y-102614838D02*
X122292292Y-102567219D01*
X122292292Y-102567219D02*
X122530387Y-102567219D01*
X122530387Y-102567219D02*
X122625625Y-102614838D01*
X122625625Y-102614838D02*
X122673244Y-102662457D01*
X122673244Y-102662457D02*
X122720863Y-102757695D01*
X122720863Y-102757695D02*
X122720863Y-102852933D01*
X122720863Y-102852933D02*
X122673244Y-102995790D01*
X122673244Y-102995790D02*
X122101816Y-103567219D01*
X122101816Y-103567219D02*
X122720863Y-103567219D01*
D11*
X123600939Y-81594685D02*
X124172368Y-81594685D01*
X123486653Y-81937542D02*
X123886653Y-80737542D01*
X123886653Y-80737542D02*
X124286653Y-81937542D01*
X124515224Y-80737542D02*
X124915224Y-81937542D01*
X124915224Y-81937542D02*
X125315224Y-80737542D01*
X125715224Y-81937542D02*
X125715224Y-80737542D01*
X125715224Y-80737542D02*
X126000938Y-80737542D01*
X126000938Y-80737542D02*
X126172367Y-80794685D01*
X126172367Y-80794685D02*
X126286652Y-80908971D01*
X126286652Y-80908971D02*
X126343795Y-81023257D01*
X126343795Y-81023257D02*
X126400938Y-81251828D01*
X126400938Y-81251828D02*
X126400938Y-81423257D01*
X126400938Y-81423257D02*
X126343795Y-81651828D01*
X126343795Y-81651828D02*
X126286652Y-81766114D01*
X126286652Y-81766114D02*
X126172367Y-81880400D01*
X126172367Y-81880400D02*
X126000938Y-81937542D01*
X126000938Y-81937542D02*
X125715224Y-81937542D01*
X126915224Y-81937542D02*
X126915224Y-80737542D01*
X126915224Y-80737542D02*
X127200938Y-80737542D01*
X127200938Y-80737542D02*
X127372367Y-80794685D01*
X127372367Y-80794685D02*
X127486652Y-80908971D01*
X127486652Y-80908971D02*
X127543795Y-81023257D01*
X127543795Y-81023257D02*
X127600938Y-81251828D01*
X127600938Y-81251828D02*
X127600938Y-81423257D01*
X127600938Y-81423257D02*
X127543795Y-81651828D01*
X127543795Y-81651828D02*
X127486652Y-81766114D01*
X127486652Y-81766114D02*
X127372367Y-81880400D01*
X127372367Y-81880400D02*
X127200938Y-81937542D01*
X127200938Y-81937542D02*
X126915224Y-81937542D01*
X128115224Y-81480400D02*
X129029510Y-81480400D01*
X129600938Y-81937542D02*
X129600938Y-80737542D01*
X129600938Y-80737542D02*
X129886652Y-80737542D01*
X129886652Y-80737542D02*
X130058081Y-80794685D01*
X130058081Y-80794685D02*
X130172366Y-80908971D01*
X130172366Y-80908971D02*
X130229509Y-81023257D01*
X130229509Y-81023257D02*
X130286652Y-81251828D01*
X130286652Y-81251828D02*
X130286652Y-81423257D01*
X130286652Y-81423257D02*
X130229509Y-81651828D01*
X130229509Y-81651828D02*
X130172366Y-81766114D01*
X130172366Y-81766114D02*
X130058081Y-81880400D01*
X130058081Y-81880400D02*
X129886652Y-81937542D01*
X129886652Y-81937542D02*
X129600938Y-81937542D01*
X130629509Y-80737542D02*
X131029509Y-81937542D01*
X131029509Y-81937542D02*
X131429509Y-80737542D01*
X131829509Y-81937542D02*
X131829509Y-80737542D01*
X131829509Y-80737542D02*
X132115223Y-80737542D01*
X132115223Y-80737542D02*
X132286652Y-80794685D01*
X132286652Y-80794685D02*
X132400937Y-80908971D01*
X132400937Y-80908971D02*
X132458080Y-81023257D01*
X132458080Y-81023257D02*
X132515223Y-81251828D01*
X132515223Y-81251828D02*
X132515223Y-81423257D01*
X132515223Y-81423257D02*
X132458080Y-81651828D01*
X132458080Y-81651828D02*
X132400937Y-81766114D01*
X132400937Y-81766114D02*
X132286652Y-81880400D01*
X132286652Y-81880400D02*
X132115223Y-81937542D01*
X132115223Y-81937542D02*
X131829509Y-81937542D01*
X133029509Y-81937542D02*
X133029509Y-80737542D01*
X133029509Y-80737542D02*
X133315223Y-80737542D01*
X133315223Y-80737542D02*
X133486652Y-80794685D01*
X133486652Y-80794685D02*
X133600937Y-80908971D01*
X133600937Y-80908971D02*
X133658080Y-81023257D01*
X133658080Y-81023257D02*
X133715223Y-81251828D01*
X133715223Y-81251828D02*
X133715223Y-81423257D01*
X133715223Y-81423257D02*
X133658080Y-81651828D01*
X133658080Y-81651828D02*
X133600937Y-81766114D01*
X133600937Y-81766114D02*
X133486652Y-81880400D01*
X133486652Y-81880400D02*
X133315223Y-81937542D01*
X133315223Y-81937542D02*
X133029509Y-81937542D01*
X122080314Y-84131653D02*
X122137457Y-84017368D01*
X122137457Y-84017368D02*
X122137457Y-83845939D01*
X122137457Y-83845939D02*
X122080314Y-83674510D01*
X122080314Y-83674510D02*
X121966028Y-83560225D01*
X121966028Y-83560225D02*
X121851742Y-83503082D01*
X121851742Y-83503082D02*
X121623171Y-83445939D01*
X121623171Y-83445939D02*
X121451742Y-83445939D01*
X121451742Y-83445939D02*
X121223171Y-83503082D01*
X121223171Y-83503082D02*
X121108885Y-83560225D01*
X121108885Y-83560225D02*
X120994600Y-83674510D01*
X120994600Y-83674510D02*
X120937457Y-83845939D01*
X120937457Y-83845939D02*
X120937457Y-83960225D01*
X120937457Y-83960225D02*
X120994600Y-84131653D01*
X120994600Y-84131653D02*
X121051742Y-84188796D01*
X121051742Y-84188796D02*
X121451742Y-84188796D01*
X121451742Y-84188796D02*
X121451742Y-83960225D01*
X120937457Y-84703082D02*
X122137457Y-84703082D01*
X122137457Y-84703082D02*
X120937457Y-85388796D01*
X120937457Y-85388796D02*
X122137457Y-85388796D01*
X120937457Y-85960225D02*
X122137457Y-85960225D01*
X122137457Y-85960225D02*
X122137457Y-86245939D01*
X122137457Y-86245939D02*
X122080314Y-86417368D01*
X122080314Y-86417368D02*
X121966028Y-86531653D01*
X121966028Y-86531653D02*
X121851742Y-86588796D01*
X121851742Y-86588796D02*
X121623171Y-86645939D01*
X121623171Y-86645939D02*
X121451742Y-86645939D01*
X121451742Y-86645939D02*
X121223171Y-86588796D01*
X121223171Y-86588796D02*
X121108885Y-86531653D01*
X121108885Y-86531653D02*
X120994600Y-86417368D01*
X120994600Y-86417368D02*
X120937457Y-86245939D01*
X120937457Y-86245939D02*
X120937457Y-85960225D01*
D10*
X120244673Y-113767219D02*
X120244673Y-112767219D01*
X120244673Y-112767219D02*
X120482768Y-112767219D01*
X120482768Y-112767219D02*
X120625625Y-112814838D01*
X120625625Y-112814838D02*
X120720863Y-112910076D01*
X120720863Y-112910076D02*
X120768482Y-113005314D01*
X120768482Y-113005314D02*
X120816101Y-113195790D01*
X120816101Y-113195790D02*
X120816101Y-113338647D01*
X120816101Y-113338647D02*
X120768482Y-113529123D01*
X120768482Y-113529123D02*
X120720863Y-113624361D01*
X120720863Y-113624361D02*
X120625625Y-113719600D01*
X120625625Y-113719600D02*
X120482768Y-113767219D01*
X120482768Y-113767219D02*
X120244673Y-113767219D01*
X121673244Y-113100552D02*
X121673244Y-113767219D01*
X121435149Y-112719600D02*
X121197054Y-113433885D01*
X121197054Y-113433885D02*
X121816101Y-113433885D01*
X129768482Y-120714838D02*
X129673244Y-120667219D01*
X129673244Y-120667219D02*
X129530387Y-120667219D01*
X129530387Y-120667219D02*
X129387530Y-120714838D01*
X129387530Y-120714838D02*
X129292292Y-120810076D01*
X129292292Y-120810076D02*
X129244673Y-120905314D01*
X129244673Y-120905314D02*
X129197054Y-121095790D01*
X129197054Y-121095790D02*
X129197054Y-121238647D01*
X129197054Y-121238647D02*
X129244673Y-121429123D01*
X129244673Y-121429123D02*
X129292292Y-121524361D01*
X129292292Y-121524361D02*
X129387530Y-121619600D01*
X129387530Y-121619600D02*
X129530387Y-121667219D01*
X129530387Y-121667219D02*
X129625625Y-121667219D01*
X129625625Y-121667219D02*
X129768482Y-121619600D01*
X129768482Y-121619600D02*
X129816101Y-121571980D01*
X129816101Y-121571980D02*
X129816101Y-121238647D01*
X129816101Y-121238647D02*
X129625625Y-121238647D01*
X130244673Y-121667219D02*
X130244673Y-120667219D01*
X130244673Y-120667219D02*
X130816101Y-121667219D01*
X130816101Y-121667219D02*
X130816101Y-120667219D01*
X131292292Y-121667219D02*
X131292292Y-120667219D01*
X131292292Y-120667219D02*
X131530387Y-120667219D01*
X131530387Y-120667219D02*
X131673244Y-120714838D01*
X131673244Y-120714838D02*
X131768482Y-120810076D01*
X131768482Y-120810076D02*
X131816101Y-120905314D01*
X131816101Y-120905314D02*
X131863720Y-121095790D01*
X131863720Y-121095790D02*
X131863720Y-121238647D01*
X131863720Y-121238647D02*
X131816101Y-121429123D01*
X131816101Y-121429123D02*
X131768482Y-121524361D01*
X131768482Y-121524361D02*
X131673244Y-121619600D01*
X131673244Y-121619600D02*
X131530387Y-121667219D01*
X131530387Y-121667219D02*
X131292292Y-121667219D01*
X129244673Y-113767219D02*
X129244673Y-112767219D01*
X129244673Y-112767219D02*
X129482768Y-112767219D01*
X129482768Y-112767219D02*
X129625625Y-112814838D01*
X129625625Y-112814838D02*
X129720863Y-112910076D01*
X129720863Y-112910076D02*
X129768482Y-113005314D01*
X129768482Y-113005314D02*
X129816101Y-113195790D01*
X129816101Y-113195790D02*
X129816101Y-113338647D01*
X129816101Y-113338647D02*
X129768482Y-113529123D01*
X129768482Y-113529123D02*
X129720863Y-113624361D01*
X129720863Y-113624361D02*
X129625625Y-113719600D01*
X129625625Y-113719600D02*
X129482768Y-113767219D01*
X129482768Y-113767219D02*
X129244673Y-113767219D01*
X130149435Y-112767219D02*
X130768482Y-112767219D01*
X130768482Y-112767219D02*
X130435149Y-113148171D01*
X130435149Y-113148171D02*
X130578006Y-113148171D01*
X130578006Y-113148171D02*
X130673244Y-113195790D01*
X130673244Y-113195790D02*
X130720863Y-113243409D01*
X130720863Y-113243409D02*
X130768482Y-113338647D01*
X130768482Y-113338647D02*
X130768482Y-113576742D01*
X130768482Y-113576742D02*
X130720863Y-113671980D01*
X130720863Y-113671980D02*
X130673244Y-113719600D01*
X130673244Y-113719600D02*
X130578006Y-113767219D01*
X130578006Y-113767219D02*
X130292292Y-113767219D01*
X130292292Y-113767219D02*
X130197054Y-113719600D01*
X130197054Y-113719600D02*
X130149435Y-113671980D01*
D12*
X142031640Y-83277750D02*
X142398307Y-83277750D01*
X142555450Y-83853940D02*
X142031640Y-83853940D01*
X142031640Y-83853940D02*
X142031640Y-82753940D01*
X142031640Y-82753940D02*
X142555450Y-82753940D01*
X143655450Y-83853940D02*
X143288783Y-83330131D01*
X143026878Y-83853940D02*
X143026878Y-82753940D01*
X143026878Y-82753940D02*
X143445926Y-82753940D01*
X143445926Y-82753940D02*
X143550688Y-82806321D01*
X143550688Y-82806321D02*
X143603069Y-82858702D01*
X143603069Y-82858702D02*
X143655450Y-82963464D01*
X143655450Y-82963464D02*
X143655450Y-83120607D01*
X143655450Y-83120607D02*
X143603069Y-83225369D01*
X143603069Y-83225369D02*
X143550688Y-83277750D01*
X143550688Y-83277750D02*
X143445926Y-83330131D01*
X143445926Y-83330131D02*
X143026878Y-83330131D01*
X144074497Y-83801560D02*
X144231640Y-83853940D01*
X144231640Y-83853940D02*
X144493545Y-83853940D01*
X144493545Y-83853940D02*
X144598307Y-83801560D01*
X144598307Y-83801560D02*
X144650688Y-83749179D01*
X144650688Y-83749179D02*
X144703069Y-83644417D01*
X144703069Y-83644417D02*
X144703069Y-83539655D01*
X144703069Y-83539655D02*
X144650688Y-83434893D01*
X144650688Y-83434893D02*
X144598307Y-83382512D01*
X144598307Y-83382512D02*
X144493545Y-83330131D01*
X144493545Y-83330131D02*
X144284021Y-83277750D01*
X144284021Y-83277750D02*
X144179259Y-83225369D01*
X144179259Y-83225369D02*
X144126878Y-83172988D01*
X144126878Y-83172988D02*
X144074497Y-83068226D01*
X144074497Y-83068226D02*
X144074497Y-82963464D01*
X144074497Y-82963464D02*
X144126878Y-82858702D01*
X144126878Y-82858702D02*
X144179259Y-82806321D01*
X144179259Y-82806321D02*
X144284021Y-82753940D01*
X144284021Y-82753940D02*
X144545926Y-82753940D01*
X144545926Y-82753940D02*
X144703069Y-82806321D01*
X145122116Y-83539655D02*
X145645926Y-83539655D01*
X145017354Y-83853940D02*
X145384021Y-82753940D01*
X145384021Y-82753940D02*
X145750688Y-83853940D01*
X145960211Y-82753940D02*
X146588783Y-82753940D01*
X146274497Y-83853940D02*
X146274497Y-82753940D01*
X146850687Y-82753940D02*
X147584021Y-82753940D01*
X147584021Y-82753940D02*
X146850687Y-83853940D01*
X146850687Y-83853940D02*
X147584021Y-83853940D01*
X148841163Y-83277750D02*
X149207830Y-83277750D01*
X149364973Y-83853940D02*
X148841163Y-83853940D01*
X148841163Y-83853940D02*
X148841163Y-82753940D01*
X148841163Y-82753940D02*
X149364973Y-82753940D01*
X149679258Y-82753940D02*
X150045925Y-83853940D01*
X150045925Y-83853940D02*
X150412592Y-82753940D01*
X150726877Y-83539655D02*
X151250687Y-83539655D01*
X150622115Y-83853940D02*
X150988782Y-82753940D01*
X150988782Y-82753940D02*
X151355449Y-83853940D01*
X152245925Y-83853940D02*
X151722115Y-83853940D01*
X151722115Y-83853940D02*
X151722115Y-82753940D01*
X153817353Y-83277750D02*
X153974496Y-83330131D01*
X153974496Y-83330131D02*
X154026877Y-83382512D01*
X154026877Y-83382512D02*
X154079258Y-83487274D01*
X154079258Y-83487274D02*
X154079258Y-83644417D01*
X154079258Y-83644417D02*
X154026877Y-83749179D01*
X154026877Y-83749179D02*
X153974496Y-83801560D01*
X153974496Y-83801560D02*
X153869734Y-83853940D01*
X153869734Y-83853940D02*
X153450686Y-83853940D01*
X153450686Y-83853940D02*
X153450686Y-82753940D01*
X153450686Y-82753940D02*
X153817353Y-82753940D01*
X153817353Y-82753940D02*
X153922115Y-82806321D01*
X153922115Y-82806321D02*
X153974496Y-82858702D01*
X153974496Y-82858702D02*
X154026877Y-82963464D01*
X154026877Y-82963464D02*
X154026877Y-83068226D01*
X154026877Y-83068226D02*
X153974496Y-83172988D01*
X153974496Y-83172988D02*
X153922115Y-83225369D01*
X153922115Y-83225369D02*
X153817353Y-83277750D01*
X153817353Y-83277750D02*
X153450686Y-83277750D01*
X154760210Y-82753940D02*
X154969734Y-82753940D01*
X154969734Y-82753940D02*
X155074496Y-82806321D01*
X155074496Y-82806321D02*
X155179258Y-82911083D01*
X155179258Y-82911083D02*
X155231639Y-83120607D01*
X155231639Y-83120607D02*
X155231639Y-83487274D01*
X155231639Y-83487274D02*
X155179258Y-83696798D01*
X155179258Y-83696798D02*
X155074496Y-83801560D01*
X155074496Y-83801560D02*
X154969734Y-83853940D01*
X154969734Y-83853940D02*
X154760210Y-83853940D01*
X154760210Y-83853940D02*
X154655448Y-83801560D01*
X154655448Y-83801560D02*
X154550686Y-83696798D01*
X154550686Y-83696798D02*
X154498305Y-83487274D01*
X154498305Y-83487274D02*
X154498305Y-83120607D01*
X154498305Y-83120607D02*
X154550686Y-82911083D01*
X154550686Y-82911083D02*
X154655448Y-82806321D01*
X154655448Y-82806321D02*
X154760210Y-82753940D01*
X155650686Y-83539655D02*
X156174496Y-83539655D01*
X155545924Y-83853940D02*
X155912591Y-82753940D01*
X155912591Y-82753940D02*
X156279258Y-83853940D01*
X157274496Y-83853940D02*
X156907829Y-83330131D01*
X156645924Y-83853940D02*
X156645924Y-82753940D01*
X156645924Y-82753940D02*
X157064972Y-82753940D01*
X157064972Y-82753940D02*
X157169734Y-82806321D01*
X157169734Y-82806321D02*
X157222115Y-82858702D01*
X157222115Y-82858702D02*
X157274496Y-82963464D01*
X157274496Y-82963464D02*
X157274496Y-83120607D01*
X157274496Y-83120607D02*
X157222115Y-83225369D01*
X157222115Y-83225369D02*
X157169734Y-83277750D01*
X157169734Y-83277750D02*
X157064972Y-83330131D01*
X157064972Y-83330131D02*
X156645924Y-83330131D01*
X157745924Y-83853940D02*
X157745924Y-82753940D01*
X157745924Y-82753940D02*
X158007829Y-82753940D01*
X158007829Y-82753940D02*
X158164972Y-82806321D01*
X158164972Y-82806321D02*
X158269734Y-82911083D01*
X158269734Y-82911083D02*
X158322115Y-83015845D01*
X158322115Y-83015845D02*
X158374496Y-83225369D01*
X158374496Y-83225369D02*
X158374496Y-83382512D01*
X158374496Y-83382512D02*
X158322115Y-83592036D01*
X158322115Y-83592036D02*
X158269734Y-83696798D01*
X158269734Y-83696798D02*
X158164972Y-83801560D01*
X158164972Y-83801560D02*
X158007829Y-83853940D01*
X158007829Y-83853940D02*
X157745924Y-83853940D01*
D10*
X120344673Y-106167219D02*
X120344673Y-105167219D01*
X120344673Y-105167219D02*
X120582768Y-105167219D01*
X120582768Y-105167219D02*
X120725625Y-105214838D01*
X120725625Y-105214838D02*
X120820863Y-105310076D01*
X120820863Y-105310076D02*
X120868482Y-105405314D01*
X120868482Y-105405314D02*
X120916101Y-105595790D01*
X120916101Y-105595790D02*
X120916101Y-105738647D01*
X120916101Y-105738647D02*
X120868482Y-105929123D01*
X120868482Y-105929123D02*
X120820863Y-106024361D01*
X120820863Y-106024361D02*
X120725625Y-106119600D01*
X120725625Y-106119600D02*
X120582768Y-106167219D01*
X120582768Y-106167219D02*
X120344673Y-106167219D01*
X121868482Y-106167219D02*
X121297054Y-106167219D01*
X121582768Y-106167219D02*
X121582768Y-105167219D01*
X121582768Y-105167219D02*
X121487530Y-105310076D01*
X121487530Y-105310076D02*
X121392292Y-105405314D01*
X121392292Y-105405314D02*
X121297054Y-105452933D01*
X122487530Y-105167219D02*
X122582768Y-105167219D01*
X122582768Y-105167219D02*
X122678006Y-105214838D01*
X122678006Y-105214838D02*
X122725625Y-105262457D01*
X122725625Y-105262457D02*
X122773244Y-105357695D01*
X122773244Y-105357695D02*
X122820863Y-105548171D01*
X122820863Y-105548171D02*
X122820863Y-105786266D01*
X122820863Y-105786266D02*
X122773244Y-105976742D01*
X122773244Y-105976742D02*
X122725625Y-106071980D01*
X122725625Y-106071980D02*
X122678006Y-106119600D01*
X122678006Y-106119600D02*
X122582768Y-106167219D01*
X122582768Y-106167219D02*
X122487530Y-106167219D01*
X122487530Y-106167219D02*
X122392292Y-106119600D01*
X122392292Y-106119600D02*
X122344673Y-106071980D01*
X122344673Y-106071980D02*
X122297054Y-105976742D01*
X122297054Y-105976742D02*
X122249435Y-105786266D01*
X122249435Y-105786266D02*
X122249435Y-105548171D01*
X122249435Y-105548171D02*
X122297054Y-105357695D01*
X122297054Y-105357695D02*
X122344673Y-105262457D01*
X122344673Y-105262457D02*
X122392292Y-105214838D01*
X122392292Y-105214838D02*
X122487530Y-105167219D01*
D13*
X133779761Y-102959580D02*
X133732142Y-103007200D01*
X133732142Y-103007200D02*
X133589285Y-103054819D01*
X133589285Y-103054819D02*
X133494047Y-103054819D01*
X133494047Y-103054819D02*
X133351190Y-103007200D01*
X133351190Y-103007200D02*
X133255952Y-102911961D01*
X133255952Y-102911961D02*
X133208333Y-102816723D01*
X133208333Y-102816723D02*
X133160714Y-102626247D01*
X133160714Y-102626247D02*
X133160714Y-102483390D01*
X133160714Y-102483390D02*
X133208333Y-102292914D01*
X133208333Y-102292914D02*
X133255952Y-102197676D01*
X133255952Y-102197676D02*
X133351190Y-102102438D01*
X133351190Y-102102438D02*
X133494047Y-102054819D01*
X133494047Y-102054819D02*
X133589285Y-102054819D01*
X133589285Y-102054819D02*
X133732142Y-102102438D01*
X133732142Y-102102438D02*
X133779761Y-102150057D01*
X134684523Y-103054819D02*
X134208333Y-103054819D01*
X134208333Y-103054819D02*
X134208333Y-102054819D01*
X135017857Y-103054819D02*
X135017857Y-102054819D01*
X135589285Y-103054819D02*
X135160714Y-102483390D01*
X135589285Y-102054819D02*
X135017857Y-102626247D01*
D10*
X129244673Y-106167219D02*
X129244673Y-105167219D01*
X129244673Y-105167219D02*
X129482768Y-105167219D01*
X129482768Y-105167219D02*
X129625625Y-105214838D01*
X129625625Y-105214838D02*
X129720863Y-105310076D01*
X129720863Y-105310076D02*
X129768482Y-105405314D01*
X129768482Y-105405314D02*
X129816101Y-105595790D01*
X129816101Y-105595790D02*
X129816101Y-105738647D01*
X129816101Y-105738647D02*
X129768482Y-105929123D01*
X129768482Y-105929123D02*
X129720863Y-106024361D01*
X129720863Y-106024361D02*
X129625625Y-106119600D01*
X129625625Y-106119600D02*
X129482768Y-106167219D01*
X129482768Y-106167219D02*
X129244673Y-106167219D01*
X130292292Y-106167219D02*
X130482768Y-106167219D01*
X130482768Y-106167219D02*
X130578006Y-106119600D01*
X130578006Y-106119600D02*
X130625625Y-106071980D01*
X130625625Y-106071980D02*
X130720863Y-105929123D01*
X130720863Y-105929123D02*
X130768482Y-105738647D01*
X130768482Y-105738647D02*
X130768482Y-105357695D01*
X130768482Y-105357695D02*
X130720863Y-105262457D01*
X130720863Y-105262457D02*
X130673244Y-105214838D01*
X130673244Y-105214838D02*
X130578006Y-105167219D01*
X130578006Y-105167219D02*
X130387530Y-105167219D01*
X130387530Y-105167219D02*
X130292292Y-105214838D01*
X130292292Y-105214838D02*
X130244673Y-105262457D01*
X130244673Y-105262457D02*
X130197054Y-105357695D01*
X130197054Y-105357695D02*
X130197054Y-105595790D01*
X130197054Y-105595790D02*
X130244673Y-105691028D01*
X130244673Y-105691028D02*
X130292292Y-105738647D01*
X130292292Y-105738647D02*
X130387530Y-105786266D01*
X130387530Y-105786266D02*
X130578006Y-105786266D01*
X130578006Y-105786266D02*
X130673244Y-105738647D01*
X130673244Y-105738647D02*
X130720863Y-105691028D01*
X130720863Y-105691028D02*
X130768482Y-105595790D01*
X120244673Y-111267219D02*
X120244673Y-110267219D01*
X120244673Y-110267219D02*
X120482768Y-110267219D01*
X120482768Y-110267219D02*
X120625625Y-110314838D01*
X120625625Y-110314838D02*
X120720863Y-110410076D01*
X120720863Y-110410076D02*
X120768482Y-110505314D01*
X120768482Y-110505314D02*
X120816101Y-110695790D01*
X120816101Y-110695790D02*
X120816101Y-110838647D01*
X120816101Y-110838647D02*
X120768482Y-111029123D01*
X120768482Y-111029123D02*
X120720863Y-111124361D01*
X120720863Y-111124361D02*
X120625625Y-111219600D01*
X120625625Y-111219600D02*
X120482768Y-111267219D01*
X120482768Y-111267219D02*
X120244673Y-111267219D01*
X121673244Y-110267219D02*
X121482768Y-110267219D01*
X121482768Y-110267219D02*
X121387530Y-110314838D01*
X121387530Y-110314838D02*
X121339911Y-110362457D01*
X121339911Y-110362457D02*
X121244673Y-110505314D01*
X121244673Y-110505314D02*
X121197054Y-110695790D01*
X121197054Y-110695790D02*
X121197054Y-111076742D01*
X121197054Y-111076742D02*
X121244673Y-111171980D01*
X121244673Y-111171980D02*
X121292292Y-111219600D01*
X121292292Y-111219600D02*
X121387530Y-111267219D01*
X121387530Y-111267219D02*
X121578006Y-111267219D01*
X121578006Y-111267219D02*
X121673244Y-111219600D01*
X121673244Y-111219600D02*
X121720863Y-111171980D01*
X121720863Y-111171980D02*
X121768482Y-111076742D01*
X121768482Y-111076742D02*
X121768482Y-110838647D01*
X121768482Y-110838647D02*
X121720863Y-110743409D01*
X121720863Y-110743409D02*
X121673244Y-110695790D01*
X121673244Y-110695790D02*
X121578006Y-110648171D01*
X121578006Y-110648171D02*
X121387530Y-110648171D01*
X121387530Y-110648171D02*
X121292292Y-110695790D01*
X121292292Y-110695790D02*
X121244673Y-110743409D01*
X121244673Y-110743409D02*
X121197054Y-110838647D01*
D11*
X158461653Y-112087542D02*
X158861653Y-113287542D01*
X158861653Y-113287542D02*
X159261653Y-112087542D01*
X159890224Y-112087542D02*
X160118796Y-112087542D01*
X160118796Y-112087542D02*
X160233081Y-112144685D01*
X160233081Y-112144685D02*
X160347367Y-112258971D01*
X160347367Y-112258971D02*
X160404510Y-112487542D01*
X160404510Y-112487542D02*
X160404510Y-112887542D01*
X160404510Y-112887542D02*
X160347367Y-113116114D01*
X160347367Y-113116114D02*
X160233081Y-113230400D01*
X160233081Y-113230400D02*
X160118796Y-113287542D01*
X160118796Y-113287542D02*
X159890224Y-113287542D01*
X159890224Y-113287542D02*
X159775939Y-113230400D01*
X159775939Y-113230400D02*
X159661653Y-113116114D01*
X159661653Y-113116114D02*
X159604510Y-112887542D01*
X159604510Y-112887542D02*
X159604510Y-112487542D01*
X159604510Y-112487542D02*
X159661653Y-112258971D01*
X159661653Y-112258971D02*
X159775939Y-112144685D01*
X159775939Y-112144685D02*
X159890224Y-112087542D01*
X160918796Y-112087542D02*
X160918796Y-113058971D01*
X160918796Y-113058971D02*
X160975939Y-113173257D01*
X160975939Y-113173257D02*
X161033082Y-113230400D01*
X161033082Y-113230400D02*
X161147367Y-113287542D01*
X161147367Y-113287542D02*
X161375939Y-113287542D01*
X161375939Y-113287542D02*
X161490224Y-113230400D01*
X161490224Y-113230400D02*
X161547367Y-113173257D01*
X161547367Y-113173257D02*
X161604510Y-113058971D01*
X161604510Y-113058971D02*
X161604510Y-112087542D01*
X162004510Y-112087542D02*
X162690225Y-112087542D01*
X162347367Y-113287542D02*
X162347367Y-112087542D01*
X148983082Y-96208971D02*
X149383082Y-96208971D01*
X149554510Y-96837542D02*
X148983082Y-96837542D01*
X148983082Y-96837542D02*
X148983082Y-95637542D01*
X148983082Y-95637542D02*
X149554510Y-95637542D01*
X149954510Y-95637542D02*
X150754510Y-96837542D01*
X150754510Y-95637542D02*
X149954510Y-96837542D01*
X151040224Y-95637542D02*
X151725939Y-95637542D01*
X151383081Y-96837542D02*
X151383081Y-95637542D01*
X153725939Y-96723257D02*
X153668796Y-96780400D01*
X153668796Y-96780400D02*
X153497368Y-96837542D01*
X153497368Y-96837542D02*
X153383082Y-96837542D01*
X153383082Y-96837542D02*
X153211653Y-96780400D01*
X153211653Y-96780400D02*
X153097368Y-96666114D01*
X153097368Y-96666114D02*
X153040225Y-96551828D01*
X153040225Y-96551828D02*
X152983082Y-96323257D01*
X152983082Y-96323257D02*
X152983082Y-96151828D01*
X152983082Y-96151828D02*
X153040225Y-95923257D01*
X153040225Y-95923257D02*
X153097368Y-95808971D01*
X153097368Y-95808971D02*
X153211653Y-95694685D01*
X153211653Y-95694685D02*
X153383082Y-95637542D01*
X153383082Y-95637542D02*
X153497368Y-95637542D01*
X153497368Y-95637542D02*
X153668796Y-95694685D01*
X153668796Y-95694685D02*
X153725939Y-95751828D01*
X154811653Y-96837542D02*
X154240225Y-96837542D01*
X154240225Y-96837542D02*
X154240225Y-95637542D01*
X155211654Y-96837542D02*
X155211654Y-95637542D01*
X155897368Y-96837542D02*
X155383082Y-96151828D01*
X155897368Y-95637542D02*
X155211654Y-96323257D01*
X131100939Y-123451828D02*
X131158082Y-123394685D01*
X131158082Y-123394685D02*
X131272368Y-123337542D01*
X131272368Y-123337542D02*
X131558082Y-123337542D01*
X131558082Y-123337542D02*
X131672368Y-123394685D01*
X131672368Y-123394685D02*
X131729510Y-123451828D01*
X131729510Y-123451828D02*
X131786653Y-123566114D01*
X131786653Y-123566114D02*
X131786653Y-123680400D01*
X131786653Y-123680400D02*
X131729510Y-123851828D01*
X131729510Y-123851828D02*
X131043796Y-124537542D01*
X131043796Y-124537542D02*
X131786653Y-124537542D01*
X132243796Y-124480400D02*
X132415225Y-124537542D01*
X132415225Y-124537542D02*
X132700939Y-124537542D01*
X132700939Y-124537542D02*
X132815225Y-124480400D01*
X132815225Y-124480400D02*
X132872367Y-124423257D01*
X132872367Y-124423257D02*
X132929510Y-124308971D01*
X132929510Y-124308971D02*
X132929510Y-124194685D01*
X132929510Y-124194685D02*
X132872367Y-124080400D01*
X132872367Y-124080400D02*
X132815225Y-124023257D01*
X132815225Y-124023257D02*
X132700939Y-123966114D01*
X132700939Y-123966114D02*
X132472367Y-123908971D01*
X132472367Y-123908971D02*
X132358082Y-123851828D01*
X132358082Y-123851828D02*
X132300939Y-123794685D01*
X132300939Y-123794685D02*
X132243796Y-123680400D01*
X132243796Y-123680400D02*
X132243796Y-123566114D01*
X132243796Y-123566114D02*
X132300939Y-123451828D01*
X132300939Y-123451828D02*
X132358082Y-123394685D01*
X132358082Y-123394685D02*
X132472367Y-123337542D01*
X132472367Y-123337542D02*
X132758082Y-123337542D01*
X132758082Y-123337542D02*
X132929510Y-123394685D01*
X134129510Y-124423257D02*
X134072367Y-124480400D01*
X134072367Y-124480400D02*
X133900939Y-124537542D01*
X133900939Y-124537542D02*
X133786653Y-124537542D01*
X133786653Y-124537542D02*
X133615224Y-124480400D01*
X133615224Y-124480400D02*
X133500939Y-124366114D01*
X133500939Y-124366114D02*
X133443796Y-124251828D01*
X133443796Y-124251828D02*
X133386653Y-124023257D01*
X133386653Y-124023257D02*
X133386653Y-123851828D01*
X133386653Y-123851828D02*
X133443796Y-123623257D01*
X133443796Y-123623257D02*
X133500939Y-123508971D01*
X133500939Y-123508971D02*
X133615224Y-123394685D01*
X133615224Y-123394685D02*
X133786653Y-123337542D01*
X133786653Y-123337542D02*
X133900939Y-123337542D01*
X133900939Y-123337542D02*
X134072367Y-123394685D01*
X134072367Y-123394685D02*
X134129510Y-123451828D01*
D13*
X148290476Y-121404819D02*
X148290476Y-120404819D01*
X148909523Y-121404819D02*
X148814285Y-121357200D01*
X148814285Y-121357200D02*
X148766666Y-121309580D01*
X148766666Y-121309580D02*
X148719047Y-121214342D01*
X148719047Y-121214342D02*
X148719047Y-120928628D01*
X148719047Y-120928628D02*
X148766666Y-120833390D01*
X148766666Y-120833390D02*
X148814285Y-120785771D01*
X148814285Y-120785771D02*
X148909523Y-120738152D01*
X148909523Y-120738152D02*
X149052380Y-120738152D01*
X149052380Y-120738152D02*
X149147618Y-120785771D01*
X149147618Y-120785771D02*
X149195237Y-120833390D01*
X149195237Y-120833390D02*
X149242856Y-120928628D01*
X149242856Y-120928628D02*
X149242856Y-121214342D01*
X149242856Y-121214342D02*
X149195237Y-121309580D01*
X149195237Y-121309580D02*
X149147618Y-121357200D01*
X149147618Y-121357200D02*
X149052380Y-121404819D01*
X149052380Y-121404819D02*
X148909523Y-121404819D01*
X150099999Y-120738152D02*
X150099999Y-121404819D01*
X149671428Y-120738152D02*
X149671428Y-121261961D01*
X149671428Y-121261961D02*
X149719047Y-121357200D01*
X149719047Y-121357200D02*
X149814285Y-121404819D01*
X149814285Y-121404819D02*
X149957142Y-121404819D01*
X149957142Y-121404819D02*
X150052380Y-121357200D01*
X150052380Y-121357200D02*
X150099999Y-121309580D01*
X150433333Y-120738152D02*
X150814285Y-120738152D01*
X150576190Y-120404819D02*
X150576190Y-121261961D01*
X150576190Y-121261961D02*
X150623809Y-121357200D01*
X150623809Y-121357200D02*
X150719047Y-121404819D01*
X150719047Y-121404819D02*
X150814285Y-121404819D01*
X151147619Y-121023866D02*
X151909524Y-121023866D01*
X155888095Y-120952438D02*
X155792857Y-120904819D01*
X155792857Y-120904819D02*
X155650000Y-120904819D01*
X155650000Y-120904819D02*
X155507143Y-120952438D01*
X155507143Y-120952438D02*
X155411905Y-121047676D01*
X155411905Y-121047676D02*
X155364286Y-121142914D01*
X155364286Y-121142914D02*
X155316667Y-121333390D01*
X155316667Y-121333390D02*
X155316667Y-121476247D01*
X155316667Y-121476247D02*
X155364286Y-121666723D01*
X155364286Y-121666723D02*
X155411905Y-121761961D01*
X155411905Y-121761961D02*
X155507143Y-121857200D01*
X155507143Y-121857200D02*
X155650000Y-121904819D01*
X155650000Y-121904819D02*
X155745238Y-121904819D01*
X155745238Y-121904819D02*
X155888095Y-121857200D01*
X155888095Y-121857200D02*
X155935714Y-121809580D01*
X155935714Y-121809580D02*
X155935714Y-121476247D01*
X155935714Y-121476247D02*
X155745238Y-121476247D01*
X156364286Y-121904819D02*
X156364286Y-120904819D01*
X156364286Y-120904819D02*
X156935714Y-121904819D01*
X156935714Y-121904819D02*
X156935714Y-120904819D01*
X157411905Y-121904819D02*
X157411905Y-120904819D01*
X157411905Y-120904819D02*
X157650000Y-120904819D01*
X157650000Y-120904819D02*
X157792857Y-120952438D01*
X157792857Y-120952438D02*
X157888095Y-121047676D01*
X157888095Y-121047676D02*
X157935714Y-121142914D01*
X157935714Y-121142914D02*
X157983333Y-121333390D01*
X157983333Y-121333390D02*
X157983333Y-121476247D01*
X157983333Y-121476247D02*
X157935714Y-121666723D01*
X157935714Y-121666723D02*
X157888095Y-121761961D01*
X157888095Y-121761961D02*
X157792857Y-121857200D01*
X157792857Y-121857200D02*
X157650000Y-121904819D01*
X157650000Y-121904819D02*
X157411905Y-121904819D01*
D10*
X129244673Y-116267219D02*
X129244673Y-115267219D01*
X129244673Y-115267219D02*
X129482768Y-115267219D01*
X129482768Y-115267219D02*
X129625625Y-115314838D01*
X129625625Y-115314838D02*
X129720863Y-115410076D01*
X129720863Y-115410076D02*
X129768482Y-115505314D01*
X129768482Y-115505314D02*
X129816101Y-115695790D01*
X129816101Y-115695790D02*
X129816101Y-115838647D01*
X129816101Y-115838647D02*
X129768482Y-116029123D01*
X129768482Y-116029123D02*
X129720863Y-116124361D01*
X129720863Y-116124361D02*
X129625625Y-116219600D01*
X129625625Y-116219600D02*
X129482768Y-116267219D01*
X129482768Y-116267219D02*
X129244673Y-116267219D01*
X130768482Y-116267219D02*
X130197054Y-116267219D01*
X130482768Y-116267219D02*
X130482768Y-115267219D01*
X130482768Y-115267219D02*
X130387530Y-115410076D01*
X130387530Y-115410076D02*
X130292292Y-115505314D01*
X130292292Y-115505314D02*
X130197054Y-115552933D01*
X120244673Y-118967219D02*
X120244673Y-117967219D01*
X120244673Y-117967219D02*
X120482768Y-117967219D01*
X120482768Y-117967219D02*
X120625625Y-118014838D01*
X120625625Y-118014838D02*
X120720863Y-118110076D01*
X120720863Y-118110076D02*
X120768482Y-118205314D01*
X120768482Y-118205314D02*
X120816101Y-118395790D01*
X120816101Y-118395790D02*
X120816101Y-118538647D01*
X120816101Y-118538647D02*
X120768482Y-118729123D01*
X120768482Y-118729123D02*
X120720863Y-118824361D01*
X120720863Y-118824361D02*
X120625625Y-118919600D01*
X120625625Y-118919600D02*
X120482768Y-118967219D01*
X120482768Y-118967219D02*
X120244673Y-118967219D01*
X121435149Y-117967219D02*
X121530387Y-117967219D01*
X121530387Y-117967219D02*
X121625625Y-118014838D01*
X121625625Y-118014838D02*
X121673244Y-118062457D01*
X121673244Y-118062457D02*
X121720863Y-118157695D01*
X121720863Y-118157695D02*
X121768482Y-118348171D01*
X121768482Y-118348171D02*
X121768482Y-118586266D01*
X121768482Y-118586266D02*
X121720863Y-118776742D01*
X121720863Y-118776742D02*
X121673244Y-118871980D01*
X121673244Y-118871980D02*
X121625625Y-118919600D01*
X121625625Y-118919600D02*
X121530387Y-118967219D01*
X121530387Y-118967219D02*
X121435149Y-118967219D01*
X121435149Y-118967219D02*
X121339911Y-118919600D01*
X121339911Y-118919600D02*
X121292292Y-118871980D01*
X121292292Y-118871980D02*
X121244673Y-118776742D01*
X121244673Y-118776742D02*
X121197054Y-118586266D01*
X121197054Y-118586266D02*
X121197054Y-118348171D01*
X121197054Y-118348171D02*
X121244673Y-118157695D01*
X121244673Y-118157695D02*
X121292292Y-118062457D01*
X121292292Y-118062457D02*
X121339911Y-118014838D01*
X121339911Y-118014838D02*
X121435149Y-117967219D01*
X129244673Y-111167219D02*
X129244673Y-110167219D01*
X129244673Y-110167219D02*
X129482768Y-110167219D01*
X129482768Y-110167219D02*
X129625625Y-110214838D01*
X129625625Y-110214838D02*
X129720863Y-110310076D01*
X129720863Y-110310076D02*
X129768482Y-110405314D01*
X129768482Y-110405314D02*
X129816101Y-110595790D01*
X129816101Y-110595790D02*
X129816101Y-110738647D01*
X129816101Y-110738647D02*
X129768482Y-110929123D01*
X129768482Y-110929123D02*
X129720863Y-111024361D01*
X129720863Y-111024361D02*
X129625625Y-111119600D01*
X129625625Y-111119600D02*
X129482768Y-111167219D01*
X129482768Y-111167219D02*
X129244673Y-111167219D01*
X130720863Y-110167219D02*
X130244673Y-110167219D01*
X130244673Y-110167219D02*
X130197054Y-110643409D01*
X130197054Y-110643409D02*
X130244673Y-110595790D01*
X130244673Y-110595790D02*
X130339911Y-110548171D01*
X130339911Y-110548171D02*
X130578006Y-110548171D01*
X130578006Y-110548171D02*
X130673244Y-110595790D01*
X130673244Y-110595790D02*
X130720863Y-110643409D01*
X130720863Y-110643409D02*
X130768482Y-110738647D01*
X130768482Y-110738647D02*
X130768482Y-110976742D01*
X130768482Y-110976742D02*
X130720863Y-111071980D01*
X130720863Y-111071980D02*
X130673244Y-111119600D01*
X130673244Y-111119600D02*
X130578006Y-111167219D01*
X130578006Y-111167219D02*
X130339911Y-111167219D01*
X130339911Y-111167219D02*
X130244673Y-111119600D01*
X130244673Y-111119600D02*
X130197054Y-111071980D01*
D11*
X122137457Y-89388796D02*
X122137457Y-90131653D01*
X122137457Y-90131653D02*
X121680314Y-89731653D01*
X121680314Y-89731653D02*
X121680314Y-89903082D01*
X121680314Y-89903082D02*
X121623171Y-90017368D01*
X121623171Y-90017368D02*
X121566028Y-90074510D01*
X121566028Y-90074510D02*
X121451742Y-90131653D01*
X121451742Y-90131653D02*
X121166028Y-90131653D01*
X121166028Y-90131653D02*
X121051742Y-90074510D01*
X121051742Y-90074510D02*
X120994600Y-90017368D01*
X120994600Y-90017368D02*
X120937457Y-89903082D01*
X120937457Y-89903082D02*
X120937457Y-89560225D01*
X120937457Y-89560225D02*
X120994600Y-89445939D01*
X120994600Y-89445939D02*
X121051742Y-89388796D01*
X121051742Y-90645939D02*
X120994600Y-90703082D01*
X120994600Y-90703082D02*
X120937457Y-90645939D01*
X120937457Y-90645939D02*
X120994600Y-90588796D01*
X120994600Y-90588796D02*
X121051742Y-90645939D01*
X121051742Y-90645939D02*
X120937457Y-90645939D01*
X122137457Y-91103082D02*
X122137457Y-91845939D01*
X122137457Y-91845939D02*
X121680314Y-91445939D01*
X121680314Y-91445939D02*
X121680314Y-91617368D01*
X121680314Y-91617368D02*
X121623171Y-91731654D01*
X121623171Y-91731654D02*
X121566028Y-91788796D01*
X121566028Y-91788796D02*
X121451742Y-91845939D01*
X121451742Y-91845939D02*
X121166028Y-91845939D01*
X121166028Y-91845939D02*
X121051742Y-91788796D01*
X121051742Y-91788796D02*
X120994600Y-91731654D01*
X120994600Y-91731654D02*
X120937457Y-91617368D01*
X120937457Y-91617368D02*
X120937457Y-91274511D01*
X120937457Y-91274511D02*
X120994600Y-91160225D01*
X120994600Y-91160225D02*
X121051742Y-91103082D01*
X122137457Y-92188796D02*
X120937457Y-92588796D01*
X120937457Y-92588796D02*
X122137457Y-92988796D01*
D13*
X151640476Y-102454819D02*
X151640476Y-101454819D01*
X152259523Y-102454819D02*
X152164285Y-102407200D01*
X152164285Y-102407200D02*
X152116666Y-102359580D01*
X152116666Y-102359580D02*
X152069047Y-102264342D01*
X152069047Y-102264342D02*
X152069047Y-101978628D01*
X152069047Y-101978628D02*
X152116666Y-101883390D01*
X152116666Y-101883390D02*
X152164285Y-101835771D01*
X152164285Y-101835771D02*
X152259523Y-101788152D01*
X152259523Y-101788152D02*
X152402380Y-101788152D01*
X152402380Y-101788152D02*
X152497618Y-101835771D01*
X152497618Y-101835771D02*
X152545237Y-101883390D01*
X152545237Y-101883390D02*
X152592856Y-101978628D01*
X152592856Y-101978628D02*
X152592856Y-102264342D01*
X152592856Y-102264342D02*
X152545237Y-102359580D01*
X152545237Y-102359580D02*
X152497618Y-102407200D01*
X152497618Y-102407200D02*
X152402380Y-102454819D01*
X152402380Y-102454819D02*
X152259523Y-102454819D01*
X153449999Y-101788152D02*
X153449999Y-102454819D01*
X153021428Y-101788152D02*
X153021428Y-102311961D01*
X153021428Y-102311961D02*
X153069047Y-102407200D01*
X153069047Y-102407200D02*
X153164285Y-102454819D01*
X153164285Y-102454819D02*
X153307142Y-102454819D01*
X153307142Y-102454819D02*
X153402380Y-102407200D01*
X153402380Y-102407200D02*
X153449999Y-102359580D01*
X153783333Y-101788152D02*
X154164285Y-101788152D01*
X153926190Y-101454819D02*
X153926190Y-102311961D01*
X153926190Y-102311961D02*
X153973809Y-102407200D01*
X153973809Y-102407200D02*
X154069047Y-102454819D01*
X154069047Y-102454819D02*
X154164285Y-102454819D01*
X154497619Y-102073866D02*
X155259524Y-102073866D01*
X154878571Y-102454819D02*
X154878571Y-101692914D01*
D10*
X129249435Y-117867219D02*
X129868482Y-117867219D01*
X129868482Y-117867219D02*
X129535149Y-118248171D01*
X129535149Y-118248171D02*
X129678006Y-118248171D01*
X129678006Y-118248171D02*
X129773244Y-118295790D01*
X129773244Y-118295790D02*
X129820863Y-118343409D01*
X129820863Y-118343409D02*
X129868482Y-118438647D01*
X129868482Y-118438647D02*
X129868482Y-118676742D01*
X129868482Y-118676742D02*
X129820863Y-118771980D01*
X129820863Y-118771980D02*
X129773244Y-118819600D01*
X129773244Y-118819600D02*
X129678006Y-118867219D01*
X129678006Y-118867219D02*
X129392292Y-118867219D01*
X129392292Y-118867219D02*
X129297054Y-118819600D01*
X129297054Y-118819600D02*
X129249435Y-118771980D01*
X130297054Y-118771980D02*
X130344673Y-118819600D01*
X130344673Y-118819600D02*
X130297054Y-118867219D01*
X130297054Y-118867219D02*
X130249435Y-118819600D01*
X130249435Y-118819600D02*
X130297054Y-118771980D01*
X130297054Y-118771980D02*
X130297054Y-118867219D01*
X130678006Y-117867219D02*
X131297053Y-117867219D01*
X131297053Y-117867219D02*
X130963720Y-118248171D01*
X130963720Y-118248171D02*
X131106577Y-118248171D01*
X131106577Y-118248171D02*
X131201815Y-118295790D01*
X131201815Y-118295790D02*
X131249434Y-118343409D01*
X131249434Y-118343409D02*
X131297053Y-118438647D01*
X131297053Y-118438647D02*
X131297053Y-118676742D01*
X131297053Y-118676742D02*
X131249434Y-118771980D01*
X131249434Y-118771980D02*
X131201815Y-118819600D01*
X131201815Y-118819600D02*
X131106577Y-118867219D01*
X131106577Y-118867219D02*
X130820863Y-118867219D01*
X130820863Y-118867219D02*
X130725625Y-118819600D01*
X130725625Y-118819600D02*
X130678006Y-118771980D01*
X131582768Y-117867219D02*
X131916101Y-118867219D01*
X131916101Y-118867219D02*
X132249434Y-117867219D01*
D13*
X141508333Y-116794819D02*
X141175000Y-116318628D01*
X140936905Y-116794819D02*
X140936905Y-115794819D01*
X140936905Y-115794819D02*
X141317857Y-115794819D01*
X141317857Y-115794819D02*
X141413095Y-115842438D01*
X141413095Y-115842438D02*
X141460714Y-115890057D01*
X141460714Y-115890057D02*
X141508333Y-115985295D01*
X141508333Y-115985295D02*
X141508333Y-116128152D01*
X141508333Y-116128152D02*
X141460714Y-116223390D01*
X141460714Y-116223390D02*
X141413095Y-116271009D01*
X141413095Y-116271009D02*
X141317857Y-116318628D01*
X141317857Y-116318628D02*
X140936905Y-116318628D01*
X141841667Y-115794819D02*
X142460714Y-115794819D01*
X142460714Y-115794819D02*
X142127381Y-116175771D01*
X142127381Y-116175771D02*
X142270238Y-116175771D01*
X142270238Y-116175771D02*
X142365476Y-116223390D01*
X142365476Y-116223390D02*
X142413095Y-116271009D01*
X142413095Y-116271009D02*
X142460714Y-116366247D01*
X142460714Y-116366247D02*
X142460714Y-116604342D01*
X142460714Y-116604342D02*
X142413095Y-116699580D01*
X142413095Y-116699580D02*
X142365476Y-116747200D01*
X142365476Y-116747200D02*
X142270238Y-116794819D01*
X142270238Y-116794819D02*
X141984524Y-116794819D01*
X141984524Y-116794819D02*
X141889286Y-116747200D01*
X141889286Y-116747200D02*
X141841667Y-116699580D01*
X138408333Y-96559580D02*
X138360714Y-96607200D01*
X138360714Y-96607200D02*
X138217857Y-96654819D01*
X138217857Y-96654819D02*
X138122619Y-96654819D01*
X138122619Y-96654819D02*
X137979762Y-96607200D01*
X137979762Y-96607200D02*
X137884524Y-96511961D01*
X137884524Y-96511961D02*
X137836905Y-96416723D01*
X137836905Y-96416723D02*
X137789286Y-96226247D01*
X137789286Y-96226247D02*
X137789286Y-96083390D01*
X137789286Y-96083390D02*
X137836905Y-95892914D01*
X137836905Y-95892914D02*
X137884524Y-95797676D01*
X137884524Y-95797676D02*
X137979762Y-95702438D01*
X137979762Y-95702438D02*
X138122619Y-95654819D01*
X138122619Y-95654819D02*
X138217857Y-95654819D01*
X138217857Y-95654819D02*
X138360714Y-95702438D01*
X138360714Y-95702438D02*
X138408333Y-95750057D01*
X138979762Y-96083390D02*
X138884524Y-96035771D01*
X138884524Y-96035771D02*
X138836905Y-95988152D01*
X138836905Y-95988152D02*
X138789286Y-95892914D01*
X138789286Y-95892914D02*
X138789286Y-95845295D01*
X138789286Y-95845295D02*
X138836905Y-95750057D01*
X138836905Y-95750057D02*
X138884524Y-95702438D01*
X138884524Y-95702438D02*
X138979762Y-95654819D01*
X138979762Y-95654819D02*
X139170238Y-95654819D01*
X139170238Y-95654819D02*
X139265476Y-95702438D01*
X139265476Y-95702438D02*
X139313095Y-95750057D01*
X139313095Y-95750057D02*
X139360714Y-95845295D01*
X139360714Y-95845295D02*
X139360714Y-95892914D01*
X139360714Y-95892914D02*
X139313095Y-95988152D01*
X139313095Y-95988152D02*
X139265476Y-96035771D01*
X139265476Y-96035771D02*
X139170238Y-96083390D01*
X139170238Y-96083390D02*
X138979762Y-96083390D01*
X138979762Y-96083390D02*
X138884524Y-96131009D01*
X138884524Y-96131009D02*
X138836905Y-96178628D01*
X138836905Y-96178628D02*
X138789286Y-96273866D01*
X138789286Y-96273866D02*
X138789286Y-96464342D01*
X138789286Y-96464342D02*
X138836905Y-96559580D01*
X138836905Y-96559580D02*
X138884524Y-96607200D01*
X138884524Y-96607200D02*
X138979762Y-96654819D01*
X138979762Y-96654819D02*
X139170238Y-96654819D01*
X139170238Y-96654819D02*
X139265476Y-96607200D01*
X139265476Y-96607200D02*
X139313095Y-96559580D01*
X139313095Y-96559580D02*
X139360714Y-96464342D01*
X139360714Y-96464342D02*
X139360714Y-96273866D01*
X139360714Y-96273866D02*
X139313095Y-96178628D01*
X139313095Y-96178628D02*
X139265476Y-96131009D01*
X139265476Y-96131009D02*
X139170238Y-96083390D01*
X127174580Y-98166666D02*
X127222200Y-98214285D01*
X127222200Y-98214285D02*
X127269819Y-98357142D01*
X127269819Y-98357142D02*
X127269819Y-98452380D01*
X127269819Y-98452380D02*
X127222200Y-98595237D01*
X127222200Y-98595237D02*
X127126961Y-98690475D01*
X127126961Y-98690475D02*
X127031723Y-98738094D01*
X127031723Y-98738094D02*
X126841247Y-98785713D01*
X126841247Y-98785713D02*
X126698390Y-98785713D01*
X126698390Y-98785713D02*
X126507914Y-98738094D01*
X126507914Y-98738094D02*
X126412676Y-98690475D01*
X126412676Y-98690475D02*
X126317438Y-98595237D01*
X126317438Y-98595237D02*
X126269819Y-98452380D01*
X126269819Y-98452380D02*
X126269819Y-98357142D01*
X126269819Y-98357142D02*
X126317438Y-98214285D01*
X126317438Y-98214285D02*
X126365057Y-98166666D01*
X126603152Y-97309523D02*
X127269819Y-97309523D01*
X126222200Y-97547618D02*
X126936485Y-97785713D01*
X126936485Y-97785713D02*
X126936485Y-97166666D01*
X133008333Y-116854819D02*
X132675000Y-116378628D01*
X132436905Y-116854819D02*
X132436905Y-115854819D01*
X132436905Y-115854819D02*
X132817857Y-115854819D01*
X132817857Y-115854819D02*
X132913095Y-115902438D01*
X132913095Y-115902438D02*
X132960714Y-115950057D01*
X132960714Y-115950057D02*
X133008333Y-116045295D01*
X133008333Y-116045295D02*
X133008333Y-116188152D01*
X133008333Y-116188152D02*
X132960714Y-116283390D01*
X132960714Y-116283390D02*
X132913095Y-116331009D01*
X132913095Y-116331009D02*
X132817857Y-116378628D01*
X132817857Y-116378628D02*
X132436905Y-116378628D01*
X133913095Y-115854819D02*
X133436905Y-115854819D01*
X133436905Y-115854819D02*
X133389286Y-116331009D01*
X133389286Y-116331009D02*
X133436905Y-116283390D01*
X133436905Y-116283390D02*
X133532143Y-116235771D01*
X133532143Y-116235771D02*
X133770238Y-116235771D01*
X133770238Y-116235771D02*
X133865476Y-116283390D01*
X133865476Y-116283390D02*
X133913095Y-116331009D01*
X133913095Y-116331009D02*
X133960714Y-116426247D01*
X133960714Y-116426247D02*
X133960714Y-116664342D01*
X133960714Y-116664342D02*
X133913095Y-116759580D01*
X133913095Y-116759580D02*
X133865476Y-116807200D01*
X133865476Y-116807200D02*
X133770238Y-116854819D01*
X133770238Y-116854819D02*
X133532143Y-116854819D01*
X133532143Y-116854819D02*
X133436905Y-116807200D01*
X133436905Y-116807200D02*
X133389286Y-116759580D01*
X147208333Y-100859580D02*
X147160714Y-100907200D01*
X147160714Y-100907200D02*
X147017857Y-100954819D01*
X147017857Y-100954819D02*
X146922619Y-100954819D01*
X146922619Y-100954819D02*
X146779762Y-100907200D01*
X146779762Y-100907200D02*
X146684524Y-100811961D01*
X146684524Y-100811961D02*
X146636905Y-100716723D01*
X146636905Y-100716723D02*
X146589286Y-100526247D01*
X146589286Y-100526247D02*
X146589286Y-100383390D01*
X146589286Y-100383390D02*
X146636905Y-100192914D01*
X146636905Y-100192914D02*
X146684524Y-100097676D01*
X146684524Y-100097676D02*
X146779762Y-100002438D01*
X146779762Y-100002438D02*
X146922619Y-99954819D01*
X146922619Y-99954819D02*
X147017857Y-99954819D01*
X147017857Y-99954819D02*
X147160714Y-100002438D01*
X147160714Y-100002438D02*
X147208333Y-100050057D01*
X147684524Y-100954819D02*
X147875000Y-100954819D01*
X147875000Y-100954819D02*
X147970238Y-100907200D01*
X147970238Y-100907200D02*
X148017857Y-100859580D01*
X148017857Y-100859580D02*
X148113095Y-100716723D01*
X148113095Y-100716723D02*
X148160714Y-100526247D01*
X148160714Y-100526247D02*
X148160714Y-100145295D01*
X148160714Y-100145295D02*
X148113095Y-100050057D01*
X148113095Y-100050057D02*
X148065476Y-100002438D01*
X148065476Y-100002438D02*
X147970238Y-99954819D01*
X147970238Y-99954819D02*
X147779762Y-99954819D01*
X147779762Y-99954819D02*
X147684524Y-100002438D01*
X147684524Y-100002438D02*
X147636905Y-100050057D01*
X147636905Y-100050057D02*
X147589286Y-100145295D01*
X147589286Y-100145295D02*
X147589286Y-100383390D01*
X147589286Y-100383390D02*
X147636905Y-100478628D01*
X147636905Y-100478628D02*
X147684524Y-100526247D01*
X147684524Y-100526247D02*
X147779762Y-100573866D01*
X147779762Y-100573866D02*
X147970238Y-100573866D01*
X147970238Y-100573866D02*
X148065476Y-100526247D01*
X148065476Y-100526247D02*
X148113095Y-100478628D01*
X148113095Y-100478628D02*
X148160714Y-100383390D01*
X128206009Y-99133333D02*
X128206009Y-99466666D01*
X128729819Y-99466666D02*
X127729819Y-99466666D01*
X127729819Y-99466666D02*
X127729819Y-98990476D01*
X128206009Y-98276190D02*
X128253628Y-98133333D01*
X128253628Y-98133333D02*
X128301247Y-98085714D01*
X128301247Y-98085714D02*
X128396485Y-98038095D01*
X128396485Y-98038095D02*
X128539342Y-98038095D01*
X128539342Y-98038095D02*
X128634580Y-98085714D01*
X128634580Y-98085714D02*
X128682200Y-98133333D01*
X128682200Y-98133333D02*
X128729819Y-98228571D01*
X128729819Y-98228571D02*
X128729819Y-98609523D01*
X128729819Y-98609523D02*
X127729819Y-98609523D01*
X127729819Y-98609523D02*
X127729819Y-98276190D01*
X127729819Y-98276190D02*
X127777438Y-98180952D01*
X127777438Y-98180952D02*
X127825057Y-98133333D01*
X127825057Y-98133333D02*
X127920295Y-98085714D01*
X127920295Y-98085714D02*
X128015533Y-98085714D01*
X128015533Y-98085714D02*
X128110771Y-98133333D01*
X128110771Y-98133333D02*
X128158390Y-98180952D01*
X128158390Y-98180952D02*
X128206009Y-98276190D01*
X128206009Y-98276190D02*
X128206009Y-98609523D01*
X127825057Y-97657142D02*
X127777438Y-97609523D01*
X127777438Y-97609523D02*
X127729819Y-97514285D01*
X127729819Y-97514285D02*
X127729819Y-97276190D01*
X127729819Y-97276190D02*
X127777438Y-97180952D01*
X127777438Y-97180952D02*
X127825057Y-97133333D01*
X127825057Y-97133333D02*
X127920295Y-97085714D01*
X127920295Y-97085714D02*
X128015533Y-97085714D01*
X128015533Y-97085714D02*
X128158390Y-97133333D01*
X128158390Y-97133333D02*
X128729819Y-97704761D01*
X128729819Y-97704761D02*
X128729819Y-97085714D01*
X130134580Y-98166666D02*
X130182200Y-98214285D01*
X130182200Y-98214285D02*
X130229819Y-98357142D01*
X130229819Y-98357142D02*
X130229819Y-98452380D01*
X130229819Y-98452380D02*
X130182200Y-98595237D01*
X130182200Y-98595237D02*
X130086961Y-98690475D01*
X130086961Y-98690475D02*
X129991723Y-98738094D01*
X129991723Y-98738094D02*
X129801247Y-98785713D01*
X129801247Y-98785713D02*
X129658390Y-98785713D01*
X129658390Y-98785713D02*
X129467914Y-98738094D01*
X129467914Y-98738094D02*
X129372676Y-98690475D01*
X129372676Y-98690475D02*
X129277438Y-98595237D01*
X129277438Y-98595237D02*
X129229819Y-98452380D01*
X129229819Y-98452380D02*
X129229819Y-98357142D01*
X129229819Y-98357142D02*
X129277438Y-98214285D01*
X129277438Y-98214285D02*
X129325057Y-98166666D01*
X129229819Y-97261904D02*
X129229819Y-97738094D01*
X129229819Y-97738094D02*
X129706009Y-97785713D01*
X129706009Y-97785713D02*
X129658390Y-97738094D01*
X129658390Y-97738094D02*
X129610771Y-97642856D01*
X129610771Y-97642856D02*
X129610771Y-97404761D01*
X129610771Y-97404761D02*
X129658390Y-97309523D01*
X129658390Y-97309523D02*
X129706009Y-97261904D01*
X129706009Y-97261904D02*
X129801247Y-97214285D01*
X129801247Y-97214285D02*
X130039342Y-97214285D01*
X130039342Y-97214285D02*
X130134580Y-97261904D01*
X130134580Y-97261904D02*
X130182200Y-97309523D01*
X130182200Y-97309523D02*
X130229819Y-97404761D01*
X130229819Y-97404761D02*
X130229819Y-97642856D01*
X130229819Y-97642856D02*
X130182200Y-97738094D01*
X130182200Y-97738094D02*
X130134580Y-97785713D01*
X148088095Y-118904819D02*
X148659523Y-118904819D01*
X148373809Y-119904819D02*
X148373809Y-118904819D01*
X148992857Y-119904819D02*
X148992857Y-118904819D01*
X148992857Y-118904819D02*
X149373809Y-118904819D01*
X149373809Y-118904819D02*
X149469047Y-118952438D01*
X149469047Y-118952438D02*
X149516666Y-119000057D01*
X149516666Y-119000057D02*
X149564285Y-119095295D01*
X149564285Y-119095295D02*
X149564285Y-119238152D01*
X149564285Y-119238152D02*
X149516666Y-119333390D01*
X149516666Y-119333390D02*
X149469047Y-119381009D01*
X149469047Y-119381009D02*
X149373809Y-119428628D01*
X149373809Y-119428628D02*
X148992857Y-119428628D01*
X149945238Y-119000057D02*
X149992857Y-118952438D01*
X149992857Y-118952438D02*
X150088095Y-118904819D01*
X150088095Y-118904819D02*
X150326190Y-118904819D01*
X150326190Y-118904819D02*
X150421428Y-118952438D01*
X150421428Y-118952438D02*
X150469047Y-119000057D01*
X150469047Y-119000057D02*
X150516666Y-119095295D01*
X150516666Y-119095295D02*
X150516666Y-119190533D01*
X150516666Y-119190533D02*
X150469047Y-119333390D01*
X150469047Y-119333390D02*
X149897619Y-119904819D01*
X149897619Y-119904819D02*
X150516666Y-119904819D01*
X151488095Y-100054819D02*
X152059523Y-100054819D01*
X151773809Y-101054819D02*
X151773809Y-100054819D01*
X152392857Y-101054819D02*
X152392857Y-100054819D01*
X152392857Y-100054819D02*
X152773809Y-100054819D01*
X152773809Y-100054819D02*
X152869047Y-100102438D01*
X152869047Y-100102438D02*
X152916666Y-100150057D01*
X152916666Y-100150057D02*
X152964285Y-100245295D01*
X152964285Y-100245295D02*
X152964285Y-100388152D01*
X152964285Y-100388152D02*
X152916666Y-100483390D01*
X152916666Y-100483390D02*
X152869047Y-100531009D01*
X152869047Y-100531009D02*
X152773809Y-100578628D01*
X152773809Y-100578628D02*
X152392857Y-100578628D01*
X153916666Y-101054819D02*
X153345238Y-101054819D01*
X153630952Y-101054819D02*
X153630952Y-100054819D01*
X153630952Y-100054819D02*
X153535714Y-100197676D01*
X153535714Y-100197676D02*
X153440476Y-100292914D01*
X153440476Y-100292914D02*
X153345238Y-100340533D01*
X149938095Y-109154819D02*
X150509523Y-109154819D01*
X150223809Y-110154819D02*
X150223809Y-109154819D01*
X151414285Y-110154819D02*
X151080952Y-109678628D01*
X150842857Y-110154819D02*
X150842857Y-109154819D01*
X150842857Y-109154819D02*
X151223809Y-109154819D01*
X151223809Y-109154819D02*
X151319047Y-109202438D01*
X151319047Y-109202438D02*
X151366666Y-109250057D01*
X151366666Y-109250057D02*
X151414285Y-109345295D01*
X151414285Y-109345295D02*
X151414285Y-109488152D01*
X151414285Y-109488152D02*
X151366666Y-109583390D01*
X151366666Y-109583390D02*
X151319047Y-109631009D01*
X151319047Y-109631009D02*
X151223809Y-109678628D01*
X151223809Y-109678628D02*
X150842857Y-109678628D01*
X152366666Y-110154819D02*
X151795238Y-110154819D01*
X152080952Y-110154819D02*
X152080952Y-109154819D01*
X152080952Y-109154819D02*
X151985714Y-109297676D01*
X151985714Y-109297676D02*
X151890476Y-109392914D01*
X151890476Y-109392914D02*
X151795238Y-109440533D01*
X141508333Y-96559580D02*
X141460714Y-96607200D01*
X141460714Y-96607200D02*
X141317857Y-96654819D01*
X141317857Y-96654819D02*
X141222619Y-96654819D01*
X141222619Y-96654819D02*
X141079762Y-96607200D01*
X141079762Y-96607200D02*
X140984524Y-96511961D01*
X140984524Y-96511961D02*
X140936905Y-96416723D01*
X140936905Y-96416723D02*
X140889286Y-96226247D01*
X140889286Y-96226247D02*
X140889286Y-96083390D01*
X140889286Y-96083390D02*
X140936905Y-95892914D01*
X140936905Y-95892914D02*
X140984524Y-95797676D01*
X140984524Y-95797676D02*
X141079762Y-95702438D01*
X141079762Y-95702438D02*
X141222619Y-95654819D01*
X141222619Y-95654819D02*
X141317857Y-95654819D01*
X141317857Y-95654819D02*
X141460714Y-95702438D01*
X141460714Y-95702438D02*
X141508333Y-95750057D01*
X142365476Y-95654819D02*
X142175000Y-95654819D01*
X142175000Y-95654819D02*
X142079762Y-95702438D01*
X142079762Y-95702438D02*
X142032143Y-95750057D01*
X142032143Y-95750057D02*
X141936905Y-95892914D01*
X141936905Y-95892914D02*
X141889286Y-96083390D01*
X141889286Y-96083390D02*
X141889286Y-96464342D01*
X141889286Y-96464342D02*
X141936905Y-96559580D01*
X141936905Y-96559580D02*
X141984524Y-96607200D01*
X141984524Y-96607200D02*
X142079762Y-96654819D01*
X142079762Y-96654819D02*
X142270238Y-96654819D01*
X142270238Y-96654819D02*
X142365476Y-96607200D01*
X142365476Y-96607200D02*
X142413095Y-96559580D01*
X142413095Y-96559580D02*
X142460714Y-96464342D01*
X142460714Y-96464342D02*
X142460714Y-96226247D01*
X142460714Y-96226247D02*
X142413095Y-96131009D01*
X142413095Y-96131009D02*
X142365476Y-96083390D01*
X142365476Y-96083390D02*
X142270238Y-96035771D01*
X142270238Y-96035771D02*
X142079762Y-96035771D01*
X142079762Y-96035771D02*
X141984524Y-96083390D01*
X141984524Y-96083390D02*
X141936905Y-96131009D01*
X141936905Y-96131009D02*
X141889286Y-96226247D01*
X125729819Y-98166666D02*
X125253628Y-98499999D01*
X125729819Y-98738094D02*
X124729819Y-98738094D01*
X124729819Y-98738094D02*
X124729819Y-98357142D01*
X124729819Y-98357142D02*
X124777438Y-98261904D01*
X124777438Y-98261904D02*
X124825057Y-98214285D01*
X124825057Y-98214285D02*
X124920295Y-98166666D01*
X124920295Y-98166666D02*
X125063152Y-98166666D01*
X125063152Y-98166666D02*
X125158390Y-98214285D01*
X125158390Y-98214285D02*
X125206009Y-98261904D01*
X125206009Y-98261904D02*
X125253628Y-98357142D01*
X125253628Y-98357142D02*
X125253628Y-98738094D01*
X125158390Y-97595237D02*
X125110771Y-97690475D01*
X125110771Y-97690475D02*
X125063152Y-97738094D01*
X125063152Y-97738094D02*
X124967914Y-97785713D01*
X124967914Y-97785713D02*
X124920295Y-97785713D01*
X124920295Y-97785713D02*
X124825057Y-97738094D01*
X124825057Y-97738094D02*
X124777438Y-97690475D01*
X124777438Y-97690475D02*
X124729819Y-97595237D01*
X124729819Y-97595237D02*
X124729819Y-97404761D01*
X124729819Y-97404761D02*
X124777438Y-97309523D01*
X124777438Y-97309523D02*
X124825057Y-97261904D01*
X124825057Y-97261904D02*
X124920295Y-97214285D01*
X124920295Y-97214285D02*
X124967914Y-97214285D01*
X124967914Y-97214285D02*
X125063152Y-97261904D01*
X125063152Y-97261904D02*
X125110771Y-97309523D01*
X125110771Y-97309523D02*
X125158390Y-97404761D01*
X125158390Y-97404761D02*
X125158390Y-97595237D01*
X125158390Y-97595237D02*
X125206009Y-97690475D01*
X125206009Y-97690475D02*
X125253628Y-97738094D01*
X125253628Y-97738094D02*
X125348866Y-97785713D01*
X125348866Y-97785713D02*
X125539342Y-97785713D01*
X125539342Y-97785713D02*
X125634580Y-97738094D01*
X125634580Y-97738094D02*
X125682200Y-97690475D01*
X125682200Y-97690475D02*
X125729819Y-97595237D01*
X125729819Y-97595237D02*
X125729819Y-97404761D01*
X125729819Y-97404761D02*
X125682200Y-97309523D01*
X125682200Y-97309523D02*
X125634580Y-97261904D01*
X125634580Y-97261904D02*
X125539342Y-97214285D01*
X125539342Y-97214285D02*
X125348866Y-97214285D01*
X125348866Y-97214285D02*
X125253628Y-97261904D01*
X125253628Y-97261904D02*
X125206009Y-97309523D01*
X125206009Y-97309523D02*
X125158390Y-97404761D01*
X144629819Y-104666666D02*
X144153628Y-104999999D01*
X144629819Y-105238094D02*
X143629819Y-105238094D01*
X143629819Y-105238094D02*
X143629819Y-104857142D01*
X143629819Y-104857142D02*
X143677438Y-104761904D01*
X143677438Y-104761904D02*
X143725057Y-104714285D01*
X143725057Y-104714285D02*
X143820295Y-104666666D01*
X143820295Y-104666666D02*
X143963152Y-104666666D01*
X143963152Y-104666666D02*
X144058390Y-104714285D01*
X144058390Y-104714285D02*
X144106009Y-104761904D01*
X144106009Y-104761904D02*
X144153628Y-104857142D01*
X144153628Y-104857142D02*
X144153628Y-105238094D01*
X143725057Y-104285713D02*
X143677438Y-104238094D01*
X143677438Y-104238094D02*
X143629819Y-104142856D01*
X143629819Y-104142856D02*
X143629819Y-103904761D01*
X143629819Y-103904761D02*
X143677438Y-103809523D01*
X143677438Y-103809523D02*
X143725057Y-103761904D01*
X143725057Y-103761904D02*
X143820295Y-103714285D01*
X143820295Y-103714285D02*
X143915533Y-103714285D01*
X143915533Y-103714285D02*
X144058390Y-103761904D01*
X144058390Y-103761904D02*
X144629819Y-104333332D01*
X144629819Y-104333332D02*
X144629819Y-103714285D01*
X139608333Y-119654819D02*
X139275000Y-119178628D01*
X139036905Y-119654819D02*
X139036905Y-118654819D01*
X139036905Y-118654819D02*
X139417857Y-118654819D01*
X139417857Y-118654819D02*
X139513095Y-118702438D01*
X139513095Y-118702438D02*
X139560714Y-118750057D01*
X139560714Y-118750057D02*
X139608333Y-118845295D01*
X139608333Y-118845295D02*
X139608333Y-118988152D01*
X139608333Y-118988152D02*
X139560714Y-119083390D01*
X139560714Y-119083390D02*
X139513095Y-119131009D01*
X139513095Y-119131009D02*
X139417857Y-119178628D01*
X139417857Y-119178628D02*
X139036905Y-119178628D01*
X140465476Y-118988152D02*
X140465476Y-119654819D01*
X140227381Y-118607200D02*
X139989286Y-119321485D01*
X139989286Y-119321485D02*
X140608333Y-119321485D01*
X144529819Y-115666666D02*
X144053628Y-115999999D01*
X144529819Y-116238094D02*
X143529819Y-116238094D01*
X143529819Y-116238094D02*
X143529819Y-115857142D01*
X143529819Y-115857142D02*
X143577438Y-115761904D01*
X143577438Y-115761904D02*
X143625057Y-115714285D01*
X143625057Y-115714285D02*
X143720295Y-115666666D01*
X143720295Y-115666666D02*
X143863152Y-115666666D01*
X143863152Y-115666666D02*
X143958390Y-115714285D01*
X143958390Y-115714285D02*
X144006009Y-115761904D01*
X144006009Y-115761904D02*
X144053628Y-115857142D01*
X144053628Y-115857142D02*
X144053628Y-116238094D01*
X143529819Y-114809523D02*
X143529819Y-114999999D01*
X143529819Y-114999999D02*
X143577438Y-115095237D01*
X143577438Y-115095237D02*
X143625057Y-115142856D01*
X143625057Y-115142856D02*
X143767914Y-115238094D01*
X143767914Y-115238094D02*
X143958390Y-115285713D01*
X143958390Y-115285713D02*
X144339342Y-115285713D01*
X144339342Y-115285713D02*
X144434580Y-115238094D01*
X144434580Y-115238094D02*
X144482200Y-115190475D01*
X144482200Y-115190475D02*
X144529819Y-115095237D01*
X144529819Y-115095237D02*
X144529819Y-114904761D01*
X144529819Y-114904761D02*
X144482200Y-114809523D01*
X144482200Y-114809523D02*
X144434580Y-114761904D01*
X144434580Y-114761904D02*
X144339342Y-114714285D01*
X144339342Y-114714285D02*
X144101247Y-114714285D01*
X144101247Y-114714285D02*
X144006009Y-114761904D01*
X144006009Y-114761904D02*
X143958390Y-114809523D01*
X143958390Y-114809523D02*
X143910771Y-114904761D01*
X143910771Y-114904761D02*
X143910771Y-115095237D01*
X143910771Y-115095237D02*
X143958390Y-115190475D01*
X143958390Y-115190475D02*
X144006009Y-115238094D01*
X144006009Y-115238094D02*
X144101247Y-115285713D01*
D14*
X131541666Y-79054663D02*
X131541666Y-79768948D01*
X131541666Y-79768948D02*
X131494047Y-79911805D01*
X131494047Y-79911805D02*
X131398809Y-80007044D01*
X131398809Y-80007044D02*
X131255952Y-80054663D01*
X131255952Y-80054663D02*
X131160714Y-80054663D01*
X132017857Y-80054663D02*
X132017857Y-79054663D01*
X132017857Y-79054663D02*
X132398809Y-79054663D01*
X132398809Y-79054663D02*
X132494047Y-79102282D01*
X132494047Y-79102282D02*
X132541666Y-79149901D01*
X132541666Y-79149901D02*
X132589285Y-79245139D01*
X132589285Y-79245139D02*
X132589285Y-79387996D01*
X132589285Y-79387996D02*
X132541666Y-79483234D01*
X132541666Y-79483234D02*
X132494047Y-79530853D01*
X132494047Y-79530853D02*
X132398809Y-79578472D01*
X132398809Y-79578472D02*
X132017857Y-79578472D01*
X132922619Y-79054663D02*
X133541666Y-79054663D01*
X133541666Y-79054663D02*
X133208333Y-79435615D01*
X133208333Y-79435615D02*
X133351190Y-79435615D01*
X133351190Y-79435615D02*
X133446428Y-79483234D01*
X133446428Y-79483234D02*
X133494047Y-79530853D01*
X133494047Y-79530853D02*
X133541666Y-79626091D01*
X133541666Y-79626091D02*
X133541666Y-79864186D01*
X133541666Y-79864186D02*
X133494047Y-79959424D01*
X133494047Y-79959424D02*
X133446428Y-80007044D01*
X133446428Y-80007044D02*
X133351190Y-80054663D01*
X133351190Y-80054663D02*
X133065476Y-80054663D01*
X133065476Y-80054663D02*
X132970238Y-80007044D01*
X132970238Y-80007044D02*
X132922619Y-79959424D01*
D13*
X132706009Y-96233333D02*
X132706009Y-96566666D01*
X133229819Y-96566666D02*
X132229819Y-96566666D01*
X132229819Y-96566666D02*
X132229819Y-96090476D01*
X132706009Y-95376190D02*
X132753628Y-95233333D01*
X132753628Y-95233333D02*
X132801247Y-95185714D01*
X132801247Y-95185714D02*
X132896485Y-95138095D01*
X132896485Y-95138095D02*
X133039342Y-95138095D01*
X133039342Y-95138095D02*
X133134580Y-95185714D01*
X133134580Y-95185714D02*
X133182200Y-95233333D01*
X133182200Y-95233333D02*
X133229819Y-95328571D01*
X133229819Y-95328571D02*
X133229819Y-95709523D01*
X133229819Y-95709523D02*
X132229819Y-95709523D01*
X132229819Y-95709523D02*
X132229819Y-95376190D01*
X132229819Y-95376190D02*
X132277438Y-95280952D01*
X132277438Y-95280952D02*
X132325057Y-95233333D01*
X132325057Y-95233333D02*
X132420295Y-95185714D01*
X132420295Y-95185714D02*
X132515533Y-95185714D01*
X132515533Y-95185714D02*
X132610771Y-95233333D01*
X132610771Y-95233333D02*
X132658390Y-95280952D01*
X132658390Y-95280952D02*
X132706009Y-95376190D01*
X132706009Y-95376190D02*
X132706009Y-95709523D01*
X133229819Y-94185714D02*
X133229819Y-94757142D01*
X133229819Y-94471428D02*
X132229819Y-94471428D01*
X132229819Y-94471428D02*
X132372676Y-94566666D01*
X132372676Y-94566666D02*
X132467914Y-94661904D01*
X132467914Y-94661904D02*
X132515533Y-94757142D01*
X144232142Y-99359580D02*
X144184523Y-99407200D01*
X144184523Y-99407200D02*
X144041666Y-99454819D01*
X144041666Y-99454819D02*
X143946428Y-99454819D01*
X143946428Y-99454819D02*
X143803571Y-99407200D01*
X143803571Y-99407200D02*
X143708333Y-99311961D01*
X143708333Y-99311961D02*
X143660714Y-99216723D01*
X143660714Y-99216723D02*
X143613095Y-99026247D01*
X143613095Y-99026247D02*
X143613095Y-98883390D01*
X143613095Y-98883390D02*
X143660714Y-98692914D01*
X143660714Y-98692914D02*
X143708333Y-98597676D01*
X143708333Y-98597676D02*
X143803571Y-98502438D01*
X143803571Y-98502438D02*
X143946428Y-98454819D01*
X143946428Y-98454819D02*
X144041666Y-98454819D01*
X144041666Y-98454819D02*
X144184523Y-98502438D01*
X144184523Y-98502438D02*
X144232142Y-98550057D01*
X145184523Y-99454819D02*
X144613095Y-99454819D01*
X144898809Y-99454819D02*
X144898809Y-98454819D01*
X144898809Y-98454819D02*
X144803571Y-98597676D01*
X144803571Y-98597676D02*
X144708333Y-98692914D01*
X144708333Y-98692914D02*
X144613095Y-98740533D01*
X145803571Y-98454819D02*
X145898809Y-98454819D01*
X145898809Y-98454819D02*
X145994047Y-98502438D01*
X145994047Y-98502438D02*
X146041666Y-98550057D01*
X146041666Y-98550057D02*
X146089285Y-98645295D01*
X146089285Y-98645295D02*
X146136904Y-98835771D01*
X146136904Y-98835771D02*
X146136904Y-99073866D01*
X146136904Y-99073866D02*
X146089285Y-99264342D01*
X146089285Y-99264342D02*
X146041666Y-99359580D01*
X146041666Y-99359580D02*
X145994047Y-99407200D01*
X145994047Y-99407200D02*
X145898809Y-99454819D01*
X145898809Y-99454819D02*
X145803571Y-99454819D01*
X145803571Y-99454819D02*
X145708333Y-99407200D01*
X145708333Y-99407200D02*
X145660714Y-99359580D01*
X145660714Y-99359580D02*
X145613095Y-99264342D01*
X145613095Y-99264342D02*
X145565476Y-99073866D01*
X145565476Y-99073866D02*
X145565476Y-98835771D01*
X145565476Y-98835771D02*
X145613095Y-98645295D01*
X145613095Y-98645295D02*
X145660714Y-98550057D01*
X145660714Y-98550057D02*
X145708333Y-98502438D01*
X145708333Y-98502438D02*
X145803571Y-98454819D01*
X141241666Y-120754819D02*
X141241666Y-121469104D01*
X141241666Y-121469104D02*
X141194047Y-121611961D01*
X141194047Y-121611961D02*
X141098809Y-121707200D01*
X141098809Y-121707200D02*
X140955952Y-121754819D01*
X140955952Y-121754819D02*
X140860714Y-121754819D01*
X141717857Y-121754819D02*
X141717857Y-120754819D01*
X141717857Y-120754819D02*
X142098809Y-120754819D01*
X142098809Y-120754819D02*
X142194047Y-120802438D01*
X142194047Y-120802438D02*
X142241666Y-120850057D01*
X142241666Y-120850057D02*
X142289285Y-120945295D01*
X142289285Y-120945295D02*
X142289285Y-121088152D01*
X142289285Y-121088152D02*
X142241666Y-121183390D01*
X142241666Y-121183390D02*
X142194047Y-121231009D01*
X142194047Y-121231009D02*
X142098809Y-121278628D01*
X142098809Y-121278628D02*
X141717857Y-121278628D01*
X143241666Y-121754819D02*
X142670238Y-121754819D01*
X142955952Y-121754819D02*
X142955952Y-120754819D01*
X142955952Y-120754819D02*
X142860714Y-120897676D01*
X142860714Y-120897676D02*
X142765476Y-120992914D01*
X142765476Y-120992914D02*
X142670238Y-121040533D01*
X144232142Y-100859580D02*
X144184523Y-100907200D01*
X144184523Y-100907200D02*
X144041666Y-100954819D01*
X144041666Y-100954819D02*
X143946428Y-100954819D01*
X143946428Y-100954819D02*
X143803571Y-100907200D01*
X143803571Y-100907200D02*
X143708333Y-100811961D01*
X143708333Y-100811961D02*
X143660714Y-100716723D01*
X143660714Y-100716723D02*
X143613095Y-100526247D01*
X143613095Y-100526247D02*
X143613095Y-100383390D01*
X143613095Y-100383390D02*
X143660714Y-100192914D01*
X143660714Y-100192914D02*
X143708333Y-100097676D01*
X143708333Y-100097676D02*
X143803571Y-100002438D01*
X143803571Y-100002438D02*
X143946428Y-99954819D01*
X143946428Y-99954819D02*
X144041666Y-99954819D01*
X144041666Y-99954819D02*
X144184523Y-100002438D01*
X144184523Y-100002438D02*
X144232142Y-100050057D01*
X145184523Y-100954819D02*
X144613095Y-100954819D01*
X144898809Y-100954819D02*
X144898809Y-99954819D01*
X144898809Y-99954819D02*
X144803571Y-100097676D01*
X144803571Y-100097676D02*
X144708333Y-100192914D01*
X144708333Y-100192914D02*
X144613095Y-100240533D01*
X146136904Y-100954819D02*
X145565476Y-100954819D01*
X145851190Y-100954819D02*
X145851190Y-99954819D01*
X145851190Y-99954819D02*
X145755952Y-100097676D01*
X145755952Y-100097676D02*
X145660714Y-100192914D01*
X145660714Y-100192914D02*
X145565476Y-100240533D01*
X147208333Y-99359580D02*
X147160714Y-99407200D01*
X147160714Y-99407200D02*
X147017857Y-99454819D01*
X147017857Y-99454819D02*
X146922619Y-99454819D01*
X146922619Y-99454819D02*
X146779762Y-99407200D01*
X146779762Y-99407200D02*
X146684524Y-99311961D01*
X146684524Y-99311961D02*
X146636905Y-99216723D01*
X146636905Y-99216723D02*
X146589286Y-99026247D01*
X146589286Y-99026247D02*
X146589286Y-98883390D01*
X146589286Y-98883390D02*
X146636905Y-98692914D01*
X146636905Y-98692914D02*
X146684524Y-98597676D01*
X146684524Y-98597676D02*
X146779762Y-98502438D01*
X146779762Y-98502438D02*
X146922619Y-98454819D01*
X146922619Y-98454819D02*
X147017857Y-98454819D01*
X147017857Y-98454819D02*
X147160714Y-98502438D01*
X147160714Y-98502438D02*
X147208333Y-98550057D01*
X147541667Y-98454819D02*
X148208333Y-98454819D01*
X148208333Y-98454819D02*
X147779762Y-99454819D01*
X124029819Y-99038094D02*
X123029819Y-99038094D01*
X123029819Y-99038094D02*
X123029819Y-98799999D01*
X123029819Y-98799999D02*
X123077438Y-98657142D01*
X123077438Y-98657142D02*
X123172676Y-98561904D01*
X123172676Y-98561904D02*
X123267914Y-98514285D01*
X123267914Y-98514285D02*
X123458390Y-98466666D01*
X123458390Y-98466666D02*
X123601247Y-98466666D01*
X123601247Y-98466666D02*
X123791723Y-98514285D01*
X123791723Y-98514285D02*
X123886961Y-98561904D01*
X123886961Y-98561904D02*
X123982200Y-98657142D01*
X123982200Y-98657142D02*
X124029819Y-98799999D01*
X124029819Y-98799999D02*
X124029819Y-99038094D01*
X124029819Y-97514285D02*
X124029819Y-98085713D01*
X124029819Y-97799999D02*
X123029819Y-97799999D01*
X123029819Y-97799999D02*
X123172676Y-97895237D01*
X123172676Y-97895237D02*
X123267914Y-97990475D01*
X123267914Y-97990475D02*
X123315533Y-98085713D01*
X142929819Y-112766666D02*
X142453628Y-113099999D01*
X142929819Y-113338094D02*
X141929819Y-113338094D01*
X141929819Y-113338094D02*
X141929819Y-112957142D01*
X141929819Y-112957142D02*
X141977438Y-112861904D01*
X141977438Y-112861904D02*
X142025057Y-112814285D01*
X142025057Y-112814285D02*
X142120295Y-112766666D01*
X142120295Y-112766666D02*
X142263152Y-112766666D01*
X142263152Y-112766666D02*
X142358390Y-112814285D01*
X142358390Y-112814285D02*
X142406009Y-112861904D01*
X142406009Y-112861904D02*
X142453628Y-112957142D01*
X142453628Y-112957142D02*
X142453628Y-113338094D01*
X141929819Y-112433332D02*
X141929819Y-111766666D01*
X141929819Y-111766666D02*
X142929819Y-112195237D01*
X136513095Y-109554819D02*
X136513095Y-110364342D01*
X136513095Y-110364342D02*
X136560714Y-110459580D01*
X136560714Y-110459580D02*
X136608333Y-110507200D01*
X136608333Y-110507200D02*
X136703571Y-110554819D01*
X136703571Y-110554819D02*
X136894047Y-110554819D01*
X136894047Y-110554819D02*
X136989285Y-110507200D01*
X136989285Y-110507200D02*
X137036904Y-110459580D01*
X137036904Y-110459580D02*
X137084523Y-110364342D01*
X137084523Y-110364342D02*
X137084523Y-109554819D01*
X138084523Y-110554819D02*
X137513095Y-110554819D01*
X137798809Y-110554819D02*
X137798809Y-109554819D01*
X137798809Y-109554819D02*
X137703571Y-109697676D01*
X137703571Y-109697676D02*
X137608333Y-109792914D01*
X137608333Y-109792914D02*
X137513095Y-109840533D01*
X136634580Y-90905357D02*
X136682200Y-90952976D01*
X136682200Y-90952976D02*
X136729819Y-91095833D01*
X136729819Y-91095833D02*
X136729819Y-91191071D01*
X136729819Y-91191071D02*
X136682200Y-91333928D01*
X136682200Y-91333928D02*
X136586961Y-91429166D01*
X136586961Y-91429166D02*
X136491723Y-91476785D01*
X136491723Y-91476785D02*
X136301247Y-91524404D01*
X136301247Y-91524404D02*
X136158390Y-91524404D01*
X136158390Y-91524404D02*
X135967914Y-91476785D01*
X135967914Y-91476785D02*
X135872676Y-91429166D01*
X135872676Y-91429166D02*
X135777438Y-91333928D01*
X135777438Y-91333928D02*
X135729819Y-91191071D01*
X135729819Y-91191071D02*
X135729819Y-91095833D01*
X135729819Y-91095833D02*
X135777438Y-90952976D01*
X135777438Y-90952976D02*
X135825057Y-90905357D01*
X136729819Y-89952976D02*
X136729819Y-90524404D01*
X136729819Y-90238690D02*
X135729819Y-90238690D01*
X135729819Y-90238690D02*
X135872676Y-90333928D01*
X135872676Y-90333928D02*
X135967914Y-90429166D01*
X135967914Y-90429166D02*
X136015533Y-90524404D01*
X136063152Y-89095833D02*
X136729819Y-89095833D01*
X135682200Y-89333928D02*
X136396485Y-89572023D01*
X136396485Y-89572023D02*
X136396485Y-88952976D01*
X135408333Y-119559580D02*
X135360714Y-119607200D01*
X135360714Y-119607200D02*
X135217857Y-119654819D01*
X135217857Y-119654819D02*
X135122619Y-119654819D01*
X135122619Y-119654819D02*
X134979762Y-119607200D01*
X134979762Y-119607200D02*
X134884524Y-119511961D01*
X134884524Y-119511961D02*
X134836905Y-119416723D01*
X134836905Y-119416723D02*
X134789286Y-119226247D01*
X134789286Y-119226247D02*
X134789286Y-119083390D01*
X134789286Y-119083390D02*
X134836905Y-118892914D01*
X134836905Y-118892914D02*
X134884524Y-118797676D01*
X134884524Y-118797676D02*
X134979762Y-118702438D01*
X134979762Y-118702438D02*
X135122619Y-118654819D01*
X135122619Y-118654819D02*
X135217857Y-118654819D01*
X135217857Y-118654819D02*
X135360714Y-118702438D01*
X135360714Y-118702438D02*
X135408333Y-118750057D01*
X136360714Y-119654819D02*
X135789286Y-119654819D01*
X136075000Y-119654819D02*
X136075000Y-118654819D01*
X136075000Y-118654819D02*
X135979762Y-118797676D01*
X135979762Y-118797676D02*
X135884524Y-118892914D01*
X135884524Y-118892914D02*
X135789286Y-118940533D01*
X130809819Y-88353333D02*
X131524104Y-88353333D01*
X131524104Y-88353333D02*
X131666961Y-88400952D01*
X131666961Y-88400952D02*
X131762200Y-88496190D01*
X131762200Y-88496190D02*
X131809819Y-88639047D01*
X131809819Y-88639047D02*
X131809819Y-88734285D01*
X131143152Y-87448571D02*
X131809819Y-87448571D01*
X130762200Y-87686666D02*
X131476485Y-87924761D01*
X131476485Y-87924761D02*
X131476485Y-87305714D01*
X133113095Y-100654819D02*
X133684523Y-100654819D01*
X133398809Y-101654819D02*
X133398809Y-100654819D01*
X134017857Y-101654819D02*
X134017857Y-100654819D01*
X134017857Y-100654819D02*
X134398809Y-100654819D01*
X134398809Y-100654819D02*
X134494047Y-100702438D01*
X134494047Y-100702438D02*
X134541666Y-100750057D01*
X134541666Y-100750057D02*
X134589285Y-100845295D01*
X134589285Y-100845295D02*
X134589285Y-100988152D01*
X134589285Y-100988152D02*
X134541666Y-101083390D01*
X134541666Y-101083390D02*
X134494047Y-101131009D01*
X134494047Y-101131009D02*
X134398809Y-101178628D01*
X134398809Y-101178628D02*
X134017857Y-101178628D01*
X135446428Y-100988152D02*
X135446428Y-101654819D01*
X135208333Y-100607200D02*
X134970238Y-101321485D01*
X134970238Y-101321485D02*
X135589285Y-101321485D01*
X145934580Y-104666666D02*
X145982200Y-104714285D01*
X145982200Y-104714285D02*
X146029819Y-104857142D01*
X146029819Y-104857142D02*
X146029819Y-104952380D01*
X146029819Y-104952380D02*
X145982200Y-105095237D01*
X145982200Y-105095237D02*
X145886961Y-105190475D01*
X145886961Y-105190475D02*
X145791723Y-105238094D01*
X145791723Y-105238094D02*
X145601247Y-105285713D01*
X145601247Y-105285713D02*
X145458390Y-105285713D01*
X145458390Y-105285713D02*
X145267914Y-105238094D01*
X145267914Y-105238094D02*
X145172676Y-105190475D01*
X145172676Y-105190475D02*
X145077438Y-105095237D01*
X145077438Y-105095237D02*
X145029819Y-104952380D01*
X145029819Y-104952380D02*
X145029819Y-104857142D01*
X145029819Y-104857142D02*
X145077438Y-104714285D01*
X145077438Y-104714285D02*
X145125057Y-104666666D01*
X145029819Y-104333332D02*
X145029819Y-103714285D01*
X145029819Y-103714285D02*
X145410771Y-104047618D01*
X145410771Y-104047618D02*
X145410771Y-103904761D01*
X145410771Y-103904761D02*
X145458390Y-103809523D01*
X145458390Y-103809523D02*
X145506009Y-103761904D01*
X145506009Y-103761904D02*
X145601247Y-103714285D01*
X145601247Y-103714285D02*
X145839342Y-103714285D01*
X145839342Y-103714285D02*
X145934580Y-103761904D01*
X145934580Y-103761904D02*
X145982200Y-103809523D01*
X145982200Y-103809523D02*
X146029819Y-103904761D01*
X146029819Y-103904761D02*
X146029819Y-104190475D01*
X146029819Y-104190475D02*
X145982200Y-104285713D01*
X145982200Y-104285713D02*
X145934580Y-104333332D01*
X155288095Y-119504819D02*
X155859523Y-119504819D01*
X155573809Y-120504819D02*
X155573809Y-119504819D01*
X156192857Y-120504819D02*
X156192857Y-119504819D01*
X156192857Y-119504819D02*
X156573809Y-119504819D01*
X156573809Y-119504819D02*
X156669047Y-119552438D01*
X156669047Y-119552438D02*
X156716666Y-119600057D01*
X156716666Y-119600057D02*
X156764285Y-119695295D01*
X156764285Y-119695295D02*
X156764285Y-119838152D01*
X156764285Y-119838152D02*
X156716666Y-119933390D01*
X156716666Y-119933390D02*
X156669047Y-119981009D01*
X156669047Y-119981009D02*
X156573809Y-120028628D01*
X156573809Y-120028628D02*
X156192857Y-120028628D01*
X157097619Y-119504819D02*
X157716666Y-119504819D01*
X157716666Y-119504819D02*
X157383333Y-119885771D01*
X157383333Y-119885771D02*
X157526190Y-119885771D01*
X157526190Y-119885771D02*
X157621428Y-119933390D01*
X157621428Y-119933390D02*
X157669047Y-119981009D01*
X157669047Y-119981009D02*
X157716666Y-120076247D01*
X157716666Y-120076247D02*
X157716666Y-120314342D01*
X157716666Y-120314342D02*
X157669047Y-120409580D01*
X157669047Y-120409580D02*
X157621428Y-120457200D01*
X157621428Y-120457200D02*
X157526190Y-120504819D01*
X157526190Y-120504819D02*
X157240476Y-120504819D01*
X157240476Y-120504819D02*
X157145238Y-120457200D01*
X157145238Y-120457200D02*
X157097619Y-120409580D01*
X146708333Y-92854819D02*
X146375000Y-92378628D01*
X146136905Y-92854819D02*
X146136905Y-91854819D01*
X146136905Y-91854819D02*
X146517857Y-91854819D01*
X146517857Y-91854819D02*
X146613095Y-91902438D01*
X146613095Y-91902438D02*
X146660714Y-91950057D01*
X146660714Y-91950057D02*
X146708333Y-92045295D01*
X146708333Y-92045295D02*
X146708333Y-92188152D01*
X146708333Y-92188152D02*
X146660714Y-92283390D01*
X146660714Y-92283390D02*
X146613095Y-92331009D01*
X146613095Y-92331009D02*
X146517857Y-92378628D01*
X146517857Y-92378628D02*
X146136905Y-92378628D01*
X147660714Y-92854819D02*
X147089286Y-92854819D01*
X147375000Y-92854819D02*
X147375000Y-91854819D01*
X147375000Y-91854819D02*
X147279762Y-91997676D01*
X147279762Y-91997676D02*
X147184524Y-92092914D01*
X147184524Y-92092914D02*
X147089286Y-92140533D01*
X141232142Y-103759580D02*
X141184523Y-103807200D01*
X141184523Y-103807200D02*
X141041666Y-103854819D01*
X141041666Y-103854819D02*
X140946428Y-103854819D01*
X140946428Y-103854819D02*
X140803571Y-103807200D01*
X140803571Y-103807200D02*
X140708333Y-103711961D01*
X140708333Y-103711961D02*
X140660714Y-103616723D01*
X140660714Y-103616723D02*
X140613095Y-103426247D01*
X140613095Y-103426247D02*
X140613095Y-103283390D01*
X140613095Y-103283390D02*
X140660714Y-103092914D01*
X140660714Y-103092914D02*
X140708333Y-102997676D01*
X140708333Y-102997676D02*
X140803571Y-102902438D01*
X140803571Y-102902438D02*
X140946428Y-102854819D01*
X140946428Y-102854819D02*
X141041666Y-102854819D01*
X141041666Y-102854819D02*
X141184523Y-102902438D01*
X141184523Y-102902438D02*
X141232142Y-102950057D01*
X142184523Y-103854819D02*
X141613095Y-103854819D01*
X141898809Y-103854819D02*
X141898809Y-102854819D01*
X141898809Y-102854819D02*
X141803571Y-102997676D01*
X141803571Y-102997676D02*
X141708333Y-103092914D01*
X141708333Y-103092914D02*
X141613095Y-103140533D01*
X142517857Y-102854819D02*
X143136904Y-102854819D01*
X143136904Y-102854819D02*
X142803571Y-103235771D01*
X142803571Y-103235771D02*
X142946428Y-103235771D01*
X142946428Y-103235771D02*
X143041666Y-103283390D01*
X143041666Y-103283390D02*
X143089285Y-103331009D01*
X143089285Y-103331009D02*
X143136904Y-103426247D01*
X143136904Y-103426247D02*
X143136904Y-103664342D01*
X143136904Y-103664342D02*
X143089285Y-103759580D01*
X143089285Y-103759580D02*
X143041666Y-103807200D01*
X143041666Y-103807200D02*
X142946428Y-103854819D01*
X142946428Y-103854819D02*
X142660714Y-103854819D01*
X142660714Y-103854819D02*
X142565476Y-103807200D01*
X142565476Y-103807200D02*
X142517857Y-103759580D01*
X137932142Y-103759580D02*
X137884523Y-103807200D01*
X137884523Y-103807200D02*
X137741666Y-103854819D01*
X137741666Y-103854819D02*
X137646428Y-103854819D01*
X137646428Y-103854819D02*
X137503571Y-103807200D01*
X137503571Y-103807200D02*
X137408333Y-103711961D01*
X137408333Y-103711961D02*
X137360714Y-103616723D01*
X137360714Y-103616723D02*
X137313095Y-103426247D01*
X137313095Y-103426247D02*
X137313095Y-103283390D01*
X137313095Y-103283390D02*
X137360714Y-103092914D01*
X137360714Y-103092914D02*
X137408333Y-102997676D01*
X137408333Y-102997676D02*
X137503571Y-102902438D01*
X137503571Y-102902438D02*
X137646428Y-102854819D01*
X137646428Y-102854819D02*
X137741666Y-102854819D01*
X137741666Y-102854819D02*
X137884523Y-102902438D01*
X137884523Y-102902438D02*
X137932142Y-102950057D01*
X138884523Y-103854819D02*
X138313095Y-103854819D01*
X138598809Y-103854819D02*
X138598809Y-102854819D01*
X138598809Y-102854819D02*
X138503571Y-102997676D01*
X138503571Y-102997676D02*
X138408333Y-103092914D01*
X138408333Y-103092914D02*
X138313095Y-103140533D01*
X139265476Y-102950057D02*
X139313095Y-102902438D01*
X139313095Y-102902438D02*
X139408333Y-102854819D01*
X139408333Y-102854819D02*
X139646428Y-102854819D01*
X139646428Y-102854819D02*
X139741666Y-102902438D01*
X139741666Y-102902438D02*
X139789285Y-102950057D01*
X139789285Y-102950057D02*
X139836904Y-103045295D01*
X139836904Y-103045295D02*
X139836904Y-103140533D01*
X139836904Y-103140533D02*
X139789285Y-103283390D01*
X139789285Y-103283390D02*
X139217857Y-103854819D01*
X139217857Y-103854819D02*
X139836904Y-103854819D01*
X145934580Y-115666666D02*
X145982200Y-115714285D01*
X145982200Y-115714285D02*
X146029819Y-115857142D01*
X146029819Y-115857142D02*
X146029819Y-115952380D01*
X146029819Y-115952380D02*
X145982200Y-116095237D01*
X145982200Y-116095237D02*
X145886961Y-116190475D01*
X145886961Y-116190475D02*
X145791723Y-116238094D01*
X145791723Y-116238094D02*
X145601247Y-116285713D01*
X145601247Y-116285713D02*
X145458390Y-116285713D01*
X145458390Y-116285713D02*
X145267914Y-116238094D01*
X145267914Y-116238094D02*
X145172676Y-116190475D01*
X145172676Y-116190475D02*
X145077438Y-116095237D01*
X145077438Y-116095237D02*
X145029819Y-115952380D01*
X145029819Y-115952380D02*
X145029819Y-115857142D01*
X145029819Y-115857142D02*
X145077438Y-115714285D01*
X145077438Y-115714285D02*
X145125057Y-115666666D01*
X145125057Y-115285713D02*
X145077438Y-115238094D01*
X145077438Y-115238094D02*
X145029819Y-115142856D01*
X145029819Y-115142856D02*
X145029819Y-114904761D01*
X145029819Y-114904761D02*
X145077438Y-114809523D01*
X145077438Y-114809523D02*
X145125057Y-114761904D01*
X145125057Y-114761904D02*
X145220295Y-114714285D01*
X145220295Y-114714285D02*
X145315533Y-114714285D01*
X145315533Y-114714285D02*
X145458390Y-114761904D01*
X145458390Y-114761904D02*
X146029819Y-115333332D01*
X146029819Y-115333332D02*
X146029819Y-114714285D01*
D15*
X139442224Y-115817500D02*
X138932776Y-115817500D01*
X139442224Y-116862500D02*
X138932776Y-116862500D01*
X123405000Y-99310000D02*
X124735000Y-99310000D01*
X123405000Y-100640000D02*
X123405000Y-99310000D01*
X123405000Y-101910000D02*
X123405000Y-122290000D01*
X123405000Y-101910000D02*
X126005000Y-101910000D01*
X123405000Y-122290000D02*
X128605000Y-122290000D01*
X126005000Y-99310000D02*
X128605000Y-99310000D01*
X126005000Y-101910000D02*
X126005000Y-99310000D01*
X128605000Y-99310000D02*
X128605000Y-122290000D01*
X138718767Y-96990000D02*
X138426233Y-96990000D01*
X138718767Y-98010000D02*
X138426233Y-98010000D01*
X126265000Y-95291233D02*
X126265000Y-95583767D01*
X127285000Y-95291233D02*
X127285000Y-95583767D01*
X135432776Y-115817500D02*
X135942224Y-115817500D01*
X135432776Y-116862500D02*
X135942224Y-116862500D01*
X141726233Y-99990000D02*
X142018767Y-99990000D01*
X141726233Y-101010000D02*
X142018767Y-101010000D01*
X127765000Y-95266233D02*
X127765000Y-95608767D01*
X128785000Y-95266233D02*
X128785000Y-95608767D01*
X129265000Y-95291233D02*
X129265000Y-95583767D01*
X130285000Y-95291233D02*
X130285000Y-95583767D01*
D13*
X151150000Y-116900000D02*
G75*
G02*
X148350000Y-116900000I-1400000J0D01*
G01*
X148350000Y-116900000D02*
G75*
G02*
X151150000Y-116900000I1400000J0D01*
G01*
X151150000Y-103200000D02*
G75*
G02*
X148350000Y-103200000I-1400000J0D01*
G01*
X148350000Y-103200000D02*
G75*
G02*
X151150000Y-103200000I1400000J0D01*
G01*
D15*
X148640000Y-106090000D02*
X148640000Y-113830000D01*
X148640000Y-113830000D02*
X153940000Y-113830000D01*
X153940000Y-106090000D02*
X148640000Y-106090000D01*
X153940000Y-113830000D02*
X153940000Y-106090000D01*
D11*
X153250000Y-113000000D02*
G75*
G02*
X152950000Y-113000000I-150000J0D01*
G01*
X152950000Y-113000000D02*
G75*
G02*
X153250000Y-113000000I150000J0D01*
G01*
D15*
X141726233Y-96990000D02*
X142018767Y-96990000D01*
X141726233Y-98010000D02*
X142018767Y-98010000D01*
X124752500Y-95182776D02*
X124752500Y-95692224D01*
X125797500Y-95182776D02*
X125797500Y-95692224D01*
X143552500Y-107204724D02*
X143552500Y-106695276D01*
X144597500Y-107204724D02*
X144597500Y-106695276D01*
X157405000Y-105960000D02*
X157405000Y-108860000D01*
X159310000Y-104055000D02*
X162210000Y-104055000D01*
X159310000Y-110765000D02*
X162210000Y-110765000D01*
X164115000Y-105960000D02*
X164115000Y-108860000D01*
X139442224Y-117317500D02*
X138932776Y-117317500D01*
X139442224Y-118362500D02*
X138932776Y-118362500D01*
X143552500Y-112695276D02*
X143552500Y-113204724D01*
X144597500Y-112695276D02*
X144597500Y-113204724D01*
X134445000Y-82205000D02*
X134445000Y-79605000D01*
X137105000Y-79605000D02*
X134445000Y-79605000D01*
X137105000Y-82205000D02*
X134445000Y-82205000D01*
X137105000Y-82205000D02*
X137105000Y-79605000D01*
X137105000Y-83475000D02*
X137105000Y-84805000D01*
X137105000Y-84805000D02*
X135775000Y-84805000D01*
X130765000Y-95266233D02*
X130765000Y-95608767D01*
X131785000Y-95266233D02*
X131785000Y-95608767D01*
X138718767Y-98490000D02*
X138426233Y-98490000D01*
X138718767Y-99510000D02*
X138426233Y-99510000D01*
X132405000Y-122630000D02*
X132405000Y-121300000D01*
X133735000Y-122630000D02*
X132405000Y-122630000D01*
X135005000Y-119970000D02*
X140145000Y-119970000D01*
X135005000Y-122630000D02*
X135005000Y-119970000D01*
X135005000Y-122630000D02*
X140145000Y-122630000D01*
X140145000Y-122630000D02*
X140145000Y-119970000D01*
X149010000Y-89600000D02*
X149010000Y-92500000D01*
X150915000Y-87695000D02*
X153815000Y-87695000D01*
X150915000Y-94405000D02*
X153815000Y-94405000D01*
X155720000Y-89600000D02*
X155720000Y-92500000D01*
X138718767Y-99990000D02*
X138426233Y-99990000D01*
X138718767Y-101010000D02*
X138426233Y-101010000D01*
X141726233Y-98490000D02*
X142018767Y-98490000D01*
X141726233Y-99510000D02*
X142018767Y-99510000D01*
X122515000Y-93840000D02*
X122515000Y-96700000D01*
X124435000Y-93840000D02*
X122515000Y-93840000D01*
X124435000Y-96700000D02*
X124435000Y-93840000D01*
X142052500Y-109782776D02*
X142052500Y-110292224D01*
X143097500Y-109782776D02*
X143097500Y-110292224D01*
X135102500Y-105065000D02*
X135102500Y-105340000D01*
X135102500Y-114985000D02*
X135102500Y-114710000D01*
X137412500Y-105065000D02*
X135102500Y-105065000D01*
X137412500Y-105065000D02*
X139722500Y-105065000D01*
X137412500Y-114985000D02*
X135102500Y-114985000D01*
X137412500Y-114985000D02*
X139722500Y-114985000D01*
X139722500Y-105065000D02*
X139722500Y-105340000D01*
X139722500Y-114985000D02*
X139722500Y-114710000D01*
X134512500Y-105340000D02*
X134272500Y-105010000D01*
X134752500Y-105010000D01*
X134512500Y-105340000D01*
G36*
X134512500Y-105340000D02*
G01*
X134272500Y-105010000D01*
X134752500Y-105010000D01*
X134512500Y-105340000D01*
G37*
X134865000Y-86852500D02*
X137215000Y-86852500D01*
X134865000Y-92608063D02*
X134865000Y-86852500D01*
X135929437Y-93672500D02*
X134865000Y-92608063D01*
X135929437Y-93672500D02*
X137215000Y-93672500D01*
X140620563Y-93672500D02*
X139335000Y-93672500D01*
X140620563Y-93672500D02*
X141685000Y-92608063D01*
X141685000Y-86852500D02*
X139335000Y-86852500D01*
X141685000Y-92608063D02*
X141685000Y-86852500D01*
X135541233Y-117330000D02*
X135833767Y-117330000D01*
X135541233Y-118350000D02*
X135833767Y-118350000D01*
X122875000Y-82680000D02*
X122875000Y-83180000D01*
X123115000Y-82920000D02*
X123115000Y-93200000D01*
X123615000Y-82680000D02*
X122875000Y-82680000D01*
X123675000Y-82920000D02*
X123675000Y-93200000D01*
X125175000Y-82920000D02*
X125175000Y-93200000D01*
X126536000Y-89566000D02*
X126501000Y-89531000D01*
X126752000Y-89373000D02*
X126706000Y-89326000D01*
X128844000Y-91875000D02*
X128798000Y-91828000D01*
X129050000Y-91670000D02*
X129014000Y-91635000D01*
X130076000Y-82920000D02*
X130076000Y-93200000D01*
X133036000Y-82920000D02*
X123115000Y-82920000D01*
X133036000Y-82920000D02*
X133036000Y-93200000D01*
X133036000Y-93200000D02*
X123115000Y-93200000D01*
X126094747Y-85548805D02*
G75*
G02*
X126240000Y-84836000I1680254J28806D01*
G01*
X126240244Y-86203318D02*
G75*
G02*
X126095000Y-85520000I1534756J683318D01*
G01*
X127091958Y-83984573D02*
G75*
G02*
X128459000Y-83985000I683041J-1535420D01*
G01*
X128458042Y-87055427D02*
G75*
G02*
X127091000Y-87055000I-683042J1535427D01*
G01*
X129310427Y-84836958D02*
G75*
G02*
X129310000Y-86204000I-1535420J-683041D01*
G01*
X129455000Y-90600000D02*
G75*
G02*
X126095000Y-90600000I-1680000J0D01*
G01*
X126095000Y-90600000D02*
G75*
G02*
X129455000Y-90600000I1680000J0D01*
G01*
D13*
X135675000Y-98700000D02*
G75*
G02*
X132875000Y-98700000I-1400000J0D01*
G01*
X132875000Y-98700000D02*
G75*
G02*
X135675000Y-98700000I1400000J0D01*
G01*
D15*
X145065000Y-107096267D02*
X145065000Y-106803733D01*
X146085000Y-107096267D02*
X146085000Y-106803733D01*
D13*
X157850000Y-117550000D02*
G75*
G02*
X155050000Y-117550000I-1400000J0D01*
G01*
X155050000Y-117550000D02*
G75*
G02*
X157850000Y-117550000I1400000J0D01*
G01*
D15*
X146729724Y-93377500D02*
X146220276Y-93377500D01*
X146729724Y-94422500D02*
X146220276Y-94422500D01*
X141728733Y-101490000D02*
X142021267Y-101490000D01*
X141728733Y-102510000D02*
X142021267Y-102510000D01*
X138718767Y-101490000D02*
X138426233Y-101490000D01*
X138718767Y-102510000D02*
X138426233Y-102510000D01*
X145065000Y-112803733D02*
X145065000Y-113096267D01*
X146085000Y-112803733D02*
X146085000Y-113096267D01*
%LPC*%
D16*
X140100000Y-116340000D03*
X138275000Y-116340000D03*
D17*
X124735000Y-100640000D03*
D18*
X127275000Y-100640000D03*
X124735000Y-103180000D03*
X127275000Y-103180000D03*
X124735000Y-105720000D03*
X127275000Y-105720000D03*
X124735000Y-108260000D03*
X127275000Y-108260000D03*
X124735000Y-110800000D03*
X127275000Y-110800000D03*
X124735000Y-113340000D03*
X127275000Y-113340000D03*
X124735000Y-115880000D03*
X127275000Y-115880000D03*
X124735000Y-118420000D03*
X127275000Y-118420000D03*
X124735000Y-120960000D03*
X127275000Y-120960000D03*
D19*
X162775000Y-122600000D03*
D20*
X139435000Y-97500000D03*
X137710000Y-97500000D03*
D21*
X126775000Y-94575000D03*
X126775000Y-96300000D03*
D22*
X134775000Y-116340000D03*
X136600000Y-116340000D03*
D23*
X141010000Y-100500000D03*
X142735000Y-100500000D03*
D24*
X128275000Y-94562500D03*
X128275000Y-96312500D03*
D21*
X129775000Y-94575000D03*
X129775000Y-96300000D03*
D25*
X149750000Y-116900000D03*
X149750000Y-103200000D03*
D26*
X155100000Y-112500000D03*
D27*
X155100000Y-109960000D03*
X155100000Y-107420000D03*
X147480000Y-107420000D03*
X147480000Y-109960000D03*
X147480000Y-112500000D03*
D23*
X141010000Y-97500000D03*
X142735000Y-97500000D03*
D28*
X125275000Y-94525000D03*
X125275000Y-96350000D03*
D19*
X120575000Y-122600000D03*
D29*
X144075000Y-107862500D03*
X144075000Y-106037500D03*
D30*
X160760000Y-107410000D03*
D31*
X158220000Y-104870000D03*
X158220000Y-109950000D03*
X163300000Y-104870000D03*
X163300000Y-109950000D03*
D16*
X140100000Y-117840000D03*
X138275000Y-117840000D03*
D28*
X144075000Y-112037500D03*
X144075000Y-113862500D03*
D19*
X120575000Y-80400000D03*
D17*
X135775000Y-83475000D03*
D18*
X135775000Y-80935000D03*
D24*
X131275000Y-94562500D03*
X131275000Y-96312500D03*
D20*
X139435000Y-99000000D03*
X137710000Y-99000000D03*
D17*
X133735000Y-121300000D03*
D18*
X136275000Y-121300000D03*
X138815000Y-121300000D03*
D30*
X152365000Y-91050000D03*
D31*
X149825000Y-88510000D03*
X149825000Y-93590000D03*
X154905000Y-88510000D03*
X154905000Y-93590000D03*
D20*
X139435000Y-100500000D03*
X137710000Y-100500000D03*
D23*
X141010000Y-99000000D03*
X142735000Y-99000000D03*
D32*
X123475000Y-94675000D03*
X123475000Y-96725000D03*
D28*
X142575000Y-109125000D03*
X142575000Y-110950000D03*
D33*
X134550000Y-105800000D03*
X134550000Y-106450000D03*
X134550000Y-107100000D03*
X134550000Y-107750000D03*
X134550000Y-108400000D03*
X134550000Y-109050000D03*
X134550000Y-109700000D03*
X134550000Y-110350000D03*
X134550000Y-111000000D03*
X134550000Y-111650000D03*
X134550000Y-112300000D03*
X134550000Y-112950000D03*
X134550000Y-113600000D03*
X134550000Y-114250000D03*
X140275000Y-114250000D03*
X140275000Y-113600000D03*
X140275000Y-112950000D03*
X140275000Y-112300000D03*
X140275000Y-111650000D03*
X140275000Y-111000000D03*
X140275000Y-110350000D03*
X140275000Y-109700000D03*
X140275000Y-109050000D03*
X140275000Y-108400000D03*
X140275000Y-107750000D03*
X140275000Y-107100000D03*
X140275000Y-106450000D03*
X140275000Y-105800000D03*
D34*
X138275000Y-92800000D03*
X138275000Y-87725000D03*
D23*
X134825000Y-117840000D03*
X136550000Y-117840000D03*
D35*
X127775000Y-85520000D03*
D36*
X127775000Y-90600000D03*
D25*
X134275000Y-98700000D03*
D37*
X145575000Y-107812500D03*
X145575000Y-106087500D03*
D25*
X156450000Y-117550000D03*
D16*
X147387500Y-93900000D03*
X145562500Y-93900000D03*
D23*
X141012500Y-102000000D03*
X142737500Y-102000000D03*
D20*
X139435000Y-102000000D03*
X137710000Y-102000000D03*
D21*
X145575000Y-112087500D03*
X145575000Y-113812500D03*
D19*
X162775000Y-80400000D03*
%LPD*%
M02*
