G04 #@! TF.GenerationSoftware,KiCad,Pcbnew,8.0.6*
G04 #@! TF.CreationDate,2025-01-02T21:52:10-07:00*
G04 #@! TF.ProjectId,AD9744 Ersatz Eval Board Rev. A,41443937-3434-4204-9572-7361747a2045,rev?*
G04 #@! TF.SameCoordinates,Original*
G04 #@! TF.FileFunction,Copper,L1,Top*
G04 #@! TF.FilePolarity,Positive*
%FSLAX46Y46*%
G04 Gerber Fmt 4.6, Leading zero omitted, Abs format (unit mm)*
G04 Created by KiCad (PCBNEW 8.0.6) date 2025-01-02 21:52:10*
%MOMM*%
%LPD*%
G01*
G04 APERTURE LIST*
G04 Aperture macros list*
%AMRoundRect*
0 Rectangle with rounded corners*
0 $1 Rounding radius*
0 $2 $3 $4 $5 $6 $7 $8 $9 X,Y pos of 4 corners*
0 Add a 4 corners polygon primitive as box body*
4,1,4,$2,$3,$4,$5,$6,$7,$8,$9,$2,$3,0*
0 Add four circle primitives for the rounded corners*
1,1,$1+$1,$2,$3*
1,1,$1+$1,$4,$5*
1,1,$1+$1,$6,$7*
1,1,$1+$1,$8,$9*
0 Add four rect primitives between the rounded corners*
20,1,$1+$1,$2,$3,$4,$5,0*
20,1,$1+$1,$4,$5,$6,$7,0*
20,1,$1+$1,$6,$7,$8,$9,0*
20,1,$1+$1,$8,$9,$2,$3,0*%
G04 Aperture macros list end*
G04 #@! TA.AperFunction,SMDPad,CuDef*
%ADD10RoundRect,0.237500X0.250000X0.237500X-0.250000X0.237500X-0.250000X-0.237500X0.250000X-0.237500X0*%
G04 #@! TD*
G04 #@! TA.AperFunction,ComponentPad*
%ADD11R,1.700000X1.700000*%
G04 #@! TD*
G04 #@! TA.AperFunction,ComponentPad*
%ADD12O,1.700000X1.700000*%
G04 #@! TD*
G04 #@! TA.AperFunction,ComponentPad*
%ADD13C,3.800000*%
G04 #@! TD*
G04 #@! TA.AperFunction,SMDPad,CuDef*
%ADD14RoundRect,0.237500X0.300000X0.237500X-0.300000X0.237500X-0.300000X-0.237500X0.300000X-0.237500X0*%
G04 #@! TD*
G04 #@! TA.AperFunction,SMDPad,CuDef*
%ADD15RoundRect,0.237500X-0.237500X0.300000X-0.237500X-0.300000X0.237500X-0.300000X0.237500X0.300000X0*%
G04 #@! TD*
G04 #@! TA.AperFunction,SMDPad,CuDef*
%ADD16RoundRect,0.237500X-0.250000X-0.237500X0.250000X-0.237500X0.250000X0.237500X-0.250000X0.237500X0*%
G04 #@! TD*
G04 #@! TA.AperFunction,SMDPad,CuDef*
%ADD17RoundRect,0.237500X-0.300000X-0.237500X0.300000X-0.237500X0.300000X0.237500X-0.300000X0.237500X0*%
G04 #@! TD*
G04 #@! TA.AperFunction,SMDPad,CuDef*
%ADD18RoundRect,0.237500X-0.237500X0.287500X-0.237500X-0.287500X0.237500X-0.287500X0.237500X0.287500X0*%
G04 #@! TD*
G04 #@! TA.AperFunction,ComponentPad*
%ADD19C,2.000000*%
G04 #@! TD*
G04 #@! TA.AperFunction,ComponentPad*
%ADD20R,1.600000X1.600000*%
G04 #@! TD*
G04 #@! TA.AperFunction,ComponentPad*
%ADD21O,1.600000X1.600000*%
G04 #@! TD*
G04 #@! TA.AperFunction,SMDPad,CuDef*
%ADD22RoundRect,0.237500X-0.237500X0.250000X-0.237500X-0.250000X0.237500X-0.250000X0.237500X0.250000X0*%
G04 #@! TD*
G04 #@! TA.AperFunction,SMDPad,CuDef*
%ADD23RoundRect,0.237500X0.237500X-0.250000X0.237500X0.250000X-0.237500X0.250000X-0.237500X-0.250000X0*%
G04 #@! TD*
G04 #@! TA.AperFunction,ComponentPad*
%ADD24C,2.050000*%
G04 #@! TD*
G04 #@! TA.AperFunction,ComponentPad*
%ADD25C,2.250000*%
G04 #@! TD*
G04 #@! TA.AperFunction,SMDPad,CuDef*
%ADD26RoundRect,0.250000X-0.450000X0.325000X-0.450000X-0.325000X0.450000X-0.325000X0.450000X0.325000X0*%
G04 #@! TD*
G04 #@! TA.AperFunction,SMDPad,CuDef*
%ADD27RoundRect,0.100000X-0.637500X-0.100000X0.637500X-0.100000X0.637500X0.100000X-0.637500X0.100000X0*%
G04 #@! TD*
G04 #@! TA.AperFunction,SMDPad,CuDef*
%ADD28RoundRect,0.250000X0.550000X-1.412500X0.550000X1.412500X-0.550000X1.412500X-0.550000X-1.412500X0*%
G04 #@! TD*
G04 #@! TA.AperFunction,ComponentPad*
%ADD29R,2.600000X2.600000*%
G04 #@! TD*
G04 #@! TA.AperFunction,ComponentPad*
%ADD30C,2.600000*%
G04 #@! TD*
G04 #@! TA.AperFunction,SMDPad,CuDef*
%ADD31RoundRect,0.237500X0.237500X-0.300000X0.237500X0.300000X-0.237500X0.300000X-0.237500X-0.300000X0*%
G04 #@! TD*
G04 #@! TA.AperFunction,ViaPad*
%ADD32C,0.600000*%
G04 #@! TD*
G04 #@! TA.AperFunction,Conductor*
%ADD33C,0.200000*%
G04 #@! TD*
G04 #@! TA.AperFunction,Conductor*
%ADD34C,0.400000*%
G04 #@! TD*
G04 #@! TA.AperFunction,Conductor*
%ADD35C,0.600000*%
G04 #@! TD*
G04 #@! TA.AperFunction,Conductor*
%ADD36C,2.400000*%
G04 #@! TD*
G04 APERTURE END LIST*
D10*
X140100000Y-116340000D03*
X138275000Y-116340000D03*
D11*
X124735000Y-100640000D03*
D12*
X127275000Y-100640000D03*
X124735000Y-103180000D03*
X127275000Y-103180000D03*
X124735000Y-105720000D03*
X127275000Y-105720000D03*
X124735000Y-108260000D03*
X127275000Y-108260000D03*
X124735000Y-110800000D03*
X127275000Y-110800000D03*
X124735000Y-113340000D03*
X127275000Y-113340000D03*
X124735000Y-115880000D03*
X127275000Y-115880000D03*
X124735000Y-118420000D03*
X127275000Y-118420000D03*
X124735000Y-120960000D03*
X127275000Y-120960000D03*
D13*
X162775000Y-122600000D03*
D14*
X139435000Y-97500000D03*
X137710000Y-97500000D03*
D15*
X126775000Y-94575000D03*
X126775000Y-96300000D03*
D16*
X134775000Y-116340000D03*
X136600000Y-116340000D03*
D17*
X141010000Y-100500000D03*
X142735000Y-100500000D03*
D18*
X128275000Y-94562500D03*
X128275000Y-96312500D03*
D15*
X129775000Y-94575000D03*
X129775000Y-96300000D03*
D19*
X149750000Y-116900000D03*
X149750000Y-103200000D03*
D20*
X155100000Y-112500000D03*
D21*
X155100000Y-109960000D03*
X155100000Y-107420000D03*
X147480000Y-107420000D03*
X147480000Y-109960000D03*
X147480000Y-112500000D03*
D17*
X141010000Y-97500000D03*
X142735000Y-97500000D03*
D22*
X125275000Y-94525000D03*
X125275000Y-96350000D03*
D13*
X120575000Y-122600000D03*
D23*
X144075000Y-107862500D03*
X144075000Y-106037500D03*
D24*
X160760000Y-107410000D03*
D25*
X158220000Y-104870000D03*
X158220000Y-109950000D03*
X163300000Y-104870000D03*
X163300000Y-109950000D03*
D10*
X140100000Y-117840000D03*
X138275000Y-117840000D03*
D22*
X144075000Y-112037500D03*
X144075000Y-113862500D03*
D13*
X120575000Y-80400000D03*
D11*
X135775000Y-83475000D03*
D12*
X135775000Y-80935000D03*
D18*
X131275000Y-94562500D03*
X131275000Y-96312500D03*
D14*
X139435000Y-99000000D03*
X137710000Y-99000000D03*
D11*
X133735000Y-121300000D03*
D12*
X136275000Y-121300000D03*
X138815000Y-121300000D03*
D24*
X152365000Y-91050000D03*
D25*
X149825000Y-88510000D03*
X149825000Y-93590000D03*
X154905000Y-88510000D03*
X154905000Y-93590000D03*
D14*
X139435000Y-100500000D03*
X137710000Y-100500000D03*
D17*
X141010000Y-99000000D03*
X142735000Y-99000000D03*
D26*
X123475000Y-94675000D03*
X123475000Y-96725000D03*
D22*
X142575000Y-109125000D03*
X142575000Y-110950000D03*
D27*
X134550000Y-105800000D03*
X134550000Y-106450000D03*
X134550000Y-107100000D03*
X134550000Y-107750000D03*
X134550000Y-108400000D03*
X134550000Y-109050000D03*
X134550000Y-109700000D03*
X134550000Y-110350000D03*
X134550000Y-111000000D03*
X134550000Y-111650000D03*
X134550000Y-112300000D03*
X134550000Y-112950000D03*
X134550000Y-113600000D03*
X134550000Y-114250000D03*
X140275000Y-114250000D03*
X140275000Y-113600000D03*
X140275000Y-112950000D03*
X140275000Y-112300000D03*
X140275000Y-111650000D03*
X140275000Y-111000000D03*
X140275000Y-110350000D03*
X140275000Y-109700000D03*
X140275000Y-109050000D03*
X140275000Y-108400000D03*
X140275000Y-107750000D03*
X140275000Y-107100000D03*
X140275000Y-106450000D03*
X140275000Y-105800000D03*
D28*
X138275000Y-92800000D03*
X138275000Y-87725000D03*
D17*
X134825000Y-117840000D03*
X136550000Y-117840000D03*
D29*
X127775000Y-85520000D03*
D30*
X127775000Y-90600000D03*
D19*
X134275000Y-98700000D03*
D31*
X145575000Y-107812500D03*
X145575000Y-106087500D03*
D19*
X156450000Y-117550000D03*
D10*
X147387500Y-93900000D03*
X145562500Y-93900000D03*
D17*
X141012500Y-102000000D03*
X142737500Y-102000000D03*
D14*
X139435000Y-102000000D03*
X137710000Y-102000000D03*
D15*
X145575000Y-112087500D03*
X145575000Y-113812500D03*
D13*
X162775000Y-80400000D03*
D32*
X145575000Y-104950000D03*
X143900735Y-101825735D03*
X137735000Y-103000000D03*
X153250000Y-112500000D03*
X139220947Y-107215482D03*
X141422748Y-111233667D03*
X136575000Y-119000000D03*
X142735000Y-96400000D03*
X145575000Y-114950000D03*
X126775000Y-97500000D03*
X138575000Y-119000000D03*
X145750000Y-109950000D03*
X125275000Y-97500000D03*
X129775000Y-97500000D03*
X138275000Y-85300000D03*
X141394740Y-113408073D03*
X144075000Y-104950000D03*
X144075000Y-114950000D03*
X145575000Y-92700000D03*
X136575000Y-97500000D03*
X137275000Y-108300000D03*
X143275000Y-103300000D03*
D33*
X140275000Y-111000000D02*
X141189081Y-111000000D01*
X140275000Y-113600000D02*
X141202813Y-113600000D01*
D34*
X136575000Y-119000000D02*
X136550000Y-118975000D01*
D35*
X138275000Y-87725000D02*
X138275000Y-85300000D01*
D33*
X141189081Y-111000000D02*
X141422748Y-111233667D01*
X145760000Y-109960000D02*
X145750000Y-109950000D01*
D34*
X136550000Y-118975000D02*
X136550000Y-117840000D01*
X136575000Y-97500000D02*
X137710000Y-97500000D01*
X142735000Y-100500000D02*
X142735000Y-101997500D01*
D33*
X141202813Y-113600000D02*
X141394740Y-113408073D01*
D34*
X145575000Y-113812500D02*
X145575000Y-114950000D01*
X137710000Y-102000000D02*
X137710000Y-102975000D01*
D33*
X137710000Y-102975000D02*
X137735000Y-103000000D01*
D34*
X142735000Y-97500000D02*
X142735000Y-96400000D01*
D33*
X145562500Y-92712500D02*
X145575000Y-92700000D01*
X138575000Y-118140000D02*
X138275000Y-117840000D01*
D35*
X155100000Y-112500000D02*
X153250000Y-112500000D01*
D34*
X144075000Y-106037500D02*
X144075000Y-104950000D01*
X142909265Y-101825735D02*
X143900735Y-101825735D01*
X137710000Y-97500000D02*
X137710000Y-99000000D01*
D33*
X139336429Y-107100000D02*
X139220947Y-107215482D01*
D34*
X142737500Y-101997500D02*
X142909265Y-101825735D01*
X126775000Y-96300000D02*
X125325000Y-96300000D01*
X145575000Y-106087500D02*
X145575000Y-104950000D01*
X136600000Y-116340000D02*
X136600000Y-117790000D01*
X142735000Y-99000000D02*
X142735000Y-100500000D01*
D35*
X147480000Y-109960000D02*
X145760000Y-109960000D01*
D34*
X137710000Y-99000000D02*
X137710000Y-100500000D01*
X137710000Y-100500000D02*
X137710000Y-102000000D01*
X142735000Y-97500000D02*
X142735000Y-99000000D01*
D33*
X140275000Y-107100000D02*
X139336429Y-107100000D01*
D34*
X126775000Y-96300000D02*
X126775000Y-97500000D01*
X125275000Y-96350000D02*
X125275000Y-97500000D01*
X144075000Y-113862500D02*
X144075000Y-114950000D01*
D33*
X145562500Y-93900000D02*
X145562500Y-92712500D01*
X138575000Y-119000000D02*
X138575000Y-118140000D01*
D34*
X129775000Y-96300000D02*
X129775000Y-97500000D01*
D33*
X137487500Y-118936029D02*
X136823529Y-119600000D01*
X136823529Y-119600000D02*
X136326471Y-119600000D01*
X134825000Y-118098529D02*
X134825000Y-117840000D01*
X136326471Y-119600000D02*
X134825000Y-118098529D01*
X137487500Y-114193186D02*
X138730686Y-112950000D01*
X138730686Y-112950000D02*
X140275000Y-112950000D01*
X137487500Y-114193186D02*
X137487500Y-118936029D01*
X147480000Y-112500000D02*
X147480000Y-114630000D01*
X141975000Y-110350000D02*
X140275000Y-110350000D01*
X144075000Y-112037500D02*
X145525000Y-112037500D01*
X142575000Y-110950000D02*
X141975000Y-110350000D01*
X142987500Y-110950000D02*
X144075000Y-112037500D01*
X142575000Y-110950000D02*
X142987500Y-110950000D01*
X147480000Y-114630000D02*
X149750000Y-116900000D01*
X147067500Y-112087500D02*
X147480000Y-112500000D01*
X145525000Y-112037500D02*
X145575000Y-112087500D01*
X145575000Y-112087500D02*
X147067500Y-112087500D01*
X147087500Y-107812500D02*
X147480000Y-107420000D01*
X142575000Y-109125000D02*
X142812500Y-109125000D01*
X142575000Y-109125000D02*
X142000000Y-109700000D01*
X142812500Y-109125000D02*
X144075000Y-107862500D01*
X147480000Y-107420000D02*
X147480000Y-105470000D01*
X145575000Y-107812500D02*
X147087500Y-107812500D01*
X142000000Y-109700000D02*
X140275000Y-109700000D01*
X145525000Y-107862500D02*
X145575000Y-107812500D01*
X144075000Y-107862500D02*
X145525000Y-107862500D01*
X147480000Y-105470000D02*
X149750000Y-103200000D01*
X127275000Y-118420000D02*
X127275000Y-118300000D01*
D35*
X127029415Y-88800000D02*
X127910000Y-88800000D01*
D34*
X122275000Y-117980000D02*
X122275000Y-97925000D01*
X127275000Y-118420000D02*
X126015000Y-119680000D01*
D35*
X125931032Y-93193532D02*
X126775000Y-94037500D01*
D34*
X123975000Y-119680000D02*
X122275000Y-117980000D01*
D35*
X126775000Y-94037500D02*
X126775000Y-94575000D01*
D34*
X126015000Y-119680000D02*
X123975000Y-119680000D01*
X122275000Y-97925000D02*
X123475000Y-96725000D01*
D35*
X127910000Y-88800000D02*
X135775000Y-80935000D01*
X127029415Y-88800000D02*
X125931032Y-89898383D01*
D34*
X125920000Y-95430000D02*
X126775000Y-94575000D01*
D35*
X125931032Y-89898383D02*
X125931032Y-93193532D01*
D34*
X126775000Y-94575000D02*
X128262500Y-94575000D01*
X123475000Y-96725000D02*
X124770000Y-95430000D01*
X124770000Y-95430000D02*
X125920000Y-95430000D01*
D35*
X141012500Y-102000000D02*
X141012500Y-100502500D01*
D34*
X140275000Y-108400000D02*
X141355220Y-108400000D01*
D35*
X141355220Y-108400000D02*
X142575000Y-107180220D01*
X131962500Y-96312500D02*
X135475000Y-92800000D01*
X141012500Y-103300242D02*
X141012500Y-102000000D01*
X135475000Y-92800000D02*
X138275000Y-92800000D01*
X131275000Y-96312500D02*
X131962500Y-96312500D01*
X142575000Y-104862742D02*
X141012500Y-103300242D01*
X141010000Y-100500000D02*
X141010000Y-99000000D01*
X142575000Y-107180220D02*
X142575000Y-104862742D01*
X141010000Y-95535000D02*
X141010000Y-97500000D01*
X138275000Y-92800000D02*
X141010000Y-95535000D01*
X141010000Y-99000000D02*
X141010000Y-97500000D01*
D34*
X129475000Y-98200000D02*
X130064950Y-98200000D01*
D33*
X138902818Y-106450000D02*
X140275000Y-106450000D01*
X138275000Y-107077818D02*
X138902818Y-106450000D01*
X135035000Y-122600000D02*
X133735000Y-121300000D01*
D34*
X139435000Y-99000000D02*
X139435000Y-97500000D01*
X140275000Y-106450000D02*
X141072378Y-106450000D01*
D33*
X135693628Y-114750000D02*
X136287500Y-114156128D01*
X133587500Y-115421815D02*
X134259315Y-114750000D01*
D34*
X130764950Y-97500000D02*
X131975000Y-97500000D01*
X131975000Y-97500000D02*
X132850000Y-96625000D01*
X141072378Y-106450000D02*
X141412500Y-106109878D01*
X128275000Y-96312500D02*
X128275000Y-97000000D01*
X141412500Y-106109878D02*
X141412500Y-105437500D01*
X128275000Y-97000000D02*
X129475000Y-98200000D01*
D33*
X139375000Y-122600000D02*
X135035000Y-122600000D01*
X140887500Y-117127500D02*
X140887500Y-121087500D01*
X134259315Y-114750000D02*
X135693628Y-114750000D01*
X136287500Y-110318456D02*
X138275000Y-108330956D01*
D34*
X141412500Y-105437500D02*
X139435000Y-103460000D01*
X130064950Y-98200000D02*
X130764950Y-97500000D01*
D33*
X140887500Y-121087500D02*
X139375000Y-122600000D01*
D34*
X139435000Y-100500000D02*
X139435000Y-99000000D01*
X132850000Y-96625000D02*
X138560000Y-96625000D01*
X139435000Y-103460000D02*
X139435000Y-102000000D01*
D33*
X140100000Y-116340000D02*
X140887500Y-117127500D01*
X136287500Y-114156128D02*
X136287500Y-110318456D01*
D34*
X139435000Y-102000000D02*
X139435000Y-100500000D01*
D33*
X138275000Y-108330956D02*
X138275000Y-107077818D01*
X133735000Y-121300000D02*
X133587500Y-121152500D01*
D34*
X138560000Y-96625000D02*
X139435000Y-97500000D01*
D33*
X133587500Y-121152500D02*
X133587500Y-115421815D01*
X125275000Y-94525000D02*
X123625000Y-94525000D01*
X132225000Y-100750000D02*
X134275000Y-98700000D01*
X130725000Y-100750000D02*
X134275000Y-104300000D01*
X126075000Y-99300000D02*
X129275000Y-99300000D01*
X137275000Y-107300000D02*
X138775000Y-105800000D01*
X138775000Y-105800000D02*
X140275000Y-105800000D01*
X137275000Y-104300000D02*
X138775000Y-105800000D01*
X129275000Y-99300000D02*
X130725000Y-100750000D01*
X134275000Y-104300000D02*
X137275000Y-104300000D01*
X137275000Y-108300000D02*
X137275000Y-107300000D01*
X124735000Y-100640000D02*
X126075000Y-99300000D01*
X130725000Y-100750000D02*
X132225000Y-100750000D01*
X147975000Y-98600000D02*
X147975000Y-93900000D01*
X147975000Y-93424745D02*
X150349745Y-91050000D01*
X147387500Y-93900000D02*
X147975000Y-93900000D01*
X150349745Y-91050000D02*
X152365000Y-91050000D01*
X143275000Y-103300000D02*
X147975000Y-98600000D01*
X147975000Y-93900000D02*
X147975000Y-93424745D01*
X160750000Y-107420000D02*
X160760000Y-107410000D01*
D36*
X155100000Y-107420000D02*
X160750000Y-107420000D01*
D33*
X136687500Y-110600001D02*
X139537501Y-107750000D01*
X134275000Y-115300000D02*
X135709314Y-115300000D01*
X133987500Y-115587500D02*
X134275000Y-115300000D01*
X136687500Y-114321814D02*
X136687500Y-110600001D01*
X139537501Y-107750000D02*
X140275000Y-107750000D01*
X135709314Y-115300000D02*
X136687500Y-114321814D01*
X133987500Y-119012500D02*
X133987500Y-115587500D01*
X136275000Y-121300000D02*
X133987500Y-119012500D01*
X138275000Y-115300000D02*
X139325000Y-114250000D01*
X139775000Y-117840000D02*
X138275000Y-116340000D01*
X138275000Y-116340000D02*
X138275000Y-115300000D01*
X139325000Y-114250000D02*
X140275000Y-114250000D01*
X140100000Y-117840000D02*
X139775000Y-117840000D01*
X135235000Y-116340000D02*
X137087500Y-114487500D01*
X134775000Y-116340000D02*
X135235000Y-116340000D01*
X137087500Y-114027500D02*
X138815000Y-112300000D01*
X137087500Y-114487500D02*
X137087500Y-114027500D01*
X138815000Y-112300000D02*
X140275000Y-112300000D01*
X129390000Y-100640000D02*
X134550000Y-105800000D01*
X127275000Y-100640000D02*
X129390000Y-100640000D01*
X129392501Y-102030000D02*
X133812501Y-106450000D01*
X133812501Y-106450000D02*
X134550000Y-106450000D01*
X125885000Y-102030000D02*
X129392501Y-102030000D01*
X124735000Y-103180000D02*
X125885000Y-102030000D01*
X133075000Y-107100000D02*
X134550000Y-107100000D01*
X127275000Y-103180000D02*
X129155000Y-103180000D01*
X129155000Y-103180000D02*
X133075000Y-107100000D01*
X129045000Y-104570000D02*
X132225000Y-107750000D01*
X132225000Y-107750000D02*
X134550000Y-107750000D01*
X125885000Y-104570000D02*
X129045000Y-104570000D01*
X124735000Y-105720000D02*
X125885000Y-104570000D01*
X127275000Y-105720000D02*
X128695000Y-105720000D01*
X131375000Y-108400000D02*
X134550000Y-108400000D01*
X128695000Y-105720000D02*
X131375000Y-108400000D01*
X124735000Y-108260000D02*
X125885000Y-107110000D01*
X125885000Y-107110000D02*
X129085000Y-107110000D01*
X131025000Y-109050000D02*
X134550000Y-109050000D01*
X129085000Y-107110000D02*
X131025000Y-109050000D01*
X128735000Y-108260000D02*
X130175000Y-109700000D01*
X130175000Y-109700000D02*
X134550000Y-109700000D01*
X127275000Y-108260000D02*
X128735000Y-108260000D01*
X125885000Y-109650000D02*
X128625000Y-109650000D01*
X124735000Y-110800000D02*
X125885000Y-109650000D01*
X128625000Y-109650000D02*
X129325000Y-110350000D01*
X129325000Y-110350000D02*
X134550000Y-110350000D01*
X128625000Y-111950000D02*
X128925000Y-111650000D01*
X126125000Y-111950000D02*
X128625000Y-111950000D01*
X124735000Y-113340000D02*
X126125000Y-111950000D01*
X128925000Y-111650000D02*
X134550000Y-111650000D01*
X127975000Y-111000000D02*
X134550000Y-111000000D01*
X127275000Y-110800000D02*
X127775000Y-110800000D01*
X127775000Y-110800000D02*
X127975000Y-111000000D01*
X134400000Y-112450000D02*
X134550000Y-112300000D01*
X128165000Y-112450000D02*
X134400000Y-112450000D01*
X127275000Y-113340000D02*
X128165000Y-112450000D01*
X129531346Y-112950000D02*
X127751346Y-114730000D01*
X134550000Y-112950000D02*
X129531346Y-112950000D01*
X125885000Y-114730000D02*
X124735000Y-115880000D01*
X127751346Y-114730000D02*
X125885000Y-114730000D01*
X127275000Y-115880000D02*
X128195000Y-115880000D01*
X128195000Y-115880000D02*
X130475000Y-113600000D01*
X130475000Y-113600000D02*
X134550000Y-113600000D01*
D35*
X135300000Y-83075000D02*
X135775000Y-83075000D01*
X134900000Y-83475000D02*
X135775000Y-83475000D01*
X129775000Y-92600000D02*
X127775000Y-90600000D01*
X129775000Y-94575000D02*
X131262500Y-94575000D01*
X127775000Y-90600000D02*
X134900000Y-83475000D01*
X129775000Y-94575000D02*
X129775000Y-92600000D01*
D33*
X127751346Y-117270000D02*
X125885000Y-117270000D01*
X134550000Y-114250000D02*
X130771346Y-114250000D01*
X125885000Y-117270000D02*
X124735000Y-118420000D01*
X130771346Y-114250000D02*
X127751346Y-117270000D01*
M02*
