G04 #@! TF.GenerationSoftware,KiCad,Pcbnew,8.0.6*
G04 #@! TF.CreationDate,2025-01-01T01:36:39-07:00*
G04 #@! TF.ProjectId,AD9744 Ersatz Eval Board Rev. A,41443937-3434-4204-9572-7361747a2045,rev?*
G04 #@! TF.SameCoordinates,Original*
G04 #@! TF.FileFunction,Copper,L2,Bot*
G04 #@! TF.FilePolarity,Positive*
%FSLAX46Y46*%
G04 Gerber Fmt 4.6, Leading zero omitted, Abs format (unit mm)*
G04 Created by KiCad (PCBNEW 8.0.6) date 2025-01-01 01:36:39*
%MOMM*%
%LPD*%
G01*
G04 APERTURE LIST*
G04 Aperture macros list*
%AMFreePoly0*
4,1,19,0.500000,-0.750000,0.000000,-0.750000,0.000000,-0.744911,-0.071157,-0.744911,-0.207708,-0.704816,-0.327430,-0.627875,-0.420627,-0.520320,-0.479746,-0.390866,-0.500000,-0.250000,-0.500000,0.250000,-0.479746,0.390866,-0.420627,0.520320,-0.327430,0.627875,-0.207708,0.704816,-0.071157,0.744911,0.000000,0.744911,0.000000,0.750000,0.500000,0.750000,0.500000,-0.750000,0.500000,-0.750000,
$1*%
%AMFreePoly1*
4,1,19,0.000000,0.744911,0.071157,0.744911,0.207708,0.704816,0.327430,0.627875,0.420627,0.520320,0.479746,0.390866,0.500000,0.250000,0.500000,-0.250000,0.479746,-0.390866,0.420627,-0.520320,0.327430,-0.627875,0.207708,-0.704816,0.071157,-0.744911,0.000000,-0.744911,0.000000,-0.750000,-0.500000,-0.750000,-0.500000,0.750000,0.000000,0.750000,0.000000,0.744911,0.000000,0.744911,
$1*%
G04 Aperture macros list end*
G04 #@! TA.AperFunction,ComponentPad*
%ADD10R,1.700000X1.700000*%
G04 #@! TD*
G04 #@! TA.AperFunction,ComponentPad*
%ADD11O,1.700000X1.700000*%
G04 #@! TD*
G04 #@! TA.AperFunction,ComponentPad*
%ADD12C,3.800000*%
G04 #@! TD*
G04 #@! TA.AperFunction,ComponentPad*
%ADD13C,2.000000*%
G04 #@! TD*
G04 #@! TA.AperFunction,ComponentPad*
%ADD14C,2.050000*%
G04 #@! TD*
G04 #@! TA.AperFunction,ComponentPad*
%ADD15C,2.250000*%
G04 #@! TD*
G04 #@! TA.AperFunction,ComponentPad*
%ADD16R,2.600000X2.600000*%
G04 #@! TD*
G04 #@! TA.AperFunction,ComponentPad*
%ADD17C,2.600000*%
G04 #@! TD*
G04 #@! TA.AperFunction,SMDPad,CuDef*
%ADD18FreePoly0,0.000000*%
G04 #@! TD*
G04 #@! TA.AperFunction,SMDPad,CuDef*
%ADD19FreePoly1,0.000000*%
G04 #@! TD*
G04 #@! TA.AperFunction,ViaPad*
%ADD20C,0.600000*%
G04 #@! TD*
G04 #@! TA.AperFunction,Conductor*
%ADD21C,0.200000*%
G04 #@! TD*
G04 APERTURE END LIST*
D10*
X124735000Y-100640000D03*
D11*
X127275000Y-100640000D03*
X124735000Y-103180000D03*
X127275000Y-103180000D03*
X124735000Y-105720000D03*
X127275000Y-105720000D03*
X124735000Y-108260000D03*
X127275000Y-108260000D03*
X124735000Y-110800000D03*
X127275000Y-110800000D03*
X124735000Y-113340000D03*
X127275000Y-113340000D03*
X124735000Y-115880000D03*
X127275000Y-115880000D03*
X124735000Y-118420000D03*
X127275000Y-118420000D03*
X124735000Y-120960000D03*
X127275000Y-120960000D03*
D12*
X162775000Y-122600000D03*
D13*
X150775000Y-117950000D03*
X150975000Y-102100000D03*
D12*
X120575000Y-122600000D03*
D14*
X159635000Y-107360000D03*
D15*
X157095000Y-104820000D03*
X157095000Y-109900000D03*
X162175000Y-104820000D03*
X162175000Y-109900000D03*
D12*
X120575000Y-80400000D03*
D10*
X135775000Y-83475000D03*
D11*
X135775000Y-80935000D03*
D10*
X133735000Y-121300000D03*
D11*
X136275000Y-121300000D03*
X138815000Y-121300000D03*
D14*
X152365000Y-91050000D03*
D15*
X149825000Y-88510000D03*
X149825000Y-93590000D03*
X154905000Y-88510000D03*
X154905000Y-93590000D03*
D16*
X127775000Y-85520000D03*
D17*
X127775000Y-90600000D03*
D13*
X134275000Y-98700000D03*
X156775000Y-118500000D03*
D12*
X162775000Y-80400000D03*
D18*
X140625000Y-104300000D03*
D19*
X141925000Y-104300000D03*
D20*
X145575000Y-104950000D03*
X143900735Y-101825735D03*
X137735000Y-103000000D03*
X139220947Y-107215482D03*
X141422748Y-111233667D03*
X146075000Y-109900000D03*
X136575000Y-119000000D03*
X142735000Y-96400000D03*
X145575000Y-114950000D03*
X126775000Y-97500000D03*
X138575000Y-119000000D03*
X125275000Y-97500000D03*
X129775000Y-97500000D03*
X138275000Y-85300000D03*
X141394740Y-113408073D03*
X144075000Y-104950000D03*
X144075000Y-114950000D03*
X145575000Y-92700000D03*
X136575000Y-97500000D03*
X151175000Y-112400000D03*
X137275000Y-108300000D03*
X143275000Y-103300000D03*
D21*
X140625000Y-104300000D02*
X139775000Y-104300000D01*
X137775000Y-107800000D02*
X137275000Y-108300000D01*
X137775000Y-106300000D02*
X137775000Y-107800000D01*
X139775000Y-104300000D02*
X137775000Y-106300000D01*
X143275000Y-103300000D02*
X142275000Y-104300000D01*
G04 #@! TA.AperFunction,Conductor*
G36*
X126809075Y-120767007D02*
G01*
X126775000Y-120894174D01*
X126775000Y-121025826D01*
X126809075Y-121152993D01*
X126841988Y-121210000D01*
X125168012Y-121210000D01*
X125200925Y-121152993D01*
X125235000Y-121025826D01*
X125235000Y-120894174D01*
X125200925Y-120767007D01*
X125168012Y-120710000D01*
X126841988Y-120710000D01*
X126809075Y-120767007D01*
G37*
G04 #@! TD.AperFunction*
G04 #@! TA.AperFunction,Conductor*
G36*
X162366755Y-78020185D02*
G01*
X162412510Y-78072989D01*
X162422454Y-78142147D01*
X162393429Y-78205703D01*
X162334651Y-78243477D01*
X162323907Y-78246117D01*
X162204254Y-78269917D01*
X162204239Y-78269921D01*
X161931094Y-78362642D01*
X161672393Y-78490219D01*
X161672386Y-78490223D01*
X161432547Y-78650478D01*
X161215672Y-78840672D01*
X161025478Y-79057547D01*
X160865223Y-79297386D01*
X160865219Y-79297393D01*
X160737642Y-79556094D01*
X160644921Y-79829239D01*
X160644917Y-79829254D01*
X160588646Y-80112150D01*
X160588644Y-80112162D01*
X160569778Y-80400000D01*
X160588644Y-80687837D01*
X160588646Y-80687849D01*
X160644917Y-80970745D01*
X160644921Y-80970760D01*
X160737642Y-81243905D01*
X160865219Y-81502606D01*
X160865223Y-81502613D01*
X161025478Y-81742452D01*
X161215672Y-81959327D01*
X161432547Y-82149521D01*
X161664961Y-82304815D01*
X161672389Y-82309778D01*
X161931098Y-82437359D01*
X162204247Y-82530081D01*
X162487161Y-82586356D01*
X162775000Y-82605222D01*
X163062839Y-82586356D01*
X163345753Y-82530081D01*
X163618902Y-82437359D01*
X163877611Y-82309778D01*
X164117454Y-82149520D01*
X164334327Y-81959327D01*
X164524520Y-81742454D01*
X164684778Y-81502611D01*
X164812359Y-81243902D01*
X164905081Y-80970753D01*
X164928883Y-80851091D01*
X164961268Y-80789181D01*
X165021983Y-80754607D01*
X165091753Y-80758346D01*
X165148425Y-80799212D01*
X165174006Y-80864231D01*
X165174500Y-80875283D01*
X165174500Y-122124716D01*
X165154815Y-122191755D01*
X165102011Y-122237510D01*
X165032853Y-122247454D01*
X164969297Y-122218429D01*
X164931523Y-122159651D01*
X164928883Y-122148907D01*
X164921238Y-122110474D01*
X164905081Y-122029247D01*
X164812359Y-121756098D01*
X164684778Y-121497389D01*
X164681841Y-121492993D01*
X164524521Y-121257547D01*
X164334327Y-121040672D01*
X164117452Y-120850478D01*
X163877613Y-120690223D01*
X163877606Y-120690219D01*
X163618905Y-120562642D01*
X163345760Y-120469921D01*
X163345754Y-120469919D01*
X163345753Y-120469919D01*
X163345751Y-120469918D01*
X163345745Y-120469917D01*
X163062849Y-120413646D01*
X163062839Y-120413644D01*
X162775000Y-120394778D01*
X162487161Y-120413644D01*
X162487155Y-120413645D01*
X162487150Y-120413646D01*
X162204254Y-120469917D01*
X162204239Y-120469921D01*
X161931094Y-120562642D01*
X161672393Y-120690219D01*
X161672386Y-120690223D01*
X161432547Y-120850478D01*
X161215672Y-121040672D01*
X161025478Y-121257547D01*
X160865223Y-121497386D01*
X160865219Y-121497393D01*
X160737642Y-121756094D01*
X160644921Y-122029239D01*
X160644917Y-122029254D01*
X160588646Y-122312150D01*
X160588644Y-122312162D01*
X160569778Y-122600000D01*
X160588644Y-122887837D01*
X160588646Y-122887849D01*
X160644917Y-123170745D01*
X160644921Y-123170760D01*
X160737642Y-123443905D01*
X160865219Y-123702606D01*
X160865223Y-123702613D01*
X161025478Y-123942452D01*
X161215672Y-124159327D01*
X161432547Y-124349521D01*
X161672386Y-124509776D01*
X161672389Y-124509778D01*
X161931098Y-124637359D01*
X162204247Y-124730081D01*
X162285474Y-124746238D01*
X162323907Y-124753883D01*
X162385818Y-124786268D01*
X162420392Y-124846983D01*
X162416653Y-124916753D01*
X162375786Y-124973425D01*
X162310768Y-124999006D01*
X162299716Y-124999500D01*
X121050284Y-124999500D01*
X120983245Y-124979815D01*
X120937490Y-124927011D01*
X120927546Y-124857853D01*
X120956571Y-124794297D01*
X121015349Y-124756523D01*
X121026093Y-124753883D01*
X121054685Y-124748195D01*
X121145753Y-124730081D01*
X121418902Y-124637359D01*
X121677611Y-124509778D01*
X121917454Y-124349520D01*
X122134327Y-124159327D01*
X122324520Y-123942454D01*
X122484778Y-123702611D01*
X122612359Y-123443902D01*
X122705081Y-123170753D01*
X122761356Y-122887839D01*
X122780222Y-122600000D01*
X122761356Y-122312161D01*
X122705081Y-122029247D01*
X122612359Y-121756098D01*
X122484778Y-121497389D01*
X122481841Y-121492993D01*
X122324521Y-121257547D01*
X122134327Y-121040672D01*
X121917452Y-120850478D01*
X121707210Y-120709999D01*
X123404364Y-120709999D01*
X123404364Y-120710000D01*
X124301988Y-120710000D01*
X124269075Y-120767007D01*
X124235000Y-120894174D01*
X124235000Y-121025826D01*
X124269075Y-121152993D01*
X124301988Y-121210000D01*
X123404364Y-121210000D01*
X123461567Y-121423486D01*
X123461570Y-121423492D01*
X123561399Y-121637578D01*
X123696894Y-121831082D01*
X123863917Y-121998105D01*
X124057421Y-122133600D01*
X124271507Y-122233429D01*
X124271516Y-122233433D01*
X124485000Y-122290634D01*
X124485000Y-121393012D01*
X124542007Y-121425925D01*
X124669174Y-121460000D01*
X124800826Y-121460000D01*
X124927993Y-121425925D01*
X124985000Y-121393012D01*
X124985000Y-122290633D01*
X125198483Y-122233433D01*
X125198492Y-122233429D01*
X125412578Y-122133600D01*
X125606082Y-121998105D01*
X125773105Y-121831082D01*
X125903425Y-121644968D01*
X125958002Y-121601344D01*
X126027501Y-121594151D01*
X126089855Y-121625673D01*
X126106575Y-121644968D01*
X126236894Y-121831082D01*
X126403917Y-121998105D01*
X126597421Y-122133600D01*
X126811507Y-122233429D01*
X126811516Y-122233433D01*
X127025000Y-122290634D01*
X127025000Y-121393012D01*
X127082007Y-121425925D01*
X127209174Y-121460000D01*
X127340826Y-121460000D01*
X127467993Y-121425925D01*
X127525000Y-121393012D01*
X127525000Y-122290633D01*
X127738483Y-122233433D01*
X127738492Y-122233429D01*
X127952578Y-122133600D01*
X128146082Y-121998105D01*
X128313105Y-121831082D01*
X128448600Y-121637578D01*
X128548429Y-121423492D01*
X128548432Y-121423486D01*
X128605636Y-121210000D01*
X127708012Y-121210000D01*
X127740925Y-121152993D01*
X127775000Y-121025826D01*
X127775000Y-120894174D01*
X127740925Y-120767007D01*
X127708012Y-120710000D01*
X128605636Y-120710000D01*
X128605635Y-120709999D01*
X128548432Y-120496513D01*
X128548429Y-120496507D01*
X128505820Y-120405131D01*
X132584500Y-120405131D01*
X132584500Y-122194856D01*
X132584502Y-122194882D01*
X132587413Y-122219987D01*
X132587415Y-122219991D01*
X132632793Y-122322764D01*
X132632794Y-122322765D01*
X132712235Y-122402206D01*
X132815009Y-122447585D01*
X132840135Y-122450500D01*
X134629864Y-122450499D01*
X134629879Y-122450497D01*
X134629882Y-122450497D01*
X134654987Y-122447586D01*
X134654988Y-122447585D01*
X134654991Y-122447585D01*
X134757765Y-122402206D01*
X134837206Y-122322765D01*
X134882585Y-122219991D01*
X134885500Y-122194865D01*
X134885499Y-121456046D01*
X134905183Y-121389009D01*
X134957987Y-121343254D01*
X135027146Y-121333310D01*
X135090702Y-121362335D01*
X135128476Y-121421113D01*
X135132970Y-121444606D01*
X135134397Y-121460000D01*
X135139244Y-121512310D01*
X135192675Y-121700099D01*
X135197596Y-121717392D01*
X135197596Y-121717394D01*
X135292632Y-121908253D01*
X135384009Y-122029254D01*
X135421128Y-122078407D01*
X135578698Y-122222052D01*
X135759981Y-122334298D01*
X135958802Y-122411321D01*
X136168390Y-122450500D01*
X136168392Y-122450500D01*
X136381608Y-122450500D01*
X136381610Y-122450500D01*
X136591198Y-122411321D01*
X136790019Y-122334298D01*
X136971302Y-122222052D01*
X137128872Y-122078407D01*
X137257366Y-121908255D01*
X137324325Y-121773781D01*
X137371825Y-121722548D01*
X137439488Y-121705126D01*
X137505828Y-121727051D01*
X137547705Y-121776651D01*
X137641399Y-121977578D01*
X137776894Y-122171082D01*
X137943917Y-122338105D01*
X138137421Y-122473600D01*
X138351507Y-122573429D01*
X138351516Y-122573433D01*
X138565000Y-122630634D01*
X138565000Y-121733012D01*
X138622007Y-121765925D01*
X138749174Y-121800000D01*
X138880826Y-121800000D01*
X139007993Y-121765925D01*
X139065000Y-121733012D01*
X139065000Y-122630633D01*
X139278483Y-122573433D01*
X139278492Y-122573429D01*
X139492578Y-122473600D01*
X139686082Y-122338105D01*
X139853105Y-122171082D01*
X139988600Y-121977578D01*
X140088429Y-121763492D01*
X140088432Y-121763486D01*
X140145636Y-121550000D01*
X139248012Y-121550000D01*
X139280925Y-121492993D01*
X139315000Y-121365826D01*
X139315000Y-121234174D01*
X139280925Y-121107007D01*
X139248012Y-121050000D01*
X140145636Y-121050000D01*
X140145635Y-121049999D01*
X140088432Y-120836513D01*
X140088429Y-120836507D01*
X139988600Y-120622422D01*
X139988599Y-120622420D01*
X139853113Y-120428926D01*
X139853108Y-120428920D01*
X139686082Y-120261894D01*
X139492578Y-120126399D01*
X139278492Y-120026570D01*
X139278486Y-120026567D01*
X139065000Y-119969364D01*
X139065000Y-120866988D01*
X139007993Y-120834075D01*
X138880826Y-120800000D01*
X138749174Y-120800000D01*
X138622007Y-120834075D01*
X138565000Y-120866988D01*
X138565000Y-119969364D01*
X138564999Y-119969364D01*
X138351513Y-120026567D01*
X138351507Y-120026570D01*
X138137422Y-120126399D01*
X138137420Y-120126400D01*
X137943926Y-120261886D01*
X137943920Y-120261891D01*
X137776891Y-120428920D01*
X137776886Y-120428926D01*
X137641400Y-120622420D01*
X137641399Y-120622422D01*
X137547705Y-120823348D01*
X137501532Y-120875787D01*
X137434339Y-120894939D01*
X137367457Y-120874723D01*
X137324324Y-120826216D01*
X137257366Y-120691745D01*
X137128872Y-120521593D01*
X136971302Y-120377948D01*
X136790019Y-120265702D01*
X136790017Y-120265701D01*
X136690608Y-120227190D01*
X136591198Y-120188679D01*
X136381610Y-120149500D01*
X136168390Y-120149500D01*
X135958802Y-120188679D01*
X135958799Y-120188679D01*
X135958799Y-120188680D01*
X135759982Y-120265701D01*
X135759980Y-120265702D01*
X135578699Y-120377947D01*
X135421127Y-120521593D01*
X135292632Y-120691746D01*
X135197596Y-120882605D01*
X135197596Y-120882607D01*
X135139244Y-121087689D01*
X135132970Y-121155394D01*
X135107183Y-121220331D01*
X135050383Y-121261018D01*
X134980602Y-121264538D01*
X134919995Y-121229772D01*
X134887806Y-121167759D01*
X134885499Y-121143952D01*
X134885499Y-120405143D01*
X134885499Y-120405136D01*
X134884298Y-120394778D01*
X134882586Y-120380012D01*
X134882585Y-120380010D01*
X134882585Y-120380009D01*
X134837206Y-120277235D01*
X134757765Y-120197794D01*
X134737124Y-120188680D01*
X134654992Y-120152415D01*
X134629865Y-120149500D01*
X132840143Y-120149500D01*
X132840117Y-120149502D01*
X132815012Y-120152413D01*
X132815008Y-120152415D01*
X132712235Y-120197793D01*
X132632794Y-120277234D01*
X132587415Y-120380006D01*
X132587415Y-120380008D01*
X132584500Y-120405131D01*
X128505820Y-120405131D01*
X128448600Y-120282422D01*
X128448599Y-120282420D01*
X128313113Y-120088926D01*
X128313108Y-120088920D01*
X128146082Y-119921894D01*
X127952578Y-119786399D01*
X127753426Y-119693533D01*
X127700987Y-119647360D01*
X127681835Y-119580167D01*
X127702051Y-119513286D01*
X127755216Y-119467951D01*
X127761005Y-119465537D01*
X127790019Y-119454298D01*
X127971302Y-119342052D01*
X128128872Y-119198407D01*
X128257366Y-119028255D01*
X128296310Y-118950045D01*
X128352403Y-118837394D01*
X128352403Y-118837393D01*
X128352405Y-118837389D01*
X128410756Y-118632310D01*
X128430429Y-118420000D01*
X128410756Y-118207690D01*
X128352405Y-118002611D01*
X128352403Y-118002606D01*
X128352403Y-118002605D01*
X128326208Y-117949998D01*
X149469532Y-117949998D01*
X149469532Y-117950001D01*
X149489364Y-118176686D01*
X149489366Y-118176697D01*
X149548258Y-118396488D01*
X149548261Y-118396497D01*
X149644431Y-118602732D01*
X149644432Y-118602734D01*
X149774954Y-118789141D01*
X149935858Y-118950045D01*
X149935861Y-118950047D01*
X150122266Y-119080568D01*
X150328504Y-119176739D01*
X150548308Y-119235635D01*
X150710230Y-119249801D01*
X150774998Y-119255468D01*
X150775000Y-119255468D01*
X150775002Y-119255468D01*
X150831673Y-119250509D01*
X151001692Y-119235635D01*
X151221496Y-119176739D01*
X151427734Y-119080568D01*
X151614139Y-118950047D01*
X151775047Y-118789139D01*
X151905568Y-118602734D01*
X151953477Y-118499994D01*
X155269859Y-118499994D01*
X155269859Y-118500005D01*
X155290385Y-118747729D01*
X155290387Y-118747738D01*
X155351412Y-118988717D01*
X155451266Y-119216364D01*
X155551564Y-119369882D01*
X156292037Y-118629409D01*
X156309075Y-118692993D01*
X156374901Y-118807007D01*
X156467993Y-118900099D01*
X156582007Y-118965925D01*
X156645590Y-118982962D01*
X155904942Y-119723609D01*
X155951768Y-119760055D01*
X155951770Y-119760056D01*
X156170385Y-119878364D01*
X156170396Y-119878369D01*
X156405506Y-119959083D01*
X156650707Y-120000000D01*
X156899293Y-120000000D01*
X157144493Y-119959083D01*
X157379603Y-119878369D01*
X157379614Y-119878364D01*
X157598228Y-119760057D01*
X157598231Y-119760055D01*
X157645056Y-119723609D01*
X156904409Y-118982962D01*
X156967993Y-118965925D01*
X157082007Y-118900099D01*
X157175099Y-118807007D01*
X157240925Y-118692993D01*
X157257962Y-118629410D01*
X157998434Y-119369882D01*
X158098731Y-119216369D01*
X158198587Y-118988717D01*
X158259612Y-118747738D01*
X158259614Y-118747729D01*
X158280141Y-118500005D01*
X158280141Y-118499994D01*
X158259614Y-118252270D01*
X158259612Y-118252261D01*
X158198587Y-118011282D01*
X158098731Y-117783630D01*
X157998434Y-117630116D01*
X157257962Y-118370589D01*
X157240925Y-118307007D01*
X157175099Y-118192993D01*
X157082007Y-118099901D01*
X156967993Y-118034075D01*
X156904410Y-118017037D01*
X157645057Y-117276390D01*
X157645056Y-117276389D01*
X157598229Y-117239943D01*
X157379614Y-117121635D01*
X157379603Y-117121630D01*
X157144493Y-117040916D01*
X156899293Y-117000000D01*
X156650707Y-117000000D01*
X156405506Y-117040916D01*
X156170396Y-117121630D01*
X156170390Y-117121632D01*
X155951761Y-117239949D01*
X155904942Y-117276388D01*
X155904942Y-117276390D01*
X156645590Y-118017037D01*
X156582007Y-118034075D01*
X156467993Y-118099901D01*
X156374901Y-118192993D01*
X156309075Y-118307007D01*
X156292037Y-118370589D01*
X155551564Y-117630116D01*
X155451267Y-117783632D01*
X155351412Y-118011282D01*
X155290387Y-118252261D01*
X155290385Y-118252270D01*
X155269859Y-118499994D01*
X151953477Y-118499994D01*
X152001739Y-118396496D01*
X152060635Y-118176692D01*
X152080468Y-117950000D01*
X152060635Y-117723308D01*
X152001739Y-117503504D01*
X151905568Y-117297266D01*
X151782589Y-117121632D01*
X151775045Y-117110858D01*
X151614141Y-116949954D01*
X151427734Y-116819432D01*
X151427732Y-116819431D01*
X151221497Y-116723261D01*
X151221488Y-116723258D01*
X151001697Y-116664366D01*
X151001693Y-116664365D01*
X151001692Y-116664365D01*
X151001691Y-116664364D01*
X151001686Y-116664364D01*
X150775002Y-116644532D01*
X150774998Y-116644532D01*
X150548313Y-116664364D01*
X150548302Y-116664366D01*
X150328511Y-116723258D01*
X150328502Y-116723261D01*
X150122267Y-116819431D01*
X150122265Y-116819432D01*
X149935858Y-116949954D01*
X149774954Y-117110858D01*
X149644432Y-117297265D01*
X149644431Y-117297267D01*
X149548261Y-117503502D01*
X149548258Y-117503511D01*
X149489366Y-117723302D01*
X149489364Y-117723313D01*
X149469532Y-117949998D01*
X128326208Y-117949998D01*
X128257367Y-117811746D01*
X128128872Y-117641593D01*
X128116282Y-117630116D01*
X127971302Y-117497948D01*
X127790019Y-117385702D01*
X127790017Y-117385701D01*
X127690608Y-117347190D01*
X127591198Y-117308679D01*
X127394385Y-117271888D01*
X127332106Y-117240221D01*
X127296833Y-117179908D01*
X127299767Y-117110100D01*
X127339976Y-117052960D01*
X127394384Y-117028111D01*
X127591198Y-116991321D01*
X127790019Y-116914298D01*
X127971302Y-116802052D01*
X128128872Y-116658407D01*
X128257366Y-116488255D01*
X128352405Y-116297389D01*
X128410756Y-116092310D01*
X128430429Y-115880000D01*
X128410756Y-115667690D01*
X128352405Y-115462611D01*
X128352403Y-115462606D01*
X128352403Y-115462605D01*
X128257367Y-115271746D01*
X128128872Y-115101593D01*
X127971302Y-114957948D01*
X127790019Y-114845702D01*
X127790017Y-114845701D01*
X127690608Y-114807190D01*
X127591198Y-114768679D01*
X127394385Y-114731888D01*
X127332106Y-114700221D01*
X127296833Y-114639908D01*
X127299767Y-114570100D01*
X127339976Y-114512960D01*
X127394384Y-114488111D01*
X127591198Y-114451321D01*
X127790019Y-114374298D01*
X127971302Y-114262052D01*
X128128872Y-114118407D01*
X128257366Y-113948255D01*
X128352405Y-113757389D01*
X128410756Y-113552310D01*
X128430429Y-113340000D01*
X128410756Y-113127690D01*
X128352405Y-112922611D01*
X128352403Y-112922606D01*
X128352403Y-112922605D01*
X128257367Y-112731746D01*
X128128872Y-112561593D01*
X127971302Y-112417948D01*
X127790019Y-112305702D01*
X127790017Y-112305701D01*
X127690608Y-112267190D01*
X127591198Y-112228679D01*
X127394385Y-112191888D01*
X127332106Y-112160221D01*
X127296833Y-112099908D01*
X127299767Y-112030100D01*
X127339976Y-111972960D01*
X127394384Y-111948111D01*
X127591198Y-111911321D01*
X127790019Y-111834298D01*
X127971302Y-111722052D01*
X128128872Y-111578407D01*
X128257366Y-111408255D01*
X128285197Y-111352363D01*
X128352403Y-111217394D01*
X128352403Y-111217393D01*
X128352405Y-111217389D01*
X128410756Y-111012310D01*
X128430429Y-110800000D01*
X128410756Y-110587690D01*
X128352405Y-110382611D01*
X128352403Y-110382606D01*
X128352403Y-110382605D01*
X128257367Y-110191746D01*
X128128872Y-110021593D01*
X128087325Y-109983718D01*
X127995492Y-109900000D01*
X155464975Y-109900000D01*
X155485042Y-110154989D01*
X155544752Y-110403702D01*
X155642634Y-110640012D01*
X155642636Y-110640015D01*
X155776277Y-110858098D01*
X155776284Y-110858107D01*
X155779533Y-110861912D01*
X156340884Y-110300560D01*
X156341740Y-110302626D01*
X156434762Y-110441844D01*
X156553156Y-110560238D01*
X156692374Y-110653260D01*
X156694437Y-110654114D01*
X156133087Y-111215465D01*
X156136897Y-111218719D01*
X156354984Y-111352363D01*
X156354987Y-111352365D01*
X156591297Y-111450247D01*
X156840011Y-111509957D01*
X156840010Y-111509957D01*
X157095000Y-111530024D01*
X157349989Y-111509957D01*
X157598702Y-111450247D01*
X157835012Y-111352365D01*
X157835015Y-111352363D01*
X158053095Y-111218724D01*
X158053110Y-111218713D01*
X158056911Y-111215466D01*
X158056911Y-111215464D01*
X157495562Y-110654114D01*
X157497626Y-110653260D01*
X157636844Y-110560238D01*
X157755238Y-110441844D01*
X157848260Y-110302626D01*
X157849114Y-110300561D01*
X158410464Y-110861911D01*
X158410466Y-110861911D01*
X158413713Y-110858110D01*
X158413724Y-110858095D01*
X158547363Y-110640015D01*
X158547365Y-110640012D01*
X158645247Y-110403702D01*
X158704957Y-110154989D01*
X158725024Y-109900000D01*
X160544975Y-109900000D01*
X160565042Y-110154989D01*
X160624752Y-110403702D01*
X160722634Y-110640012D01*
X160722636Y-110640015D01*
X160856277Y-110858098D01*
X160856284Y-110858107D01*
X160859533Y-110861912D01*
X161420884Y-110300560D01*
X161421740Y-110302626D01*
X161514762Y-110441844D01*
X161633156Y-110560238D01*
X161772374Y-110653260D01*
X161774437Y-110654114D01*
X161213087Y-111215465D01*
X161216897Y-111218719D01*
X161434984Y-111352363D01*
X161434987Y-111352365D01*
X161671297Y-111450247D01*
X161920011Y-111509957D01*
X161920010Y-111509957D01*
X162175000Y-111530024D01*
X162429989Y-111509957D01*
X162678702Y-111450247D01*
X162915012Y-111352365D01*
X162915015Y-111352363D01*
X163133095Y-111218724D01*
X163133110Y-111218713D01*
X163136911Y-111215466D01*
X163136911Y-111215464D01*
X162575562Y-110654114D01*
X162577626Y-110653260D01*
X162716844Y-110560238D01*
X162835238Y-110441844D01*
X162928260Y-110302626D01*
X162929114Y-110300561D01*
X163490464Y-110861911D01*
X163490466Y-110861911D01*
X163493713Y-110858110D01*
X163493724Y-110858095D01*
X163627363Y-110640015D01*
X163627365Y-110640012D01*
X163725247Y-110403702D01*
X163784957Y-110154989D01*
X163805024Y-109900000D01*
X163784957Y-109645010D01*
X163725247Y-109396297D01*
X163627365Y-109159987D01*
X163627363Y-109159984D01*
X163493719Y-108941897D01*
X163490465Y-108938087D01*
X162929114Y-109499437D01*
X162928260Y-109497374D01*
X162835238Y-109358156D01*
X162716844Y-109239762D01*
X162577626Y-109146740D01*
X162575561Y-109145884D01*
X163136912Y-108584533D01*
X163133107Y-108581284D01*
X163133098Y-108581277D01*
X162915015Y-108447636D01*
X162915012Y-108447634D01*
X162678702Y-108349752D01*
X162429988Y-108290042D01*
X162429989Y-108290042D01*
X162175000Y-108269975D01*
X161920010Y-108290042D01*
X161671297Y-108349752D01*
X161434987Y-108447634D01*
X161434984Y-108447636D01*
X161216893Y-108581282D01*
X161213086Y-108584532D01*
X161774438Y-109145884D01*
X161772374Y-109146740D01*
X161633156Y-109239762D01*
X161514762Y-109358156D01*
X161421740Y-109497374D01*
X161420884Y-109499438D01*
X160859532Y-108938086D01*
X160856282Y-108941893D01*
X160722636Y-109159984D01*
X160722634Y-109159987D01*
X160624752Y-109396297D01*
X160565042Y-109645010D01*
X160544975Y-109900000D01*
X158725024Y-109900000D01*
X158704957Y-109645010D01*
X158645247Y-109396297D01*
X158547365Y-109159987D01*
X158547363Y-109159984D01*
X158413719Y-108941897D01*
X158410465Y-108938087D01*
X157849114Y-109499437D01*
X157848260Y-109497374D01*
X157755238Y-109358156D01*
X157636844Y-109239762D01*
X157497626Y-109146740D01*
X157495561Y-109145884D01*
X158056912Y-108584533D01*
X158053107Y-108581284D01*
X158053098Y-108581277D01*
X157835015Y-108447636D01*
X157835012Y-108447634D01*
X157598702Y-108349752D01*
X157349988Y-108290042D01*
X157349989Y-108290042D01*
X157095000Y-108269975D01*
X156840010Y-108290042D01*
X156591297Y-108349752D01*
X156354987Y-108447634D01*
X156354984Y-108447636D01*
X156136893Y-108581282D01*
X156133086Y-108584532D01*
X156694438Y-109145884D01*
X156692374Y-109146740D01*
X156553156Y-109239762D01*
X156434762Y-109358156D01*
X156341740Y-109497374D01*
X156340884Y-109499438D01*
X155779532Y-108938086D01*
X155776282Y-108941893D01*
X155642636Y-109159984D01*
X155642634Y-109159987D01*
X155544752Y-109396297D01*
X155485042Y-109645010D01*
X155464975Y-109900000D01*
X127995492Y-109900000D01*
X127971302Y-109877948D01*
X127790019Y-109765702D01*
X127790017Y-109765701D01*
X127690608Y-109727190D01*
X127591198Y-109688679D01*
X127394385Y-109651888D01*
X127332106Y-109620221D01*
X127296833Y-109559908D01*
X127299767Y-109490100D01*
X127339976Y-109432960D01*
X127394384Y-109408111D01*
X127591198Y-109371321D01*
X127790019Y-109294298D01*
X127971302Y-109182052D01*
X128128872Y-109038407D01*
X128257366Y-108868255D01*
X128327064Y-108728281D01*
X128352403Y-108677394D01*
X128352403Y-108677393D01*
X128352405Y-108677389D01*
X128410756Y-108472310D01*
X128426723Y-108299998D01*
X136669318Y-108299998D01*
X136669318Y-108300001D01*
X136689955Y-108456760D01*
X136689956Y-108456762D01*
X136742880Y-108584533D01*
X136750464Y-108602841D01*
X136846718Y-108728282D01*
X136972159Y-108824536D01*
X137118238Y-108885044D01*
X137196619Y-108895363D01*
X137274999Y-108905682D01*
X137275000Y-108905682D01*
X137275001Y-108905682D01*
X137327254Y-108898802D01*
X137431762Y-108885044D01*
X137577841Y-108824536D01*
X137703282Y-108728282D01*
X137799536Y-108602841D01*
X137860044Y-108456762D01*
X137880682Y-108300000D01*
X137880681Y-108299997D01*
X137881144Y-108296485D01*
X137909410Y-108232589D01*
X137916393Y-108224998D01*
X138010701Y-108130689D01*
X138010706Y-108130686D01*
X138020911Y-108120480D01*
X138020913Y-108120480D01*
X138095480Y-108045913D01*
X138123628Y-107997159D01*
X138148207Y-107954588D01*
X138175500Y-107852727D01*
X138175500Y-107747273D01*
X138175500Y-107359998D01*
X158304437Y-107359998D01*
X158304437Y-107360001D01*
X158324650Y-107591044D01*
X158324651Y-107591051D01*
X158384678Y-107815074D01*
X158384679Y-107815076D01*
X158384680Y-107815079D01*
X158482699Y-108025282D01*
X158615730Y-108215269D01*
X158779731Y-108379270D01*
X158969718Y-108512301D01*
X159179921Y-108610320D01*
X159403950Y-108670349D01*
X159568985Y-108684787D01*
X159634998Y-108690563D01*
X159635000Y-108690563D01*
X159635002Y-108690563D01*
X159692762Y-108685509D01*
X159866050Y-108670349D01*
X160090079Y-108610320D01*
X160300282Y-108512301D01*
X160490269Y-108379270D01*
X160654270Y-108215269D01*
X160787301Y-108025282D01*
X160885320Y-107815079D01*
X160945349Y-107591050D01*
X160965563Y-107360000D01*
X160945349Y-107128950D01*
X160885320Y-106904921D01*
X160787301Y-106694719D01*
X160787299Y-106694716D01*
X160787298Y-106694714D01*
X160654273Y-106504735D01*
X160654268Y-106504729D01*
X160490269Y-106340730D01*
X160356799Y-106247273D01*
X160300282Y-106207699D01*
X160090079Y-106109680D01*
X160090076Y-106109679D01*
X160090074Y-106109678D01*
X159866051Y-106049651D01*
X159866044Y-106049650D01*
X159635002Y-106029437D01*
X159634998Y-106029437D01*
X159403955Y-106049650D01*
X159403948Y-106049651D01*
X159179917Y-106109681D01*
X158969718Y-106207699D01*
X158969714Y-106207701D01*
X158779735Y-106340726D01*
X158779729Y-106340731D01*
X158615731Y-106504729D01*
X158615726Y-106504735D01*
X158482701Y-106694714D01*
X158482699Y-106694718D01*
X158384681Y-106904917D01*
X158324651Y-107128948D01*
X158324650Y-107128955D01*
X158304437Y-107359998D01*
X138175500Y-107359998D01*
X138175500Y-106517254D01*
X138195185Y-106450215D01*
X138211814Y-106429578D01*
X139723523Y-104917868D01*
X139784844Y-104884385D01*
X139854536Y-104889369D01*
X139910469Y-104931241D01*
X139920036Y-104946128D01*
X139922155Y-104950009D01*
X139969162Y-105023153D01*
X139969173Y-105023169D01*
X140063320Y-105131821D01*
X140063323Y-105131823D01*
X140129030Y-105188758D01*
X140129037Y-105188764D01*
X140249985Y-105266493D01*
X140249991Y-105266496D01*
X140329087Y-105302618D01*
X140467042Y-105343125D01*
X140553111Y-105355500D01*
X140553112Y-105355500D01*
X141124998Y-105355500D01*
X141125000Y-105355500D01*
X141153188Y-105354197D01*
X141235063Y-105330901D01*
X141304929Y-105331487D01*
X141313792Y-105334541D01*
X141314638Y-105334869D01*
X141314639Y-105334869D01*
X141314641Y-105334870D01*
X141425000Y-105355500D01*
X141425002Y-105355500D01*
X141996888Y-105355500D01*
X141996889Y-105355500D01*
X142082958Y-105343125D01*
X142220913Y-105302618D01*
X142300009Y-105266496D01*
X142420963Y-105188764D01*
X142486681Y-105131819D01*
X142542035Y-105067936D01*
X142580826Y-105023169D01*
X142580828Y-105023166D01*
X142580835Y-105023158D01*
X142627844Y-104950010D01*
X142627846Y-104950005D01*
X142627850Y-104949998D01*
X142687218Y-104820000D01*
X155464975Y-104820000D01*
X155485042Y-105074989D01*
X155544752Y-105323702D01*
X155642634Y-105560012D01*
X155642636Y-105560015D01*
X155776277Y-105778098D01*
X155776284Y-105778107D01*
X155779533Y-105781912D01*
X156340884Y-105220560D01*
X156341740Y-105222626D01*
X156434762Y-105361844D01*
X156553156Y-105480238D01*
X156692374Y-105573260D01*
X156694437Y-105574114D01*
X156133087Y-106135465D01*
X156136897Y-106138719D01*
X156354984Y-106272363D01*
X156354987Y-106272365D01*
X156591297Y-106370247D01*
X156840011Y-106429957D01*
X156840010Y-106429957D01*
X157095000Y-106450024D01*
X157349989Y-106429957D01*
X157598702Y-106370247D01*
X157835012Y-106272365D01*
X157835015Y-106272363D01*
X158053095Y-106138724D01*
X158053110Y-106138713D01*
X158056911Y-106135466D01*
X158056911Y-106135464D01*
X157495562Y-105574114D01*
X157497626Y-105573260D01*
X157636844Y-105480238D01*
X157755238Y-105361844D01*
X157848260Y-105222626D01*
X157849114Y-105220561D01*
X158410464Y-105781911D01*
X158410466Y-105781911D01*
X158413713Y-105778110D01*
X158413724Y-105778095D01*
X158547363Y-105560015D01*
X158547365Y-105560012D01*
X158645247Y-105323702D01*
X158704957Y-105074989D01*
X158725024Y-104820000D01*
X160544975Y-104820000D01*
X160565042Y-105074989D01*
X160624752Y-105323702D01*
X160722634Y-105560012D01*
X160722636Y-105560015D01*
X160856277Y-105778098D01*
X160856284Y-105778107D01*
X160859533Y-105781912D01*
X161420884Y-105220560D01*
X161421740Y-105222626D01*
X161514762Y-105361844D01*
X161633156Y-105480238D01*
X161772374Y-105573260D01*
X161774437Y-105574114D01*
X161213087Y-106135465D01*
X161216897Y-106138719D01*
X161434984Y-106272363D01*
X161434987Y-106272365D01*
X161671297Y-106370247D01*
X161920011Y-106429957D01*
X161920010Y-106429957D01*
X162175000Y-106450024D01*
X162429989Y-106429957D01*
X162678702Y-106370247D01*
X162915012Y-106272365D01*
X162915015Y-106272363D01*
X163133095Y-106138724D01*
X163133110Y-106138713D01*
X163136911Y-106135466D01*
X163136911Y-106135464D01*
X162575562Y-105574114D01*
X162577626Y-105573260D01*
X162716844Y-105480238D01*
X162835238Y-105361844D01*
X162928260Y-105222626D01*
X162929114Y-105220561D01*
X163490464Y-105781911D01*
X163490466Y-105781911D01*
X163493713Y-105778110D01*
X163493724Y-105778095D01*
X163627363Y-105560015D01*
X163627365Y-105560012D01*
X163725247Y-105323702D01*
X163784957Y-105074989D01*
X163805024Y-104820000D01*
X163784957Y-104565010D01*
X163725247Y-104316297D01*
X163627365Y-104079987D01*
X163627363Y-104079984D01*
X163493719Y-103861897D01*
X163490465Y-103858087D01*
X162929114Y-104419437D01*
X162928260Y-104417374D01*
X162835238Y-104278156D01*
X162716844Y-104159762D01*
X162577626Y-104066740D01*
X162575561Y-104065884D01*
X163136912Y-103504533D01*
X163133107Y-103501284D01*
X163133098Y-103501277D01*
X162915015Y-103367636D01*
X162915012Y-103367634D01*
X162678702Y-103269752D01*
X162429988Y-103210042D01*
X162429989Y-103210042D01*
X162175000Y-103189975D01*
X161920010Y-103210042D01*
X161671297Y-103269752D01*
X161434987Y-103367634D01*
X161434984Y-103367636D01*
X161216893Y-103501282D01*
X161213086Y-103504532D01*
X161774438Y-104065884D01*
X161772374Y-104066740D01*
X161633156Y-104159762D01*
X161514762Y-104278156D01*
X161421740Y-104417374D01*
X161420884Y-104419438D01*
X160859532Y-103858086D01*
X160856282Y-103861893D01*
X160722636Y-104079984D01*
X160722634Y-104079987D01*
X160624752Y-104316297D01*
X160565042Y-104565010D01*
X160544975Y-104820000D01*
X158725024Y-104820000D01*
X158704957Y-104565010D01*
X158645247Y-104316297D01*
X158547365Y-104079987D01*
X158547363Y-104079984D01*
X158413719Y-103861897D01*
X158410465Y-103858087D01*
X157849114Y-104419437D01*
X157848260Y-104417374D01*
X157755238Y-104278156D01*
X157636844Y-104159762D01*
X157497626Y-104066740D01*
X157495561Y-104065884D01*
X158056912Y-103504533D01*
X158053107Y-103501284D01*
X158053098Y-103501277D01*
X157835015Y-103367636D01*
X157835012Y-103367634D01*
X157598702Y-103269752D01*
X157349988Y-103210042D01*
X157349989Y-103210042D01*
X157095000Y-103189975D01*
X156840010Y-103210042D01*
X156591297Y-103269752D01*
X156354987Y-103367634D01*
X156354984Y-103367636D01*
X156136893Y-103501282D01*
X156133086Y-103504532D01*
X156694438Y-104065884D01*
X156692374Y-104066740D01*
X156553156Y-104159762D01*
X156434762Y-104278156D01*
X156341740Y-104417374D01*
X156340884Y-104419438D01*
X155779532Y-103858086D01*
X155776282Y-103861893D01*
X155642636Y-104079984D01*
X155642634Y-104079987D01*
X155544752Y-104316297D01*
X155485042Y-104565010D01*
X155464975Y-104820000D01*
X142687218Y-104820000D01*
X142687572Y-104819225D01*
X142712070Y-104735793D01*
X142732532Y-104593478D01*
X142732533Y-104506524D01*
X142731762Y-104501160D01*
X142730500Y-104483516D01*
X142730500Y-104462254D01*
X142750185Y-104395215D01*
X142766819Y-104374573D01*
X142981630Y-104159762D01*
X143199991Y-103941400D01*
X143261312Y-103907917D01*
X143271485Y-103906144D01*
X143274997Y-103905681D01*
X143275000Y-103905682D01*
X143431762Y-103885044D01*
X143577841Y-103824536D01*
X143703282Y-103728282D01*
X143799536Y-103602841D01*
X143860044Y-103456762D01*
X143876271Y-103333503D01*
X143880682Y-103300001D01*
X143880682Y-103299998D01*
X143860044Y-103143239D01*
X143860044Y-103143238D01*
X143799536Y-102997159D01*
X143703282Y-102871718D01*
X143577841Y-102775464D01*
X143431762Y-102714956D01*
X143431760Y-102714955D01*
X143275001Y-102694318D01*
X143274999Y-102694318D01*
X143118239Y-102714955D01*
X143118237Y-102714956D01*
X142972160Y-102775463D01*
X142846718Y-102871718D01*
X142750463Y-102997160D01*
X142689956Y-103143237D01*
X142689956Y-103143238D01*
X142668855Y-103303513D01*
X142640588Y-103367409D01*
X142633597Y-103375008D01*
X142597109Y-103411496D01*
X142535786Y-103444981D01*
X142466094Y-103439997D01*
X142428229Y-103417531D01*
X142420968Y-103411240D01*
X142420962Y-103411235D01*
X142300014Y-103333506D01*
X142300008Y-103333503D01*
X142257034Y-103313877D01*
X142220913Y-103297382D01*
X142163566Y-103280543D01*
X142082956Y-103256874D01*
X142005951Y-103245803D01*
X141996889Y-103244500D01*
X141425000Y-103244500D01*
X141422130Y-103244632D01*
X141396816Y-103245802D01*
X141396806Y-103245804D01*
X141314937Y-103269098D01*
X141245070Y-103268511D01*
X141236217Y-103265462D01*
X141235363Y-103265131D01*
X141235359Y-103265130D01*
X141125000Y-103244500D01*
X140553111Y-103244500D01*
X140467043Y-103256874D01*
X140329087Y-103297382D01*
X140249991Y-103333503D01*
X140249985Y-103333506D01*
X140129037Y-103411235D01*
X140129030Y-103411241D01*
X140063323Y-103468176D01*
X140063320Y-103468178D01*
X139969173Y-103576830D01*
X139969162Y-103576846D01*
X139922158Y-103649984D01*
X139922149Y-103650001D01*
X139862430Y-103780768D01*
X139853719Y-103810436D01*
X139815944Y-103869214D01*
X139752388Y-103898238D01*
X139734742Y-103899500D01*
X139722273Y-103899500D01*
X139620410Y-103926793D01*
X139529087Y-103979520D01*
X139529084Y-103979522D01*
X137454522Y-106054084D01*
X137454518Y-106054090D01*
X137401792Y-106145412D01*
X137401793Y-106145413D01*
X137374500Y-106247273D01*
X137374500Y-107572473D01*
X137354815Y-107639512D01*
X137302011Y-107685267D01*
X137266686Y-107695412D01*
X137118238Y-107714956D01*
X137118237Y-107714956D01*
X136972160Y-107775463D01*
X136846718Y-107871718D01*
X136750463Y-107997160D01*
X136689956Y-108143237D01*
X136689955Y-108143239D01*
X136669318Y-108299998D01*
X128426723Y-108299998D01*
X128430429Y-108260000D01*
X128410756Y-108047690D01*
X128352405Y-107842611D01*
X128352403Y-107842606D01*
X128352403Y-107842605D01*
X128257367Y-107651746D01*
X128128872Y-107481593D01*
X127971302Y-107337948D01*
X127790019Y-107225702D01*
X127790017Y-107225701D01*
X127690608Y-107187190D01*
X127591198Y-107148679D01*
X127394385Y-107111888D01*
X127332106Y-107080221D01*
X127296833Y-107019908D01*
X127299767Y-106950100D01*
X127339976Y-106892960D01*
X127394384Y-106868111D01*
X127591198Y-106831321D01*
X127790019Y-106754298D01*
X127971302Y-106642052D01*
X128128872Y-106498407D01*
X128257366Y-106328255D01*
X128348410Y-106145413D01*
X128352403Y-106137394D01*
X128352403Y-106137393D01*
X128352405Y-106137389D01*
X128410756Y-105932310D01*
X128430429Y-105720000D01*
X128410756Y-105507690D01*
X128352405Y-105302611D01*
X128352403Y-105302606D01*
X128352403Y-105302605D01*
X128257367Y-105111746D01*
X128128872Y-104941593D01*
X128066118Y-104884385D01*
X127971302Y-104797948D01*
X127790019Y-104685702D01*
X127790017Y-104685701D01*
X127690608Y-104647190D01*
X127591198Y-104608679D01*
X127394385Y-104571888D01*
X127332106Y-104540221D01*
X127296833Y-104479908D01*
X127299767Y-104410100D01*
X127339976Y-104352960D01*
X127394384Y-104328111D01*
X127591198Y-104291321D01*
X127790019Y-104214298D01*
X127971302Y-104102052D01*
X128128872Y-103958407D01*
X128257366Y-103788255D01*
X128326216Y-103649984D01*
X128352403Y-103597394D01*
X128352403Y-103597393D01*
X128352405Y-103597389D01*
X128410756Y-103392310D01*
X128430429Y-103180000D01*
X128410756Y-102967690D01*
X128352405Y-102762611D01*
X128352403Y-102762606D01*
X128352403Y-102762605D01*
X128257367Y-102571746D01*
X128128872Y-102401593D01*
X127971302Y-102257948D01*
X127790019Y-102145702D01*
X127790017Y-102145701D01*
X127672050Y-102100001D01*
X127672042Y-102099998D01*
X149669532Y-102099998D01*
X149669532Y-102100001D01*
X149689364Y-102326686D01*
X149689366Y-102326697D01*
X149748258Y-102546488D01*
X149748261Y-102546497D01*
X149844431Y-102752732D01*
X149844432Y-102752734D01*
X149974954Y-102939141D01*
X150135858Y-103100045D01*
X150135861Y-103100047D01*
X150322266Y-103230568D01*
X150528504Y-103326739D01*
X150528509Y-103326740D01*
X150528511Y-103326741D01*
X150553751Y-103333504D01*
X150748308Y-103385635D01*
X150910230Y-103399801D01*
X150974998Y-103405468D01*
X150975000Y-103405468D01*
X150975002Y-103405468D01*
X151031673Y-103400509D01*
X151201692Y-103385635D01*
X151421496Y-103326739D01*
X151627734Y-103230568D01*
X151814139Y-103100047D01*
X151975047Y-102939139D01*
X152105568Y-102752734D01*
X152201739Y-102546496D01*
X152260635Y-102326692D01*
X152280468Y-102100000D01*
X152260635Y-101873308D01*
X152207311Y-101674298D01*
X152201741Y-101653511D01*
X152201738Y-101653502D01*
X152146424Y-101534882D01*
X152105568Y-101447266D01*
X151975047Y-101260861D01*
X151975045Y-101260858D01*
X151814141Y-101099954D01*
X151627734Y-100969432D01*
X151627732Y-100969431D01*
X151421497Y-100873261D01*
X151421488Y-100873258D01*
X151201697Y-100814366D01*
X151201693Y-100814365D01*
X151201692Y-100814365D01*
X151201691Y-100814364D01*
X151201686Y-100814364D01*
X150975002Y-100794532D01*
X150974998Y-100794532D01*
X150748313Y-100814364D01*
X150748302Y-100814366D01*
X150528511Y-100873258D01*
X150528502Y-100873261D01*
X150322267Y-100969431D01*
X150322265Y-100969432D01*
X150135858Y-101099954D01*
X149974954Y-101260858D01*
X149844432Y-101447265D01*
X149844431Y-101447267D01*
X149748261Y-101653502D01*
X149748258Y-101653511D01*
X149689366Y-101873302D01*
X149689364Y-101873313D01*
X149669532Y-102099998D01*
X127672042Y-102099998D01*
X127591198Y-102068679D01*
X127394385Y-102031888D01*
X127332106Y-102000221D01*
X127296833Y-101939908D01*
X127299767Y-101870100D01*
X127339976Y-101812960D01*
X127394384Y-101788111D01*
X127591198Y-101751321D01*
X127790019Y-101674298D01*
X127971302Y-101562052D01*
X128128872Y-101418407D01*
X128257366Y-101248255D01*
X128257367Y-101248253D01*
X128352403Y-101057394D01*
X128352403Y-101057393D01*
X128352405Y-101057389D01*
X128410756Y-100852310D01*
X128430429Y-100640000D01*
X128410756Y-100427690D01*
X128352405Y-100222611D01*
X128352403Y-100222606D01*
X128352403Y-100222605D01*
X128257367Y-100031746D01*
X128128872Y-99861593D01*
X128001133Y-99745143D01*
X127971302Y-99717948D01*
X127790019Y-99605702D01*
X127790017Y-99605701D01*
X127690608Y-99567190D01*
X127591198Y-99528679D01*
X127381610Y-99489500D01*
X127168390Y-99489500D01*
X126958802Y-99528679D01*
X126958799Y-99528679D01*
X126958799Y-99528680D01*
X126759982Y-99605701D01*
X126759980Y-99605702D01*
X126578699Y-99717947D01*
X126421127Y-99861593D01*
X126292632Y-100031746D01*
X126197596Y-100222605D01*
X126197596Y-100222607D01*
X126139244Y-100427689D01*
X126132970Y-100495394D01*
X126107183Y-100560331D01*
X126050383Y-100601018D01*
X125980602Y-100604538D01*
X125919995Y-100569772D01*
X125887806Y-100507759D01*
X125885499Y-100483952D01*
X125885499Y-99745143D01*
X125885499Y-99745136D01*
X125885497Y-99745117D01*
X125882586Y-99720012D01*
X125882585Y-99720010D01*
X125882585Y-99720009D01*
X125837206Y-99617235D01*
X125757765Y-99537794D01*
X125737124Y-99528680D01*
X125654992Y-99492415D01*
X125629865Y-99489500D01*
X123840143Y-99489500D01*
X123840117Y-99489502D01*
X123815012Y-99492413D01*
X123815008Y-99492415D01*
X123712235Y-99537793D01*
X123632794Y-99617234D01*
X123587415Y-99720006D01*
X123587415Y-99720008D01*
X123584500Y-99745131D01*
X123584500Y-101534856D01*
X123584502Y-101534882D01*
X123587413Y-101559987D01*
X123587415Y-101559991D01*
X123632793Y-101662764D01*
X123632794Y-101662765D01*
X123712235Y-101742206D01*
X123815009Y-101787585D01*
X123840135Y-101790500D01*
X124568758Y-101790499D01*
X124635795Y-101810183D01*
X124681550Y-101862987D01*
X124691494Y-101932146D01*
X124662469Y-101995702D01*
X124603691Y-102033476D01*
X124591542Y-102036388D01*
X124535116Y-102046935D01*
X124418802Y-102068679D01*
X124418800Y-102068679D01*
X124418798Y-102068680D01*
X124219982Y-102145701D01*
X124219980Y-102145702D01*
X124038699Y-102257947D01*
X123881127Y-102401593D01*
X123752632Y-102571746D01*
X123657596Y-102762605D01*
X123657596Y-102762607D01*
X123599244Y-102967689D01*
X123582978Y-103143237D01*
X123579571Y-103180000D01*
X123599244Y-103392310D01*
X123631174Y-103504532D01*
X123657596Y-103597392D01*
X123657596Y-103597394D01*
X123752632Y-103788253D01*
X123841660Y-103906144D01*
X123881128Y-103958407D01*
X124038698Y-104102052D01*
X124219981Y-104214298D01*
X124418802Y-104291321D01*
X124615613Y-104328111D01*
X124677893Y-104359779D01*
X124713166Y-104420092D01*
X124710232Y-104489900D01*
X124670023Y-104547040D01*
X124615613Y-104571888D01*
X124418802Y-104608679D01*
X124418799Y-104608679D01*
X124418799Y-104608680D01*
X124219982Y-104685701D01*
X124219980Y-104685702D01*
X124038699Y-104797947D01*
X123881127Y-104941593D01*
X123752632Y-105111746D01*
X123657596Y-105302605D01*
X123657596Y-105302607D01*
X123642547Y-105355500D01*
X123599244Y-105507690D01*
X123579571Y-105720000D01*
X123599244Y-105932310D01*
X123649710Y-106109678D01*
X123657596Y-106137392D01*
X123657596Y-106137394D01*
X123752632Y-106328253D01*
X123856574Y-106465893D01*
X123881128Y-106498407D01*
X124038698Y-106642052D01*
X124219981Y-106754298D01*
X124418802Y-106831321D01*
X124615613Y-106868111D01*
X124677893Y-106899779D01*
X124713166Y-106960092D01*
X124710232Y-107029900D01*
X124670023Y-107087040D01*
X124615613Y-107111888D01*
X124418802Y-107148679D01*
X124418799Y-107148679D01*
X124418799Y-107148680D01*
X124219982Y-107225701D01*
X124219980Y-107225702D01*
X124038699Y-107337947D01*
X123881127Y-107481593D01*
X123752632Y-107651746D01*
X123657596Y-107842605D01*
X123657596Y-107842607D01*
X123599750Y-108045913D01*
X123599244Y-108047690D01*
X123579571Y-108260000D01*
X123599244Y-108472310D01*
X123631174Y-108584532D01*
X123657596Y-108677392D01*
X123657596Y-108677394D01*
X123752632Y-108868253D01*
X123805368Y-108938086D01*
X123881128Y-109038407D01*
X124038698Y-109182052D01*
X124219981Y-109294298D01*
X124418802Y-109371321D01*
X124615613Y-109408111D01*
X124677893Y-109439779D01*
X124713166Y-109500092D01*
X124710232Y-109569900D01*
X124670023Y-109627040D01*
X124615613Y-109651888D01*
X124418802Y-109688679D01*
X124418799Y-109688679D01*
X124418799Y-109688680D01*
X124219982Y-109765701D01*
X124219980Y-109765702D01*
X124038699Y-109877947D01*
X123881127Y-110021593D01*
X123752632Y-110191746D01*
X123657596Y-110382605D01*
X123657596Y-110382607D01*
X123599244Y-110587689D01*
X123579571Y-110799999D01*
X123579571Y-110800000D01*
X123599244Y-111012310D01*
X123657596Y-111217392D01*
X123657596Y-111217394D01*
X123752632Y-111408253D01*
X123881127Y-111578406D01*
X123881128Y-111578407D01*
X124038698Y-111722052D01*
X124219981Y-111834298D01*
X124418802Y-111911321D01*
X124615613Y-111948111D01*
X124677893Y-111979779D01*
X124713166Y-112040092D01*
X124710232Y-112109900D01*
X124670023Y-112167040D01*
X124615613Y-112191888D01*
X124418802Y-112228679D01*
X124418799Y-112228679D01*
X124418799Y-112228680D01*
X124219982Y-112305701D01*
X124219980Y-112305702D01*
X124038699Y-112417947D01*
X123881127Y-112561593D01*
X123752632Y-112731746D01*
X123657596Y-112922605D01*
X123657596Y-112922607D01*
X123599244Y-113127689D01*
X123579571Y-113339999D01*
X123579571Y-113340000D01*
X123599244Y-113552310D01*
X123657596Y-113757392D01*
X123657596Y-113757394D01*
X123752632Y-113948253D01*
X123752634Y-113948255D01*
X123881128Y-114118407D01*
X124038698Y-114262052D01*
X124219981Y-114374298D01*
X124418802Y-114451321D01*
X124615613Y-114488111D01*
X124677893Y-114519779D01*
X124713166Y-114580092D01*
X124710232Y-114649900D01*
X124670023Y-114707040D01*
X124615613Y-114731888D01*
X124418802Y-114768679D01*
X124418799Y-114768679D01*
X124418799Y-114768680D01*
X124219982Y-114845701D01*
X124219980Y-114845702D01*
X124038699Y-114957947D01*
X123881127Y-115101593D01*
X123752632Y-115271746D01*
X123657596Y-115462605D01*
X123657596Y-115462607D01*
X123599244Y-115667689D01*
X123579571Y-115879999D01*
X123579571Y-115880000D01*
X123599244Y-116092310D01*
X123657596Y-116297392D01*
X123657596Y-116297394D01*
X123752632Y-116488253D01*
X123752634Y-116488255D01*
X123881128Y-116658407D01*
X124038698Y-116802052D01*
X124219981Y-116914298D01*
X124418802Y-116991321D01*
X124615613Y-117028111D01*
X124677893Y-117059779D01*
X124713166Y-117120092D01*
X124710232Y-117189900D01*
X124670023Y-117247040D01*
X124615613Y-117271888D01*
X124418802Y-117308679D01*
X124418799Y-117308679D01*
X124418799Y-117308680D01*
X124219982Y-117385701D01*
X124219980Y-117385702D01*
X124038699Y-117497947D01*
X123881127Y-117641593D01*
X123752632Y-117811746D01*
X123657596Y-118002605D01*
X123657596Y-118002607D01*
X123603426Y-118192993D01*
X123599244Y-118207690D01*
X123579571Y-118420000D01*
X123599244Y-118632310D01*
X123648950Y-118807007D01*
X123657596Y-118837392D01*
X123657596Y-118837394D01*
X123752632Y-119028253D01*
X123792139Y-119080568D01*
X123881128Y-119198407D01*
X124038698Y-119342052D01*
X124219981Y-119454298D01*
X124248961Y-119465525D01*
X124304362Y-119508095D01*
X124327954Y-119573861D01*
X124312244Y-119641942D01*
X124262222Y-119690722D01*
X124256573Y-119693533D01*
X124057422Y-119786399D01*
X124057420Y-119786400D01*
X123863926Y-119921886D01*
X123863920Y-119921891D01*
X123696891Y-120088920D01*
X123696886Y-120088926D01*
X123561400Y-120282420D01*
X123561399Y-120282422D01*
X123461570Y-120496507D01*
X123461567Y-120496513D01*
X123404364Y-120709999D01*
X121707210Y-120709999D01*
X121677613Y-120690223D01*
X121677606Y-120690219D01*
X121418905Y-120562642D01*
X121145760Y-120469921D01*
X121145754Y-120469919D01*
X121145753Y-120469919D01*
X121145751Y-120469918D01*
X121145745Y-120469917D01*
X120862849Y-120413646D01*
X120862839Y-120413644D01*
X120575000Y-120394778D01*
X120287161Y-120413644D01*
X120287155Y-120413645D01*
X120287150Y-120413646D01*
X120004254Y-120469917D01*
X120004239Y-120469921D01*
X119731094Y-120562642D01*
X119472393Y-120690219D01*
X119472386Y-120690223D01*
X119232547Y-120850478D01*
X119015672Y-121040672D01*
X118825478Y-121257547D01*
X118665223Y-121497386D01*
X118665219Y-121497393D01*
X118537642Y-121756094D01*
X118444921Y-122029239D01*
X118444917Y-122029254D01*
X118421117Y-122148907D01*
X118388732Y-122210818D01*
X118328017Y-122245392D01*
X118258247Y-122241653D01*
X118201575Y-122200786D01*
X118175994Y-122135768D01*
X118175500Y-122124716D01*
X118175500Y-98699998D01*
X132969532Y-98699998D01*
X132969532Y-98700001D01*
X132989364Y-98926686D01*
X132989366Y-98926697D01*
X133048258Y-99146488D01*
X133048261Y-99146497D01*
X133144431Y-99352732D01*
X133144432Y-99352734D01*
X133274954Y-99539141D01*
X133435858Y-99700045D01*
X133464370Y-99720009D01*
X133622266Y-99830568D01*
X133828504Y-99926739D01*
X134048308Y-99985635D01*
X134210230Y-99999801D01*
X134274998Y-100005468D01*
X134275000Y-100005468D01*
X134275002Y-100005468D01*
X134331673Y-100000509D01*
X134501692Y-99985635D01*
X134721496Y-99926739D01*
X134927734Y-99830568D01*
X135114139Y-99700047D01*
X135275047Y-99539139D01*
X135405568Y-99352734D01*
X135501739Y-99146496D01*
X135560635Y-98926692D01*
X135580468Y-98700000D01*
X135560635Y-98473308D01*
X135501739Y-98253504D01*
X135405568Y-98047266D01*
X135275047Y-97860861D01*
X135275045Y-97860858D01*
X135114141Y-97699954D01*
X134927734Y-97569432D01*
X134927732Y-97569431D01*
X134721497Y-97473261D01*
X134721488Y-97473258D01*
X134501697Y-97414366D01*
X134501693Y-97414365D01*
X134501692Y-97414365D01*
X134501691Y-97414364D01*
X134501686Y-97414364D01*
X134275002Y-97394532D01*
X134274998Y-97394532D01*
X134048313Y-97414364D01*
X134048302Y-97414366D01*
X133828511Y-97473258D01*
X133828502Y-97473261D01*
X133622267Y-97569431D01*
X133622265Y-97569432D01*
X133435858Y-97699954D01*
X133274954Y-97860858D01*
X133144432Y-98047265D01*
X133144431Y-98047267D01*
X133048261Y-98253502D01*
X133048258Y-98253511D01*
X132989366Y-98473302D01*
X132989364Y-98473313D01*
X132969532Y-98699998D01*
X118175500Y-98699998D01*
X118175500Y-93590000D01*
X148194975Y-93590000D01*
X148215042Y-93844989D01*
X148274752Y-94093702D01*
X148372634Y-94330012D01*
X148372636Y-94330015D01*
X148506277Y-94548098D01*
X148506284Y-94548107D01*
X148509533Y-94551912D01*
X149070884Y-93990560D01*
X149071740Y-93992626D01*
X149164762Y-94131844D01*
X149283156Y-94250238D01*
X149422374Y-94343260D01*
X149424437Y-94344114D01*
X148863087Y-94905465D01*
X148866897Y-94908719D01*
X149084984Y-95042363D01*
X149084987Y-95042365D01*
X149321297Y-95140247D01*
X149570011Y-95199957D01*
X149570010Y-95199957D01*
X149825000Y-95220024D01*
X150079989Y-95199957D01*
X150328702Y-95140247D01*
X150565012Y-95042365D01*
X150565015Y-95042363D01*
X150783095Y-94908724D01*
X150783110Y-94908713D01*
X150786911Y-94905466D01*
X150786911Y-94905464D01*
X150225562Y-94344114D01*
X150227626Y-94343260D01*
X150366844Y-94250238D01*
X150485238Y-94131844D01*
X150578260Y-93992626D01*
X150579114Y-93990561D01*
X151140464Y-94551911D01*
X151140466Y-94551911D01*
X151143713Y-94548110D01*
X151143724Y-94548095D01*
X151277363Y-94330015D01*
X151277365Y-94330012D01*
X151375247Y-94093702D01*
X151434957Y-93844989D01*
X151455024Y-93590000D01*
X153274975Y-93590000D01*
X153295042Y-93844989D01*
X153354752Y-94093702D01*
X153452634Y-94330012D01*
X153452636Y-94330015D01*
X153586277Y-94548098D01*
X153586284Y-94548107D01*
X153589533Y-94551912D01*
X154150884Y-93990560D01*
X154151740Y-93992626D01*
X154244762Y-94131844D01*
X154363156Y-94250238D01*
X154502374Y-94343260D01*
X154504437Y-94344114D01*
X153943087Y-94905465D01*
X153946897Y-94908719D01*
X154164984Y-95042363D01*
X154164987Y-95042365D01*
X154401297Y-95140247D01*
X154650011Y-95199957D01*
X154650010Y-95199957D01*
X154905000Y-95220024D01*
X155159989Y-95199957D01*
X155408702Y-95140247D01*
X155645012Y-95042365D01*
X155645015Y-95042363D01*
X155863095Y-94908724D01*
X155863110Y-94908713D01*
X155866911Y-94905466D01*
X155866911Y-94905464D01*
X155305562Y-94344114D01*
X155307626Y-94343260D01*
X155446844Y-94250238D01*
X155565238Y-94131844D01*
X155658260Y-93992626D01*
X155659114Y-93990561D01*
X156220464Y-94551911D01*
X156220466Y-94551911D01*
X156223713Y-94548110D01*
X156223724Y-94548095D01*
X156357363Y-94330015D01*
X156357365Y-94330012D01*
X156455247Y-94093702D01*
X156514957Y-93844989D01*
X156535024Y-93590000D01*
X156514957Y-93335010D01*
X156455247Y-93086297D01*
X156357365Y-92849987D01*
X156357363Y-92849984D01*
X156223719Y-92631897D01*
X156220465Y-92628087D01*
X155659114Y-93189437D01*
X155658260Y-93187374D01*
X155565238Y-93048156D01*
X155446844Y-92929762D01*
X155307626Y-92836740D01*
X155305561Y-92835884D01*
X155866912Y-92274533D01*
X155863107Y-92271284D01*
X155863098Y-92271277D01*
X155645015Y-92137636D01*
X155645012Y-92137634D01*
X155408702Y-92039752D01*
X155159988Y-91980042D01*
X155159989Y-91980042D01*
X154905000Y-91959975D01*
X154650010Y-91980042D01*
X154401297Y-92039752D01*
X154164987Y-92137634D01*
X154164984Y-92137636D01*
X153946893Y-92271282D01*
X153943086Y-92274532D01*
X154504438Y-92835884D01*
X154502374Y-92836740D01*
X154363156Y-92929762D01*
X154244762Y-93048156D01*
X154151740Y-93187374D01*
X154150884Y-93189438D01*
X153589532Y-92628086D01*
X153586282Y-92631893D01*
X153452636Y-92849984D01*
X153452634Y-92849987D01*
X153354752Y-93086297D01*
X153295042Y-93335010D01*
X153274975Y-93590000D01*
X151455024Y-93590000D01*
X151434957Y-93335010D01*
X151375247Y-93086297D01*
X151277365Y-92849987D01*
X151277363Y-92849984D01*
X151143719Y-92631897D01*
X151140465Y-92628087D01*
X150579114Y-93189437D01*
X150578260Y-93187374D01*
X150485238Y-93048156D01*
X150366844Y-92929762D01*
X150227626Y-92836740D01*
X150225561Y-92835884D01*
X150786912Y-92274533D01*
X150783107Y-92271284D01*
X150783098Y-92271277D01*
X150565015Y-92137636D01*
X150565012Y-92137634D01*
X150328702Y-92039752D01*
X150079988Y-91980042D01*
X150079989Y-91980042D01*
X149825000Y-91959975D01*
X149570010Y-91980042D01*
X149321297Y-92039752D01*
X149084987Y-92137634D01*
X149084984Y-92137636D01*
X148866893Y-92271282D01*
X148863086Y-92274532D01*
X149424438Y-92835884D01*
X149422374Y-92836740D01*
X149283156Y-92929762D01*
X149164762Y-93048156D01*
X149071740Y-93187374D01*
X149070884Y-93189438D01*
X148509532Y-92628086D01*
X148506282Y-92631893D01*
X148372636Y-92849984D01*
X148372634Y-92849987D01*
X148274752Y-93086297D01*
X148215042Y-93335010D01*
X148194975Y-93590000D01*
X118175500Y-93590000D01*
X118175500Y-90600000D01*
X126169551Y-90600000D01*
X126189317Y-90851151D01*
X126248126Y-91096110D01*
X126344533Y-91328859D01*
X126476160Y-91543653D01*
X126476161Y-91543656D01*
X126476164Y-91543659D01*
X126639776Y-91735224D01*
X126788066Y-91861875D01*
X126831343Y-91898838D01*
X126831346Y-91898839D01*
X127046140Y-92030466D01*
X127278889Y-92126873D01*
X127523852Y-92185683D01*
X127775000Y-92205449D01*
X128026148Y-92185683D01*
X128271111Y-92126873D01*
X128503859Y-92030466D01*
X128718659Y-91898836D01*
X128910224Y-91735224D01*
X129073836Y-91543659D01*
X129205466Y-91328859D01*
X129301873Y-91096111D01*
X129312944Y-91049998D01*
X151034437Y-91049998D01*
X151034437Y-91050001D01*
X151054650Y-91281044D01*
X151054651Y-91281051D01*
X151114678Y-91505074D01*
X151114679Y-91505076D01*
X151114680Y-91505079D01*
X151212699Y-91715282D01*
X151345730Y-91905269D01*
X151509731Y-92069270D01*
X151699718Y-92202301D01*
X151909921Y-92300320D01*
X152133950Y-92360349D01*
X152298985Y-92374787D01*
X152364998Y-92380563D01*
X152365000Y-92380563D01*
X152365002Y-92380563D01*
X152422762Y-92375509D01*
X152596050Y-92360349D01*
X152820079Y-92300320D01*
X153030282Y-92202301D01*
X153220269Y-92069270D01*
X153384270Y-91905269D01*
X153517301Y-91715282D01*
X153615320Y-91505079D01*
X153675349Y-91281050D01*
X153695563Y-91050000D01*
X153675349Y-90818950D01*
X153615320Y-90594921D01*
X153517301Y-90384719D01*
X153517299Y-90384716D01*
X153517298Y-90384714D01*
X153384273Y-90194735D01*
X153384268Y-90194729D01*
X153220269Y-90030730D01*
X153122631Y-89962363D01*
X153030282Y-89897699D01*
X152820079Y-89799680D01*
X152820076Y-89799679D01*
X152820074Y-89799678D01*
X152596051Y-89739651D01*
X152596044Y-89739650D01*
X152365002Y-89719437D01*
X152364998Y-89719437D01*
X152133955Y-89739650D01*
X152133948Y-89739651D01*
X151909917Y-89799681D01*
X151699718Y-89897699D01*
X151699714Y-89897701D01*
X151509735Y-90030726D01*
X151509729Y-90030731D01*
X151345731Y-90194729D01*
X151345726Y-90194735D01*
X151212701Y-90384714D01*
X151212699Y-90384718D01*
X151114681Y-90594917D01*
X151054651Y-90818948D01*
X151054650Y-90818955D01*
X151034437Y-91049998D01*
X129312944Y-91049998D01*
X129360683Y-90851148D01*
X129380449Y-90600000D01*
X129360683Y-90348852D01*
X129301873Y-90103889D01*
X129243251Y-89962363D01*
X129205466Y-89871140D01*
X129073839Y-89656346D01*
X129073838Y-89656343D01*
X129036875Y-89613066D01*
X128910224Y-89464776D01*
X128783571Y-89356604D01*
X128718656Y-89301161D01*
X128718653Y-89301160D01*
X128503859Y-89169533D01*
X128271110Y-89073126D01*
X128026151Y-89014317D01*
X127775000Y-88994551D01*
X127523848Y-89014317D01*
X127278889Y-89073126D01*
X127046140Y-89169533D01*
X126831346Y-89301160D01*
X126831343Y-89301161D01*
X126639776Y-89464776D01*
X126476161Y-89656343D01*
X126476160Y-89656346D01*
X126344533Y-89871140D01*
X126248126Y-90103889D01*
X126189317Y-90348848D01*
X126169551Y-90600000D01*
X118175500Y-90600000D01*
X118175500Y-88510000D01*
X148194975Y-88510000D01*
X148215042Y-88764989D01*
X148274752Y-89013702D01*
X148372634Y-89250012D01*
X148372636Y-89250015D01*
X148506277Y-89468098D01*
X148506284Y-89468107D01*
X148509533Y-89471912D01*
X149070884Y-88910560D01*
X149071740Y-88912626D01*
X149164762Y-89051844D01*
X149283156Y-89170238D01*
X149422374Y-89263260D01*
X149424437Y-89264114D01*
X148863087Y-89825465D01*
X148866897Y-89828719D01*
X149084984Y-89962363D01*
X149084987Y-89962365D01*
X149321297Y-90060247D01*
X149570011Y-90119957D01*
X149570010Y-90119957D01*
X149825000Y-90140024D01*
X150079989Y-90119957D01*
X150328702Y-90060247D01*
X150565012Y-89962365D01*
X150565015Y-89962363D01*
X150783095Y-89828724D01*
X150783110Y-89828713D01*
X150786911Y-89825466D01*
X150786911Y-89825464D01*
X150225562Y-89264114D01*
X150227626Y-89263260D01*
X150366844Y-89170238D01*
X150485238Y-89051844D01*
X150578260Y-88912626D01*
X150579114Y-88910561D01*
X151140464Y-89471911D01*
X151140466Y-89471911D01*
X151143713Y-89468110D01*
X151143724Y-89468095D01*
X151277363Y-89250015D01*
X151277365Y-89250012D01*
X151375247Y-89013702D01*
X151434957Y-88764989D01*
X151455024Y-88510000D01*
X153274975Y-88510000D01*
X153295042Y-88764989D01*
X153354752Y-89013702D01*
X153452634Y-89250012D01*
X153452636Y-89250015D01*
X153586277Y-89468098D01*
X153586284Y-89468107D01*
X153589533Y-89471912D01*
X154150884Y-88910560D01*
X154151740Y-88912626D01*
X154244762Y-89051844D01*
X154363156Y-89170238D01*
X154502374Y-89263260D01*
X154504437Y-89264114D01*
X153943087Y-89825465D01*
X153946897Y-89828719D01*
X154164984Y-89962363D01*
X154164987Y-89962365D01*
X154401297Y-90060247D01*
X154650011Y-90119957D01*
X154650010Y-90119957D01*
X154905000Y-90140024D01*
X155159989Y-90119957D01*
X155408702Y-90060247D01*
X155645012Y-89962365D01*
X155645015Y-89962363D01*
X155863095Y-89828724D01*
X155863110Y-89828713D01*
X155866911Y-89825466D01*
X155866911Y-89825464D01*
X155305562Y-89264114D01*
X155307626Y-89263260D01*
X155446844Y-89170238D01*
X155565238Y-89051844D01*
X155658260Y-88912626D01*
X155659114Y-88910561D01*
X156220464Y-89471911D01*
X156220466Y-89471911D01*
X156223713Y-89468110D01*
X156223724Y-89468095D01*
X156357363Y-89250015D01*
X156357365Y-89250012D01*
X156455247Y-89013702D01*
X156514957Y-88764989D01*
X156535024Y-88510000D01*
X156514957Y-88255010D01*
X156455247Y-88006297D01*
X156357365Y-87769987D01*
X156357363Y-87769984D01*
X156223719Y-87551897D01*
X156220465Y-87548087D01*
X155659114Y-88109437D01*
X155658260Y-88107374D01*
X155565238Y-87968156D01*
X155446844Y-87849762D01*
X155307626Y-87756740D01*
X155305561Y-87755884D01*
X155866912Y-87194533D01*
X155863107Y-87191284D01*
X155863098Y-87191277D01*
X155645015Y-87057636D01*
X155645012Y-87057634D01*
X155408702Y-86959752D01*
X155159988Y-86900042D01*
X155159989Y-86900042D01*
X154905000Y-86879975D01*
X154650010Y-86900042D01*
X154401297Y-86959752D01*
X154164987Y-87057634D01*
X154164984Y-87057636D01*
X153946893Y-87191282D01*
X153943086Y-87194532D01*
X154504438Y-87755884D01*
X154502374Y-87756740D01*
X154363156Y-87849762D01*
X154244762Y-87968156D01*
X154151740Y-88107374D01*
X154150884Y-88109438D01*
X153589532Y-87548086D01*
X153586282Y-87551893D01*
X153452636Y-87769984D01*
X153452634Y-87769987D01*
X153354752Y-88006297D01*
X153295042Y-88255010D01*
X153274975Y-88510000D01*
X151455024Y-88510000D01*
X151434957Y-88255010D01*
X151375247Y-88006297D01*
X151277365Y-87769987D01*
X151277363Y-87769984D01*
X151143719Y-87551897D01*
X151140465Y-87548087D01*
X150579114Y-88109437D01*
X150578260Y-88107374D01*
X150485238Y-87968156D01*
X150366844Y-87849762D01*
X150227626Y-87756740D01*
X150225561Y-87755884D01*
X150786912Y-87194533D01*
X150783107Y-87191284D01*
X150783098Y-87191277D01*
X150565015Y-87057636D01*
X150565012Y-87057634D01*
X150328702Y-86959752D01*
X150079988Y-86900042D01*
X150079989Y-86900042D01*
X149825000Y-86879975D01*
X149570010Y-86900042D01*
X149321297Y-86959752D01*
X149084987Y-87057634D01*
X149084984Y-87057636D01*
X148866893Y-87191282D01*
X148863086Y-87194532D01*
X149424438Y-87755884D01*
X149422374Y-87756740D01*
X149283156Y-87849762D01*
X149164762Y-87968156D01*
X149071740Y-88107374D01*
X149070884Y-88109438D01*
X148509532Y-87548086D01*
X148506282Y-87551893D01*
X148372636Y-87769984D01*
X148372634Y-87769987D01*
X148274752Y-88006297D01*
X148215042Y-88255010D01*
X148194975Y-88510000D01*
X118175500Y-88510000D01*
X118175500Y-84172155D01*
X125975000Y-84172155D01*
X125975000Y-85270000D01*
X127174999Y-85270000D01*
X127149979Y-85330402D01*
X127125000Y-85455981D01*
X127125000Y-85584019D01*
X127149979Y-85709598D01*
X127174999Y-85770000D01*
X125975000Y-85770000D01*
X125975000Y-86867844D01*
X125981401Y-86927372D01*
X125981403Y-86927379D01*
X126031645Y-87062086D01*
X126031649Y-87062093D01*
X126117809Y-87177187D01*
X126117812Y-87177190D01*
X126232906Y-87263350D01*
X126232913Y-87263354D01*
X126367620Y-87313596D01*
X126367627Y-87313598D01*
X126427155Y-87319999D01*
X126427172Y-87320000D01*
X127525000Y-87320000D01*
X127525000Y-86120001D01*
X127585402Y-86145021D01*
X127710981Y-86170000D01*
X127839019Y-86170000D01*
X127964598Y-86145021D01*
X128025000Y-86120001D01*
X128025000Y-87320000D01*
X129122828Y-87320000D01*
X129122844Y-87319999D01*
X129182372Y-87313598D01*
X129182379Y-87313596D01*
X129317086Y-87263354D01*
X129317093Y-87263350D01*
X129432187Y-87177190D01*
X129432190Y-87177187D01*
X129518350Y-87062093D01*
X129518354Y-87062086D01*
X129568596Y-86927379D01*
X129568598Y-86927372D01*
X129574999Y-86867844D01*
X129575000Y-86867827D01*
X129575000Y-85770000D01*
X128375001Y-85770000D01*
X128400021Y-85709598D01*
X128425000Y-85584019D01*
X128425000Y-85455981D01*
X128400021Y-85330402D01*
X128375001Y-85270000D01*
X129575000Y-85270000D01*
X129575000Y-84172172D01*
X129574999Y-84172155D01*
X129568598Y-84112627D01*
X129568596Y-84112620D01*
X129518354Y-83977913D01*
X129518350Y-83977906D01*
X129432190Y-83862812D01*
X129432187Y-83862809D01*
X129317093Y-83776649D01*
X129317086Y-83776645D01*
X129182379Y-83726403D01*
X129182372Y-83726401D01*
X129122844Y-83720000D01*
X128025000Y-83720000D01*
X128025000Y-84919998D01*
X127964598Y-84894979D01*
X127839019Y-84870000D01*
X127710981Y-84870000D01*
X127585402Y-84894979D01*
X127525000Y-84919998D01*
X127525000Y-83720000D01*
X126427155Y-83720000D01*
X126367627Y-83726401D01*
X126367620Y-83726403D01*
X126232913Y-83776645D01*
X126232906Y-83776649D01*
X126117812Y-83862809D01*
X126117809Y-83862812D01*
X126031649Y-83977906D01*
X126031645Y-83977913D01*
X125981403Y-84112620D01*
X125981401Y-84112627D01*
X125975000Y-84172155D01*
X118175500Y-84172155D01*
X118175500Y-80875283D01*
X118195185Y-80808244D01*
X118247989Y-80762489D01*
X118317147Y-80752545D01*
X118380703Y-80781570D01*
X118418477Y-80840348D01*
X118421117Y-80851092D01*
X118444917Y-80970745D01*
X118444921Y-80970760D01*
X118537642Y-81243905D01*
X118665219Y-81502606D01*
X118665223Y-81502613D01*
X118825478Y-81742452D01*
X119015672Y-81959327D01*
X119232547Y-82149521D01*
X119464961Y-82304815D01*
X119472389Y-82309778D01*
X119731098Y-82437359D01*
X120004247Y-82530081D01*
X120287161Y-82586356D01*
X120575000Y-82605222D01*
X120862839Y-82586356D01*
X121145753Y-82530081D01*
X121418902Y-82437359D01*
X121677611Y-82309778D01*
X121917454Y-82149520D01*
X122134327Y-81959327D01*
X122324520Y-81742454D01*
X122484778Y-81502611D01*
X122612359Y-81243902D01*
X122705081Y-80970753D01*
X122712193Y-80934999D01*
X134619571Y-80934999D01*
X134619571Y-80935000D01*
X134639244Y-81147310D01*
X134697596Y-81352392D01*
X134697596Y-81352394D01*
X134792632Y-81543253D01*
X134792634Y-81543255D01*
X134921128Y-81713407D01*
X135078698Y-81857052D01*
X135259981Y-81969298D01*
X135458802Y-82046321D01*
X135631544Y-82078612D01*
X135693823Y-82110279D01*
X135729096Y-82170591D01*
X135726162Y-82240400D01*
X135685953Y-82297540D01*
X135621235Y-82323871D01*
X135608757Y-82324500D01*
X134880143Y-82324500D01*
X134880117Y-82324502D01*
X134855012Y-82327413D01*
X134855008Y-82327415D01*
X134752235Y-82372793D01*
X134672794Y-82452234D01*
X134627415Y-82555006D01*
X134627415Y-82555008D01*
X134624500Y-82580131D01*
X134624500Y-84369856D01*
X134624502Y-84369882D01*
X134627413Y-84394987D01*
X134627415Y-84394991D01*
X134672793Y-84497764D01*
X134672794Y-84497765D01*
X134752235Y-84577206D01*
X134855009Y-84622585D01*
X134880135Y-84625500D01*
X136669864Y-84625499D01*
X136669879Y-84625497D01*
X136669882Y-84625497D01*
X136694987Y-84622586D01*
X136694988Y-84622585D01*
X136694991Y-84622585D01*
X136797765Y-84577206D01*
X136877206Y-84497765D01*
X136922585Y-84394991D01*
X136925500Y-84369865D01*
X136925499Y-82580136D01*
X136925497Y-82580117D01*
X136922586Y-82555012D01*
X136922585Y-82555010D01*
X136922585Y-82555009D01*
X136877206Y-82452235D01*
X136797765Y-82372794D01*
X136797763Y-82372793D01*
X136694992Y-82327415D01*
X136669868Y-82324500D01*
X135941243Y-82324500D01*
X135874204Y-82304815D01*
X135828449Y-82252011D01*
X135818505Y-82182853D01*
X135847530Y-82119297D01*
X135906308Y-82081523D01*
X135918441Y-82078614D01*
X136091198Y-82046321D01*
X136290019Y-81969298D01*
X136471302Y-81857052D01*
X136628872Y-81713407D01*
X136757366Y-81543255D01*
X136852405Y-81352389D01*
X136910756Y-81147310D01*
X136930429Y-80935000D01*
X136910756Y-80722690D01*
X136852405Y-80517611D01*
X136852403Y-80517606D01*
X136852403Y-80517605D01*
X136757367Y-80326746D01*
X136628872Y-80156593D01*
X136580134Y-80112162D01*
X136471302Y-80012948D01*
X136290019Y-79900702D01*
X136290017Y-79900701D01*
X136190608Y-79862190D01*
X136091198Y-79823679D01*
X135881610Y-79784500D01*
X135668390Y-79784500D01*
X135458802Y-79823679D01*
X135458799Y-79823679D01*
X135458799Y-79823680D01*
X135259982Y-79900701D01*
X135259980Y-79900702D01*
X135078699Y-80012947D01*
X134921127Y-80156593D01*
X134792632Y-80326746D01*
X134697596Y-80517605D01*
X134697596Y-80517607D01*
X134639244Y-80722689D01*
X134619571Y-80934999D01*
X122712193Y-80934999D01*
X122761356Y-80687839D01*
X122780222Y-80400000D01*
X122761356Y-80112161D01*
X122705081Y-79829247D01*
X122612359Y-79556098D01*
X122484778Y-79297389D01*
X122324520Y-79057546D01*
X122275402Y-79001538D01*
X122134327Y-78840672D01*
X121917452Y-78650478D01*
X121677613Y-78490223D01*
X121677606Y-78490219D01*
X121418905Y-78362642D01*
X121145760Y-78269921D01*
X121145754Y-78269919D01*
X121145753Y-78269919D01*
X121145751Y-78269918D01*
X121145745Y-78269917D01*
X121026093Y-78246117D01*
X120964182Y-78213732D01*
X120929608Y-78153017D01*
X120933347Y-78083247D01*
X120974214Y-78026575D01*
X121039232Y-78000994D01*
X121050284Y-78000500D01*
X162299716Y-78000500D01*
X162366755Y-78020185D01*
G37*
G04 #@! TD.AperFunction*
M02*
