%TF.GenerationSoftware,KiCad,Pcbnew,8.0.6*%
%TF.CreationDate,2025-01-03T22:08:40-07:00*%
%TF.ProjectId,AD9744 Ersatz Eval Board Rev. A,41443937-3434-4204-9572-7361747a2045,rev?*%
%TF.SameCoordinates,Original*%
%TF.FileFunction,Drillmap*%
%TF.FilePolarity,Positive*%
%FSLAX45Y45*%
G04 Gerber Fmt 4.5, Leading zero omitted, Abs format (unit mm)*
G04 Created by KiCad (PCBNEW 8.0.6) date 2025-01-03 22:08:40*
%MOMM*%
%LPD*%
G01*
G04 APERTURE LIST*
%ADD10C,0.200000*%
G04 APERTURE END LIST*
D10*
X12067500Y-7750000D02*
X16267500Y-7750000D01*
X12067500Y-12550000D02*
G75*
G02*
X11767500Y-12250000I0J300000D01*
G01*
X11767500Y-8050000D02*
G75*
G02*
X12067500Y-7750000I300000J0D01*
G01*
X16267500Y-7750000D02*
G75*
G02*
X16567500Y-8050000I0J-300000D01*
G01*
X16567500Y-12250000D02*
G75*
G02*
X16267500Y-12550000I-300000J0D01*
G01*
X16267500Y-12550000D02*
X12067500Y-12550000D01*
X11767500Y-12250000D02*
X11767500Y-8050000D01*
X16567500Y-8050000D02*
X16567500Y-12250000D01*
X12018277Y-12871484D02*
X12018277Y-12671484D01*
X12018277Y-12671484D02*
X12065896Y-12671484D01*
X12065896Y-12671484D02*
X12094467Y-12681008D01*
X12094467Y-12681008D02*
X12113515Y-12700055D01*
X12113515Y-12700055D02*
X12123039Y-12719103D01*
X12123039Y-12719103D02*
X12132562Y-12757198D01*
X12132562Y-12757198D02*
X12132562Y-12785769D01*
X12132562Y-12785769D02*
X12123039Y-12823865D01*
X12123039Y-12823865D02*
X12113515Y-12842912D01*
X12113515Y-12842912D02*
X12094467Y-12861960D01*
X12094467Y-12861960D02*
X12065896Y-12871484D01*
X12065896Y-12871484D02*
X12018277Y-12871484D01*
X12218277Y-12871484D02*
X12218277Y-12738150D01*
X12218277Y-12776246D02*
X12227801Y-12757198D01*
X12227801Y-12757198D02*
X12237324Y-12747674D01*
X12237324Y-12747674D02*
X12256372Y-12738150D01*
X12256372Y-12738150D02*
X12275420Y-12738150D01*
X12342086Y-12871484D02*
X12342086Y-12738150D01*
X12342086Y-12671484D02*
X12332562Y-12681008D01*
X12332562Y-12681008D02*
X12342086Y-12690531D01*
X12342086Y-12690531D02*
X12351610Y-12681008D01*
X12351610Y-12681008D02*
X12342086Y-12671484D01*
X12342086Y-12671484D02*
X12342086Y-12690531D01*
X12465896Y-12871484D02*
X12446848Y-12861960D01*
X12446848Y-12861960D02*
X12437324Y-12842912D01*
X12437324Y-12842912D02*
X12437324Y-12671484D01*
X12570658Y-12871484D02*
X12551610Y-12861960D01*
X12551610Y-12861960D02*
X12542086Y-12842912D01*
X12542086Y-12842912D02*
X12542086Y-12671484D01*
X12799229Y-12871484D02*
X12799229Y-12671484D01*
X12799229Y-12671484D02*
X12865896Y-12814341D01*
X12865896Y-12814341D02*
X12932562Y-12671484D01*
X12932562Y-12671484D02*
X12932562Y-12871484D01*
X13113515Y-12871484D02*
X13113515Y-12766722D01*
X13113515Y-12766722D02*
X13103991Y-12747674D01*
X13103991Y-12747674D02*
X13084943Y-12738150D01*
X13084943Y-12738150D02*
X13046848Y-12738150D01*
X13046848Y-12738150D02*
X13027801Y-12747674D01*
X13113515Y-12861960D02*
X13094467Y-12871484D01*
X13094467Y-12871484D02*
X13046848Y-12871484D01*
X13046848Y-12871484D02*
X13027801Y-12861960D01*
X13027801Y-12861960D02*
X13018277Y-12842912D01*
X13018277Y-12842912D02*
X13018277Y-12823865D01*
X13018277Y-12823865D02*
X13027801Y-12804817D01*
X13027801Y-12804817D02*
X13046848Y-12795293D01*
X13046848Y-12795293D02*
X13094467Y-12795293D01*
X13094467Y-12795293D02*
X13113515Y-12785769D01*
X13208753Y-12738150D02*
X13208753Y-12938150D01*
X13208753Y-12747674D02*
X13227801Y-12738150D01*
X13227801Y-12738150D02*
X13265896Y-12738150D01*
X13265896Y-12738150D02*
X13284943Y-12747674D01*
X13284943Y-12747674D02*
X13294467Y-12757198D01*
X13294467Y-12757198D02*
X13303991Y-12776246D01*
X13303991Y-12776246D02*
X13303991Y-12833388D01*
X13303991Y-12833388D02*
X13294467Y-12852436D01*
X13294467Y-12852436D02*
X13284943Y-12861960D01*
X13284943Y-12861960D02*
X13265896Y-12871484D01*
X13265896Y-12871484D02*
X13227801Y-12871484D01*
X13227801Y-12871484D02*
X13208753Y-12861960D01*
X13389705Y-12852436D02*
X13399229Y-12861960D01*
X13399229Y-12861960D02*
X13389705Y-12871484D01*
X13389705Y-12871484D02*
X13380182Y-12861960D01*
X13380182Y-12861960D02*
X13389705Y-12852436D01*
X13389705Y-12852436D02*
X13389705Y-12871484D01*
X13389705Y-12747674D02*
X13399229Y-12757198D01*
X13399229Y-12757198D02*
X13389705Y-12766722D01*
X13389705Y-12766722D02*
X13380182Y-12757198D01*
X13380182Y-12757198D02*
X13389705Y-12747674D01*
X13389705Y-12747674D02*
X13389705Y-12766722D01*
M02*
