%TF.GenerationSoftware,KiCad,Pcbnew,8.0.6*%
%TF.CreationDate,2025-01-01T01:37:25-07:00*%
%TF.ProjectId,AD9744 Ersatz Eval Board Rev. A,41443937-3434-4204-9572-7361747a2045,rev?*%
%TF.SameCoordinates,Original*%
%TF.FileFunction,Drillmap*%
%TF.FilePolarity,Positive*%
%FSLAX45Y45*%
G04 Gerber Fmt 4.5, Leading zero omitted, Abs format (unit mm)*
G04 Created by KiCad (PCBNEW 8.0.6) date 2025-01-01 01:37:25*
%MOMM*%
%LPD*%
G01*
G04 APERTURE LIST*
%ADD10C,0.200000*%
%ADD11C,0.100000*%
%ADD12C,0.130000*%
%ADD13C,0.150000*%
%ADD14C,0.170000*%
%ADD15C,0.220000*%
G04 APERTURE END LIST*
D10*
X12067500Y-7750000D02*
X16267500Y-7750000D01*
X12067500Y-12550000D02*
G75*
G02*
X11767500Y-12250000I0J300000D01*
G01*
X11767500Y-8050000D02*
G75*
G02*
X12067500Y-7750000I300000J0D01*
G01*
X16267500Y-7750000D02*
G75*
G02*
X16567500Y-8050000I0J-300000D01*
G01*
X16567500Y-12250000D02*
G75*
G02*
X16267500Y-12550000I-300000J0D01*
G01*
X16267500Y-12550000D02*
X12067500Y-12550000D01*
X11767500Y-12250000D02*
X11767500Y-8050000D01*
X16567500Y-8050000D02*
X16567500Y-12250000D01*
D11*
X12512500Y-9735000D02*
X12542500Y-9765000D01*
X12542500Y-9735000D02*
X12512500Y-9765000D01*
X12662500Y-9735000D02*
X12692500Y-9765000D01*
X12692500Y-9735000D02*
X12662500Y-9765000D01*
X12962500Y-9735000D02*
X12992500Y-9765000D01*
X12992500Y-9735000D02*
X12962500Y-9765000D01*
X13642500Y-9735000D02*
X13672500Y-9765000D01*
X13672500Y-9735000D02*
X13642500Y-9765000D01*
X13642500Y-11885000D02*
X13672500Y-11915000D01*
X13672500Y-11885000D02*
X13642500Y-11915000D01*
X13712500Y-10815000D02*
X13742500Y-10845000D01*
X13742500Y-10815000D02*
X13712500Y-10845000D01*
X13758500Y-10285000D02*
X13788500Y-10315000D01*
X13788500Y-10285000D02*
X13758500Y-10315000D01*
X13812500Y-8515000D02*
X13842500Y-8545000D01*
X13842500Y-8515000D02*
X13812500Y-8545000D01*
X13842500Y-11885000D02*
X13872500Y-11915000D01*
X13872500Y-11885000D02*
X13842500Y-11915000D01*
X13907095Y-10706548D02*
X13937095Y-10736548D01*
X13937095Y-10706548D02*
X13907095Y-10736548D01*
X14124474Y-11325807D02*
X14154474Y-11355807D01*
X14154474Y-11325807D02*
X14124474Y-11355807D01*
X14127275Y-11108367D02*
X14157275Y-11138367D01*
X14157275Y-11108367D02*
X14127275Y-11138367D01*
X14258500Y-9625000D02*
X14288500Y-9655000D01*
X14288500Y-9625000D02*
X14258500Y-9655000D01*
X14312500Y-10315000D02*
X14342500Y-10345000D01*
X14342500Y-10315000D02*
X14312500Y-10345000D01*
X14375073Y-10167574D02*
X14405073Y-10197574D01*
X14405073Y-10167574D02*
X14375073Y-10197574D01*
X14392500Y-10480000D02*
X14422500Y-10510000D01*
X14422500Y-10480000D02*
X14392500Y-10510000D01*
X14392500Y-11480000D02*
X14422500Y-11510000D01*
X14422500Y-11480000D02*
X14392500Y-11510000D01*
X14542500Y-9255000D02*
X14572500Y-9285000D01*
X14572500Y-9255000D02*
X14542500Y-9285000D01*
X14542500Y-10480000D02*
X14572500Y-10510000D01*
X14572500Y-10480000D02*
X14542500Y-10510000D01*
X14542500Y-11480000D02*
X14572500Y-11510000D01*
X14572500Y-11480000D02*
X14542500Y-11510000D01*
X14592500Y-10975000D02*
X14622500Y-11005000D01*
X14622500Y-10975000D02*
X14592500Y-11005000D01*
X15102500Y-11225000D02*
X15132500Y-11255000D01*
X15132500Y-11225000D02*
X15102500Y-11255000D01*
X12523500Y-10064000D02*
G75*
G02*
X12423500Y-10064000I-50000J0D01*
G01*
X12423500Y-10064000D02*
G75*
G02*
X12523500Y-10064000I50000J0D01*
G01*
X12523500Y-10318000D02*
G75*
G02*
X12423500Y-10318000I-50000J0D01*
G01*
X12423500Y-10318000D02*
G75*
G02*
X12523500Y-10318000I50000J0D01*
G01*
X12523500Y-10572000D02*
G75*
G02*
X12423500Y-10572000I-50000J0D01*
G01*
X12423500Y-10572000D02*
G75*
G02*
X12523500Y-10572000I50000J0D01*
G01*
X12523500Y-10826000D02*
G75*
G02*
X12423500Y-10826000I-50000J0D01*
G01*
X12423500Y-10826000D02*
G75*
G02*
X12523500Y-10826000I50000J0D01*
G01*
X12523500Y-11080000D02*
G75*
G02*
X12423500Y-11080000I-50000J0D01*
G01*
X12423500Y-11080000D02*
G75*
G02*
X12523500Y-11080000I50000J0D01*
G01*
X12523500Y-11334000D02*
G75*
G02*
X12423500Y-11334000I-50000J0D01*
G01*
X12423500Y-11334000D02*
G75*
G02*
X12523500Y-11334000I50000J0D01*
G01*
X12523500Y-11588000D02*
G75*
G02*
X12423500Y-11588000I-50000J0D01*
G01*
X12423500Y-11588000D02*
G75*
G02*
X12523500Y-11588000I50000J0D01*
G01*
X12523500Y-11842000D02*
G75*
G02*
X12423500Y-11842000I-50000J0D01*
G01*
X12423500Y-11842000D02*
G75*
G02*
X12523500Y-11842000I50000J0D01*
G01*
X12523500Y-12096000D02*
G75*
G02*
X12423500Y-12096000I-50000J0D01*
G01*
X12423500Y-12096000D02*
G75*
G02*
X12523500Y-12096000I50000J0D01*
G01*
X12777500Y-10064000D02*
G75*
G02*
X12677500Y-10064000I-50000J0D01*
G01*
X12677500Y-10064000D02*
G75*
G02*
X12777500Y-10064000I50000J0D01*
G01*
X12777500Y-10318000D02*
G75*
G02*
X12677500Y-10318000I-50000J0D01*
G01*
X12677500Y-10318000D02*
G75*
G02*
X12777500Y-10318000I50000J0D01*
G01*
X12777500Y-10572000D02*
G75*
G02*
X12677500Y-10572000I-50000J0D01*
G01*
X12677500Y-10572000D02*
G75*
G02*
X12777500Y-10572000I50000J0D01*
G01*
X12777500Y-10826000D02*
G75*
G02*
X12677500Y-10826000I-50000J0D01*
G01*
X12677500Y-10826000D02*
G75*
G02*
X12777500Y-10826000I50000J0D01*
G01*
X12777500Y-11080000D02*
G75*
G02*
X12677500Y-11080000I-50000J0D01*
G01*
X12677500Y-11080000D02*
G75*
G02*
X12777500Y-11080000I50000J0D01*
G01*
X12777500Y-11334000D02*
G75*
G02*
X12677500Y-11334000I-50000J0D01*
G01*
X12677500Y-11334000D02*
G75*
G02*
X12777500Y-11334000I50000J0D01*
G01*
X12777500Y-11588000D02*
G75*
G02*
X12677500Y-11588000I-50000J0D01*
G01*
X12677500Y-11588000D02*
G75*
G02*
X12777500Y-11588000I50000J0D01*
G01*
X12777500Y-11842000D02*
G75*
G02*
X12677500Y-11842000I-50000J0D01*
G01*
X12677500Y-11842000D02*
G75*
G02*
X12777500Y-11842000I50000J0D01*
G01*
X12777500Y-12096000D02*
G75*
G02*
X12677500Y-12096000I-50000J0D01*
G01*
X12677500Y-12096000D02*
G75*
G02*
X12777500Y-12096000I50000J0D01*
G01*
X13423500Y-12130000D02*
G75*
G02*
X13323500Y-12130000I-50000J0D01*
G01*
X13323500Y-12130000D02*
G75*
G02*
X13423500Y-12130000I50000J0D01*
G01*
X13477500Y-9870000D02*
G75*
G02*
X13377500Y-9870000I-50000J0D01*
G01*
X13377500Y-9870000D02*
G75*
G02*
X13477500Y-9870000I50000J0D01*
G01*
X13627500Y-8093500D02*
G75*
G02*
X13527500Y-8093500I-50000J0D01*
G01*
X13527500Y-8093500D02*
G75*
G02*
X13627500Y-8093500I50000J0D01*
G01*
X13627500Y-8347500D02*
G75*
G02*
X13527500Y-8347500I-50000J0D01*
G01*
X13527500Y-8347500D02*
G75*
G02*
X13627500Y-8347500I50000J0D01*
G01*
X13677500Y-12130000D02*
G75*
G02*
X13577500Y-12130000I-50000J0D01*
G01*
X13577500Y-12130000D02*
G75*
G02*
X13677500Y-12130000I50000J0D01*
G01*
X13931500Y-12130000D02*
G75*
G02*
X13831500Y-12130000I-50000J0D01*
G01*
X13831500Y-12130000D02*
G75*
G02*
X13931500Y-12130000I50000J0D01*
G01*
X15127500Y-11795000D02*
G75*
G02*
X15027500Y-11795000I-50000J0D01*
G01*
X15027500Y-11795000D02*
G75*
G02*
X15127500Y-11795000I50000J0D01*
G01*
X15147500Y-10210000D02*
G75*
G02*
X15047500Y-10210000I-50000J0D01*
G01*
X15047500Y-10210000D02*
G75*
G02*
X15147500Y-10210000I50000J0D01*
G01*
X15727500Y-11850000D02*
G75*
G02*
X15627500Y-11850000I-50000J0D01*
G01*
X15627500Y-11850000D02*
G75*
G02*
X15727500Y-11850000I50000J0D01*
G01*
D12*
X12777500Y-8487000D02*
X12777500Y-8617000D01*
X12712500Y-8552000D02*
X12842500Y-8552000D01*
X12777500Y-8995000D02*
X12777500Y-9125000D01*
X12712500Y-9060000D02*
X12842500Y-9060000D01*
D13*
X15289533Y-9158034D02*
X15289533Y-9051967D01*
X15183466Y-9051967D01*
X15183466Y-9158034D01*
X15289533Y-9158034D01*
X16016533Y-10789034D02*
X16016533Y-10682967D01*
X15910466Y-10682967D01*
X15910466Y-10789034D01*
X16016533Y-10789034D01*
D14*
X14982500Y-8936000D02*
X15067500Y-8851000D01*
X14982500Y-8766000D01*
X14897500Y-8851000D01*
X14982500Y-8936000D01*
X14982500Y-9444000D02*
X15067500Y-9359000D01*
X14982500Y-9274000D01*
X14897500Y-9359000D01*
X14982500Y-9444000D01*
X15490500Y-8936000D02*
X15575500Y-8851000D01*
X15490500Y-8766000D01*
X15405500Y-8851000D01*
X15490500Y-8936000D01*
X15490500Y-9444000D02*
X15575500Y-9359000D01*
X15490500Y-9274000D01*
X15405500Y-9359000D01*
X15490500Y-9444000D01*
X15709500Y-10567000D02*
X15794500Y-10482000D01*
X15709500Y-10397000D01*
X15624500Y-10482000D01*
X15709500Y-10567000D01*
X15709500Y-11075000D02*
X15794500Y-10990000D01*
X15709500Y-10905000D01*
X15624500Y-10990000D01*
X15709500Y-11075000D01*
X16217500Y-10567000D02*
X16302500Y-10482000D01*
X16217500Y-10397000D01*
X16132500Y-10482000D01*
X16217500Y-10567000D01*
X16217500Y-11075000D02*
X16302500Y-10990000D01*
X16217500Y-10905000D01*
X16132500Y-10990000D01*
X16217500Y-11075000D01*
D15*
X11947500Y-7930000D02*
X12167500Y-8150000D01*
X12167500Y-7930000D02*
X11947500Y-8150000D01*
X12167500Y-8040000D02*
G75*
G02*
X11947500Y-8040000I-110000J0D01*
G01*
X11947500Y-8040000D02*
G75*
G02*
X12167500Y-8040000I110000J0D01*
G01*
X11947500Y-12150000D02*
X12167500Y-12370000D01*
X12167500Y-12150000D02*
X11947500Y-12370000D01*
X12167500Y-12260000D02*
G75*
G02*
X11947500Y-12260000I-110000J0D01*
G01*
X11947500Y-12260000D02*
G75*
G02*
X12167500Y-12260000I110000J0D01*
G01*
X16167500Y-7930000D02*
X16387500Y-8150000D01*
X16387500Y-7930000D02*
X16167500Y-8150000D01*
X16387500Y-8040000D02*
G75*
G02*
X16167500Y-8040000I-110000J0D01*
G01*
X16167500Y-8040000D02*
G75*
G02*
X16387500Y-8040000I110000J0D01*
G01*
X16167500Y-12150000D02*
X16387500Y-12370000D01*
X16387500Y-12150000D02*
X16167500Y-12370000D01*
X16387500Y-12260000D02*
G75*
G02*
X16167500Y-12260000I-110000J0D01*
G01*
X16167500Y-12260000D02*
G75*
G02*
X16387500Y-12260000I110000J0D01*
G01*
D10*
X12018277Y-12871484D02*
X12018277Y-12671484D01*
X12018277Y-12671484D02*
X12065896Y-12671484D01*
X12065896Y-12671484D02*
X12094467Y-12681008D01*
X12094467Y-12681008D02*
X12113515Y-12700055D01*
X12113515Y-12700055D02*
X12123039Y-12719103D01*
X12123039Y-12719103D02*
X12132562Y-12757198D01*
X12132562Y-12757198D02*
X12132562Y-12785769D01*
X12132562Y-12785769D02*
X12123039Y-12823865D01*
X12123039Y-12823865D02*
X12113515Y-12842912D01*
X12113515Y-12842912D02*
X12094467Y-12861960D01*
X12094467Y-12861960D02*
X12065896Y-12871484D01*
X12065896Y-12871484D02*
X12018277Y-12871484D01*
X12218277Y-12871484D02*
X12218277Y-12738150D01*
X12218277Y-12776246D02*
X12227801Y-12757198D01*
X12227801Y-12757198D02*
X12237324Y-12747674D01*
X12237324Y-12747674D02*
X12256372Y-12738150D01*
X12256372Y-12738150D02*
X12275420Y-12738150D01*
X12342086Y-12871484D02*
X12342086Y-12738150D01*
X12342086Y-12671484D02*
X12332562Y-12681008D01*
X12332562Y-12681008D02*
X12342086Y-12690531D01*
X12342086Y-12690531D02*
X12351610Y-12681008D01*
X12351610Y-12681008D02*
X12342086Y-12671484D01*
X12342086Y-12671484D02*
X12342086Y-12690531D01*
X12465896Y-12871484D02*
X12446848Y-12861960D01*
X12446848Y-12861960D02*
X12437324Y-12842912D01*
X12437324Y-12842912D02*
X12437324Y-12671484D01*
X12570658Y-12871484D02*
X12551610Y-12861960D01*
X12551610Y-12861960D02*
X12542086Y-12842912D01*
X12542086Y-12842912D02*
X12542086Y-12671484D01*
X12799229Y-12871484D02*
X12799229Y-12671484D01*
X12799229Y-12671484D02*
X12865896Y-12814341D01*
X12865896Y-12814341D02*
X12932562Y-12671484D01*
X12932562Y-12671484D02*
X12932562Y-12871484D01*
X13113515Y-12871484D02*
X13113515Y-12766722D01*
X13113515Y-12766722D02*
X13103991Y-12747674D01*
X13103991Y-12747674D02*
X13084943Y-12738150D01*
X13084943Y-12738150D02*
X13046848Y-12738150D01*
X13046848Y-12738150D02*
X13027801Y-12747674D01*
X13113515Y-12861960D02*
X13094467Y-12871484D01*
X13094467Y-12871484D02*
X13046848Y-12871484D01*
X13046848Y-12871484D02*
X13027801Y-12861960D01*
X13027801Y-12861960D02*
X13018277Y-12842912D01*
X13018277Y-12842912D02*
X13018277Y-12823865D01*
X13018277Y-12823865D02*
X13027801Y-12804817D01*
X13027801Y-12804817D02*
X13046848Y-12795293D01*
X13046848Y-12795293D02*
X13094467Y-12795293D01*
X13094467Y-12795293D02*
X13113515Y-12785769D01*
X13208753Y-12738150D02*
X13208753Y-12938150D01*
X13208753Y-12747674D02*
X13227801Y-12738150D01*
X13227801Y-12738150D02*
X13265896Y-12738150D01*
X13265896Y-12738150D02*
X13284943Y-12747674D01*
X13284943Y-12747674D02*
X13294467Y-12757198D01*
X13294467Y-12757198D02*
X13303991Y-12776246D01*
X13303991Y-12776246D02*
X13303991Y-12833388D01*
X13303991Y-12833388D02*
X13294467Y-12852436D01*
X13294467Y-12852436D02*
X13284943Y-12861960D01*
X13284943Y-12861960D02*
X13265896Y-12871484D01*
X13265896Y-12871484D02*
X13227801Y-12871484D01*
X13227801Y-12871484D02*
X13208753Y-12861960D01*
X13389705Y-12852436D02*
X13399229Y-12861960D01*
X13399229Y-12861960D02*
X13389705Y-12871484D01*
X13389705Y-12871484D02*
X13380182Y-12861960D01*
X13380182Y-12861960D02*
X13389705Y-12852436D01*
X13389705Y-12852436D02*
X13389705Y-12871484D01*
X13389705Y-12747674D02*
X13399229Y-12757198D01*
X13399229Y-12757198D02*
X13389705Y-12766722D01*
X13389705Y-12766722D02*
X13380182Y-12757198D01*
X13380182Y-12757198D02*
X13389705Y-12747674D01*
X13389705Y-12747674D02*
X13389705Y-12766722D01*
D11*
X11727500Y-13185000D02*
X11757500Y-13215000D01*
X11757500Y-13185000D02*
X11727500Y-13215000D01*
D10*
X12056372Y-13091484D02*
X12075420Y-13091484D01*
X12075420Y-13091484D02*
X12094467Y-13101008D01*
X12094467Y-13101008D02*
X12103991Y-13110531D01*
X12103991Y-13110531D02*
X12113515Y-13129579D01*
X12113515Y-13129579D02*
X12123039Y-13167674D01*
X12123039Y-13167674D02*
X12123039Y-13215293D01*
X12123039Y-13215293D02*
X12113515Y-13253388D01*
X12113515Y-13253388D02*
X12103991Y-13272436D01*
X12103991Y-13272436D02*
X12094467Y-13281960D01*
X12094467Y-13281960D02*
X12075420Y-13291484D01*
X12075420Y-13291484D02*
X12056372Y-13291484D01*
X12056372Y-13291484D02*
X12037324Y-13281960D01*
X12037324Y-13281960D02*
X12027801Y-13272436D01*
X12027801Y-13272436D02*
X12018277Y-13253388D01*
X12018277Y-13253388D02*
X12008753Y-13215293D01*
X12008753Y-13215293D02*
X12008753Y-13167674D01*
X12008753Y-13167674D02*
X12018277Y-13129579D01*
X12018277Y-13129579D02*
X12027801Y-13110531D01*
X12027801Y-13110531D02*
X12037324Y-13101008D01*
X12037324Y-13101008D02*
X12056372Y-13091484D01*
X12208753Y-13272436D02*
X12218277Y-13281960D01*
X12218277Y-13281960D02*
X12208753Y-13291484D01*
X12208753Y-13291484D02*
X12199229Y-13281960D01*
X12199229Y-13281960D02*
X12208753Y-13272436D01*
X12208753Y-13272436D02*
X12208753Y-13291484D01*
X12284943Y-13091484D02*
X12408753Y-13091484D01*
X12408753Y-13091484D02*
X12342086Y-13167674D01*
X12342086Y-13167674D02*
X12370658Y-13167674D01*
X12370658Y-13167674D02*
X12389705Y-13177198D01*
X12389705Y-13177198D02*
X12399229Y-13186722D01*
X12399229Y-13186722D02*
X12408753Y-13205769D01*
X12408753Y-13205769D02*
X12408753Y-13253388D01*
X12408753Y-13253388D02*
X12399229Y-13272436D01*
X12399229Y-13272436D02*
X12389705Y-13281960D01*
X12389705Y-13281960D02*
X12370658Y-13291484D01*
X12370658Y-13291484D02*
X12313515Y-13291484D01*
X12313515Y-13291484D02*
X12294467Y-13281960D01*
X12294467Y-13281960D02*
X12284943Y-13272436D01*
X12532562Y-13091484D02*
X12551610Y-13091484D01*
X12551610Y-13091484D02*
X12570658Y-13101008D01*
X12570658Y-13101008D02*
X12580182Y-13110531D01*
X12580182Y-13110531D02*
X12589705Y-13129579D01*
X12589705Y-13129579D02*
X12599229Y-13167674D01*
X12599229Y-13167674D02*
X12599229Y-13215293D01*
X12599229Y-13215293D02*
X12589705Y-13253388D01*
X12589705Y-13253388D02*
X12580182Y-13272436D01*
X12580182Y-13272436D02*
X12570658Y-13281960D01*
X12570658Y-13281960D02*
X12551610Y-13291484D01*
X12551610Y-13291484D02*
X12532562Y-13291484D01*
X12532562Y-13291484D02*
X12513515Y-13281960D01*
X12513515Y-13281960D02*
X12503991Y-13272436D01*
X12503991Y-13272436D02*
X12494467Y-13253388D01*
X12494467Y-13253388D02*
X12484943Y-13215293D01*
X12484943Y-13215293D02*
X12484943Y-13167674D01*
X12484943Y-13167674D02*
X12494467Y-13129579D01*
X12494467Y-13129579D02*
X12503991Y-13110531D01*
X12503991Y-13110531D02*
X12513515Y-13101008D01*
X12513515Y-13101008D02*
X12532562Y-13091484D01*
X12723039Y-13091484D02*
X12742086Y-13091484D01*
X12742086Y-13091484D02*
X12761134Y-13101008D01*
X12761134Y-13101008D02*
X12770658Y-13110531D01*
X12770658Y-13110531D02*
X12780182Y-13129579D01*
X12780182Y-13129579D02*
X12789705Y-13167674D01*
X12789705Y-13167674D02*
X12789705Y-13215293D01*
X12789705Y-13215293D02*
X12780182Y-13253388D01*
X12780182Y-13253388D02*
X12770658Y-13272436D01*
X12770658Y-13272436D02*
X12761134Y-13281960D01*
X12761134Y-13281960D02*
X12742086Y-13291484D01*
X12742086Y-13291484D02*
X12723039Y-13291484D01*
X12723039Y-13291484D02*
X12703991Y-13281960D01*
X12703991Y-13281960D02*
X12694467Y-13272436D01*
X12694467Y-13272436D02*
X12684943Y-13253388D01*
X12684943Y-13253388D02*
X12675420Y-13215293D01*
X12675420Y-13215293D02*
X12675420Y-13167674D01*
X12675420Y-13167674D02*
X12684943Y-13129579D01*
X12684943Y-13129579D02*
X12694467Y-13110531D01*
X12694467Y-13110531D02*
X12703991Y-13101008D01*
X12703991Y-13101008D02*
X12723039Y-13091484D01*
X12875420Y-13291484D02*
X12875420Y-13158150D01*
X12875420Y-13177198D02*
X12884943Y-13167674D01*
X12884943Y-13167674D02*
X12903991Y-13158150D01*
X12903991Y-13158150D02*
X12932563Y-13158150D01*
X12932563Y-13158150D02*
X12951610Y-13167674D01*
X12951610Y-13167674D02*
X12961134Y-13186722D01*
X12961134Y-13186722D02*
X12961134Y-13291484D01*
X12961134Y-13186722D02*
X12970658Y-13167674D01*
X12970658Y-13167674D02*
X12989705Y-13158150D01*
X12989705Y-13158150D02*
X13018277Y-13158150D01*
X13018277Y-13158150D02*
X13037324Y-13167674D01*
X13037324Y-13167674D02*
X13046848Y-13186722D01*
X13046848Y-13186722D02*
X13046848Y-13291484D01*
X13142086Y-13291484D02*
X13142086Y-13158150D01*
X13142086Y-13177198D02*
X13151610Y-13167674D01*
X13151610Y-13167674D02*
X13170658Y-13158150D01*
X13170658Y-13158150D02*
X13199229Y-13158150D01*
X13199229Y-13158150D02*
X13218277Y-13167674D01*
X13218277Y-13167674D02*
X13227801Y-13186722D01*
X13227801Y-13186722D02*
X13227801Y-13291484D01*
X13227801Y-13186722D02*
X13237324Y-13167674D01*
X13237324Y-13167674D02*
X13256372Y-13158150D01*
X13256372Y-13158150D02*
X13284943Y-13158150D01*
X13284943Y-13158150D02*
X13303991Y-13167674D01*
X13303991Y-13167674D02*
X13313515Y-13186722D01*
X13313515Y-13186722D02*
X13313515Y-13291484D01*
X13703991Y-13081960D02*
X13532563Y-13339103D01*
X13961134Y-13091484D02*
X13980182Y-13091484D01*
X13980182Y-13091484D02*
X13999229Y-13101008D01*
X13999229Y-13101008D02*
X14008753Y-13110531D01*
X14008753Y-13110531D02*
X14018277Y-13129579D01*
X14018277Y-13129579D02*
X14027801Y-13167674D01*
X14027801Y-13167674D02*
X14027801Y-13215293D01*
X14027801Y-13215293D02*
X14018277Y-13253388D01*
X14018277Y-13253388D02*
X14008753Y-13272436D01*
X14008753Y-13272436D02*
X13999229Y-13281960D01*
X13999229Y-13281960D02*
X13980182Y-13291484D01*
X13980182Y-13291484D02*
X13961134Y-13291484D01*
X13961134Y-13291484D02*
X13942086Y-13281960D01*
X13942086Y-13281960D02*
X13932563Y-13272436D01*
X13932563Y-13272436D02*
X13923039Y-13253388D01*
X13923039Y-13253388D02*
X13913515Y-13215293D01*
X13913515Y-13215293D02*
X13913515Y-13167674D01*
X13913515Y-13167674D02*
X13923039Y-13129579D01*
X13923039Y-13129579D02*
X13932563Y-13110531D01*
X13932563Y-13110531D02*
X13942086Y-13101008D01*
X13942086Y-13101008D02*
X13961134Y-13091484D01*
X14113515Y-13272436D02*
X14123039Y-13281960D01*
X14123039Y-13281960D02*
X14113515Y-13291484D01*
X14113515Y-13291484D02*
X14103991Y-13281960D01*
X14103991Y-13281960D02*
X14113515Y-13272436D01*
X14113515Y-13272436D02*
X14113515Y-13291484D01*
X14246848Y-13091484D02*
X14265896Y-13091484D01*
X14265896Y-13091484D02*
X14284944Y-13101008D01*
X14284944Y-13101008D02*
X14294467Y-13110531D01*
X14294467Y-13110531D02*
X14303991Y-13129579D01*
X14303991Y-13129579D02*
X14313515Y-13167674D01*
X14313515Y-13167674D02*
X14313515Y-13215293D01*
X14313515Y-13215293D02*
X14303991Y-13253388D01*
X14303991Y-13253388D02*
X14294467Y-13272436D01*
X14294467Y-13272436D02*
X14284944Y-13281960D01*
X14284944Y-13281960D02*
X14265896Y-13291484D01*
X14265896Y-13291484D02*
X14246848Y-13291484D01*
X14246848Y-13291484D02*
X14227801Y-13281960D01*
X14227801Y-13281960D02*
X14218277Y-13272436D01*
X14218277Y-13272436D02*
X14208753Y-13253388D01*
X14208753Y-13253388D02*
X14199229Y-13215293D01*
X14199229Y-13215293D02*
X14199229Y-13167674D01*
X14199229Y-13167674D02*
X14208753Y-13129579D01*
X14208753Y-13129579D02*
X14218277Y-13110531D01*
X14218277Y-13110531D02*
X14227801Y-13101008D01*
X14227801Y-13101008D02*
X14246848Y-13091484D01*
X14503991Y-13291484D02*
X14389706Y-13291484D01*
X14446848Y-13291484D02*
X14446848Y-13091484D01*
X14446848Y-13091484D02*
X14427801Y-13120055D01*
X14427801Y-13120055D02*
X14408753Y-13139103D01*
X14408753Y-13139103D02*
X14389706Y-13148627D01*
X14694467Y-13291484D02*
X14580182Y-13291484D01*
X14637325Y-13291484D02*
X14637325Y-13091484D01*
X14637325Y-13091484D02*
X14618277Y-13120055D01*
X14618277Y-13120055D02*
X14599229Y-13139103D01*
X14599229Y-13139103D02*
X14580182Y-13148627D01*
X14808753Y-13177198D02*
X14789706Y-13167674D01*
X14789706Y-13167674D02*
X14780182Y-13158150D01*
X14780182Y-13158150D02*
X14770658Y-13139103D01*
X14770658Y-13139103D02*
X14770658Y-13129579D01*
X14770658Y-13129579D02*
X14780182Y-13110531D01*
X14780182Y-13110531D02*
X14789706Y-13101008D01*
X14789706Y-13101008D02*
X14808753Y-13091484D01*
X14808753Y-13091484D02*
X14846848Y-13091484D01*
X14846848Y-13091484D02*
X14865896Y-13101008D01*
X14865896Y-13101008D02*
X14875420Y-13110531D01*
X14875420Y-13110531D02*
X14884944Y-13129579D01*
X14884944Y-13129579D02*
X14884944Y-13139103D01*
X14884944Y-13139103D02*
X14875420Y-13158150D01*
X14875420Y-13158150D02*
X14865896Y-13167674D01*
X14865896Y-13167674D02*
X14846848Y-13177198D01*
X14846848Y-13177198D02*
X14808753Y-13177198D01*
X14808753Y-13177198D02*
X14789706Y-13186722D01*
X14789706Y-13186722D02*
X14780182Y-13196246D01*
X14780182Y-13196246D02*
X14770658Y-13215293D01*
X14770658Y-13215293D02*
X14770658Y-13253388D01*
X14770658Y-13253388D02*
X14780182Y-13272436D01*
X14780182Y-13272436D02*
X14789706Y-13281960D01*
X14789706Y-13281960D02*
X14808753Y-13291484D01*
X14808753Y-13291484D02*
X14846848Y-13291484D01*
X14846848Y-13291484D02*
X14865896Y-13281960D01*
X14865896Y-13281960D02*
X14875420Y-13272436D01*
X14875420Y-13272436D02*
X14884944Y-13253388D01*
X14884944Y-13253388D02*
X14884944Y-13215293D01*
X14884944Y-13215293D02*
X14875420Y-13196246D01*
X14875420Y-13196246D02*
X14865896Y-13186722D01*
X14865896Y-13186722D02*
X14846848Y-13177198D01*
X14961134Y-13091484D02*
X14961134Y-13129579D01*
X15037325Y-13091484D02*
X15037325Y-13129579D01*
X15332563Y-13367674D02*
X15323039Y-13358150D01*
X15323039Y-13358150D02*
X15303991Y-13329579D01*
X15303991Y-13329579D02*
X15294468Y-13310531D01*
X15294468Y-13310531D02*
X15284944Y-13281960D01*
X15284944Y-13281960D02*
X15275420Y-13234341D01*
X15275420Y-13234341D02*
X15275420Y-13196246D01*
X15275420Y-13196246D02*
X15284944Y-13148627D01*
X15284944Y-13148627D02*
X15294468Y-13120055D01*
X15294468Y-13120055D02*
X15303991Y-13101008D01*
X15303991Y-13101008D02*
X15323039Y-13072436D01*
X15323039Y-13072436D02*
X15332563Y-13062912D01*
X15399229Y-13110531D02*
X15408753Y-13101008D01*
X15408753Y-13101008D02*
X15427801Y-13091484D01*
X15427801Y-13091484D02*
X15475420Y-13091484D01*
X15475420Y-13091484D02*
X15494468Y-13101008D01*
X15494468Y-13101008D02*
X15503991Y-13110531D01*
X15503991Y-13110531D02*
X15513515Y-13129579D01*
X15513515Y-13129579D02*
X15513515Y-13148627D01*
X15513515Y-13148627D02*
X15503991Y-13177198D01*
X15503991Y-13177198D02*
X15389706Y-13291484D01*
X15389706Y-13291484D02*
X15513515Y-13291484D01*
X15589706Y-13110531D02*
X15599229Y-13101008D01*
X15599229Y-13101008D02*
X15618277Y-13091484D01*
X15618277Y-13091484D02*
X15665896Y-13091484D01*
X15665896Y-13091484D02*
X15684944Y-13101008D01*
X15684944Y-13101008D02*
X15694468Y-13110531D01*
X15694468Y-13110531D02*
X15703991Y-13129579D01*
X15703991Y-13129579D02*
X15703991Y-13148627D01*
X15703991Y-13148627D02*
X15694468Y-13177198D01*
X15694468Y-13177198D02*
X15580182Y-13291484D01*
X15580182Y-13291484D02*
X15703991Y-13291484D01*
X15942087Y-13291484D02*
X15942087Y-13091484D01*
X16027801Y-13291484D02*
X16027801Y-13186722D01*
X16027801Y-13186722D02*
X16018277Y-13167674D01*
X16018277Y-13167674D02*
X15999230Y-13158150D01*
X15999230Y-13158150D02*
X15970658Y-13158150D01*
X15970658Y-13158150D02*
X15951610Y-13167674D01*
X15951610Y-13167674D02*
X15942087Y-13177198D01*
X16151610Y-13291484D02*
X16132563Y-13281960D01*
X16132563Y-13281960D02*
X16123039Y-13272436D01*
X16123039Y-13272436D02*
X16113515Y-13253388D01*
X16113515Y-13253388D02*
X16113515Y-13196246D01*
X16113515Y-13196246D02*
X16123039Y-13177198D01*
X16123039Y-13177198D02*
X16132563Y-13167674D01*
X16132563Y-13167674D02*
X16151610Y-13158150D01*
X16151610Y-13158150D02*
X16180182Y-13158150D01*
X16180182Y-13158150D02*
X16199230Y-13167674D01*
X16199230Y-13167674D02*
X16208753Y-13177198D01*
X16208753Y-13177198D02*
X16218277Y-13196246D01*
X16218277Y-13196246D02*
X16218277Y-13253388D01*
X16218277Y-13253388D02*
X16208753Y-13272436D01*
X16208753Y-13272436D02*
X16199230Y-13281960D01*
X16199230Y-13281960D02*
X16180182Y-13291484D01*
X16180182Y-13291484D02*
X16151610Y-13291484D01*
X16332563Y-13291484D02*
X16313515Y-13281960D01*
X16313515Y-13281960D02*
X16303991Y-13262912D01*
X16303991Y-13262912D02*
X16303991Y-13091484D01*
X16484944Y-13281960D02*
X16465896Y-13291484D01*
X16465896Y-13291484D02*
X16427801Y-13291484D01*
X16427801Y-13291484D02*
X16408753Y-13281960D01*
X16408753Y-13281960D02*
X16399230Y-13262912D01*
X16399230Y-13262912D02*
X16399230Y-13186722D01*
X16399230Y-13186722D02*
X16408753Y-13167674D01*
X16408753Y-13167674D02*
X16427801Y-13158150D01*
X16427801Y-13158150D02*
X16465896Y-13158150D01*
X16465896Y-13158150D02*
X16484944Y-13167674D01*
X16484944Y-13167674D02*
X16494468Y-13186722D01*
X16494468Y-13186722D02*
X16494468Y-13205769D01*
X16494468Y-13205769D02*
X16399230Y-13224817D01*
X16570658Y-13281960D02*
X16589706Y-13291484D01*
X16589706Y-13291484D02*
X16627801Y-13291484D01*
X16627801Y-13291484D02*
X16646849Y-13281960D01*
X16646849Y-13281960D02*
X16656372Y-13262912D01*
X16656372Y-13262912D02*
X16656372Y-13253388D01*
X16656372Y-13253388D02*
X16646849Y-13234341D01*
X16646849Y-13234341D02*
X16627801Y-13224817D01*
X16627801Y-13224817D02*
X16599230Y-13224817D01*
X16599230Y-13224817D02*
X16580182Y-13215293D01*
X16580182Y-13215293D02*
X16570658Y-13196246D01*
X16570658Y-13196246D02*
X16570658Y-13186722D01*
X16570658Y-13186722D02*
X16580182Y-13167674D01*
X16580182Y-13167674D02*
X16599230Y-13158150D01*
X16599230Y-13158150D02*
X16627801Y-13158150D01*
X16627801Y-13158150D02*
X16646849Y-13167674D01*
X16723039Y-13367674D02*
X16732563Y-13358150D01*
X16732563Y-13358150D02*
X16751611Y-13329579D01*
X16751611Y-13329579D02*
X16761134Y-13310531D01*
X16761134Y-13310531D02*
X16770658Y-13281960D01*
X16770658Y-13281960D02*
X16780182Y-13234341D01*
X16780182Y-13234341D02*
X16780182Y-13196246D01*
X16780182Y-13196246D02*
X16770658Y-13148627D01*
X16770658Y-13148627D02*
X16761134Y-13120055D01*
X16761134Y-13120055D02*
X16751611Y-13101008D01*
X16751611Y-13101008D02*
X16732563Y-13072436D01*
X16732563Y-13072436D02*
X16723039Y-13062912D01*
D11*
X11757500Y-13464000D02*
G75*
G02*
X11657500Y-13464000I-50000J0D01*
G01*
X11657500Y-13464000D02*
G75*
G02*
X11757500Y-13464000I50000J0D01*
G01*
D10*
X12123039Y-13555484D02*
X12008753Y-13555484D01*
X12065896Y-13555484D02*
X12065896Y-13355484D01*
X12065896Y-13355484D02*
X12046848Y-13384055D01*
X12046848Y-13384055D02*
X12027801Y-13403103D01*
X12027801Y-13403103D02*
X12008753Y-13412627D01*
X12208753Y-13536436D02*
X12218277Y-13545960D01*
X12218277Y-13545960D02*
X12208753Y-13555484D01*
X12208753Y-13555484D02*
X12199229Y-13545960D01*
X12199229Y-13545960D02*
X12208753Y-13536436D01*
X12208753Y-13536436D02*
X12208753Y-13555484D01*
X12342086Y-13355484D02*
X12361134Y-13355484D01*
X12361134Y-13355484D02*
X12380182Y-13365008D01*
X12380182Y-13365008D02*
X12389705Y-13374531D01*
X12389705Y-13374531D02*
X12399229Y-13393579D01*
X12399229Y-13393579D02*
X12408753Y-13431674D01*
X12408753Y-13431674D02*
X12408753Y-13479293D01*
X12408753Y-13479293D02*
X12399229Y-13517388D01*
X12399229Y-13517388D02*
X12389705Y-13536436D01*
X12389705Y-13536436D02*
X12380182Y-13545960D01*
X12380182Y-13545960D02*
X12361134Y-13555484D01*
X12361134Y-13555484D02*
X12342086Y-13555484D01*
X12342086Y-13555484D02*
X12323039Y-13545960D01*
X12323039Y-13545960D02*
X12313515Y-13536436D01*
X12313515Y-13536436D02*
X12303991Y-13517388D01*
X12303991Y-13517388D02*
X12294467Y-13479293D01*
X12294467Y-13479293D02*
X12294467Y-13431674D01*
X12294467Y-13431674D02*
X12303991Y-13393579D01*
X12303991Y-13393579D02*
X12313515Y-13374531D01*
X12313515Y-13374531D02*
X12323039Y-13365008D01*
X12323039Y-13365008D02*
X12342086Y-13355484D01*
X12532562Y-13355484D02*
X12551610Y-13355484D01*
X12551610Y-13355484D02*
X12570658Y-13365008D01*
X12570658Y-13365008D02*
X12580182Y-13374531D01*
X12580182Y-13374531D02*
X12589705Y-13393579D01*
X12589705Y-13393579D02*
X12599229Y-13431674D01*
X12599229Y-13431674D02*
X12599229Y-13479293D01*
X12599229Y-13479293D02*
X12589705Y-13517388D01*
X12589705Y-13517388D02*
X12580182Y-13536436D01*
X12580182Y-13536436D02*
X12570658Y-13545960D01*
X12570658Y-13545960D02*
X12551610Y-13555484D01*
X12551610Y-13555484D02*
X12532562Y-13555484D01*
X12532562Y-13555484D02*
X12513515Y-13545960D01*
X12513515Y-13545960D02*
X12503991Y-13536436D01*
X12503991Y-13536436D02*
X12494467Y-13517388D01*
X12494467Y-13517388D02*
X12484943Y-13479293D01*
X12484943Y-13479293D02*
X12484943Y-13431674D01*
X12484943Y-13431674D02*
X12494467Y-13393579D01*
X12494467Y-13393579D02*
X12503991Y-13374531D01*
X12503991Y-13374531D02*
X12513515Y-13365008D01*
X12513515Y-13365008D02*
X12532562Y-13355484D01*
X12723039Y-13355484D02*
X12742086Y-13355484D01*
X12742086Y-13355484D02*
X12761134Y-13365008D01*
X12761134Y-13365008D02*
X12770658Y-13374531D01*
X12770658Y-13374531D02*
X12780182Y-13393579D01*
X12780182Y-13393579D02*
X12789705Y-13431674D01*
X12789705Y-13431674D02*
X12789705Y-13479293D01*
X12789705Y-13479293D02*
X12780182Y-13517388D01*
X12780182Y-13517388D02*
X12770658Y-13536436D01*
X12770658Y-13536436D02*
X12761134Y-13545960D01*
X12761134Y-13545960D02*
X12742086Y-13555484D01*
X12742086Y-13555484D02*
X12723039Y-13555484D01*
X12723039Y-13555484D02*
X12703991Y-13545960D01*
X12703991Y-13545960D02*
X12694467Y-13536436D01*
X12694467Y-13536436D02*
X12684943Y-13517388D01*
X12684943Y-13517388D02*
X12675420Y-13479293D01*
X12675420Y-13479293D02*
X12675420Y-13431674D01*
X12675420Y-13431674D02*
X12684943Y-13393579D01*
X12684943Y-13393579D02*
X12694467Y-13374531D01*
X12694467Y-13374531D02*
X12703991Y-13365008D01*
X12703991Y-13365008D02*
X12723039Y-13355484D01*
X12875420Y-13555484D02*
X12875420Y-13422150D01*
X12875420Y-13441198D02*
X12884943Y-13431674D01*
X12884943Y-13431674D02*
X12903991Y-13422150D01*
X12903991Y-13422150D02*
X12932563Y-13422150D01*
X12932563Y-13422150D02*
X12951610Y-13431674D01*
X12951610Y-13431674D02*
X12961134Y-13450722D01*
X12961134Y-13450722D02*
X12961134Y-13555484D01*
X12961134Y-13450722D02*
X12970658Y-13431674D01*
X12970658Y-13431674D02*
X12989705Y-13422150D01*
X12989705Y-13422150D02*
X13018277Y-13422150D01*
X13018277Y-13422150D02*
X13037324Y-13431674D01*
X13037324Y-13431674D02*
X13046848Y-13450722D01*
X13046848Y-13450722D02*
X13046848Y-13555484D01*
X13142086Y-13555484D02*
X13142086Y-13422150D01*
X13142086Y-13441198D02*
X13151610Y-13431674D01*
X13151610Y-13431674D02*
X13170658Y-13422150D01*
X13170658Y-13422150D02*
X13199229Y-13422150D01*
X13199229Y-13422150D02*
X13218277Y-13431674D01*
X13218277Y-13431674D02*
X13227801Y-13450722D01*
X13227801Y-13450722D02*
X13227801Y-13555484D01*
X13227801Y-13450722D02*
X13237324Y-13431674D01*
X13237324Y-13431674D02*
X13256372Y-13422150D01*
X13256372Y-13422150D02*
X13284943Y-13422150D01*
X13284943Y-13422150D02*
X13303991Y-13431674D01*
X13303991Y-13431674D02*
X13313515Y-13450722D01*
X13313515Y-13450722D02*
X13313515Y-13555484D01*
X13703991Y-13345960D02*
X13532563Y-13603103D01*
X13961134Y-13355484D02*
X13980182Y-13355484D01*
X13980182Y-13355484D02*
X13999229Y-13365008D01*
X13999229Y-13365008D02*
X14008753Y-13374531D01*
X14008753Y-13374531D02*
X14018277Y-13393579D01*
X14018277Y-13393579D02*
X14027801Y-13431674D01*
X14027801Y-13431674D02*
X14027801Y-13479293D01*
X14027801Y-13479293D02*
X14018277Y-13517388D01*
X14018277Y-13517388D02*
X14008753Y-13536436D01*
X14008753Y-13536436D02*
X13999229Y-13545960D01*
X13999229Y-13545960D02*
X13980182Y-13555484D01*
X13980182Y-13555484D02*
X13961134Y-13555484D01*
X13961134Y-13555484D02*
X13942086Y-13545960D01*
X13942086Y-13545960D02*
X13932563Y-13536436D01*
X13932563Y-13536436D02*
X13923039Y-13517388D01*
X13923039Y-13517388D02*
X13913515Y-13479293D01*
X13913515Y-13479293D02*
X13913515Y-13431674D01*
X13913515Y-13431674D02*
X13923039Y-13393579D01*
X13923039Y-13393579D02*
X13932563Y-13374531D01*
X13932563Y-13374531D02*
X13942086Y-13365008D01*
X13942086Y-13365008D02*
X13961134Y-13355484D01*
X14113515Y-13536436D02*
X14123039Y-13545960D01*
X14123039Y-13545960D02*
X14113515Y-13555484D01*
X14113515Y-13555484D02*
X14103991Y-13545960D01*
X14103991Y-13545960D02*
X14113515Y-13536436D01*
X14113515Y-13536436D02*
X14113515Y-13555484D01*
X14246848Y-13355484D02*
X14265896Y-13355484D01*
X14265896Y-13355484D02*
X14284944Y-13365008D01*
X14284944Y-13365008D02*
X14294467Y-13374531D01*
X14294467Y-13374531D02*
X14303991Y-13393579D01*
X14303991Y-13393579D02*
X14313515Y-13431674D01*
X14313515Y-13431674D02*
X14313515Y-13479293D01*
X14313515Y-13479293D02*
X14303991Y-13517388D01*
X14303991Y-13517388D02*
X14294467Y-13536436D01*
X14294467Y-13536436D02*
X14284944Y-13545960D01*
X14284944Y-13545960D02*
X14265896Y-13555484D01*
X14265896Y-13555484D02*
X14246848Y-13555484D01*
X14246848Y-13555484D02*
X14227801Y-13545960D01*
X14227801Y-13545960D02*
X14218277Y-13536436D01*
X14218277Y-13536436D02*
X14208753Y-13517388D01*
X14208753Y-13517388D02*
X14199229Y-13479293D01*
X14199229Y-13479293D02*
X14199229Y-13431674D01*
X14199229Y-13431674D02*
X14208753Y-13393579D01*
X14208753Y-13393579D02*
X14218277Y-13374531D01*
X14218277Y-13374531D02*
X14227801Y-13365008D01*
X14227801Y-13365008D02*
X14246848Y-13355484D01*
X14380182Y-13355484D02*
X14503991Y-13355484D01*
X14503991Y-13355484D02*
X14437325Y-13431674D01*
X14437325Y-13431674D02*
X14465896Y-13431674D01*
X14465896Y-13431674D02*
X14484944Y-13441198D01*
X14484944Y-13441198D02*
X14494467Y-13450722D01*
X14494467Y-13450722D02*
X14503991Y-13469769D01*
X14503991Y-13469769D02*
X14503991Y-13517388D01*
X14503991Y-13517388D02*
X14494467Y-13536436D01*
X14494467Y-13536436D02*
X14484944Y-13545960D01*
X14484944Y-13545960D02*
X14465896Y-13555484D01*
X14465896Y-13555484D02*
X14408753Y-13555484D01*
X14408753Y-13555484D02*
X14389706Y-13545960D01*
X14389706Y-13545960D02*
X14380182Y-13536436D01*
X14599229Y-13555484D02*
X14637325Y-13555484D01*
X14637325Y-13555484D02*
X14656372Y-13545960D01*
X14656372Y-13545960D02*
X14665896Y-13536436D01*
X14665896Y-13536436D02*
X14684944Y-13507865D01*
X14684944Y-13507865D02*
X14694467Y-13469769D01*
X14694467Y-13469769D02*
X14694467Y-13393579D01*
X14694467Y-13393579D02*
X14684944Y-13374531D01*
X14684944Y-13374531D02*
X14675420Y-13365008D01*
X14675420Y-13365008D02*
X14656372Y-13355484D01*
X14656372Y-13355484D02*
X14618277Y-13355484D01*
X14618277Y-13355484D02*
X14599229Y-13365008D01*
X14599229Y-13365008D02*
X14589706Y-13374531D01*
X14589706Y-13374531D02*
X14580182Y-13393579D01*
X14580182Y-13393579D02*
X14580182Y-13441198D01*
X14580182Y-13441198D02*
X14589706Y-13460246D01*
X14589706Y-13460246D02*
X14599229Y-13469769D01*
X14599229Y-13469769D02*
X14618277Y-13479293D01*
X14618277Y-13479293D02*
X14656372Y-13479293D01*
X14656372Y-13479293D02*
X14675420Y-13469769D01*
X14675420Y-13469769D02*
X14684944Y-13460246D01*
X14684944Y-13460246D02*
X14694467Y-13441198D01*
X14865896Y-13422150D02*
X14865896Y-13555484D01*
X14818277Y-13345960D02*
X14770658Y-13488817D01*
X14770658Y-13488817D02*
X14894467Y-13488817D01*
X14961134Y-13355484D02*
X14961134Y-13393579D01*
X15037325Y-13355484D02*
X15037325Y-13393579D01*
X15332563Y-13631674D02*
X15323039Y-13622150D01*
X15323039Y-13622150D02*
X15303991Y-13593579D01*
X15303991Y-13593579D02*
X15294468Y-13574531D01*
X15294468Y-13574531D02*
X15284944Y-13545960D01*
X15284944Y-13545960D02*
X15275420Y-13498341D01*
X15275420Y-13498341D02*
X15275420Y-13460246D01*
X15275420Y-13460246D02*
X15284944Y-13412627D01*
X15284944Y-13412627D02*
X15294468Y-13384055D01*
X15294468Y-13384055D02*
X15303991Y-13365008D01*
X15303991Y-13365008D02*
X15323039Y-13336436D01*
X15323039Y-13336436D02*
X15332563Y-13326912D01*
X15399229Y-13374531D02*
X15408753Y-13365008D01*
X15408753Y-13365008D02*
X15427801Y-13355484D01*
X15427801Y-13355484D02*
X15475420Y-13355484D01*
X15475420Y-13355484D02*
X15494468Y-13365008D01*
X15494468Y-13365008D02*
X15503991Y-13374531D01*
X15503991Y-13374531D02*
X15513515Y-13393579D01*
X15513515Y-13393579D02*
X15513515Y-13412627D01*
X15513515Y-13412627D02*
X15503991Y-13441198D01*
X15503991Y-13441198D02*
X15389706Y-13555484D01*
X15389706Y-13555484D02*
X15513515Y-13555484D01*
X15580182Y-13355484D02*
X15713515Y-13355484D01*
X15713515Y-13355484D02*
X15627801Y-13555484D01*
X15942087Y-13555484D02*
X15942087Y-13355484D01*
X16027801Y-13555484D02*
X16027801Y-13450722D01*
X16027801Y-13450722D02*
X16018277Y-13431674D01*
X16018277Y-13431674D02*
X15999230Y-13422150D01*
X15999230Y-13422150D02*
X15970658Y-13422150D01*
X15970658Y-13422150D02*
X15951610Y-13431674D01*
X15951610Y-13431674D02*
X15942087Y-13441198D01*
X16151610Y-13555484D02*
X16132563Y-13545960D01*
X16132563Y-13545960D02*
X16123039Y-13536436D01*
X16123039Y-13536436D02*
X16113515Y-13517388D01*
X16113515Y-13517388D02*
X16113515Y-13460246D01*
X16113515Y-13460246D02*
X16123039Y-13441198D01*
X16123039Y-13441198D02*
X16132563Y-13431674D01*
X16132563Y-13431674D02*
X16151610Y-13422150D01*
X16151610Y-13422150D02*
X16180182Y-13422150D01*
X16180182Y-13422150D02*
X16199230Y-13431674D01*
X16199230Y-13431674D02*
X16208753Y-13441198D01*
X16208753Y-13441198D02*
X16218277Y-13460246D01*
X16218277Y-13460246D02*
X16218277Y-13517388D01*
X16218277Y-13517388D02*
X16208753Y-13536436D01*
X16208753Y-13536436D02*
X16199230Y-13545960D01*
X16199230Y-13545960D02*
X16180182Y-13555484D01*
X16180182Y-13555484D02*
X16151610Y-13555484D01*
X16332563Y-13555484D02*
X16313515Y-13545960D01*
X16313515Y-13545960D02*
X16303991Y-13526912D01*
X16303991Y-13526912D02*
X16303991Y-13355484D01*
X16484944Y-13545960D02*
X16465896Y-13555484D01*
X16465896Y-13555484D02*
X16427801Y-13555484D01*
X16427801Y-13555484D02*
X16408753Y-13545960D01*
X16408753Y-13545960D02*
X16399230Y-13526912D01*
X16399230Y-13526912D02*
X16399230Y-13450722D01*
X16399230Y-13450722D02*
X16408753Y-13431674D01*
X16408753Y-13431674D02*
X16427801Y-13422150D01*
X16427801Y-13422150D02*
X16465896Y-13422150D01*
X16465896Y-13422150D02*
X16484944Y-13431674D01*
X16484944Y-13431674D02*
X16494468Y-13450722D01*
X16494468Y-13450722D02*
X16494468Y-13469769D01*
X16494468Y-13469769D02*
X16399230Y-13488817D01*
X16570658Y-13545960D02*
X16589706Y-13555484D01*
X16589706Y-13555484D02*
X16627801Y-13555484D01*
X16627801Y-13555484D02*
X16646849Y-13545960D01*
X16646849Y-13545960D02*
X16656372Y-13526912D01*
X16656372Y-13526912D02*
X16656372Y-13517388D01*
X16656372Y-13517388D02*
X16646849Y-13498341D01*
X16646849Y-13498341D02*
X16627801Y-13488817D01*
X16627801Y-13488817D02*
X16599230Y-13488817D01*
X16599230Y-13488817D02*
X16580182Y-13479293D01*
X16580182Y-13479293D02*
X16570658Y-13460246D01*
X16570658Y-13460246D02*
X16570658Y-13450722D01*
X16570658Y-13450722D02*
X16580182Y-13431674D01*
X16580182Y-13431674D02*
X16599230Y-13422150D01*
X16599230Y-13422150D02*
X16627801Y-13422150D01*
X16627801Y-13422150D02*
X16646849Y-13431674D01*
X16723039Y-13631674D02*
X16732563Y-13622150D01*
X16732563Y-13622150D02*
X16751611Y-13593579D01*
X16751611Y-13593579D02*
X16761134Y-13574531D01*
X16761134Y-13574531D02*
X16770658Y-13545960D01*
X16770658Y-13545960D02*
X16780182Y-13498341D01*
X16780182Y-13498341D02*
X16780182Y-13460246D01*
X16780182Y-13460246D02*
X16770658Y-13412627D01*
X16770658Y-13412627D02*
X16761134Y-13384055D01*
X16761134Y-13384055D02*
X16751611Y-13365008D01*
X16751611Y-13365008D02*
X16732563Y-13336436D01*
X16732563Y-13336436D02*
X16723039Y-13326912D01*
D12*
X11692500Y-13663000D02*
X11692500Y-13793000D01*
X11627500Y-13728000D02*
X11757500Y-13728000D01*
D10*
X12123039Y-13819484D02*
X12008753Y-13819484D01*
X12065896Y-13819484D02*
X12065896Y-13619484D01*
X12065896Y-13619484D02*
X12046848Y-13648055D01*
X12046848Y-13648055D02*
X12027801Y-13667103D01*
X12027801Y-13667103D02*
X12008753Y-13676627D01*
X12208753Y-13800436D02*
X12218277Y-13809960D01*
X12218277Y-13809960D02*
X12208753Y-13819484D01*
X12208753Y-13819484D02*
X12199229Y-13809960D01*
X12199229Y-13809960D02*
X12208753Y-13800436D01*
X12208753Y-13800436D02*
X12208753Y-13819484D01*
X12284943Y-13619484D02*
X12408753Y-13619484D01*
X12408753Y-13619484D02*
X12342086Y-13695674D01*
X12342086Y-13695674D02*
X12370658Y-13695674D01*
X12370658Y-13695674D02*
X12389705Y-13705198D01*
X12389705Y-13705198D02*
X12399229Y-13714722D01*
X12399229Y-13714722D02*
X12408753Y-13733769D01*
X12408753Y-13733769D02*
X12408753Y-13781388D01*
X12408753Y-13781388D02*
X12399229Y-13800436D01*
X12399229Y-13800436D02*
X12389705Y-13809960D01*
X12389705Y-13809960D02*
X12370658Y-13819484D01*
X12370658Y-13819484D02*
X12313515Y-13819484D01*
X12313515Y-13819484D02*
X12294467Y-13809960D01*
X12294467Y-13809960D02*
X12284943Y-13800436D01*
X12532562Y-13619484D02*
X12551610Y-13619484D01*
X12551610Y-13619484D02*
X12570658Y-13629008D01*
X12570658Y-13629008D02*
X12580182Y-13638531D01*
X12580182Y-13638531D02*
X12589705Y-13657579D01*
X12589705Y-13657579D02*
X12599229Y-13695674D01*
X12599229Y-13695674D02*
X12599229Y-13743293D01*
X12599229Y-13743293D02*
X12589705Y-13781388D01*
X12589705Y-13781388D02*
X12580182Y-13800436D01*
X12580182Y-13800436D02*
X12570658Y-13809960D01*
X12570658Y-13809960D02*
X12551610Y-13819484D01*
X12551610Y-13819484D02*
X12532562Y-13819484D01*
X12532562Y-13819484D02*
X12513515Y-13809960D01*
X12513515Y-13809960D02*
X12503991Y-13800436D01*
X12503991Y-13800436D02*
X12494467Y-13781388D01*
X12494467Y-13781388D02*
X12484943Y-13743293D01*
X12484943Y-13743293D02*
X12484943Y-13695674D01*
X12484943Y-13695674D02*
X12494467Y-13657579D01*
X12494467Y-13657579D02*
X12503991Y-13638531D01*
X12503991Y-13638531D02*
X12513515Y-13629008D01*
X12513515Y-13629008D02*
X12532562Y-13619484D01*
X12723039Y-13619484D02*
X12742086Y-13619484D01*
X12742086Y-13619484D02*
X12761134Y-13629008D01*
X12761134Y-13629008D02*
X12770658Y-13638531D01*
X12770658Y-13638531D02*
X12780182Y-13657579D01*
X12780182Y-13657579D02*
X12789705Y-13695674D01*
X12789705Y-13695674D02*
X12789705Y-13743293D01*
X12789705Y-13743293D02*
X12780182Y-13781388D01*
X12780182Y-13781388D02*
X12770658Y-13800436D01*
X12770658Y-13800436D02*
X12761134Y-13809960D01*
X12761134Y-13809960D02*
X12742086Y-13819484D01*
X12742086Y-13819484D02*
X12723039Y-13819484D01*
X12723039Y-13819484D02*
X12703991Y-13809960D01*
X12703991Y-13809960D02*
X12694467Y-13800436D01*
X12694467Y-13800436D02*
X12684943Y-13781388D01*
X12684943Y-13781388D02*
X12675420Y-13743293D01*
X12675420Y-13743293D02*
X12675420Y-13695674D01*
X12675420Y-13695674D02*
X12684943Y-13657579D01*
X12684943Y-13657579D02*
X12694467Y-13638531D01*
X12694467Y-13638531D02*
X12703991Y-13629008D01*
X12703991Y-13629008D02*
X12723039Y-13619484D01*
X12875420Y-13819484D02*
X12875420Y-13686150D01*
X12875420Y-13705198D02*
X12884943Y-13695674D01*
X12884943Y-13695674D02*
X12903991Y-13686150D01*
X12903991Y-13686150D02*
X12932563Y-13686150D01*
X12932563Y-13686150D02*
X12951610Y-13695674D01*
X12951610Y-13695674D02*
X12961134Y-13714722D01*
X12961134Y-13714722D02*
X12961134Y-13819484D01*
X12961134Y-13714722D02*
X12970658Y-13695674D01*
X12970658Y-13695674D02*
X12989705Y-13686150D01*
X12989705Y-13686150D02*
X13018277Y-13686150D01*
X13018277Y-13686150D02*
X13037324Y-13695674D01*
X13037324Y-13695674D02*
X13046848Y-13714722D01*
X13046848Y-13714722D02*
X13046848Y-13819484D01*
X13142086Y-13819484D02*
X13142086Y-13686150D01*
X13142086Y-13705198D02*
X13151610Y-13695674D01*
X13151610Y-13695674D02*
X13170658Y-13686150D01*
X13170658Y-13686150D02*
X13199229Y-13686150D01*
X13199229Y-13686150D02*
X13218277Y-13695674D01*
X13218277Y-13695674D02*
X13227801Y-13714722D01*
X13227801Y-13714722D02*
X13227801Y-13819484D01*
X13227801Y-13714722D02*
X13237324Y-13695674D01*
X13237324Y-13695674D02*
X13256372Y-13686150D01*
X13256372Y-13686150D02*
X13284943Y-13686150D01*
X13284943Y-13686150D02*
X13303991Y-13695674D01*
X13303991Y-13695674D02*
X13313515Y-13714722D01*
X13313515Y-13714722D02*
X13313515Y-13819484D01*
X13703991Y-13609960D02*
X13532563Y-13867103D01*
X13961134Y-13619484D02*
X13980182Y-13619484D01*
X13980182Y-13619484D02*
X13999229Y-13629008D01*
X13999229Y-13629008D02*
X14008753Y-13638531D01*
X14008753Y-13638531D02*
X14018277Y-13657579D01*
X14018277Y-13657579D02*
X14027801Y-13695674D01*
X14027801Y-13695674D02*
X14027801Y-13743293D01*
X14027801Y-13743293D02*
X14018277Y-13781388D01*
X14018277Y-13781388D02*
X14008753Y-13800436D01*
X14008753Y-13800436D02*
X13999229Y-13809960D01*
X13999229Y-13809960D02*
X13980182Y-13819484D01*
X13980182Y-13819484D02*
X13961134Y-13819484D01*
X13961134Y-13819484D02*
X13942086Y-13809960D01*
X13942086Y-13809960D02*
X13932563Y-13800436D01*
X13932563Y-13800436D02*
X13923039Y-13781388D01*
X13923039Y-13781388D02*
X13913515Y-13743293D01*
X13913515Y-13743293D02*
X13913515Y-13695674D01*
X13913515Y-13695674D02*
X13923039Y-13657579D01*
X13923039Y-13657579D02*
X13932563Y-13638531D01*
X13932563Y-13638531D02*
X13942086Y-13629008D01*
X13942086Y-13629008D02*
X13961134Y-13619484D01*
X14113515Y-13800436D02*
X14123039Y-13809960D01*
X14123039Y-13809960D02*
X14113515Y-13819484D01*
X14113515Y-13819484D02*
X14103991Y-13809960D01*
X14103991Y-13809960D02*
X14113515Y-13800436D01*
X14113515Y-13800436D02*
X14113515Y-13819484D01*
X14246848Y-13619484D02*
X14265896Y-13619484D01*
X14265896Y-13619484D02*
X14284944Y-13629008D01*
X14284944Y-13629008D02*
X14294467Y-13638531D01*
X14294467Y-13638531D02*
X14303991Y-13657579D01*
X14303991Y-13657579D02*
X14313515Y-13695674D01*
X14313515Y-13695674D02*
X14313515Y-13743293D01*
X14313515Y-13743293D02*
X14303991Y-13781388D01*
X14303991Y-13781388D02*
X14294467Y-13800436D01*
X14294467Y-13800436D02*
X14284944Y-13809960D01*
X14284944Y-13809960D02*
X14265896Y-13819484D01*
X14265896Y-13819484D02*
X14246848Y-13819484D01*
X14246848Y-13819484D02*
X14227801Y-13809960D01*
X14227801Y-13809960D02*
X14218277Y-13800436D01*
X14218277Y-13800436D02*
X14208753Y-13781388D01*
X14208753Y-13781388D02*
X14199229Y-13743293D01*
X14199229Y-13743293D02*
X14199229Y-13695674D01*
X14199229Y-13695674D02*
X14208753Y-13657579D01*
X14208753Y-13657579D02*
X14218277Y-13638531D01*
X14218277Y-13638531D02*
X14227801Y-13629008D01*
X14227801Y-13629008D02*
X14246848Y-13619484D01*
X14494467Y-13619484D02*
X14399229Y-13619484D01*
X14399229Y-13619484D02*
X14389706Y-13714722D01*
X14389706Y-13714722D02*
X14399229Y-13705198D01*
X14399229Y-13705198D02*
X14418277Y-13695674D01*
X14418277Y-13695674D02*
X14465896Y-13695674D01*
X14465896Y-13695674D02*
X14484944Y-13705198D01*
X14484944Y-13705198D02*
X14494467Y-13714722D01*
X14494467Y-13714722D02*
X14503991Y-13733769D01*
X14503991Y-13733769D02*
X14503991Y-13781388D01*
X14503991Y-13781388D02*
X14494467Y-13800436D01*
X14494467Y-13800436D02*
X14484944Y-13809960D01*
X14484944Y-13809960D02*
X14465896Y-13819484D01*
X14465896Y-13819484D02*
X14418277Y-13819484D01*
X14418277Y-13819484D02*
X14399229Y-13809960D01*
X14399229Y-13809960D02*
X14389706Y-13800436D01*
X14694467Y-13819484D02*
X14580182Y-13819484D01*
X14637325Y-13819484D02*
X14637325Y-13619484D01*
X14637325Y-13619484D02*
X14618277Y-13648055D01*
X14618277Y-13648055D02*
X14599229Y-13667103D01*
X14599229Y-13667103D02*
X14580182Y-13676627D01*
X14770658Y-13638531D02*
X14780182Y-13629008D01*
X14780182Y-13629008D02*
X14799229Y-13619484D01*
X14799229Y-13619484D02*
X14846848Y-13619484D01*
X14846848Y-13619484D02*
X14865896Y-13629008D01*
X14865896Y-13629008D02*
X14875420Y-13638531D01*
X14875420Y-13638531D02*
X14884944Y-13657579D01*
X14884944Y-13657579D02*
X14884944Y-13676627D01*
X14884944Y-13676627D02*
X14875420Y-13705198D01*
X14875420Y-13705198D02*
X14761134Y-13819484D01*
X14761134Y-13819484D02*
X14884944Y-13819484D01*
X14961134Y-13619484D02*
X14961134Y-13657579D01*
X15037325Y-13619484D02*
X15037325Y-13657579D01*
X15332563Y-13895674D02*
X15323039Y-13886150D01*
X15323039Y-13886150D02*
X15303991Y-13857579D01*
X15303991Y-13857579D02*
X15294468Y-13838531D01*
X15294468Y-13838531D02*
X15284944Y-13809960D01*
X15284944Y-13809960D02*
X15275420Y-13762341D01*
X15275420Y-13762341D02*
X15275420Y-13724246D01*
X15275420Y-13724246D02*
X15284944Y-13676627D01*
X15284944Y-13676627D02*
X15294468Y-13648055D01*
X15294468Y-13648055D02*
X15303991Y-13629008D01*
X15303991Y-13629008D02*
X15323039Y-13600436D01*
X15323039Y-13600436D02*
X15332563Y-13590912D01*
X15399229Y-13638531D02*
X15408753Y-13629008D01*
X15408753Y-13629008D02*
X15427801Y-13619484D01*
X15427801Y-13619484D02*
X15475420Y-13619484D01*
X15475420Y-13619484D02*
X15494468Y-13629008D01*
X15494468Y-13629008D02*
X15503991Y-13638531D01*
X15503991Y-13638531D02*
X15513515Y-13657579D01*
X15513515Y-13657579D02*
X15513515Y-13676627D01*
X15513515Y-13676627D02*
X15503991Y-13705198D01*
X15503991Y-13705198D02*
X15389706Y-13819484D01*
X15389706Y-13819484D02*
X15513515Y-13819484D01*
X15751610Y-13819484D02*
X15751610Y-13619484D01*
X15837325Y-13819484D02*
X15837325Y-13714722D01*
X15837325Y-13714722D02*
X15827801Y-13695674D01*
X15827801Y-13695674D02*
X15808753Y-13686150D01*
X15808753Y-13686150D02*
X15780182Y-13686150D01*
X15780182Y-13686150D02*
X15761134Y-13695674D01*
X15761134Y-13695674D02*
X15751610Y-13705198D01*
X15961134Y-13819484D02*
X15942087Y-13809960D01*
X15942087Y-13809960D02*
X15932563Y-13800436D01*
X15932563Y-13800436D02*
X15923039Y-13781388D01*
X15923039Y-13781388D02*
X15923039Y-13724246D01*
X15923039Y-13724246D02*
X15932563Y-13705198D01*
X15932563Y-13705198D02*
X15942087Y-13695674D01*
X15942087Y-13695674D02*
X15961134Y-13686150D01*
X15961134Y-13686150D02*
X15989706Y-13686150D01*
X15989706Y-13686150D02*
X16008753Y-13695674D01*
X16008753Y-13695674D02*
X16018277Y-13705198D01*
X16018277Y-13705198D02*
X16027801Y-13724246D01*
X16027801Y-13724246D02*
X16027801Y-13781388D01*
X16027801Y-13781388D02*
X16018277Y-13800436D01*
X16018277Y-13800436D02*
X16008753Y-13809960D01*
X16008753Y-13809960D02*
X15989706Y-13819484D01*
X15989706Y-13819484D02*
X15961134Y-13819484D01*
X16142087Y-13819484D02*
X16123039Y-13809960D01*
X16123039Y-13809960D02*
X16113515Y-13790912D01*
X16113515Y-13790912D02*
X16113515Y-13619484D01*
X16294468Y-13809960D02*
X16275420Y-13819484D01*
X16275420Y-13819484D02*
X16237325Y-13819484D01*
X16237325Y-13819484D02*
X16218277Y-13809960D01*
X16218277Y-13809960D02*
X16208753Y-13790912D01*
X16208753Y-13790912D02*
X16208753Y-13714722D01*
X16208753Y-13714722D02*
X16218277Y-13695674D01*
X16218277Y-13695674D02*
X16237325Y-13686150D01*
X16237325Y-13686150D02*
X16275420Y-13686150D01*
X16275420Y-13686150D02*
X16294468Y-13695674D01*
X16294468Y-13695674D02*
X16303991Y-13714722D01*
X16303991Y-13714722D02*
X16303991Y-13733769D01*
X16303991Y-13733769D02*
X16208753Y-13752817D01*
X16380182Y-13809960D02*
X16399230Y-13819484D01*
X16399230Y-13819484D02*
X16437325Y-13819484D01*
X16437325Y-13819484D02*
X16456372Y-13809960D01*
X16456372Y-13809960D02*
X16465896Y-13790912D01*
X16465896Y-13790912D02*
X16465896Y-13781388D01*
X16465896Y-13781388D02*
X16456372Y-13762341D01*
X16456372Y-13762341D02*
X16437325Y-13752817D01*
X16437325Y-13752817D02*
X16408753Y-13752817D01*
X16408753Y-13752817D02*
X16389706Y-13743293D01*
X16389706Y-13743293D02*
X16380182Y-13724246D01*
X16380182Y-13724246D02*
X16380182Y-13714722D01*
X16380182Y-13714722D02*
X16389706Y-13695674D01*
X16389706Y-13695674D02*
X16408753Y-13686150D01*
X16408753Y-13686150D02*
X16437325Y-13686150D01*
X16437325Y-13686150D02*
X16456372Y-13695674D01*
X16532563Y-13895674D02*
X16542087Y-13886150D01*
X16542087Y-13886150D02*
X16561134Y-13857579D01*
X16561134Y-13857579D02*
X16570658Y-13838531D01*
X16570658Y-13838531D02*
X16580182Y-13809960D01*
X16580182Y-13809960D02*
X16589706Y-13762341D01*
X16589706Y-13762341D02*
X16589706Y-13724246D01*
X16589706Y-13724246D02*
X16580182Y-13676627D01*
X16580182Y-13676627D02*
X16570658Y-13648055D01*
X16570658Y-13648055D02*
X16561134Y-13629008D01*
X16561134Y-13629008D02*
X16542087Y-13600436D01*
X16542087Y-13600436D02*
X16532563Y-13590912D01*
D13*
X11735533Y-14045033D02*
X11735533Y-13938966D01*
X11629466Y-13938966D01*
X11629466Y-14045033D01*
X11735533Y-14045033D01*
D10*
X12123039Y-14083484D02*
X12008753Y-14083484D01*
X12065896Y-14083484D02*
X12065896Y-13883484D01*
X12065896Y-13883484D02*
X12046848Y-13912055D01*
X12046848Y-13912055D02*
X12027801Y-13931103D01*
X12027801Y-13931103D02*
X12008753Y-13940627D01*
X12208753Y-14064436D02*
X12218277Y-14073960D01*
X12218277Y-14073960D02*
X12208753Y-14083484D01*
X12208753Y-14083484D02*
X12199229Y-14073960D01*
X12199229Y-14073960D02*
X12208753Y-14064436D01*
X12208753Y-14064436D02*
X12208753Y-14083484D01*
X12399229Y-13883484D02*
X12303991Y-13883484D01*
X12303991Y-13883484D02*
X12294467Y-13978722D01*
X12294467Y-13978722D02*
X12303991Y-13969198D01*
X12303991Y-13969198D02*
X12323039Y-13959674D01*
X12323039Y-13959674D02*
X12370658Y-13959674D01*
X12370658Y-13959674D02*
X12389705Y-13969198D01*
X12389705Y-13969198D02*
X12399229Y-13978722D01*
X12399229Y-13978722D02*
X12408753Y-13997769D01*
X12408753Y-13997769D02*
X12408753Y-14045388D01*
X12408753Y-14045388D02*
X12399229Y-14064436D01*
X12399229Y-14064436D02*
X12389705Y-14073960D01*
X12389705Y-14073960D02*
X12370658Y-14083484D01*
X12370658Y-14083484D02*
X12323039Y-14083484D01*
X12323039Y-14083484D02*
X12303991Y-14073960D01*
X12303991Y-14073960D02*
X12294467Y-14064436D01*
X12532562Y-13883484D02*
X12551610Y-13883484D01*
X12551610Y-13883484D02*
X12570658Y-13893008D01*
X12570658Y-13893008D02*
X12580182Y-13902531D01*
X12580182Y-13902531D02*
X12589705Y-13921579D01*
X12589705Y-13921579D02*
X12599229Y-13959674D01*
X12599229Y-13959674D02*
X12599229Y-14007293D01*
X12599229Y-14007293D02*
X12589705Y-14045388D01*
X12589705Y-14045388D02*
X12580182Y-14064436D01*
X12580182Y-14064436D02*
X12570658Y-14073960D01*
X12570658Y-14073960D02*
X12551610Y-14083484D01*
X12551610Y-14083484D02*
X12532562Y-14083484D01*
X12532562Y-14083484D02*
X12513515Y-14073960D01*
X12513515Y-14073960D02*
X12503991Y-14064436D01*
X12503991Y-14064436D02*
X12494467Y-14045388D01*
X12494467Y-14045388D02*
X12484943Y-14007293D01*
X12484943Y-14007293D02*
X12484943Y-13959674D01*
X12484943Y-13959674D02*
X12494467Y-13921579D01*
X12494467Y-13921579D02*
X12503991Y-13902531D01*
X12503991Y-13902531D02*
X12513515Y-13893008D01*
X12513515Y-13893008D02*
X12532562Y-13883484D01*
X12723039Y-13883484D02*
X12742086Y-13883484D01*
X12742086Y-13883484D02*
X12761134Y-13893008D01*
X12761134Y-13893008D02*
X12770658Y-13902531D01*
X12770658Y-13902531D02*
X12780182Y-13921579D01*
X12780182Y-13921579D02*
X12789705Y-13959674D01*
X12789705Y-13959674D02*
X12789705Y-14007293D01*
X12789705Y-14007293D02*
X12780182Y-14045388D01*
X12780182Y-14045388D02*
X12770658Y-14064436D01*
X12770658Y-14064436D02*
X12761134Y-14073960D01*
X12761134Y-14073960D02*
X12742086Y-14083484D01*
X12742086Y-14083484D02*
X12723039Y-14083484D01*
X12723039Y-14083484D02*
X12703991Y-14073960D01*
X12703991Y-14073960D02*
X12694467Y-14064436D01*
X12694467Y-14064436D02*
X12684943Y-14045388D01*
X12684943Y-14045388D02*
X12675420Y-14007293D01*
X12675420Y-14007293D02*
X12675420Y-13959674D01*
X12675420Y-13959674D02*
X12684943Y-13921579D01*
X12684943Y-13921579D02*
X12694467Y-13902531D01*
X12694467Y-13902531D02*
X12703991Y-13893008D01*
X12703991Y-13893008D02*
X12723039Y-13883484D01*
X12875420Y-14083484D02*
X12875420Y-13950150D01*
X12875420Y-13969198D02*
X12884943Y-13959674D01*
X12884943Y-13959674D02*
X12903991Y-13950150D01*
X12903991Y-13950150D02*
X12932563Y-13950150D01*
X12932563Y-13950150D02*
X12951610Y-13959674D01*
X12951610Y-13959674D02*
X12961134Y-13978722D01*
X12961134Y-13978722D02*
X12961134Y-14083484D01*
X12961134Y-13978722D02*
X12970658Y-13959674D01*
X12970658Y-13959674D02*
X12989705Y-13950150D01*
X12989705Y-13950150D02*
X13018277Y-13950150D01*
X13018277Y-13950150D02*
X13037324Y-13959674D01*
X13037324Y-13959674D02*
X13046848Y-13978722D01*
X13046848Y-13978722D02*
X13046848Y-14083484D01*
X13142086Y-14083484D02*
X13142086Y-13950150D01*
X13142086Y-13969198D02*
X13151610Y-13959674D01*
X13151610Y-13959674D02*
X13170658Y-13950150D01*
X13170658Y-13950150D02*
X13199229Y-13950150D01*
X13199229Y-13950150D02*
X13218277Y-13959674D01*
X13218277Y-13959674D02*
X13227801Y-13978722D01*
X13227801Y-13978722D02*
X13227801Y-14083484D01*
X13227801Y-13978722D02*
X13237324Y-13959674D01*
X13237324Y-13959674D02*
X13256372Y-13950150D01*
X13256372Y-13950150D02*
X13284943Y-13950150D01*
X13284943Y-13950150D02*
X13303991Y-13959674D01*
X13303991Y-13959674D02*
X13313515Y-13978722D01*
X13313515Y-13978722D02*
X13313515Y-14083484D01*
X13703991Y-13873960D02*
X13532563Y-14131103D01*
X13961134Y-13883484D02*
X13980182Y-13883484D01*
X13980182Y-13883484D02*
X13999229Y-13893008D01*
X13999229Y-13893008D02*
X14008753Y-13902531D01*
X14008753Y-13902531D02*
X14018277Y-13921579D01*
X14018277Y-13921579D02*
X14027801Y-13959674D01*
X14027801Y-13959674D02*
X14027801Y-14007293D01*
X14027801Y-14007293D02*
X14018277Y-14045388D01*
X14018277Y-14045388D02*
X14008753Y-14064436D01*
X14008753Y-14064436D02*
X13999229Y-14073960D01*
X13999229Y-14073960D02*
X13980182Y-14083484D01*
X13980182Y-14083484D02*
X13961134Y-14083484D01*
X13961134Y-14083484D02*
X13942086Y-14073960D01*
X13942086Y-14073960D02*
X13932563Y-14064436D01*
X13932563Y-14064436D02*
X13923039Y-14045388D01*
X13923039Y-14045388D02*
X13913515Y-14007293D01*
X13913515Y-14007293D02*
X13913515Y-13959674D01*
X13913515Y-13959674D02*
X13923039Y-13921579D01*
X13923039Y-13921579D02*
X13932563Y-13902531D01*
X13932563Y-13902531D02*
X13942086Y-13893008D01*
X13942086Y-13893008D02*
X13961134Y-13883484D01*
X14113515Y-14064436D02*
X14123039Y-14073960D01*
X14123039Y-14073960D02*
X14113515Y-14083484D01*
X14113515Y-14083484D02*
X14103991Y-14073960D01*
X14103991Y-14073960D02*
X14113515Y-14064436D01*
X14113515Y-14064436D02*
X14113515Y-14083484D01*
X14246848Y-13883484D02*
X14265896Y-13883484D01*
X14265896Y-13883484D02*
X14284944Y-13893008D01*
X14284944Y-13893008D02*
X14294467Y-13902531D01*
X14294467Y-13902531D02*
X14303991Y-13921579D01*
X14303991Y-13921579D02*
X14313515Y-13959674D01*
X14313515Y-13959674D02*
X14313515Y-14007293D01*
X14313515Y-14007293D02*
X14303991Y-14045388D01*
X14303991Y-14045388D02*
X14294467Y-14064436D01*
X14294467Y-14064436D02*
X14284944Y-14073960D01*
X14284944Y-14073960D02*
X14265896Y-14083484D01*
X14265896Y-14083484D02*
X14246848Y-14083484D01*
X14246848Y-14083484D02*
X14227801Y-14073960D01*
X14227801Y-14073960D02*
X14218277Y-14064436D01*
X14218277Y-14064436D02*
X14208753Y-14045388D01*
X14208753Y-14045388D02*
X14199229Y-14007293D01*
X14199229Y-14007293D02*
X14199229Y-13959674D01*
X14199229Y-13959674D02*
X14208753Y-13921579D01*
X14208753Y-13921579D02*
X14218277Y-13902531D01*
X14218277Y-13902531D02*
X14227801Y-13893008D01*
X14227801Y-13893008D02*
X14246848Y-13883484D01*
X14494467Y-13883484D02*
X14399229Y-13883484D01*
X14399229Y-13883484D02*
X14389706Y-13978722D01*
X14389706Y-13978722D02*
X14399229Y-13969198D01*
X14399229Y-13969198D02*
X14418277Y-13959674D01*
X14418277Y-13959674D02*
X14465896Y-13959674D01*
X14465896Y-13959674D02*
X14484944Y-13969198D01*
X14484944Y-13969198D02*
X14494467Y-13978722D01*
X14494467Y-13978722D02*
X14503991Y-13997769D01*
X14503991Y-13997769D02*
X14503991Y-14045388D01*
X14503991Y-14045388D02*
X14494467Y-14064436D01*
X14494467Y-14064436D02*
X14484944Y-14073960D01*
X14484944Y-14073960D02*
X14465896Y-14083484D01*
X14465896Y-14083484D02*
X14418277Y-14083484D01*
X14418277Y-14083484D02*
X14399229Y-14073960D01*
X14399229Y-14073960D02*
X14389706Y-14064436D01*
X14599229Y-14083484D02*
X14637325Y-14083484D01*
X14637325Y-14083484D02*
X14656372Y-14073960D01*
X14656372Y-14073960D02*
X14665896Y-14064436D01*
X14665896Y-14064436D02*
X14684944Y-14035865D01*
X14684944Y-14035865D02*
X14694467Y-13997769D01*
X14694467Y-13997769D02*
X14694467Y-13921579D01*
X14694467Y-13921579D02*
X14684944Y-13902531D01*
X14684944Y-13902531D02*
X14675420Y-13893008D01*
X14675420Y-13893008D02*
X14656372Y-13883484D01*
X14656372Y-13883484D02*
X14618277Y-13883484D01*
X14618277Y-13883484D02*
X14599229Y-13893008D01*
X14599229Y-13893008D02*
X14589706Y-13902531D01*
X14589706Y-13902531D02*
X14580182Y-13921579D01*
X14580182Y-13921579D02*
X14580182Y-13969198D01*
X14580182Y-13969198D02*
X14589706Y-13988246D01*
X14589706Y-13988246D02*
X14599229Y-13997769D01*
X14599229Y-13997769D02*
X14618277Y-14007293D01*
X14618277Y-14007293D02*
X14656372Y-14007293D01*
X14656372Y-14007293D02*
X14675420Y-13997769D01*
X14675420Y-13997769D02*
X14684944Y-13988246D01*
X14684944Y-13988246D02*
X14694467Y-13969198D01*
X14884944Y-14083484D02*
X14770658Y-14083484D01*
X14827801Y-14083484D02*
X14827801Y-13883484D01*
X14827801Y-13883484D02*
X14808753Y-13912055D01*
X14808753Y-13912055D02*
X14789706Y-13931103D01*
X14789706Y-13931103D02*
X14770658Y-13940627D01*
X14961134Y-13883484D02*
X14961134Y-13921579D01*
X15037325Y-13883484D02*
X15037325Y-13921579D01*
X15332563Y-14159674D02*
X15323039Y-14150150D01*
X15323039Y-14150150D02*
X15303991Y-14121579D01*
X15303991Y-14121579D02*
X15294468Y-14102531D01*
X15294468Y-14102531D02*
X15284944Y-14073960D01*
X15284944Y-14073960D02*
X15275420Y-14026341D01*
X15275420Y-14026341D02*
X15275420Y-13988246D01*
X15275420Y-13988246D02*
X15284944Y-13940627D01*
X15284944Y-13940627D02*
X15294468Y-13912055D01*
X15294468Y-13912055D02*
X15303991Y-13893008D01*
X15303991Y-13893008D02*
X15323039Y-13864436D01*
X15323039Y-13864436D02*
X15332563Y-13854912D01*
X15399229Y-13902531D02*
X15408753Y-13893008D01*
X15408753Y-13893008D02*
X15427801Y-13883484D01*
X15427801Y-13883484D02*
X15475420Y-13883484D01*
X15475420Y-13883484D02*
X15494468Y-13893008D01*
X15494468Y-13893008D02*
X15503991Y-13902531D01*
X15503991Y-13902531D02*
X15513515Y-13921579D01*
X15513515Y-13921579D02*
X15513515Y-13940627D01*
X15513515Y-13940627D02*
X15503991Y-13969198D01*
X15503991Y-13969198D02*
X15389706Y-14083484D01*
X15389706Y-14083484D02*
X15513515Y-14083484D01*
X15751610Y-14083484D02*
X15751610Y-13883484D01*
X15837325Y-14083484D02*
X15837325Y-13978722D01*
X15837325Y-13978722D02*
X15827801Y-13959674D01*
X15827801Y-13959674D02*
X15808753Y-13950150D01*
X15808753Y-13950150D02*
X15780182Y-13950150D01*
X15780182Y-13950150D02*
X15761134Y-13959674D01*
X15761134Y-13959674D02*
X15751610Y-13969198D01*
X15961134Y-14083484D02*
X15942087Y-14073960D01*
X15942087Y-14073960D02*
X15932563Y-14064436D01*
X15932563Y-14064436D02*
X15923039Y-14045388D01*
X15923039Y-14045388D02*
X15923039Y-13988246D01*
X15923039Y-13988246D02*
X15932563Y-13969198D01*
X15932563Y-13969198D02*
X15942087Y-13959674D01*
X15942087Y-13959674D02*
X15961134Y-13950150D01*
X15961134Y-13950150D02*
X15989706Y-13950150D01*
X15989706Y-13950150D02*
X16008753Y-13959674D01*
X16008753Y-13959674D02*
X16018277Y-13969198D01*
X16018277Y-13969198D02*
X16027801Y-13988246D01*
X16027801Y-13988246D02*
X16027801Y-14045388D01*
X16027801Y-14045388D02*
X16018277Y-14064436D01*
X16018277Y-14064436D02*
X16008753Y-14073960D01*
X16008753Y-14073960D02*
X15989706Y-14083484D01*
X15989706Y-14083484D02*
X15961134Y-14083484D01*
X16142087Y-14083484D02*
X16123039Y-14073960D01*
X16123039Y-14073960D02*
X16113515Y-14054912D01*
X16113515Y-14054912D02*
X16113515Y-13883484D01*
X16294468Y-14073960D02*
X16275420Y-14083484D01*
X16275420Y-14083484D02*
X16237325Y-14083484D01*
X16237325Y-14083484D02*
X16218277Y-14073960D01*
X16218277Y-14073960D02*
X16208753Y-14054912D01*
X16208753Y-14054912D02*
X16208753Y-13978722D01*
X16208753Y-13978722D02*
X16218277Y-13959674D01*
X16218277Y-13959674D02*
X16237325Y-13950150D01*
X16237325Y-13950150D02*
X16275420Y-13950150D01*
X16275420Y-13950150D02*
X16294468Y-13959674D01*
X16294468Y-13959674D02*
X16303991Y-13978722D01*
X16303991Y-13978722D02*
X16303991Y-13997769D01*
X16303991Y-13997769D02*
X16208753Y-14016817D01*
X16380182Y-14073960D02*
X16399230Y-14083484D01*
X16399230Y-14083484D02*
X16437325Y-14083484D01*
X16437325Y-14083484D02*
X16456372Y-14073960D01*
X16456372Y-14073960D02*
X16465896Y-14054912D01*
X16465896Y-14054912D02*
X16465896Y-14045388D01*
X16465896Y-14045388D02*
X16456372Y-14026341D01*
X16456372Y-14026341D02*
X16437325Y-14016817D01*
X16437325Y-14016817D02*
X16408753Y-14016817D01*
X16408753Y-14016817D02*
X16389706Y-14007293D01*
X16389706Y-14007293D02*
X16380182Y-13988246D01*
X16380182Y-13988246D02*
X16380182Y-13978722D01*
X16380182Y-13978722D02*
X16389706Y-13959674D01*
X16389706Y-13959674D02*
X16408753Y-13950150D01*
X16408753Y-13950150D02*
X16437325Y-13950150D01*
X16437325Y-13950150D02*
X16456372Y-13959674D01*
X16532563Y-14159674D02*
X16542087Y-14150150D01*
X16542087Y-14150150D02*
X16561134Y-14121579D01*
X16561134Y-14121579D02*
X16570658Y-14102531D01*
X16570658Y-14102531D02*
X16580182Y-14073960D01*
X16580182Y-14073960D02*
X16589706Y-14026341D01*
X16589706Y-14026341D02*
X16589706Y-13988246D01*
X16589706Y-13988246D02*
X16580182Y-13940627D01*
X16580182Y-13940627D02*
X16570658Y-13912055D01*
X16570658Y-13912055D02*
X16561134Y-13893008D01*
X16561134Y-13893008D02*
X16542087Y-13864436D01*
X16542087Y-13864436D02*
X16532563Y-13854912D01*
D14*
X11672500Y-14347000D02*
X11757500Y-14262000D01*
X11672500Y-14177000D01*
X11587500Y-14262000D01*
X11672500Y-14347000D01*
D10*
X12123039Y-14353484D02*
X12008753Y-14353484D01*
X12065896Y-14353484D02*
X12065896Y-14153484D01*
X12065896Y-14153484D02*
X12046848Y-14182055D01*
X12046848Y-14182055D02*
X12027801Y-14201103D01*
X12027801Y-14201103D02*
X12008753Y-14210627D01*
X12208753Y-14334436D02*
X12218277Y-14343960D01*
X12218277Y-14343960D02*
X12208753Y-14353484D01*
X12208753Y-14353484D02*
X12199229Y-14343960D01*
X12199229Y-14343960D02*
X12208753Y-14334436D01*
X12208753Y-14334436D02*
X12208753Y-14353484D01*
X12284943Y-14153484D02*
X12418277Y-14153484D01*
X12418277Y-14153484D02*
X12332562Y-14353484D01*
X12532562Y-14153484D02*
X12551610Y-14153484D01*
X12551610Y-14153484D02*
X12570658Y-14163008D01*
X12570658Y-14163008D02*
X12580182Y-14172531D01*
X12580182Y-14172531D02*
X12589705Y-14191579D01*
X12589705Y-14191579D02*
X12599229Y-14229674D01*
X12599229Y-14229674D02*
X12599229Y-14277293D01*
X12599229Y-14277293D02*
X12589705Y-14315388D01*
X12589705Y-14315388D02*
X12580182Y-14334436D01*
X12580182Y-14334436D02*
X12570658Y-14343960D01*
X12570658Y-14343960D02*
X12551610Y-14353484D01*
X12551610Y-14353484D02*
X12532562Y-14353484D01*
X12532562Y-14353484D02*
X12513515Y-14343960D01*
X12513515Y-14343960D02*
X12503991Y-14334436D01*
X12503991Y-14334436D02*
X12494467Y-14315388D01*
X12494467Y-14315388D02*
X12484943Y-14277293D01*
X12484943Y-14277293D02*
X12484943Y-14229674D01*
X12484943Y-14229674D02*
X12494467Y-14191579D01*
X12494467Y-14191579D02*
X12503991Y-14172531D01*
X12503991Y-14172531D02*
X12513515Y-14163008D01*
X12513515Y-14163008D02*
X12532562Y-14153484D01*
X12723039Y-14153484D02*
X12742086Y-14153484D01*
X12742086Y-14153484D02*
X12761134Y-14163008D01*
X12761134Y-14163008D02*
X12770658Y-14172531D01*
X12770658Y-14172531D02*
X12780182Y-14191579D01*
X12780182Y-14191579D02*
X12789705Y-14229674D01*
X12789705Y-14229674D02*
X12789705Y-14277293D01*
X12789705Y-14277293D02*
X12780182Y-14315388D01*
X12780182Y-14315388D02*
X12770658Y-14334436D01*
X12770658Y-14334436D02*
X12761134Y-14343960D01*
X12761134Y-14343960D02*
X12742086Y-14353484D01*
X12742086Y-14353484D02*
X12723039Y-14353484D01*
X12723039Y-14353484D02*
X12703991Y-14343960D01*
X12703991Y-14343960D02*
X12694467Y-14334436D01*
X12694467Y-14334436D02*
X12684943Y-14315388D01*
X12684943Y-14315388D02*
X12675420Y-14277293D01*
X12675420Y-14277293D02*
X12675420Y-14229674D01*
X12675420Y-14229674D02*
X12684943Y-14191579D01*
X12684943Y-14191579D02*
X12694467Y-14172531D01*
X12694467Y-14172531D02*
X12703991Y-14163008D01*
X12703991Y-14163008D02*
X12723039Y-14153484D01*
X12875420Y-14353484D02*
X12875420Y-14220150D01*
X12875420Y-14239198D02*
X12884943Y-14229674D01*
X12884943Y-14229674D02*
X12903991Y-14220150D01*
X12903991Y-14220150D02*
X12932563Y-14220150D01*
X12932563Y-14220150D02*
X12951610Y-14229674D01*
X12951610Y-14229674D02*
X12961134Y-14248722D01*
X12961134Y-14248722D02*
X12961134Y-14353484D01*
X12961134Y-14248722D02*
X12970658Y-14229674D01*
X12970658Y-14229674D02*
X12989705Y-14220150D01*
X12989705Y-14220150D02*
X13018277Y-14220150D01*
X13018277Y-14220150D02*
X13037324Y-14229674D01*
X13037324Y-14229674D02*
X13046848Y-14248722D01*
X13046848Y-14248722D02*
X13046848Y-14353484D01*
X13142086Y-14353484D02*
X13142086Y-14220150D01*
X13142086Y-14239198D02*
X13151610Y-14229674D01*
X13151610Y-14229674D02*
X13170658Y-14220150D01*
X13170658Y-14220150D02*
X13199229Y-14220150D01*
X13199229Y-14220150D02*
X13218277Y-14229674D01*
X13218277Y-14229674D02*
X13227801Y-14248722D01*
X13227801Y-14248722D02*
X13227801Y-14353484D01*
X13227801Y-14248722D02*
X13237324Y-14229674D01*
X13237324Y-14229674D02*
X13256372Y-14220150D01*
X13256372Y-14220150D02*
X13284943Y-14220150D01*
X13284943Y-14220150D02*
X13303991Y-14229674D01*
X13303991Y-14229674D02*
X13313515Y-14248722D01*
X13313515Y-14248722D02*
X13313515Y-14353484D01*
X13703991Y-14143960D02*
X13532563Y-14401103D01*
X13961134Y-14153484D02*
X13980182Y-14153484D01*
X13980182Y-14153484D02*
X13999229Y-14163008D01*
X13999229Y-14163008D02*
X14008753Y-14172531D01*
X14008753Y-14172531D02*
X14018277Y-14191579D01*
X14018277Y-14191579D02*
X14027801Y-14229674D01*
X14027801Y-14229674D02*
X14027801Y-14277293D01*
X14027801Y-14277293D02*
X14018277Y-14315388D01*
X14018277Y-14315388D02*
X14008753Y-14334436D01*
X14008753Y-14334436D02*
X13999229Y-14343960D01*
X13999229Y-14343960D02*
X13980182Y-14353484D01*
X13980182Y-14353484D02*
X13961134Y-14353484D01*
X13961134Y-14353484D02*
X13942086Y-14343960D01*
X13942086Y-14343960D02*
X13932563Y-14334436D01*
X13932563Y-14334436D02*
X13923039Y-14315388D01*
X13923039Y-14315388D02*
X13913515Y-14277293D01*
X13913515Y-14277293D02*
X13913515Y-14229674D01*
X13913515Y-14229674D02*
X13923039Y-14191579D01*
X13923039Y-14191579D02*
X13932563Y-14172531D01*
X13932563Y-14172531D02*
X13942086Y-14163008D01*
X13942086Y-14163008D02*
X13961134Y-14153484D01*
X14113515Y-14334436D02*
X14123039Y-14343960D01*
X14123039Y-14343960D02*
X14113515Y-14353484D01*
X14113515Y-14353484D02*
X14103991Y-14343960D01*
X14103991Y-14343960D02*
X14113515Y-14334436D01*
X14113515Y-14334436D02*
X14113515Y-14353484D01*
X14246848Y-14153484D02*
X14265896Y-14153484D01*
X14265896Y-14153484D02*
X14284944Y-14163008D01*
X14284944Y-14163008D02*
X14294467Y-14172531D01*
X14294467Y-14172531D02*
X14303991Y-14191579D01*
X14303991Y-14191579D02*
X14313515Y-14229674D01*
X14313515Y-14229674D02*
X14313515Y-14277293D01*
X14313515Y-14277293D02*
X14303991Y-14315388D01*
X14303991Y-14315388D02*
X14294467Y-14334436D01*
X14294467Y-14334436D02*
X14284944Y-14343960D01*
X14284944Y-14343960D02*
X14265896Y-14353484D01*
X14265896Y-14353484D02*
X14246848Y-14353484D01*
X14246848Y-14353484D02*
X14227801Y-14343960D01*
X14227801Y-14343960D02*
X14218277Y-14334436D01*
X14218277Y-14334436D02*
X14208753Y-14315388D01*
X14208753Y-14315388D02*
X14199229Y-14277293D01*
X14199229Y-14277293D02*
X14199229Y-14229674D01*
X14199229Y-14229674D02*
X14208753Y-14191579D01*
X14208753Y-14191579D02*
X14218277Y-14172531D01*
X14218277Y-14172531D02*
X14227801Y-14163008D01*
X14227801Y-14163008D02*
X14246848Y-14153484D01*
X14484944Y-14153484D02*
X14446848Y-14153484D01*
X14446848Y-14153484D02*
X14427801Y-14163008D01*
X14427801Y-14163008D02*
X14418277Y-14172531D01*
X14418277Y-14172531D02*
X14399229Y-14201103D01*
X14399229Y-14201103D02*
X14389706Y-14239198D01*
X14389706Y-14239198D02*
X14389706Y-14315388D01*
X14389706Y-14315388D02*
X14399229Y-14334436D01*
X14399229Y-14334436D02*
X14408753Y-14343960D01*
X14408753Y-14343960D02*
X14427801Y-14353484D01*
X14427801Y-14353484D02*
X14465896Y-14353484D01*
X14465896Y-14353484D02*
X14484944Y-14343960D01*
X14484944Y-14343960D02*
X14494467Y-14334436D01*
X14494467Y-14334436D02*
X14503991Y-14315388D01*
X14503991Y-14315388D02*
X14503991Y-14267769D01*
X14503991Y-14267769D02*
X14494467Y-14248722D01*
X14494467Y-14248722D02*
X14484944Y-14239198D01*
X14484944Y-14239198D02*
X14465896Y-14229674D01*
X14465896Y-14229674D02*
X14427801Y-14229674D01*
X14427801Y-14229674D02*
X14408753Y-14239198D01*
X14408753Y-14239198D02*
X14399229Y-14248722D01*
X14399229Y-14248722D02*
X14389706Y-14267769D01*
X14675420Y-14153484D02*
X14637325Y-14153484D01*
X14637325Y-14153484D02*
X14618277Y-14163008D01*
X14618277Y-14163008D02*
X14608753Y-14172531D01*
X14608753Y-14172531D02*
X14589706Y-14201103D01*
X14589706Y-14201103D02*
X14580182Y-14239198D01*
X14580182Y-14239198D02*
X14580182Y-14315388D01*
X14580182Y-14315388D02*
X14589706Y-14334436D01*
X14589706Y-14334436D02*
X14599229Y-14343960D01*
X14599229Y-14343960D02*
X14618277Y-14353484D01*
X14618277Y-14353484D02*
X14656372Y-14353484D01*
X14656372Y-14353484D02*
X14675420Y-14343960D01*
X14675420Y-14343960D02*
X14684944Y-14334436D01*
X14684944Y-14334436D02*
X14694467Y-14315388D01*
X14694467Y-14315388D02*
X14694467Y-14267769D01*
X14694467Y-14267769D02*
X14684944Y-14248722D01*
X14684944Y-14248722D02*
X14675420Y-14239198D01*
X14675420Y-14239198D02*
X14656372Y-14229674D01*
X14656372Y-14229674D02*
X14618277Y-14229674D01*
X14618277Y-14229674D02*
X14599229Y-14239198D01*
X14599229Y-14239198D02*
X14589706Y-14248722D01*
X14589706Y-14248722D02*
X14580182Y-14267769D01*
X14789706Y-14353484D02*
X14827801Y-14353484D01*
X14827801Y-14353484D02*
X14846848Y-14343960D01*
X14846848Y-14343960D02*
X14856372Y-14334436D01*
X14856372Y-14334436D02*
X14875420Y-14305865D01*
X14875420Y-14305865D02*
X14884944Y-14267769D01*
X14884944Y-14267769D02*
X14884944Y-14191579D01*
X14884944Y-14191579D02*
X14875420Y-14172531D01*
X14875420Y-14172531D02*
X14865896Y-14163008D01*
X14865896Y-14163008D02*
X14846848Y-14153484D01*
X14846848Y-14153484D02*
X14808753Y-14153484D01*
X14808753Y-14153484D02*
X14789706Y-14163008D01*
X14789706Y-14163008D02*
X14780182Y-14172531D01*
X14780182Y-14172531D02*
X14770658Y-14191579D01*
X14770658Y-14191579D02*
X14770658Y-14239198D01*
X14770658Y-14239198D02*
X14780182Y-14258246D01*
X14780182Y-14258246D02*
X14789706Y-14267769D01*
X14789706Y-14267769D02*
X14808753Y-14277293D01*
X14808753Y-14277293D02*
X14846848Y-14277293D01*
X14846848Y-14277293D02*
X14865896Y-14267769D01*
X14865896Y-14267769D02*
X14875420Y-14258246D01*
X14875420Y-14258246D02*
X14884944Y-14239198D01*
X14961134Y-14153484D02*
X14961134Y-14191579D01*
X15037325Y-14153484D02*
X15037325Y-14191579D01*
X15332563Y-14429674D02*
X15323039Y-14420150D01*
X15323039Y-14420150D02*
X15303991Y-14391579D01*
X15303991Y-14391579D02*
X15294468Y-14372531D01*
X15294468Y-14372531D02*
X15284944Y-14343960D01*
X15284944Y-14343960D02*
X15275420Y-14296341D01*
X15275420Y-14296341D02*
X15275420Y-14258246D01*
X15275420Y-14258246D02*
X15284944Y-14210627D01*
X15284944Y-14210627D02*
X15294468Y-14182055D01*
X15294468Y-14182055D02*
X15303991Y-14163008D01*
X15303991Y-14163008D02*
X15323039Y-14134436D01*
X15323039Y-14134436D02*
X15332563Y-14124912D01*
X15437325Y-14239198D02*
X15418277Y-14229674D01*
X15418277Y-14229674D02*
X15408753Y-14220150D01*
X15408753Y-14220150D02*
X15399229Y-14201103D01*
X15399229Y-14201103D02*
X15399229Y-14191579D01*
X15399229Y-14191579D02*
X15408753Y-14172531D01*
X15408753Y-14172531D02*
X15418277Y-14163008D01*
X15418277Y-14163008D02*
X15437325Y-14153484D01*
X15437325Y-14153484D02*
X15475420Y-14153484D01*
X15475420Y-14153484D02*
X15494468Y-14163008D01*
X15494468Y-14163008D02*
X15503991Y-14172531D01*
X15503991Y-14172531D02*
X15513515Y-14191579D01*
X15513515Y-14191579D02*
X15513515Y-14201103D01*
X15513515Y-14201103D02*
X15503991Y-14220150D01*
X15503991Y-14220150D02*
X15494468Y-14229674D01*
X15494468Y-14229674D02*
X15475420Y-14239198D01*
X15475420Y-14239198D02*
X15437325Y-14239198D01*
X15437325Y-14239198D02*
X15418277Y-14248722D01*
X15418277Y-14248722D02*
X15408753Y-14258246D01*
X15408753Y-14258246D02*
X15399229Y-14277293D01*
X15399229Y-14277293D02*
X15399229Y-14315388D01*
X15399229Y-14315388D02*
X15408753Y-14334436D01*
X15408753Y-14334436D02*
X15418277Y-14343960D01*
X15418277Y-14343960D02*
X15437325Y-14353484D01*
X15437325Y-14353484D02*
X15475420Y-14353484D01*
X15475420Y-14353484D02*
X15494468Y-14343960D01*
X15494468Y-14343960D02*
X15503991Y-14334436D01*
X15503991Y-14334436D02*
X15513515Y-14315388D01*
X15513515Y-14315388D02*
X15513515Y-14277293D01*
X15513515Y-14277293D02*
X15503991Y-14258246D01*
X15503991Y-14258246D02*
X15494468Y-14248722D01*
X15494468Y-14248722D02*
X15475420Y-14239198D01*
X15751610Y-14353484D02*
X15751610Y-14153484D01*
X15837325Y-14353484D02*
X15837325Y-14248722D01*
X15837325Y-14248722D02*
X15827801Y-14229674D01*
X15827801Y-14229674D02*
X15808753Y-14220150D01*
X15808753Y-14220150D02*
X15780182Y-14220150D01*
X15780182Y-14220150D02*
X15761134Y-14229674D01*
X15761134Y-14229674D02*
X15751610Y-14239198D01*
X15961134Y-14353484D02*
X15942087Y-14343960D01*
X15942087Y-14343960D02*
X15932563Y-14334436D01*
X15932563Y-14334436D02*
X15923039Y-14315388D01*
X15923039Y-14315388D02*
X15923039Y-14258246D01*
X15923039Y-14258246D02*
X15932563Y-14239198D01*
X15932563Y-14239198D02*
X15942087Y-14229674D01*
X15942087Y-14229674D02*
X15961134Y-14220150D01*
X15961134Y-14220150D02*
X15989706Y-14220150D01*
X15989706Y-14220150D02*
X16008753Y-14229674D01*
X16008753Y-14229674D02*
X16018277Y-14239198D01*
X16018277Y-14239198D02*
X16027801Y-14258246D01*
X16027801Y-14258246D02*
X16027801Y-14315388D01*
X16027801Y-14315388D02*
X16018277Y-14334436D01*
X16018277Y-14334436D02*
X16008753Y-14343960D01*
X16008753Y-14343960D02*
X15989706Y-14353484D01*
X15989706Y-14353484D02*
X15961134Y-14353484D01*
X16142087Y-14353484D02*
X16123039Y-14343960D01*
X16123039Y-14343960D02*
X16113515Y-14324912D01*
X16113515Y-14324912D02*
X16113515Y-14153484D01*
X16294468Y-14343960D02*
X16275420Y-14353484D01*
X16275420Y-14353484D02*
X16237325Y-14353484D01*
X16237325Y-14353484D02*
X16218277Y-14343960D01*
X16218277Y-14343960D02*
X16208753Y-14324912D01*
X16208753Y-14324912D02*
X16208753Y-14248722D01*
X16208753Y-14248722D02*
X16218277Y-14229674D01*
X16218277Y-14229674D02*
X16237325Y-14220150D01*
X16237325Y-14220150D02*
X16275420Y-14220150D01*
X16275420Y-14220150D02*
X16294468Y-14229674D01*
X16294468Y-14229674D02*
X16303991Y-14248722D01*
X16303991Y-14248722D02*
X16303991Y-14267769D01*
X16303991Y-14267769D02*
X16208753Y-14286817D01*
X16380182Y-14343960D02*
X16399230Y-14353484D01*
X16399230Y-14353484D02*
X16437325Y-14353484D01*
X16437325Y-14353484D02*
X16456372Y-14343960D01*
X16456372Y-14343960D02*
X16465896Y-14324912D01*
X16465896Y-14324912D02*
X16465896Y-14315388D01*
X16465896Y-14315388D02*
X16456372Y-14296341D01*
X16456372Y-14296341D02*
X16437325Y-14286817D01*
X16437325Y-14286817D02*
X16408753Y-14286817D01*
X16408753Y-14286817D02*
X16389706Y-14277293D01*
X16389706Y-14277293D02*
X16380182Y-14258246D01*
X16380182Y-14258246D02*
X16380182Y-14248722D01*
X16380182Y-14248722D02*
X16389706Y-14229674D01*
X16389706Y-14229674D02*
X16408753Y-14220150D01*
X16408753Y-14220150D02*
X16437325Y-14220150D01*
X16437325Y-14220150D02*
X16456372Y-14229674D01*
X16532563Y-14429674D02*
X16542087Y-14420150D01*
X16542087Y-14420150D02*
X16561134Y-14391579D01*
X16561134Y-14391579D02*
X16570658Y-14372531D01*
X16570658Y-14372531D02*
X16580182Y-14343960D01*
X16580182Y-14343960D02*
X16589706Y-14296341D01*
X16589706Y-14296341D02*
X16589706Y-14258246D01*
X16589706Y-14258246D02*
X16580182Y-14210627D01*
X16580182Y-14210627D02*
X16570658Y-14182055D01*
X16570658Y-14182055D02*
X16561134Y-14163008D01*
X16561134Y-14163008D02*
X16542087Y-14134436D01*
X16542087Y-14134436D02*
X16532563Y-14124912D01*
X11557500Y-14452000D02*
X11757500Y-14652000D01*
X11757500Y-14452000D02*
X11557500Y-14652000D01*
X11757500Y-14552000D02*
G75*
G02*
X11557500Y-14552000I-100000J0D01*
G01*
X11557500Y-14552000D02*
G75*
G02*
X11757500Y-14552000I100000J0D01*
G01*
X12008753Y-14462531D02*
X12018277Y-14453008D01*
X12018277Y-14453008D02*
X12037324Y-14443484D01*
X12037324Y-14443484D02*
X12084943Y-14443484D01*
X12084943Y-14443484D02*
X12103991Y-14453008D01*
X12103991Y-14453008D02*
X12113515Y-14462531D01*
X12113515Y-14462531D02*
X12123039Y-14481579D01*
X12123039Y-14481579D02*
X12123039Y-14500627D01*
X12123039Y-14500627D02*
X12113515Y-14529198D01*
X12113515Y-14529198D02*
X11999229Y-14643484D01*
X11999229Y-14643484D02*
X12123039Y-14643484D01*
X12208753Y-14624436D02*
X12218277Y-14633960D01*
X12218277Y-14633960D02*
X12208753Y-14643484D01*
X12208753Y-14643484D02*
X12199229Y-14633960D01*
X12199229Y-14633960D02*
X12208753Y-14624436D01*
X12208753Y-14624436D02*
X12208753Y-14643484D01*
X12294467Y-14462531D02*
X12303991Y-14453008D01*
X12303991Y-14453008D02*
X12323039Y-14443484D01*
X12323039Y-14443484D02*
X12370658Y-14443484D01*
X12370658Y-14443484D02*
X12389705Y-14453008D01*
X12389705Y-14453008D02*
X12399229Y-14462531D01*
X12399229Y-14462531D02*
X12408753Y-14481579D01*
X12408753Y-14481579D02*
X12408753Y-14500627D01*
X12408753Y-14500627D02*
X12399229Y-14529198D01*
X12399229Y-14529198D02*
X12284943Y-14643484D01*
X12284943Y-14643484D02*
X12408753Y-14643484D01*
X12532562Y-14443484D02*
X12551610Y-14443484D01*
X12551610Y-14443484D02*
X12570658Y-14453008D01*
X12570658Y-14453008D02*
X12580182Y-14462531D01*
X12580182Y-14462531D02*
X12589705Y-14481579D01*
X12589705Y-14481579D02*
X12599229Y-14519674D01*
X12599229Y-14519674D02*
X12599229Y-14567293D01*
X12599229Y-14567293D02*
X12589705Y-14605388D01*
X12589705Y-14605388D02*
X12580182Y-14624436D01*
X12580182Y-14624436D02*
X12570658Y-14633960D01*
X12570658Y-14633960D02*
X12551610Y-14643484D01*
X12551610Y-14643484D02*
X12532562Y-14643484D01*
X12532562Y-14643484D02*
X12513515Y-14633960D01*
X12513515Y-14633960D02*
X12503991Y-14624436D01*
X12503991Y-14624436D02*
X12494467Y-14605388D01*
X12494467Y-14605388D02*
X12484943Y-14567293D01*
X12484943Y-14567293D02*
X12484943Y-14519674D01*
X12484943Y-14519674D02*
X12494467Y-14481579D01*
X12494467Y-14481579D02*
X12503991Y-14462531D01*
X12503991Y-14462531D02*
X12513515Y-14453008D01*
X12513515Y-14453008D02*
X12532562Y-14443484D01*
X12723039Y-14443484D02*
X12742086Y-14443484D01*
X12742086Y-14443484D02*
X12761134Y-14453008D01*
X12761134Y-14453008D02*
X12770658Y-14462531D01*
X12770658Y-14462531D02*
X12780182Y-14481579D01*
X12780182Y-14481579D02*
X12789705Y-14519674D01*
X12789705Y-14519674D02*
X12789705Y-14567293D01*
X12789705Y-14567293D02*
X12780182Y-14605388D01*
X12780182Y-14605388D02*
X12770658Y-14624436D01*
X12770658Y-14624436D02*
X12761134Y-14633960D01*
X12761134Y-14633960D02*
X12742086Y-14643484D01*
X12742086Y-14643484D02*
X12723039Y-14643484D01*
X12723039Y-14643484D02*
X12703991Y-14633960D01*
X12703991Y-14633960D02*
X12694467Y-14624436D01*
X12694467Y-14624436D02*
X12684943Y-14605388D01*
X12684943Y-14605388D02*
X12675420Y-14567293D01*
X12675420Y-14567293D02*
X12675420Y-14519674D01*
X12675420Y-14519674D02*
X12684943Y-14481579D01*
X12684943Y-14481579D02*
X12694467Y-14462531D01*
X12694467Y-14462531D02*
X12703991Y-14453008D01*
X12703991Y-14453008D02*
X12723039Y-14443484D01*
X12875420Y-14643484D02*
X12875420Y-14510150D01*
X12875420Y-14529198D02*
X12884943Y-14519674D01*
X12884943Y-14519674D02*
X12903991Y-14510150D01*
X12903991Y-14510150D02*
X12932563Y-14510150D01*
X12932563Y-14510150D02*
X12951610Y-14519674D01*
X12951610Y-14519674D02*
X12961134Y-14538722D01*
X12961134Y-14538722D02*
X12961134Y-14643484D01*
X12961134Y-14538722D02*
X12970658Y-14519674D01*
X12970658Y-14519674D02*
X12989705Y-14510150D01*
X12989705Y-14510150D02*
X13018277Y-14510150D01*
X13018277Y-14510150D02*
X13037324Y-14519674D01*
X13037324Y-14519674D02*
X13046848Y-14538722D01*
X13046848Y-14538722D02*
X13046848Y-14643484D01*
X13142086Y-14643484D02*
X13142086Y-14510150D01*
X13142086Y-14529198D02*
X13151610Y-14519674D01*
X13151610Y-14519674D02*
X13170658Y-14510150D01*
X13170658Y-14510150D02*
X13199229Y-14510150D01*
X13199229Y-14510150D02*
X13218277Y-14519674D01*
X13218277Y-14519674D02*
X13227801Y-14538722D01*
X13227801Y-14538722D02*
X13227801Y-14643484D01*
X13227801Y-14538722D02*
X13237324Y-14519674D01*
X13237324Y-14519674D02*
X13256372Y-14510150D01*
X13256372Y-14510150D02*
X13284943Y-14510150D01*
X13284943Y-14510150D02*
X13303991Y-14519674D01*
X13303991Y-14519674D02*
X13313515Y-14538722D01*
X13313515Y-14538722D02*
X13313515Y-14643484D01*
X13703991Y-14433960D02*
X13532563Y-14691103D01*
X13961134Y-14443484D02*
X13980182Y-14443484D01*
X13980182Y-14443484D02*
X13999229Y-14453008D01*
X13999229Y-14453008D02*
X14008753Y-14462531D01*
X14008753Y-14462531D02*
X14018277Y-14481579D01*
X14018277Y-14481579D02*
X14027801Y-14519674D01*
X14027801Y-14519674D02*
X14027801Y-14567293D01*
X14027801Y-14567293D02*
X14018277Y-14605388D01*
X14018277Y-14605388D02*
X14008753Y-14624436D01*
X14008753Y-14624436D02*
X13999229Y-14633960D01*
X13999229Y-14633960D02*
X13980182Y-14643484D01*
X13980182Y-14643484D02*
X13961134Y-14643484D01*
X13961134Y-14643484D02*
X13942086Y-14633960D01*
X13942086Y-14633960D02*
X13932563Y-14624436D01*
X13932563Y-14624436D02*
X13923039Y-14605388D01*
X13923039Y-14605388D02*
X13913515Y-14567293D01*
X13913515Y-14567293D02*
X13913515Y-14519674D01*
X13913515Y-14519674D02*
X13923039Y-14481579D01*
X13923039Y-14481579D02*
X13932563Y-14462531D01*
X13932563Y-14462531D02*
X13942086Y-14453008D01*
X13942086Y-14453008D02*
X13961134Y-14443484D01*
X14113515Y-14624436D02*
X14123039Y-14633960D01*
X14123039Y-14633960D02*
X14113515Y-14643484D01*
X14113515Y-14643484D02*
X14103991Y-14633960D01*
X14103991Y-14633960D02*
X14113515Y-14624436D01*
X14113515Y-14624436D02*
X14113515Y-14643484D01*
X14246848Y-14443484D02*
X14265896Y-14443484D01*
X14265896Y-14443484D02*
X14284944Y-14453008D01*
X14284944Y-14453008D02*
X14294467Y-14462531D01*
X14294467Y-14462531D02*
X14303991Y-14481579D01*
X14303991Y-14481579D02*
X14313515Y-14519674D01*
X14313515Y-14519674D02*
X14313515Y-14567293D01*
X14313515Y-14567293D02*
X14303991Y-14605388D01*
X14303991Y-14605388D02*
X14294467Y-14624436D01*
X14294467Y-14624436D02*
X14284944Y-14633960D01*
X14284944Y-14633960D02*
X14265896Y-14643484D01*
X14265896Y-14643484D02*
X14246848Y-14643484D01*
X14246848Y-14643484D02*
X14227801Y-14633960D01*
X14227801Y-14633960D02*
X14218277Y-14624436D01*
X14218277Y-14624436D02*
X14208753Y-14605388D01*
X14208753Y-14605388D02*
X14199229Y-14567293D01*
X14199229Y-14567293D02*
X14199229Y-14519674D01*
X14199229Y-14519674D02*
X14208753Y-14481579D01*
X14208753Y-14481579D02*
X14218277Y-14462531D01*
X14218277Y-14462531D02*
X14227801Y-14453008D01*
X14227801Y-14453008D02*
X14246848Y-14443484D01*
X14427801Y-14529198D02*
X14408753Y-14519674D01*
X14408753Y-14519674D02*
X14399229Y-14510150D01*
X14399229Y-14510150D02*
X14389706Y-14491103D01*
X14389706Y-14491103D02*
X14389706Y-14481579D01*
X14389706Y-14481579D02*
X14399229Y-14462531D01*
X14399229Y-14462531D02*
X14408753Y-14453008D01*
X14408753Y-14453008D02*
X14427801Y-14443484D01*
X14427801Y-14443484D02*
X14465896Y-14443484D01*
X14465896Y-14443484D02*
X14484944Y-14453008D01*
X14484944Y-14453008D02*
X14494467Y-14462531D01*
X14494467Y-14462531D02*
X14503991Y-14481579D01*
X14503991Y-14481579D02*
X14503991Y-14491103D01*
X14503991Y-14491103D02*
X14494467Y-14510150D01*
X14494467Y-14510150D02*
X14484944Y-14519674D01*
X14484944Y-14519674D02*
X14465896Y-14529198D01*
X14465896Y-14529198D02*
X14427801Y-14529198D01*
X14427801Y-14529198D02*
X14408753Y-14538722D01*
X14408753Y-14538722D02*
X14399229Y-14548246D01*
X14399229Y-14548246D02*
X14389706Y-14567293D01*
X14389706Y-14567293D02*
X14389706Y-14605388D01*
X14389706Y-14605388D02*
X14399229Y-14624436D01*
X14399229Y-14624436D02*
X14408753Y-14633960D01*
X14408753Y-14633960D02*
X14427801Y-14643484D01*
X14427801Y-14643484D02*
X14465896Y-14643484D01*
X14465896Y-14643484D02*
X14484944Y-14633960D01*
X14484944Y-14633960D02*
X14494467Y-14624436D01*
X14494467Y-14624436D02*
X14503991Y-14605388D01*
X14503991Y-14605388D02*
X14503991Y-14567293D01*
X14503991Y-14567293D02*
X14494467Y-14548246D01*
X14494467Y-14548246D02*
X14484944Y-14538722D01*
X14484944Y-14538722D02*
X14465896Y-14529198D01*
X14675420Y-14443484D02*
X14637325Y-14443484D01*
X14637325Y-14443484D02*
X14618277Y-14453008D01*
X14618277Y-14453008D02*
X14608753Y-14462531D01*
X14608753Y-14462531D02*
X14589706Y-14491103D01*
X14589706Y-14491103D02*
X14580182Y-14529198D01*
X14580182Y-14529198D02*
X14580182Y-14605388D01*
X14580182Y-14605388D02*
X14589706Y-14624436D01*
X14589706Y-14624436D02*
X14599229Y-14633960D01*
X14599229Y-14633960D02*
X14618277Y-14643484D01*
X14618277Y-14643484D02*
X14656372Y-14643484D01*
X14656372Y-14643484D02*
X14675420Y-14633960D01*
X14675420Y-14633960D02*
X14684944Y-14624436D01*
X14684944Y-14624436D02*
X14694467Y-14605388D01*
X14694467Y-14605388D02*
X14694467Y-14557769D01*
X14694467Y-14557769D02*
X14684944Y-14538722D01*
X14684944Y-14538722D02*
X14675420Y-14529198D01*
X14675420Y-14529198D02*
X14656372Y-14519674D01*
X14656372Y-14519674D02*
X14618277Y-14519674D01*
X14618277Y-14519674D02*
X14599229Y-14529198D01*
X14599229Y-14529198D02*
X14589706Y-14538722D01*
X14589706Y-14538722D02*
X14580182Y-14557769D01*
X14865896Y-14443484D02*
X14827801Y-14443484D01*
X14827801Y-14443484D02*
X14808753Y-14453008D01*
X14808753Y-14453008D02*
X14799229Y-14462531D01*
X14799229Y-14462531D02*
X14780182Y-14491103D01*
X14780182Y-14491103D02*
X14770658Y-14529198D01*
X14770658Y-14529198D02*
X14770658Y-14605388D01*
X14770658Y-14605388D02*
X14780182Y-14624436D01*
X14780182Y-14624436D02*
X14789706Y-14633960D01*
X14789706Y-14633960D02*
X14808753Y-14643484D01*
X14808753Y-14643484D02*
X14846848Y-14643484D01*
X14846848Y-14643484D02*
X14865896Y-14633960D01*
X14865896Y-14633960D02*
X14875420Y-14624436D01*
X14875420Y-14624436D02*
X14884944Y-14605388D01*
X14884944Y-14605388D02*
X14884944Y-14557769D01*
X14884944Y-14557769D02*
X14875420Y-14538722D01*
X14875420Y-14538722D02*
X14865896Y-14529198D01*
X14865896Y-14529198D02*
X14846848Y-14519674D01*
X14846848Y-14519674D02*
X14808753Y-14519674D01*
X14808753Y-14519674D02*
X14789706Y-14529198D01*
X14789706Y-14529198D02*
X14780182Y-14538722D01*
X14780182Y-14538722D02*
X14770658Y-14557769D01*
X14961134Y-14443484D02*
X14961134Y-14481579D01*
X15037325Y-14443484D02*
X15037325Y-14481579D01*
X15332563Y-14719674D02*
X15323039Y-14710150D01*
X15323039Y-14710150D02*
X15303991Y-14681579D01*
X15303991Y-14681579D02*
X15294468Y-14662531D01*
X15294468Y-14662531D02*
X15284944Y-14633960D01*
X15284944Y-14633960D02*
X15275420Y-14586341D01*
X15275420Y-14586341D02*
X15275420Y-14548246D01*
X15275420Y-14548246D02*
X15284944Y-14500627D01*
X15284944Y-14500627D02*
X15294468Y-14472055D01*
X15294468Y-14472055D02*
X15303991Y-14453008D01*
X15303991Y-14453008D02*
X15323039Y-14424436D01*
X15323039Y-14424436D02*
X15332563Y-14414912D01*
X15494468Y-14510150D02*
X15494468Y-14643484D01*
X15446848Y-14433960D02*
X15399229Y-14576817D01*
X15399229Y-14576817D02*
X15523039Y-14576817D01*
X15751610Y-14643484D02*
X15751610Y-14443484D01*
X15837325Y-14643484D02*
X15837325Y-14538722D01*
X15837325Y-14538722D02*
X15827801Y-14519674D01*
X15827801Y-14519674D02*
X15808753Y-14510150D01*
X15808753Y-14510150D02*
X15780182Y-14510150D01*
X15780182Y-14510150D02*
X15761134Y-14519674D01*
X15761134Y-14519674D02*
X15751610Y-14529198D01*
X15961134Y-14643484D02*
X15942087Y-14633960D01*
X15942087Y-14633960D02*
X15932563Y-14624436D01*
X15932563Y-14624436D02*
X15923039Y-14605388D01*
X15923039Y-14605388D02*
X15923039Y-14548246D01*
X15923039Y-14548246D02*
X15932563Y-14529198D01*
X15932563Y-14529198D02*
X15942087Y-14519674D01*
X15942087Y-14519674D02*
X15961134Y-14510150D01*
X15961134Y-14510150D02*
X15989706Y-14510150D01*
X15989706Y-14510150D02*
X16008753Y-14519674D01*
X16008753Y-14519674D02*
X16018277Y-14529198D01*
X16018277Y-14529198D02*
X16027801Y-14548246D01*
X16027801Y-14548246D02*
X16027801Y-14605388D01*
X16027801Y-14605388D02*
X16018277Y-14624436D01*
X16018277Y-14624436D02*
X16008753Y-14633960D01*
X16008753Y-14633960D02*
X15989706Y-14643484D01*
X15989706Y-14643484D02*
X15961134Y-14643484D01*
X16142087Y-14643484D02*
X16123039Y-14633960D01*
X16123039Y-14633960D02*
X16113515Y-14614912D01*
X16113515Y-14614912D02*
X16113515Y-14443484D01*
X16294468Y-14633960D02*
X16275420Y-14643484D01*
X16275420Y-14643484D02*
X16237325Y-14643484D01*
X16237325Y-14643484D02*
X16218277Y-14633960D01*
X16218277Y-14633960D02*
X16208753Y-14614912D01*
X16208753Y-14614912D02*
X16208753Y-14538722D01*
X16208753Y-14538722D02*
X16218277Y-14519674D01*
X16218277Y-14519674D02*
X16237325Y-14510150D01*
X16237325Y-14510150D02*
X16275420Y-14510150D01*
X16275420Y-14510150D02*
X16294468Y-14519674D01*
X16294468Y-14519674D02*
X16303991Y-14538722D01*
X16303991Y-14538722D02*
X16303991Y-14557769D01*
X16303991Y-14557769D02*
X16208753Y-14576817D01*
X16380182Y-14633960D02*
X16399230Y-14643484D01*
X16399230Y-14643484D02*
X16437325Y-14643484D01*
X16437325Y-14643484D02*
X16456372Y-14633960D01*
X16456372Y-14633960D02*
X16465896Y-14614912D01*
X16465896Y-14614912D02*
X16465896Y-14605388D01*
X16465896Y-14605388D02*
X16456372Y-14586341D01*
X16456372Y-14586341D02*
X16437325Y-14576817D01*
X16437325Y-14576817D02*
X16408753Y-14576817D01*
X16408753Y-14576817D02*
X16389706Y-14567293D01*
X16389706Y-14567293D02*
X16380182Y-14548246D01*
X16380182Y-14548246D02*
X16380182Y-14538722D01*
X16380182Y-14538722D02*
X16389706Y-14519674D01*
X16389706Y-14519674D02*
X16408753Y-14510150D01*
X16408753Y-14510150D02*
X16437325Y-14510150D01*
X16437325Y-14510150D02*
X16456372Y-14519674D01*
X16532563Y-14719674D02*
X16542087Y-14710150D01*
X16542087Y-14710150D02*
X16561134Y-14681579D01*
X16561134Y-14681579D02*
X16570658Y-14662531D01*
X16570658Y-14662531D02*
X16580182Y-14633960D01*
X16580182Y-14633960D02*
X16589706Y-14586341D01*
X16589706Y-14586341D02*
X16589706Y-14548246D01*
X16589706Y-14548246D02*
X16580182Y-14500627D01*
X16580182Y-14500627D02*
X16570658Y-14472055D01*
X16570658Y-14472055D02*
X16561134Y-14453008D01*
X16561134Y-14453008D02*
X16542087Y-14424436D01*
X16542087Y-14424436D02*
X16532563Y-14414912D01*
M02*
