M48
; DRILL file {KiCad 8.0.6} date 2025-01-01T01:37:22-0700
; FORMAT={-:-/ absolute / metric / decimal}
; #@! TF.CreationDate,2025-01-01T01:37:22-07:00
; #@! TF.GenerationSoftware,Kicad,Pcbnew,8.0.6
; #@! TF.FileFunction,Plated,1,2,PTH
FMAT,2
METRIC
; #@! TA.AperFunction,Plated,PTH,ViaDrill
T1C0.300
; #@! TA.AperFunction,Plated,PTH,ComponentDrill
T2C1.000
; #@! TA.AperFunction,Plated,PTH,ComponentDrill
T3C1.300
; #@! TA.AperFunction,Plated,PTH,ComponentDrill
T4C1.500
; #@! TA.AperFunction,Plated,PTH,ComponentDrill
T5C1.700
; #@! TA.AperFunction,Plated,PTH,ComponentDrill
T6C2.200
%
G90
G05
T1
X125.275Y-97.5
X126.775Y-97.5
X129.775Y-97.5
X136.575Y-97.5
X136.575Y-119.0
X137.275Y-108.3
X137.735Y-103.0
X138.275Y-85.3
X138.575Y-119.0
X139.221Y-107.215
X141.395Y-113.408
X141.423Y-111.234
X142.735Y-96.4
X143.275Y-103.3
X143.901Y-101.826
X144.075Y-104.95
X144.075Y-114.95
X145.575Y-92.7
X145.575Y-104.95
X145.575Y-114.95
X146.075Y-109.9
X151.175Y-112.4
T2
X124.735Y-100.64
X124.735Y-103.18
X124.735Y-105.72
X124.735Y-108.26
X124.735Y-110.8
X124.735Y-113.34
X124.735Y-115.88
X124.735Y-118.42
X124.735Y-120.96
X127.275Y-100.64
X127.275Y-103.18
X127.275Y-105.72
X127.275Y-108.26
X127.275Y-110.8
X127.275Y-113.34
X127.275Y-115.88
X127.275Y-118.42
X127.275Y-120.96
X133.735Y-121.3
X134.275Y-98.7
X135.775Y-80.935
X135.775Y-83.475
X136.275Y-121.3
X138.815Y-121.3
X150.775Y-117.95
X150.975Y-102.1
X156.775Y-118.5
T3
X127.775Y-85.52
X127.775Y-90.6
T4
X152.365Y-91.05
X159.635Y-107.36
T5
X149.825Y-88.51
X149.825Y-93.59
X154.905Y-88.51
X154.905Y-93.59
X157.095Y-104.82
X157.095Y-109.9
X162.175Y-104.82
X162.175Y-109.9
T6
X120.575Y-80.4
X120.575Y-122.6
X162.775Y-80.4
X162.775Y-122.6
M30
