G04 #@! TF.GenerationSoftware,KiCad,Pcbnew,8.0.6*
G04 #@! TF.CreationDate,2025-01-02T21:52:10-07:00*
G04 #@! TF.ProjectId,AD9744 Ersatz Eval Board Rev. A,41443937-3434-4204-9572-7361747a2045,rev?*
G04 #@! TF.SameCoordinates,Original*
G04 #@! TF.FileFunction,Soldermask,Top*
G04 #@! TF.FilePolarity,Negative*
%FSLAX46Y46*%
G04 Gerber Fmt 4.6, Leading zero omitted, Abs format (unit mm)*
G04 Created by KiCad (PCBNEW 8.0.6) date 2025-01-02 21:52:10*
%MOMM*%
%LPD*%
G01*
G04 APERTURE LIST*
G04 Aperture macros list*
%AMRoundRect*
0 Rectangle with rounded corners*
0 $1 Rounding radius*
0 $2 $3 $4 $5 $6 $7 $8 $9 X,Y pos of 4 corners*
0 Add a 4 corners polygon primitive as box body*
4,1,4,$2,$3,$4,$5,$6,$7,$8,$9,$2,$3,0*
0 Add four circle primitives for the rounded corners*
1,1,$1+$1,$2,$3*
1,1,$1+$1,$4,$5*
1,1,$1+$1,$6,$7*
1,1,$1+$1,$8,$9*
0 Add four rect primitives between the rounded corners*
20,1,$1+$1,$2,$3,$4,$5,0*
20,1,$1+$1,$4,$5,$6,$7,0*
20,1,$1+$1,$6,$7,$8,$9,0*
20,1,$1+$1,$8,$9,$2,$3,0*%
G04 Aperture macros list end*
%ADD10RoundRect,0.237500X0.250000X0.237500X-0.250000X0.237500X-0.250000X-0.237500X0.250000X-0.237500X0*%
%ADD11R,1.700000X1.700000*%
%ADD12O,1.700000X1.700000*%
%ADD13C,3.800000*%
%ADD14RoundRect,0.237500X0.300000X0.237500X-0.300000X0.237500X-0.300000X-0.237500X0.300000X-0.237500X0*%
%ADD15RoundRect,0.237500X-0.237500X0.300000X-0.237500X-0.300000X0.237500X-0.300000X0.237500X0.300000X0*%
%ADD16RoundRect,0.237500X-0.250000X-0.237500X0.250000X-0.237500X0.250000X0.237500X-0.250000X0.237500X0*%
%ADD17RoundRect,0.237500X-0.300000X-0.237500X0.300000X-0.237500X0.300000X0.237500X-0.300000X0.237500X0*%
%ADD18RoundRect,0.237500X-0.237500X0.287500X-0.237500X-0.287500X0.237500X-0.287500X0.237500X0.287500X0*%
%ADD19C,2.000000*%
%ADD20R,1.600000X1.600000*%
%ADD21O,1.600000X1.600000*%
%ADD22RoundRect,0.237500X-0.237500X0.250000X-0.237500X-0.250000X0.237500X-0.250000X0.237500X0.250000X0*%
%ADD23RoundRect,0.237500X0.237500X-0.250000X0.237500X0.250000X-0.237500X0.250000X-0.237500X-0.250000X0*%
%ADD24C,2.050000*%
%ADD25C,2.250000*%
%ADD26RoundRect,0.250000X-0.450000X0.325000X-0.450000X-0.325000X0.450000X-0.325000X0.450000X0.325000X0*%
%ADD27RoundRect,0.100000X-0.637500X-0.100000X0.637500X-0.100000X0.637500X0.100000X-0.637500X0.100000X0*%
%ADD28RoundRect,0.250000X0.550000X-1.412500X0.550000X1.412500X-0.550000X1.412500X-0.550000X-1.412500X0*%
%ADD29R,2.600000X2.600000*%
%ADD30C,2.600000*%
%ADD31RoundRect,0.237500X0.237500X-0.300000X0.237500X0.300000X-0.237500X0.300000X-0.237500X-0.300000X0*%
G04 APERTURE END LIST*
D10*
X140100000Y-116340000D03*
X138275000Y-116340000D03*
D11*
X124735000Y-100640000D03*
D12*
X127275000Y-100640000D03*
X124735000Y-103180000D03*
X127275000Y-103180000D03*
X124735000Y-105720000D03*
X127275000Y-105720000D03*
X124735000Y-108260000D03*
X127275000Y-108260000D03*
X124735000Y-110800000D03*
X127275000Y-110800000D03*
X124735000Y-113340000D03*
X127275000Y-113340000D03*
X124735000Y-115880000D03*
X127275000Y-115880000D03*
X124735000Y-118420000D03*
X127275000Y-118420000D03*
X124735000Y-120960000D03*
X127275000Y-120960000D03*
D13*
X162775000Y-122600000D03*
D14*
X139435000Y-97500000D03*
X137710000Y-97500000D03*
D15*
X126775000Y-94575000D03*
X126775000Y-96300000D03*
D16*
X134775000Y-116340000D03*
X136600000Y-116340000D03*
D17*
X141010000Y-100500000D03*
X142735000Y-100500000D03*
D18*
X128275000Y-94562500D03*
X128275000Y-96312500D03*
D15*
X129775000Y-94575000D03*
X129775000Y-96300000D03*
D19*
X149750000Y-116900000D03*
X149750000Y-103200000D03*
D20*
X155100000Y-112500000D03*
D21*
X155100000Y-109960000D03*
X155100000Y-107420000D03*
X147480000Y-107420000D03*
X147480000Y-109960000D03*
X147480000Y-112500000D03*
D17*
X141010000Y-97500000D03*
X142735000Y-97500000D03*
D22*
X125275000Y-94525000D03*
X125275000Y-96350000D03*
D13*
X120575000Y-122600000D03*
D23*
X144075000Y-107862500D03*
X144075000Y-106037500D03*
D24*
X160760000Y-107410000D03*
D25*
X158220000Y-104870000D03*
X158220000Y-109950000D03*
X163300000Y-104870000D03*
X163300000Y-109950000D03*
D10*
X140100000Y-117840000D03*
X138275000Y-117840000D03*
D22*
X144075000Y-112037500D03*
X144075000Y-113862500D03*
D13*
X120575000Y-80400000D03*
D11*
X135775000Y-83475000D03*
D12*
X135775000Y-80935000D03*
D18*
X131275000Y-94562500D03*
X131275000Y-96312500D03*
D14*
X139435000Y-99000000D03*
X137710000Y-99000000D03*
D11*
X133735000Y-121300000D03*
D12*
X136275000Y-121300000D03*
X138815000Y-121300000D03*
D24*
X152365000Y-91050000D03*
D25*
X149825000Y-88510000D03*
X149825000Y-93590000D03*
X154905000Y-88510000D03*
X154905000Y-93590000D03*
D14*
X139435000Y-100500000D03*
X137710000Y-100500000D03*
D17*
X141010000Y-99000000D03*
X142735000Y-99000000D03*
D26*
X123475000Y-94675000D03*
X123475000Y-96725000D03*
D22*
X142575000Y-109125000D03*
X142575000Y-110950000D03*
D27*
X134550000Y-105800000D03*
X134550000Y-106450000D03*
X134550000Y-107100000D03*
X134550000Y-107750000D03*
X134550000Y-108400000D03*
X134550000Y-109050000D03*
X134550000Y-109700000D03*
X134550000Y-110350000D03*
X134550000Y-111000000D03*
X134550000Y-111650000D03*
X134550000Y-112300000D03*
X134550000Y-112950000D03*
X134550000Y-113600000D03*
X134550000Y-114250000D03*
X140275000Y-114250000D03*
X140275000Y-113600000D03*
X140275000Y-112950000D03*
X140275000Y-112300000D03*
X140275000Y-111650000D03*
X140275000Y-111000000D03*
X140275000Y-110350000D03*
X140275000Y-109700000D03*
X140275000Y-109050000D03*
X140275000Y-108400000D03*
X140275000Y-107750000D03*
X140275000Y-107100000D03*
X140275000Y-106450000D03*
X140275000Y-105800000D03*
D28*
X138275000Y-92800000D03*
X138275000Y-87725000D03*
D17*
X134825000Y-117840000D03*
X136550000Y-117840000D03*
D29*
X127775000Y-85520000D03*
D30*
X127775000Y-90600000D03*
D19*
X134275000Y-98700000D03*
D31*
X145575000Y-107812500D03*
X145575000Y-106087500D03*
D19*
X156450000Y-117550000D03*
D10*
X147387500Y-93900000D03*
X145562500Y-93900000D03*
D17*
X141012500Y-102000000D03*
X142737500Y-102000000D03*
D14*
X139435000Y-102000000D03*
X137710000Y-102000000D03*
D15*
X145575000Y-112087500D03*
X145575000Y-113812500D03*
D13*
X162775000Y-80400000D03*
M02*
