%TF.GenerationSoftware,KiCad,Pcbnew,8.0.6*%
%TF.CreationDate,2025-01-02T21:52:34-07:00*%
%TF.ProjectId,AD9744 Ersatz Eval Board Rev. A,41443937-3434-4204-9572-7361747a2045,rev?*%
%TF.SameCoordinates,Original*%
%TF.FileFunction,Drillmap*%
%TF.FilePolarity,Positive*%
%FSLAX45Y45*%
G04 Gerber Fmt 4.5, Leading zero omitted, Abs format (unit mm)*
G04 Created by KiCad (PCBNEW 8.0.6) date 2025-01-02 21:52:34*
%MOMM*%
%LPD*%
G01*
G04 APERTURE LIST*
%ADD10C,0.200000*%
%ADD11C,0.100000*%
%ADD12C,0.130000*%
%ADD13C,0.150000*%
%ADD14C,0.170000*%
%ADD15C,0.220000*%
G04 APERTURE END LIST*
D10*
X12067500Y-7750000D02*
X16267500Y-7750000D01*
X12067500Y-12550000D02*
G75*
G02*
X11767500Y-12250000I0J300000D01*
G01*
X11767500Y-8050000D02*
G75*
G02*
X12067500Y-7750000I300000J0D01*
G01*
X16267500Y-7750000D02*
G75*
G02*
X16567500Y-8050000I0J-300000D01*
G01*
X16567500Y-12250000D02*
G75*
G02*
X16267500Y-12550000I-300000J0D01*
G01*
X16267500Y-12550000D02*
X12067500Y-12550000D01*
X11767500Y-12250000D02*
X11767500Y-8050000D01*
X16567500Y-8050000D02*
X16567500Y-12250000D01*
D11*
X12512500Y-9735000D02*
X12542500Y-9765000D01*
X12542500Y-9735000D02*
X12512500Y-9765000D01*
X12662500Y-9735000D02*
X12692500Y-9765000D01*
X12692500Y-9735000D02*
X12662500Y-9765000D01*
X12962500Y-9735000D02*
X12992500Y-9765000D01*
X12992500Y-9735000D02*
X12962500Y-9765000D01*
X13642500Y-9735000D02*
X13672500Y-9765000D01*
X13672500Y-9735000D02*
X13642500Y-9765000D01*
X13642500Y-11885000D02*
X13672500Y-11915000D01*
X13672500Y-11885000D02*
X13642500Y-11915000D01*
X13712500Y-10815000D02*
X13742500Y-10845000D01*
X13742500Y-10815000D02*
X13712500Y-10845000D01*
X13758500Y-10285000D02*
X13788500Y-10315000D01*
X13788500Y-10285000D02*
X13758500Y-10315000D01*
X13812500Y-8515000D02*
X13842500Y-8545000D01*
X13842500Y-8515000D02*
X13812500Y-8545000D01*
X13842500Y-11885000D02*
X13872500Y-11915000D01*
X13872500Y-11885000D02*
X13842500Y-11915000D01*
X13907095Y-10706548D02*
X13937095Y-10736548D01*
X13937095Y-10706548D02*
X13907095Y-10736548D01*
X14124474Y-11325807D02*
X14154474Y-11355807D01*
X14154474Y-11325807D02*
X14124474Y-11355807D01*
X14127275Y-11108367D02*
X14157275Y-11138367D01*
X14157275Y-11108367D02*
X14127275Y-11138367D01*
X14258500Y-9625000D02*
X14288500Y-9655000D01*
X14288500Y-9625000D02*
X14258500Y-9655000D01*
X14312500Y-10315000D02*
X14342500Y-10345000D01*
X14342500Y-10315000D02*
X14312500Y-10345000D01*
X14375073Y-10167574D02*
X14405073Y-10197574D01*
X14405073Y-10167574D02*
X14375073Y-10197574D01*
X14392500Y-10480000D02*
X14422500Y-10510000D01*
X14422500Y-10480000D02*
X14392500Y-10510000D01*
X14392500Y-11480000D02*
X14422500Y-11510000D01*
X14422500Y-11480000D02*
X14392500Y-11510000D01*
X14542500Y-9255000D02*
X14572500Y-9285000D01*
X14572500Y-9255000D02*
X14542500Y-9285000D01*
X14542500Y-10480000D02*
X14572500Y-10510000D01*
X14572500Y-10480000D02*
X14542500Y-10510000D01*
X14542500Y-11480000D02*
X14572500Y-11510000D01*
X14572500Y-11480000D02*
X14542500Y-11510000D01*
X14560000Y-10980000D02*
X14590000Y-11010000D01*
X14590000Y-10980000D02*
X14560000Y-11010000D01*
X15310000Y-11235000D02*
X15340000Y-11265000D01*
X15340000Y-11235000D02*
X15310000Y-11265000D01*
X14788000Y-10742000D02*
G75*
G02*
X14708000Y-10742000I-40000J0D01*
G01*
X14708000Y-10742000D02*
G75*
G02*
X14788000Y-10742000I40000J0D01*
G01*
X14788000Y-10996000D02*
G75*
G02*
X14708000Y-10996000I-40000J0D01*
G01*
X14708000Y-10996000D02*
G75*
G02*
X14788000Y-10996000I40000J0D01*
G01*
X14788000Y-11250000D02*
G75*
G02*
X14708000Y-11250000I-40000J0D01*
G01*
X14708000Y-11250000D02*
G75*
G02*
X14788000Y-11250000I40000J0D01*
G01*
X15550000Y-10742000D02*
G75*
G02*
X15470000Y-10742000I-40000J0D01*
G01*
X15470000Y-10742000D02*
G75*
G02*
X15550000Y-10742000I40000J0D01*
G01*
X15550000Y-10996000D02*
G75*
G02*
X15470000Y-10996000I-40000J0D01*
G01*
X15470000Y-10996000D02*
G75*
G02*
X15550000Y-10996000I40000J0D01*
G01*
X15550000Y-11250000D02*
G75*
G02*
X15470000Y-11250000I-40000J0D01*
G01*
X15470000Y-11250000D02*
G75*
G02*
X15550000Y-11250000I40000J0D01*
G01*
X12473500Y-10014000D02*
X12473500Y-10114000D01*
X12423500Y-10064000D02*
X12523500Y-10064000D01*
X12473500Y-10268000D02*
X12473500Y-10368000D01*
X12423500Y-10318000D02*
X12523500Y-10318000D01*
X12473500Y-10522000D02*
X12473500Y-10622000D01*
X12423500Y-10572000D02*
X12523500Y-10572000D01*
X12473500Y-10776000D02*
X12473500Y-10876000D01*
X12423500Y-10826000D02*
X12523500Y-10826000D01*
X12473500Y-11030000D02*
X12473500Y-11130000D01*
X12423500Y-11080000D02*
X12523500Y-11080000D01*
X12473500Y-11284000D02*
X12473500Y-11384000D01*
X12423500Y-11334000D02*
X12523500Y-11334000D01*
X12473500Y-11538000D02*
X12473500Y-11638000D01*
X12423500Y-11588000D02*
X12523500Y-11588000D01*
X12473500Y-11792000D02*
X12473500Y-11892000D01*
X12423500Y-11842000D02*
X12523500Y-11842000D01*
X12473500Y-12046000D02*
X12473500Y-12146000D01*
X12423500Y-12096000D02*
X12523500Y-12096000D01*
X12727500Y-10014000D02*
X12727500Y-10114000D01*
X12677500Y-10064000D02*
X12777500Y-10064000D01*
X12727500Y-10268000D02*
X12727500Y-10368000D01*
X12677500Y-10318000D02*
X12777500Y-10318000D01*
X12727500Y-10522000D02*
X12727500Y-10622000D01*
X12677500Y-10572000D02*
X12777500Y-10572000D01*
X12727500Y-10776000D02*
X12727500Y-10876000D01*
X12677500Y-10826000D02*
X12777500Y-10826000D01*
X12727500Y-11030000D02*
X12727500Y-11130000D01*
X12677500Y-11080000D02*
X12777500Y-11080000D01*
X12727500Y-11284000D02*
X12727500Y-11384000D01*
X12677500Y-11334000D02*
X12777500Y-11334000D01*
X12727500Y-11538000D02*
X12727500Y-11638000D01*
X12677500Y-11588000D02*
X12777500Y-11588000D01*
X12727500Y-11792000D02*
X12727500Y-11892000D01*
X12677500Y-11842000D02*
X12777500Y-11842000D01*
X12727500Y-12046000D02*
X12727500Y-12146000D01*
X12677500Y-12096000D02*
X12777500Y-12096000D01*
X13373500Y-12080000D02*
X13373500Y-12180000D01*
X13323500Y-12130000D02*
X13423500Y-12130000D01*
X13427500Y-9820000D02*
X13427500Y-9920000D01*
X13377500Y-9870000D02*
X13477500Y-9870000D01*
X13577500Y-8043500D02*
X13577500Y-8143500D01*
X13527500Y-8093500D02*
X13627500Y-8093500D01*
X13577500Y-8297500D02*
X13577500Y-8397500D01*
X13527500Y-8347500D02*
X13627500Y-8347500D01*
X13627500Y-12080000D02*
X13627500Y-12180000D01*
X13577500Y-12130000D02*
X13677500Y-12130000D01*
X13881500Y-12080000D02*
X13881500Y-12180000D01*
X13831500Y-12130000D02*
X13931500Y-12130000D01*
X14975000Y-10270000D02*
X14975000Y-10370000D01*
X14925000Y-10320000D02*
X15025000Y-10320000D01*
X14975000Y-11640000D02*
X14975000Y-11740000D01*
X14925000Y-11690000D02*
X15025000Y-11690000D01*
X15645000Y-11705000D02*
X15645000Y-11805000D01*
X15595000Y-11755000D02*
X15695000Y-11755000D01*
D12*
X12823462Y-8597962D02*
X12823462Y-8506038D01*
X12731538Y-8506038D01*
X12731538Y-8597962D01*
X12823462Y-8597962D01*
X12823462Y-9105962D02*
X12823462Y-9014038D01*
X12731538Y-9014038D01*
X12731538Y-9105962D01*
X12823462Y-9105962D01*
D13*
X15236500Y-9180000D02*
X15311500Y-9105000D01*
X15236500Y-9030000D01*
X15161500Y-9105000D01*
X15236500Y-9180000D01*
X16076000Y-10816000D02*
X16151000Y-10741000D01*
X16076000Y-10666000D01*
X16001000Y-10741000D01*
X16076000Y-10816000D01*
D14*
X14897500Y-8766000D02*
X15067500Y-8936000D01*
X15067500Y-8766000D02*
X14897500Y-8936000D01*
X15067500Y-8851000D02*
G75*
G02*
X14897500Y-8851000I-85000J0D01*
G01*
X14897500Y-8851000D02*
G75*
G02*
X15067500Y-8851000I85000J0D01*
G01*
X14897500Y-9274000D02*
X15067500Y-9444000D01*
X15067500Y-9274000D02*
X14897500Y-9444000D01*
X15067500Y-9359000D02*
G75*
G02*
X14897500Y-9359000I-85000J0D01*
G01*
X14897500Y-9359000D02*
G75*
G02*
X15067500Y-9359000I85000J0D01*
G01*
X15405500Y-8766000D02*
X15575500Y-8936000D01*
X15575500Y-8766000D02*
X15405500Y-8936000D01*
X15575500Y-8851000D02*
G75*
G02*
X15405500Y-8851000I-85000J0D01*
G01*
X15405500Y-8851000D02*
G75*
G02*
X15575500Y-8851000I85000J0D01*
G01*
X15405500Y-9274000D02*
X15575500Y-9444000D01*
X15575500Y-9274000D02*
X15405500Y-9444000D01*
X15575500Y-9359000D02*
G75*
G02*
X15405500Y-9359000I-85000J0D01*
G01*
X15405500Y-9359000D02*
G75*
G02*
X15575500Y-9359000I85000J0D01*
G01*
X15737000Y-10402000D02*
X15907000Y-10572000D01*
X15907000Y-10402000D02*
X15737000Y-10572000D01*
X15907000Y-10487000D02*
G75*
G02*
X15737000Y-10487000I-85000J0D01*
G01*
X15737000Y-10487000D02*
G75*
G02*
X15907000Y-10487000I85000J0D01*
G01*
X15737000Y-10910000D02*
X15907000Y-11080000D01*
X15907000Y-10910000D02*
X15737000Y-11080000D01*
X15907000Y-10995000D02*
G75*
G02*
X15737000Y-10995000I-85000J0D01*
G01*
X15737000Y-10995000D02*
G75*
G02*
X15907000Y-10995000I85000J0D01*
G01*
X16245000Y-10402000D02*
X16415000Y-10572000D01*
X16415000Y-10402000D02*
X16245000Y-10572000D01*
X16415000Y-10487000D02*
G75*
G02*
X16245000Y-10487000I-85000J0D01*
G01*
X16245000Y-10487000D02*
G75*
G02*
X16415000Y-10487000I85000J0D01*
G01*
X16245000Y-10910000D02*
X16415000Y-11080000D01*
X16415000Y-10910000D02*
X16245000Y-11080000D01*
X16415000Y-10995000D02*
G75*
G02*
X16245000Y-10995000I-85000J0D01*
G01*
X16245000Y-10995000D02*
G75*
G02*
X16415000Y-10995000I85000J0D01*
G01*
D15*
X11947500Y-7930000D02*
X12167500Y-8150000D01*
X12167500Y-7930000D02*
X11947500Y-8150000D01*
X12057500Y-7930000D02*
X12057500Y-8150000D01*
X11947500Y-8040000D02*
X12167500Y-8040000D01*
X11947500Y-12150000D02*
X12167500Y-12370000D01*
X12167500Y-12150000D02*
X11947500Y-12370000D01*
X12057500Y-12150000D02*
X12057500Y-12370000D01*
X11947500Y-12260000D02*
X12167500Y-12260000D01*
X16167500Y-7930000D02*
X16387500Y-8150000D01*
X16387500Y-7930000D02*
X16167500Y-8150000D01*
X16277500Y-7930000D02*
X16277500Y-8150000D01*
X16167500Y-8040000D02*
X16387500Y-8040000D01*
X16167500Y-12150000D02*
X16387500Y-12370000D01*
X16387500Y-12150000D02*
X16167500Y-12370000D01*
X16277500Y-12150000D02*
X16277500Y-12370000D01*
X16167500Y-12260000D02*
X16387500Y-12260000D01*
D10*
X12018277Y-12871484D02*
X12018277Y-12671484D01*
X12018277Y-12671484D02*
X12065896Y-12671484D01*
X12065896Y-12671484D02*
X12094467Y-12681008D01*
X12094467Y-12681008D02*
X12113515Y-12700055D01*
X12113515Y-12700055D02*
X12123039Y-12719103D01*
X12123039Y-12719103D02*
X12132562Y-12757198D01*
X12132562Y-12757198D02*
X12132562Y-12785769D01*
X12132562Y-12785769D02*
X12123039Y-12823865D01*
X12123039Y-12823865D02*
X12113515Y-12842912D01*
X12113515Y-12842912D02*
X12094467Y-12861960D01*
X12094467Y-12861960D02*
X12065896Y-12871484D01*
X12065896Y-12871484D02*
X12018277Y-12871484D01*
X12218277Y-12871484D02*
X12218277Y-12738150D01*
X12218277Y-12776246D02*
X12227801Y-12757198D01*
X12227801Y-12757198D02*
X12237324Y-12747674D01*
X12237324Y-12747674D02*
X12256372Y-12738150D01*
X12256372Y-12738150D02*
X12275420Y-12738150D01*
X12342086Y-12871484D02*
X12342086Y-12738150D01*
X12342086Y-12671484D02*
X12332562Y-12681008D01*
X12332562Y-12681008D02*
X12342086Y-12690531D01*
X12342086Y-12690531D02*
X12351610Y-12681008D01*
X12351610Y-12681008D02*
X12342086Y-12671484D01*
X12342086Y-12671484D02*
X12342086Y-12690531D01*
X12465896Y-12871484D02*
X12446848Y-12861960D01*
X12446848Y-12861960D02*
X12437324Y-12842912D01*
X12437324Y-12842912D02*
X12437324Y-12671484D01*
X12570658Y-12871484D02*
X12551610Y-12861960D01*
X12551610Y-12861960D02*
X12542086Y-12842912D01*
X12542086Y-12842912D02*
X12542086Y-12671484D01*
X12799229Y-12871484D02*
X12799229Y-12671484D01*
X12799229Y-12671484D02*
X12865896Y-12814341D01*
X12865896Y-12814341D02*
X12932562Y-12671484D01*
X12932562Y-12671484D02*
X12932562Y-12871484D01*
X13113515Y-12871484D02*
X13113515Y-12766722D01*
X13113515Y-12766722D02*
X13103991Y-12747674D01*
X13103991Y-12747674D02*
X13084943Y-12738150D01*
X13084943Y-12738150D02*
X13046848Y-12738150D01*
X13046848Y-12738150D02*
X13027801Y-12747674D01*
X13113515Y-12861960D02*
X13094467Y-12871484D01*
X13094467Y-12871484D02*
X13046848Y-12871484D01*
X13046848Y-12871484D02*
X13027801Y-12861960D01*
X13027801Y-12861960D02*
X13018277Y-12842912D01*
X13018277Y-12842912D02*
X13018277Y-12823865D01*
X13018277Y-12823865D02*
X13027801Y-12804817D01*
X13027801Y-12804817D02*
X13046848Y-12795293D01*
X13046848Y-12795293D02*
X13094467Y-12795293D01*
X13094467Y-12795293D02*
X13113515Y-12785769D01*
X13208753Y-12738150D02*
X13208753Y-12938150D01*
X13208753Y-12747674D02*
X13227801Y-12738150D01*
X13227801Y-12738150D02*
X13265896Y-12738150D01*
X13265896Y-12738150D02*
X13284943Y-12747674D01*
X13284943Y-12747674D02*
X13294467Y-12757198D01*
X13294467Y-12757198D02*
X13303991Y-12776246D01*
X13303991Y-12776246D02*
X13303991Y-12833388D01*
X13303991Y-12833388D02*
X13294467Y-12852436D01*
X13294467Y-12852436D02*
X13284943Y-12861960D01*
X13284943Y-12861960D02*
X13265896Y-12871484D01*
X13265896Y-12871484D02*
X13227801Y-12871484D01*
X13227801Y-12871484D02*
X13208753Y-12861960D01*
X13389705Y-12852436D02*
X13399229Y-12861960D01*
X13399229Y-12861960D02*
X13389705Y-12871484D01*
X13389705Y-12871484D02*
X13380182Y-12861960D01*
X13380182Y-12861960D02*
X13389705Y-12852436D01*
X13389705Y-12852436D02*
X13389705Y-12871484D01*
X13389705Y-12747674D02*
X13399229Y-12757198D01*
X13399229Y-12757198D02*
X13389705Y-12766722D01*
X13389705Y-12766722D02*
X13380182Y-12757198D01*
X13380182Y-12757198D02*
X13389705Y-12747674D01*
X13389705Y-12747674D02*
X13389705Y-12766722D01*
D11*
X11727500Y-13185000D02*
X11757500Y-13215000D01*
X11757500Y-13185000D02*
X11727500Y-13215000D01*
D10*
X12056372Y-13091484D02*
X12075420Y-13091484D01*
X12075420Y-13091484D02*
X12094467Y-13101008D01*
X12094467Y-13101008D02*
X12103991Y-13110531D01*
X12103991Y-13110531D02*
X12113515Y-13129579D01*
X12113515Y-13129579D02*
X12123039Y-13167674D01*
X12123039Y-13167674D02*
X12123039Y-13215293D01*
X12123039Y-13215293D02*
X12113515Y-13253388D01*
X12113515Y-13253388D02*
X12103991Y-13272436D01*
X12103991Y-13272436D02*
X12094467Y-13281960D01*
X12094467Y-13281960D02*
X12075420Y-13291484D01*
X12075420Y-13291484D02*
X12056372Y-13291484D01*
X12056372Y-13291484D02*
X12037324Y-13281960D01*
X12037324Y-13281960D02*
X12027801Y-13272436D01*
X12027801Y-13272436D02*
X12018277Y-13253388D01*
X12018277Y-13253388D02*
X12008753Y-13215293D01*
X12008753Y-13215293D02*
X12008753Y-13167674D01*
X12008753Y-13167674D02*
X12018277Y-13129579D01*
X12018277Y-13129579D02*
X12027801Y-13110531D01*
X12027801Y-13110531D02*
X12037324Y-13101008D01*
X12037324Y-13101008D02*
X12056372Y-13091484D01*
X12208753Y-13272436D02*
X12218277Y-13281960D01*
X12218277Y-13281960D02*
X12208753Y-13291484D01*
X12208753Y-13291484D02*
X12199229Y-13281960D01*
X12199229Y-13281960D02*
X12208753Y-13272436D01*
X12208753Y-13272436D02*
X12208753Y-13291484D01*
X12284943Y-13091484D02*
X12408753Y-13091484D01*
X12408753Y-13091484D02*
X12342086Y-13167674D01*
X12342086Y-13167674D02*
X12370658Y-13167674D01*
X12370658Y-13167674D02*
X12389705Y-13177198D01*
X12389705Y-13177198D02*
X12399229Y-13186722D01*
X12399229Y-13186722D02*
X12408753Y-13205769D01*
X12408753Y-13205769D02*
X12408753Y-13253388D01*
X12408753Y-13253388D02*
X12399229Y-13272436D01*
X12399229Y-13272436D02*
X12389705Y-13281960D01*
X12389705Y-13281960D02*
X12370658Y-13291484D01*
X12370658Y-13291484D02*
X12313515Y-13291484D01*
X12313515Y-13291484D02*
X12294467Y-13281960D01*
X12294467Y-13281960D02*
X12284943Y-13272436D01*
X12532562Y-13091484D02*
X12551610Y-13091484D01*
X12551610Y-13091484D02*
X12570658Y-13101008D01*
X12570658Y-13101008D02*
X12580182Y-13110531D01*
X12580182Y-13110531D02*
X12589705Y-13129579D01*
X12589705Y-13129579D02*
X12599229Y-13167674D01*
X12599229Y-13167674D02*
X12599229Y-13215293D01*
X12599229Y-13215293D02*
X12589705Y-13253388D01*
X12589705Y-13253388D02*
X12580182Y-13272436D01*
X12580182Y-13272436D02*
X12570658Y-13281960D01*
X12570658Y-13281960D02*
X12551610Y-13291484D01*
X12551610Y-13291484D02*
X12532562Y-13291484D01*
X12532562Y-13291484D02*
X12513515Y-13281960D01*
X12513515Y-13281960D02*
X12503991Y-13272436D01*
X12503991Y-13272436D02*
X12494467Y-13253388D01*
X12494467Y-13253388D02*
X12484943Y-13215293D01*
X12484943Y-13215293D02*
X12484943Y-13167674D01*
X12484943Y-13167674D02*
X12494467Y-13129579D01*
X12494467Y-13129579D02*
X12503991Y-13110531D01*
X12503991Y-13110531D02*
X12513515Y-13101008D01*
X12513515Y-13101008D02*
X12532562Y-13091484D01*
X12723039Y-13091484D02*
X12742086Y-13091484D01*
X12742086Y-13091484D02*
X12761134Y-13101008D01*
X12761134Y-13101008D02*
X12770658Y-13110531D01*
X12770658Y-13110531D02*
X12780182Y-13129579D01*
X12780182Y-13129579D02*
X12789705Y-13167674D01*
X12789705Y-13167674D02*
X12789705Y-13215293D01*
X12789705Y-13215293D02*
X12780182Y-13253388D01*
X12780182Y-13253388D02*
X12770658Y-13272436D01*
X12770658Y-13272436D02*
X12761134Y-13281960D01*
X12761134Y-13281960D02*
X12742086Y-13291484D01*
X12742086Y-13291484D02*
X12723039Y-13291484D01*
X12723039Y-13291484D02*
X12703991Y-13281960D01*
X12703991Y-13281960D02*
X12694467Y-13272436D01*
X12694467Y-13272436D02*
X12684943Y-13253388D01*
X12684943Y-13253388D02*
X12675420Y-13215293D01*
X12675420Y-13215293D02*
X12675420Y-13167674D01*
X12675420Y-13167674D02*
X12684943Y-13129579D01*
X12684943Y-13129579D02*
X12694467Y-13110531D01*
X12694467Y-13110531D02*
X12703991Y-13101008D01*
X12703991Y-13101008D02*
X12723039Y-13091484D01*
X12875420Y-13291484D02*
X12875420Y-13158150D01*
X12875420Y-13177198D02*
X12884943Y-13167674D01*
X12884943Y-13167674D02*
X12903991Y-13158150D01*
X12903991Y-13158150D02*
X12932563Y-13158150D01*
X12932563Y-13158150D02*
X12951610Y-13167674D01*
X12951610Y-13167674D02*
X12961134Y-13186722D01*
X12961134Y-13186722D02*
X12961134Y-13291484D01*
X12961134Y-13186722D02*
X12970658Y-13167674D01*
X12970658Y-13167674D02*
X12989705Y-13158150D01*
X12989705Y-13158150D02*
X13018277Y-13158150D01*
X13018277Y-13158150D02*
X13037324Y-13167674D01*
X13037324Y-13167674D02*
X13046848Y-13186722D01*
X13046848Y-13186722D02*
X13046848Y-13291484D01*
X13142086Y-13291484D02*
X13142086Y-13158150D01*
X13142086Y-13177198D02*
X13151610Y-13167674D01*
X13151610Y-13167674D02*
X13170658Y-13158150D01*
X13170658Y-13158150D02*
X13199229Y-13158150D01*
X13199229Y-13158150D02*
X13218277Y-13167674D01*
X13218277Y-13167674D02*
X13227801Y-13186722D01*
X13227801Y-13186722D02*
X13227801Y-13291484D01*
X13227801Y-13186722D02*
X13237324Y-13167674D01*
X13237324Y-13167674D02*
X13256372Y-13158150D01*
X13256372Y-13158150D02*
X13284943Y-13158150D01*
X13284943Y-13158150D02*
X13303991Y-13167674D01*
X13303991Y-13167674D02*
X13313515Y-13186722D01*
X13313515Y-13186722D02*
X13313515Y-13291484D01*
X13703991Y-13081960D02*
X13532563Y-13339103D01*
X13961134Y-13091484D02*
X13980182Y-13091484D01*
X13980182Y-13091484D02*
X13999229Y-13101008D01*
X13999229Y-13101008D02*
X14008753Y-13110531D01*
X14008753Y-13110531D02*
X14018277Y-13129579D01*
X14018277Y-13129579D02*
X14027801Y-13167674D01*
X14027801Y-13167674D02*
X14027801Y-13215293D01*
X14027801Y-13215293D02*
X14018277Y-13253388D01*
X14018277Y-13253388D02*
X14008753Y-13272436D01*
X14008753Y-13272436D02*
X13999229Y-13281960D01*
X13999229Y-13281960D02*
X13980182Y-13291484D01*
X13980182Y-13291484D02*
X13961134Y-13291484D01*
X13961134Y-13291484D02*
X13942086Y-13281960D01*
X13942086Y-13281960D02*
X13932563Y-13272436D01*
X13932563Y-13272436D02*
X13923039Y-13253388D01*
X13923039Y-13253388D02*
X13913515Y-13215293D01*
X13913515Y-13215293D02*
X13913515Y-13167674D01*
X13913515Y-13167674D02*
X13923039Y-13129579D01*
X13923039Y-13129579D02*
X13932563Y-13110531D01*
X13932563Y-13110531D02*
X13942086Y-13101008D01*
X13942086Y-13101008D02*
X13961134Y-13091484D01*
X14113515Y-13272436D02*
X14123039Y-13281960D01*
X14123039Y-13281960D02*
X14113515Y-13291484D01*
X14113515Y-13291484D02*
X14103991Y-13281960D01*
X14103991Y-13281960D02*
X14113515Y-13272436D01*
X14113515Y-13272436D02*
X14113515Y-13291484D01*
X14246848Y-13091484D02*
X14265896Y-13091484D01*
X14265896Y-13091484D02*
X14284944Y-13101008D01*
X14284944Y-13101008D02*
X14294467Y-13110531D01*
X14294467Y-13110531D02*
X14303991Y-13129579D01*
X14303991Y-13129579D02*
X14313515Y-13167674D01*
X14313515Y-13167674D02*
X14313515Y-13215293D01*
X14313515Y-13215293D02*
X14303991Y-13253388D01*
X14303991Y-13253388D02*
X14294467Y-13272436D01*
X14294467Y-13272436D02*
X14284944Y-13281960D01*
X14284944Y-13281960D02*
X14265896Y-13291484D01*
X14265896Y-13291484D02*
X14246848Y-13291484D01*
X14246848Y-13291484D02*
X14227801Y-13281960D01*
X14227801Y-13281960D02*
X14218277Y-13272436D01*
X14218277Y-13272436D02*
X14208753Y-13253388D01*
X14208753Y-13253388D02*
X14199229Y-13215293D01*
X14199229Y-13215293D02*
X14199229Y-13167674D01*
X14199229Y-13167674D02*
X14208753Y-13129579D01*
X14208753Y-13129579D02*
X14218277Y-13110531D01*
X14218277Y-13110531D02*
X14227801Y-13101008D01*
X14227801Y-13101008D02*
X14246848Y-13091484D01*
X14503991Y-13291484D02*
X14389706Y-13291484D01*
X14446848Y-13291484D02*
X14446848Y-13091484D01*
X14446848Y-13091484D02*
X14427801Y-13120055D01*
X14427801Y-13120055D02*
X14408753Y-13139103D01*
X14408753Y-13139103D02*
X14389706Y-13148627D01*
X14694467Y-13291484D02*
X14580182Y-13291484D01*
X14637325Y-13291484D02*
X14637325Y-13091484D01*
X14637325Y-13091484D02*
X14618277Y-13120055D01*
X14618277Y-13120055D02*
X14599229Y-13139103D01*
X14599229Y-13139103D02*
X14580182Y-13148627D01*
X14808753Y-13177198D02*
X14789706Y-13167674D01*
X14789706Y-13167674D02*
X14780182Y-13158150D01*
X14780182Y-13158150D02*
X14770658Y-13139103D01*
X14770658Y-13139103D02*
X14770658Y-13129579D01*
X14770658Y-13129579D02*
X14780182Y-13110531D01*
X14780182Y-13110531D02*
X14789706Y-13101008D01*
X14789706Y-13101008D02*
X14808753Y-13091484D01*
X14808753Y-13091484D02*
X14846848Y-13091484D01*
X14846848Y-13091484D02*
X14865896Y-13101008D01*
X14865896Y-13101008D02*
X14875420Y-13110531D01*
X14875420Y-13110531D02*
X14884944Y-13129579D01*
X14884944Y-13129579D02*
X14884944Y-13139103D01*
X14884944Y-13139103D02*
X14875420Y-13158150D01*
X14875420Y-13158150D02*
X14865896Y-13167674D01*
X14865896Y-13167674D02*
X14846848Y-13177198D01*
X14846848Y-13177198D02*
X14808753Y-13177198D01*
X14808753Y-13177198D02*
X14789706Y-13186722D01*
X14789706Y-13186722D02*
X14780182Y-13196246D01*
X14780182Y-13196246D02*
X14770658Y-13215293D01*
X14770658Y-13215293D02*
X14770658Y-13253388D01*
X14770658Y-13253388D02*
X14780182Y-13272436D01*
X14780182Y-13272436D02*
X14789706Y-13281960D01*
X14789706Y-13281960D02*
X14808753Y-13291484D01*
X14808753Y-13291484D02*
X14846848Y-13291484D01*
X14846848Y-13291484D02*
X14865896Y-13281960D01*
X14865896Y-13281960D02*
X14875420Y-13272436D01*
X14875420Y-13272436D02*
X14884944Y-13253388D01*
X14884944Y-13253388D02*
X14884944Y-13215293D01*
X14884944Y-13215293D02*
X14875420Y-13196246D01*
X14875420Y-13196246D02*
X14865896Y-13186722D01*
X14865896Y-13186722D02*
X14846848Y-13177198D01*
X14961134Y-13091484D02*
X14961134Y-13129579D01*
X15037325Y-13091484D02*
X15037325Y-13129579D01*
X15332563Y-13367674D02*
X15323039Y-13358150D01*
X15323039Y-13358150D02*
X15303991Y-13329579D01*
X15303991Y-13329579D02*
X15294468Y-13310531D01*
X15294468Y-13310531D02*
X15284944Y-13281960D01*
X15284944Y-13281960D02*
X15275420Y-13234341D01*
X15275420Y-13234341D02*
X15275420Y-13196246D01*
X15275420Y-13196246D02*
X15284944Y-13148627D01*
X15284944Y-13148627D02*
X15294468Y-13120055D01*
X15294468Y-13120055D02*
X15303991Y-13101008D01*
X15303991Y-13101008D02*
X15323039Y-13072436D01*
X15323039Y-13072436D02*
X15332563Y-13062912D01*
X15399229Y-13110531D02*
X15408753Y-13101008D01*
X15408753Y-13101008D02*
X15427801Y-13091484D01*
X15427801Y-13091484D02*
X15475420Y-13091484D01*
X15475420Y-13091484D02*
X15494468Y-13101008D01*
X15494468Y-13101008D02*
X15503991Y-13110531D01*
X15503991Y-13110531D02*
X15513515Y-13129579D01*
X15513515Y-13129579D02*
X15513515Y-13148627D01*
X15513515Y-13148627D02*
X15503991Y-13177198D01*
X15503991Y-13177198D02*
X15389706Y-13291484D01*
X15389706Y-13291484D02*
X15513515Y-13291484D01*
X15589706Y-13110531D02*
X15599229Y-13101008D01*
X15599229Y-13101008D02*
X15618277Y-13091484D01*
X15618277Y-13091484D02*
X15665896Y-13091484D01*
X15665896Y-13091484D02*
X15684944Y-13101008D01*
X15684944Y-13101008D02*
X15694468Y-13110531D01*
X15694468Y-13110531D02*
X15703991Y-13129579D01*
X15703991Y-13129579D02*
X15703991Y-13148627D01*
X15703991Y-13148627D02*
X15694468Y-13177198D01*
X15694468Y-13177198D02*
X15580182Y-13291484D01*
X15580182Y-13291484D02*
X15703991Y-13291484D01*
X15942087Y-13291484D02*
X15942087Y-13091484D01*
X16027801Y-13291484D02*
X16027801Y-13186722D01*
X16027801Y-13186722D02*
X16018277Y-13167674D01*
X16018277Y-13167674D02*
X15999230Y-13158150D01*
X15999230Y-13158150D02*
X15970658Y-13158150D01*
X15970658Y-13158150D02*
X15951610Y-13167674D01*
X15951610Y-13167674D02*
X15942087Y-13177198D01*
X16151610Y-13291484D02*
X16132563Y-13281960D01*
X16132563Y-13281960D02*
X16123039Y-13272436D01*
X16123039Y-13272436D02*
X16113515Y-13253388D01*
X16113515Y-13253388D02*
X16113515Y-13196246D01*
X16113515Y-13196246D02*
X16123039Y-13177198D01*
X16123039Y-13177198D02*
X16132563Y-13167674D01*
X16132563Y-13167674D02*
X16151610Y-13158150D01*
X16151610Y-13158150D02*
X16180182Y-13158150D01*
X16180182Y-13158150D02*
X16199230Y-13167674D01*
X16199230Y-13167674D02*
X16208753Y-13177198D01*
X16208753Y-13177198D02*
X16218277Y-13196246D01*
X16218277Y-13196246D02*
X16218277Y-13253388D01*
X16218277Y-13253388D02*
X16208753Y-13272436D01*
X16208753Y-13272436D02*
X16199230Y-13281960D01*
X16199230Y-13281960D02*
X16180182Y-13291484D01*
X16180182Y-13291484D02*
X16151610Y-13291484D01*
X16332563Y-13291484D02*
X16313515Y-13281960D01*
X16313515Y-13281960D02*
X16303991Y-13262912D01*
X16303991Y-13262912D02*
X16303991Y-13091484D01*
X16484944Y-13281960D02*
X16465896Y-13291484D01*
X16465896Y-13291484D02*
X16427801Y-13291484D01*
X16427801Y-13291484D02*
X16408753Y-13281960D01*
X16408753Y-13281960D02*
X16399230Y-13262912D01*
X16399230Y-13262912D02*
X16399230Y-13186722D01*
X16399230Y-13186722D02*
X16408753Y-13167674D01*
X16408753Y-13167674D02*
X16427801Y-13158150D01*
X16427801Y-13158150D02*
X16465896Y-13158150D01*
X16465896Y-13158150D02*
X16484944Y-13167674D01*
X16484944Y-13167674D02*
X16494468Y-13186722D01*
X16494468Y-13186722D02*
X16494468Y-13205769D01*
X16494468Y-13205769D02*
X16399230Y-13224817D01*
X16570658Y-13281960D02*
X16589706Y-13291484D01*
X16589706Y-13291484D02*
X16627801Y-13291484D01*
X16627801Y-13291484D02*
X16646849Y-13281960D01*
X16646849Y-13281960D02*
X16656372Y-13262912D01*
X16656372Y-13262912D02*
X16656372Y-13253388D01*
X16656372Y-13253388D02*
X16646849Y-13234341D01*
X16646849Y-13234341D02*
X16627801Y-13224817D01*
X16627801Y-13224817D02*
X16599230Y-13224817D01*
X16599230Y-13224817D02*
X16580182Y-13215293D01*
X16580182Y-13215293D02*
X16570658Y-13196246D01*
X16570658Y-13196246D02*
X16570658Y-13186722D01*
X16570658Y-13186722D02*
X16580182Y-13167674D01*
X16580182Y-13167674D02*
X16599230Y-13158150D01*
X16599230Y-13158150D02*
X16627801Y-13158150D01*
X16627801Y-13158150D02*
X16646849Y-13167674D01*
X16723039Y-13367674D02*
X16732563Y-13358150D01*
X16732563Y-13358150D02*
X16751611Y-13329579D01*
X16751611Y-13329579D02*
X16761134Y-13310531D01*
X16761134Y-13310531D02*
X16770658Y-13281960D01*
X16770658Y-13281960D02*
X16780182Y-13234341D01*
X16780182Y-13234341D02*
X16780182Y-13196246D01*
X16780182Y-13196246D02*
X16770658Y-13148627D01*
X16770658Y-13148627D02*
X16761134Y-13120055D01*
X16761134Y-13120055D02*
X16751611Y-13101008D01*
X16751611Y-13101008D02*
X16732563Y-13072436D01*
X16732563Y-13072436D02*
X16723039Y-13062912D01*
D11*
X11757500Y-13464000D02*
G75*
G02*
X11677500Y-13464000I-40000J0D01*
G01*
X11677500Y-13464000D02*
G75*
G02*
X11757500Y-13464000I40000J0D01*
G01*
D10*
X12056372Y-13355484D02*
X12075420Y-13355484D01*
X12075420Y-13355484D02*
X12094467Y-13365008D01*
X12094467Y-13365008D02*
X12103991Y-13374531D01*
X12103991Y-13374531D02*
X12113515Y-13393579D01*
X12113515Y-13393579D02*
X12123039Y-13431674D01*
X12123039Y-13431674D02*
X12123039Y-13479293D01*
X12123039Y-13479293D02*
X12113515Y-13517388D01*
X12113515Y-13517388D02*
X12103991Y-13536436D01*
X12103991Y-13536436D02*
X12094467Y-13545960D01*
X12094467Y-13545960D02*
X12075420Y-13555484D01*
X12075420Y-13555484D02*
X12056372Y-13555484D01*
X12056372Y-13555484D02*
X12037324Y-13545960D01*
X12037324Y-13545960D02*
X12027801Y-13536436D01*
X12027801Y-13536436D02*
X12018277Y-13517388D01*
X12018277Y-13517388D02*
X12008753Y-13479293D01*
X12008753Y-13479293D02*
X12008753Y-13431674D01*
X12008753Y-13431674D02*
X12018277Y-13393579D01*
X12018277Y-13393579D02*
X12027801Y-13374531D01*
X12027801Y-13374531D02*
X12037324Y-13365008D01*
X12037324Y-13365008D02*
X12056372Y-13355484D01*
X12208753Y-13536436D02*
X12218277Y-13545960D01*
X12218277Y-13545960D02*
X12208753Y-13555484D01*
X12208753Y-13555484D02*
X12199229Y-13545960D01*
X12199229Y-13545960D02*
X12208753Y-13536436D01*
X12208753Y-13536436D02*
X12208753Y-13555484D01*
X12332562Y-13441198D02*
X12313515Y-13431674D01*
X12313515Y-13431674D02*
X12303991Y-13422150D01*
X12303991Y-13422150D02*
X12294467Y-13403103D01*
X12294467Y-13403103D02*
X12294467Y-13393579D01*
X12294467Y-13393579D02*
X12303991Y-13374531D01*
X12303991Y-13374531D02*
X12313515Y-13365008D01*
X12313515Y-13365008D02*
X12332562Y-13355484D01*
X12332562Y-13355484D02*
X12370658Y-13355484D01*
X12370658Y-13355484D02*
X12389705Y-13365008D01*
X12389705Y-13365008D02*
X12399229Y-13374531D01*
X12399229Y-13374531D02*
X12408753Y-13393579D01*
X12408753Y-13393579D02*
X12408753Y-13403103D01*
X12408753Y-13403103D02*
X12399229Y-13422150D01*
X12399229Y-13422150D02*
X12389705Y-13431674D01*
X12389705Y-13431674D02*
X12370658Y-13441198D01*
X12370658Y-13441198D02*
X12332562Y-13441198D01*
X12332562Y-13441198D02*
X12313515Y-13450722D01*
X12313515Y-13450722D02*
X12303991Y-13460246D01*
X12303991Y-13460246D02*
X12294467Y-13479293D01*
X12294467Y-13479293D02*
X12294467Y-13517388D01*
X12294467Y-13517388D02*
X12303991Y-13536436D01*
X12303991Y-13536436D02*
X12313515Y-13545960D01*
X12313515Y-13545960D02*
X12332562Y-13555484D01*
X12332562Y-13555484D02*
X12370658Y-13555484D01*
X12370658Y-13555484D02*
X12389705Y-13545960D01*
X12389705Y-13545960D02*
X12399229Y-13536436D01*
X12399229Y-13536436D02*
X12408753Y-13517388D01*
X12408753Y-13517388D02*
X12408753Y-13479293D01*
X12408753Y-13479293D02*
X12399229Y-13460246D01*
X12399229Y-13460246D02*
X12389705Y-13450722D01*
X12389705Y-13450722D02*
X12370658Y-13441198D01*
X12532562Y-13355484D02*
X12551610Y-13355484D01*
X12551610Y-13355484D02*
X12570658Y-13365008D01*
X12570658Y-13365008D02*
X12580182Y-13374531D01*
X12580182Y-13374531D02*
X12589705Y-13393579D01*
X12589705Y-13393579D02*
X12599229Y-13431674D01*
X12599229Y-13431674D02*
X12599229Y-13479293D01*
X12599229Y-13479293D02*
X12589705Y-13517388D01*
X12589705Y-13517388D02*
X12580182Y-13536436D01*
X12580182Y-13536436D02*
X12570658Y-13545960D01*
X12570658Y-13545960D02*
X12551610Y-13555484D01*
X12551610Y-13555484D02*
X12532562Y-13555484D01*
X12532562Y-13555484D02*
X12513515Y-13545960D01*
X12513515Y-13545960D02*
X12503991Y-13536436D01*
X12503991Y-13536436D02*
X12494467Y-13517388D01*
X12494467Y-13517388D02*
X12484943Y-13479293D01*
X12484943Y-13479293D02*
X12484943Y-13431674D01*
X12484943Y-13431674D02*
X12494467Y-13393579D01*
X12494467Y-13393579D02*
X12503991Y-13374531D01*
X12503991Y-13374531D02*
X12513515Y-13365008D01*
X12513515Y-13365008D02*
X12532562Y-13355484D01*
X12723039Y-13355484D02*
X12742086Y-13355484D01*
X12742086Y-13355484D02*
X12761134Y-13365008D01*
X12761134Y-13365008D02*
X12770658Y-13374531D01*
X12770658Y-13374531D02*
X12780182Y-13393579D01*
X12780182Y-13393579D02*
X12789705Y-13431674D01*
X12789705Y-13431674D02*
X12789705Y-13479293D01*
X12789705Y-13479293D02*
X12780182Y-13517388D01*
X12780182Y-13517388D02*
X12770658Y-13536436D01*
X12770658Y-13536436D02*
X12761134Y-13545960D01*
X12761134Y-13545960D02*
X12742086Y-13555484D01*
X12742086Y-13555484D02*
X12723039Y-13555484D01*
X12723039Y-13555484D02*
X12703991Y-13545960D01*
X12703991Y-13545960D02*
X12694467Y-13536436D01*
X12694467Y-13536436D02*
X12684943Y-13517388D01*
X12684943Y-13517388D02*
X12675420Y-13479293D01*
X12675420Y-13479293D02*
X12675420Y-13431674D01*
X12675420Y-13431674D02*
X12684943Y-13393579D01*
X12684943Y-13393579D02*
X12694467Y-13374531D01*
X12694467Y-13374531D02*
X12703991Y-13365008D01*
X12703991Y-13365008D02*
X12723039Y-13355484D01*
X12875420Y-13555484D02*
X12875420Y-13422150D01*
X12875420Y-13441198D02*
X12884943Y-13431674D01*
X12884943Y-13431674D02*
X12903991Y-13422150D01*
X12903991Y-13422150D02*
X12932563Y-13422150D01*
X12932563Y-13422150D02*
X12951610Y-13431674D01*
X12951610Y-13431674D02*
X12961134Y-13450722D01*
X12961134Y-13450722D02*
X12961134Y-13555484D01*
X12961134Y-13450722D02*
X12970658Y-13431674D01*
X12970658Y-13431674D02*
X12989705Y-13422150D01*
X12989705Y-13422150D02*
X13018277Y-13422150D01*
X13018277Y-13422150D02*
X13037324Y-13431674D01*
X13037324Y-13431674D02*
X13046848Y-13450722D01*
X13046848Y-13450722D02*
X13046848Y-13555484D01*
X13142086Y-13555484D02*
X13142086Y-13422150D01*
X13142086Y-13441198D02*
X13151610Y-13431674D01*
X13151610Y-13431674D02*
X13170658Y-13422150D01*
X13170658Y-13422150D02*
X13199229Y-13422150D01*
X13199229Y-13422150D02*
X13218277Y-13431674D01*
X13218277Y-13431674D02*
X13227801Y-13450722D01*
X13227801Y-13450722D02*
X13227801Y-13555484D01*
X13227801Y-13450722D02*
X13237324Y-13431674D01*
X13237324Y-13431674D02*
X13256372Y-13422150D01*
X13256372Y-13422150D02*
X13284943Y-13422150D01*
X13284943Y-13422150D02*
X13303991Y-13431674D01*
X13303991Y-13431674D02*
X13313515Y-13450722D01*
X13313515Y-13450722D02*
X13313515Y-13555484D01*
X13703991Y-13345960D02*
X13532563Y-13603103D01*
X13961134Y-13355484D02*
X13980182Y-13355484D01*
X13980182Y-13355484D02*
X13999229Y-13365008D01*
X13999229Y-13365008D02*
X14008753Y-13374531D01*
X14008753Y-13374531D02*
X14018277Y-13393579D01*
X14018277Y-13393579D02*
X14027801Y-13431674D01*
X14027801Y-13431674D02*
X14027801Y-13479293D01*
X14027801Y-13479293D02*
X14018277Y-13517388D01*
X14018277Y-13517388D02*
X14008753Y-13536436D01*
X14008753Y-13536436D02*
X13999229Y-13545960D01*
X13999229Y-13545960D02*
X13980182Y-13555484D01*
X13980182Y-13555484D02*
X13961134Y-13555484D01*
X13961134Y-13555484D02*
X13942086Y-13545960D01*
X13942086Y-13545960D02*
X13932563Y-13536436D01*
X13932563Y-13536436D02*
X13923039Y-13517388D01*
X13923039Y-13517388D02*
X13913515Y-13479293D01*
X13913515Y-13479293D02*
X13913515Y-13431674D01*
X13913515Y-13431674D02*
X13923039Y-13393579D01*
X13923039Y-13393579D02*
X13932563Y-13374531D01*
X13932563Y-13374531D02*
X13942086Y-13365008D01*
X13942086Y-13365008D02*
X13961134Y-13355484D01*
X14113515Y-13536436D02*
X14123039Y-13545960D01*
X14123039Y-13545960D02*
X14113515Y-13555484D01*
X14113515Y-13555484D02*
X14103991Y-13545960D01*
X14103991Y-13545960D02*
X14113515Y-13536436D01*
X14113515Y-13536436D02*
X14113515Y-13555484D01*
X14246848Y-13355484D02*
X14265896Y-13355484D01*
X14265896Y-13355484D02*
X14284944Y-13365008D01*
X14284944Y-13365008D02*
X14294467Y-13374531D01*
X14294467Y-13374531D02*
X14303991Y-13393579D01*
X14303991Y-13393579D02*
X14313515Y-13431674D01*
X14313515Y-13431674D02*
X14313515Y-13479293D01*
X14313515Y-13479293D02*
X14303991Y-13517388D01*
X14303991Y-13517388D02*
X14294467Y-13536436D01*
X14294467Y-13536436D02*
X14284944Y-13545960D01*
X14284944Y-13545960D02*
X14265896Y-13555484D01*
X14265896Y-13555484D02*
X14246848Y-13555484D01*
X14246848Y-13555484D02*
X14227801Y-13545960D01*
X14227801Y-13545960D02*
X14218277Y-13536436D01*
X14218277Y-13536436D02*
X14208753Y-13517388D01*
X14208753Y-13517388D02*
X14199229Y-13479293D01*
X14199229Y-13479293D02*
X14199229Y-13431674D01*
X14199229Y-13431674D02*
X14208753Y-13393579D01*
X14208753Y-13393579D02*
X14218277Y-13374531D01*
X14218277Y-13374531D02*
X14227801Y-13365008D01*
X14227801Y-13365008D02*
X14246848Y-13355484D01*
X14380182Y-13355484D02*
X14503991Y-13355484D01*
X14503991Y-13355484D02*
X14437325Y-13431674D01*
X14437325Y-13431674D02*
X14465896Y-13431674D01*
X14465896Y-13431674D02*
X14484944Y-13441198D01*
X14484944Y-13441198D02*
X14494467Y-13450722D01*
X14494467Y-13450722D02*
X14503991Y-13469769D01*
X14503991Y-13469769D02*
X14503991Y-13517388D01*
X14503991Y-13517388D02*
X14494467Y-13536436D01*
X14494467Y-13536436D02*
X14484944Y-13545960D01*
X14484944Y-13545960D02*
X14465896Y-13555484D01*
X14465896Y-13555484D02*
X14408753Y-13555484D01*
X14408753Y-13555484D02*
X14389706Y-13545960D01*
X14389706Y-13545960D02*
X14380182Y-13536436D01*
X14694467Y-13555484D02*
X14580182Y-13555484D01*
X14637325Y-13555484D02*
X14637325Y-13355484D01*
X14637325Y-13355484D02*
X14618277Y-13384055D01*
X14618277Y-13384055D02*
X14599229Y-13403103D01*
X14599229Y-13403103D02*
X14580182Y-13412627D01*
X14875420Y-13355484D02*
X14780182Y-13355484D01*
X14780182Y-13355484D02*
X14770658Y-13450722D01*
X14770658Y-13450722D02*
X14780182Y-13441198D01*
X14780182Y-13441198D02*
X14799229Y-13431674D01*
X14799229Y-13431674D02*
X14846848Y-13431674D01*
X14846848Y-13431674D02*
X14865896Y-13441198D01*
X14865896Y-13441198D02*
X14875420Y-13450722D01*
X14875420Y-13450722D02*
X14884944Y-13469769D01*
X14884944Y-13469769D02*
X14884944Y-13517388D01*
X14884944Y-13517388D02*
X14875420Y-13536436D01*
X14875420Y-13536436D02*
X14865896Y-13545960D01*
X14865896Y-13545960D02*
X14846848Y-13555484D01*
X14846848Y-13555484D02*
X14799229Y-13555484D01*
X14799229Y-13555484D02*
X14780182Y-13545960D01*
X14780182Y-13545960D02*
X14770658Y-13536436D01*
X14961134Y-13355484D02*
X14961134Y-13393579D01*
X15037325Y-13355484D02*
X15037325Y-13393579D01*
X15332563Y-13631674D02*
X15323039Y-13622150D01*
X15323039Y-13622150D02*
X15303991Y-13593579D01*
X15303991Y-13593579D02*
X15294468Y-13574531D01*
X15294468Y-13574531D02*
X15284944Y-13545960D01*
X15284944Y-13545960D02*
X15275420Y-13498341D01*
X15275420Y-13498341D02*
X15275420Y-13460246D01*
X15275420Y-13460246D02*
X15284944Y-13412627D01*
X15284944Y-13412627D02*
X15294468Y-13384055D01*
X15294468Y-13384055D02*
X15303991Y-13365008D01*
X15303991Y-13365008D02*
X15323039Y-13336436D01*
X15323039Y-13336436D02*
X15332563Y-13326912D01*
X15494468Y-13355484D02*
X15456372Y-13355484D01*
X15456372Y-13355484D02*
X15437325Y-13365008D01*
X15437325Y-13365008D02*
X15427801Y-13374531D01*
X15427801Y-13374531D02*
X15408753Y-13403103D01*
X15408753Y-13403103D02*
X15399229Y-13441198D01*
X15399229Y-13441198D02*
X15399229Y-13517388D01*
X15399229Y-13517388D02*
X15408753Y-13536436D01*
X15408753Y-13536436D02*
X15418277Y-13545960D01*
X15418277Y-13545960D02*
X15437325Y-13555484D01*
X15437325Y-13555484D02*
X15475420Y-13555484D01*
X15475420Y-13555484D02*
X15494468Y-13545960D01*
X15494468Y-13545960D02*
X15503991Y-13536436D01*
X15503991Y-13536436D02*
X15513515Y-13517388D01*
X15513515Y-13517388D02*
X15513515Y-13469769D01*
X15513515Y-13469769D02*
X15503991Y-13450722D01*
X15503991Y-13450722D02*
X15494468Y-13441198D01*
X15494468Y-13441198D02*
X15475420Y-13431674D01*
X15475420Y-13431674D02*
X15437325Y-13431674D01*
X15437325Y-13431674D02*
X15418277Y-13441198D01*
X15418277Y-13441198D02*
X15408753Y-13450722D01*
X15408753Y-13450722D02*
X15399229Y-13469769D01*
X15751610Y-13555484D02*
X15751610Y-13355484D01*
X15837325Y-13555484D02*
X15837325Y-13450722D01*
X15837325Y-13450722D02*
X15827801Y-13431674D01*
X15827801Y-13431674D02*
X15808753Y-13422150D01*
X15808753Y-13422150D02*
X15780182Y-13422150D01*
X15780182Y-13422150D02*
X15761134Y-13431674D01*
X15761134Y-13431674D02*
X15751610Y-13441198D01*
X15961134Y-13555484D02*
X15942087Y-13545960D01*
X15942087Y-13545960D02*
X15932563Y-13536436D01*
X15932563Y-13536436D02*
X15923039Y-13517388D01*
X15923039Y-13517388D02*
X15923039Y-13460246D01*
X15923039Y-13460246D02*
X15932563Y-13441198D01*
X15932563Y-13441198D02*
X15942087Y-13431674D01*
X15942087Y-13431674D02*
X15961134Y-13422150D01*
X15961134Y-13422150D02*
X15989706Y-13422150D01*
X15989706Y-13422150D02*
X16008753Y-13431674D01*
X16008753Y-13431674D02*
X16018277Y-13441198D01*
X16018277Y-13441198D02*
X16027801Y-13460246D01*
X16027801Y-13460246D02*
X16027801Y-13517388D01*
X16027801Y-13517388D02*
X16018277Y-13536436D01*
X16018277Y-13536436D02*
X16008753Y-13545960D01*
X16008753Y-13545960D02*
X15989706Y-13555484D01*
X15989706Y-13555484D02*
X15961134Y-13555484D01*
X16142087Y-13555484D02*
X16123039Y-13545960D01*
X16123039Y-13545960D02*
X16113515Y-13526912D01*
X16113515Y-13526912D02*
X16113515Y-13355484D01*
X16294468Y-13545960D02*
X16275420Y-13555484D01*
X16275420Y-13555484D02*
X16237325Y-13555484D01*
X16237325Y-13555484D02*
X16218277Y-13545960D01*
X16218277Y-13545960D02*
X16208753Y-13526912D01*
X16208753Y-13526912D02*
X16208753Y-13450722D01*
X16208753Y-13450722D02*
X16218277Y-13431674D01*
X16218277Y-13431674D02*
X16237325Y-13422150D01*
X16237325Y-13422150D02*
X16275420Y-13422150D01*
X16275420Y-13422150D02*
X16294468Y-13431674D01*
X16294468Y-13431674D02*
X16303991Y-13450722D01*
X16303991Y-13450722D02*
X16303991Y-13469769D01*
X16303991Y-13469769D02*
X16208753Y-13488817D01*
X16380182Y-13545960D02*
X16399230Y-13555484D01*
X16399230Y-13555484D02*
X16437325Y-13555484D01*
X16437325Y-13555484D02*
X16456372Y-13545960D01*
X16456372Y-13545960D02*
X16465896Y-13526912D01*
X16465896Y-13526912D02*
X16465896Y-13517388D01*
X16465896Y-13517388D02*
X16456372Y-13498341D01*
X16456372Y-13498341D02*
X16437325Y-13488817D01*
X16437325Y-13488817D02*
X16408753Y-13488817D01*
X16408753Y-13488817D02*
X16389706Y-13479293D01*
X16389706Y-13479293D02*
X16380182Y-13460246D01*
X16380182Y-13460246D02*
X16380182Y-13450722D01*
X16380182Y-13450722D02*
X16389706Y-13431674D01*
X16389706Y-13431674D02*
X16408753Y-13422150D01*
X16408753Y-13422150D02*
X16437325Y-13422150D01*
X16437325Y-13422150D02*
X16456372Y-13431674D01*
X16532563Y-13631674D02*
X16542087Y-13622150D01*
X16542087Y-13622150D02*
X16561134Y-13593579D01*
X16561134Y-13593579D02*
X16570658Y-13574531D01*
X16570658Y-13574531D02*
X16580182Y-13545960D01*
X16580182Y-13545960D02*
X16589706Y-13498341D01*
X16589706Y-13498341D02*
X16589706Y-13460246D01*
X16589706Y-13460246D02*
X16580182Y-13412627D01*
X16580182Y-13412627D02*
X16570658Y-13384055D01*
X16570658Y-13384055D02*
X16561134Y-13365008D01*
X16561134Y-13365008D02*
X16542087Y-13336436D01*
X16542087Y-13336436D02*
X16532563Y-13326912D01*
D11*
X11707500Y-13678000D02*
X11707500Y-13778000D01*
X11657500Y-13728000D02*
X11757500Y-13728000D01*
D10*
X12123039Y-13819484D02*
X12008753Y-13819484D01*
X12065896Y-13819484D02*
X12065896Y-13619484D01*
X12065896Y-13619484D02*
X12046848Y-13648055D01*
X12046848Y-13648055D02*
X12027801Y-13667103D01*
X12027801Y-13667103D02*
X12008753Y-13676627D01*
X12208753Y-13800436D02*
X12218277Y-13809960D01*
X12218277Y-13809960D02*
X12208753Y-13819484D01*
X12208753Y-13819484D02*
X12199229Y-13809960D01*
X12199229Y-13809960D02*
X12208753Y-13800436D01*
X12208753Y-13800436D02*
X12208753Y-13819484D01*
X12342086Y-13619484D02*
X12361134Y-13619484D01*
X12361134Y-13619484D02*
X12380182Y-13629008D01*
X12380182Y-13629008D02*
X12389705Y-13638531D01*
X12389705Y-13638531D02*
X12399229Y-13657579D01*
X12399229Y-13657579D02*
X12408753Y-13695674D01*
X12408753Y-13695674D02*
X12408753Y-13743293D01*
X12408753Y-13743293D02*
X12399229Y-13781388D01*
X12399229Y-13781388D02*
X12389705Y-13800436D01*
X12389705Y-13800436D02*
X12380182Y-13809960D01*
X12380182Y-13809960D02*
X12361134Y-13819484D01*
X12361134Y-13819484D02*
X12342086Y-13819484D01*
X12342086Y-13819484D02*
X12323039Y-13809960D01*
X12323039Y-13809960D02*
X12313515Y-13800436D01*
X12313515Y-13800436D02*
X12303991Y-13781388D01*
X12303991Y-13781388D02*
X12294467Y-13743293D01*
X12294467Y-13743293D02*
X12294467Y-13695674D01*
X12294467Y-13695674D02*
X12303991Y-13657579D01*
X12303991Y-13657579D02*
X12313515Y-13638531D01*
X12313515Y-13638531D02*
X12323039Y-13629008D01*
X12323039Y-13629008D02*
X12342086Y-13619484D01*
X12532562Y-13619484D02*
X12551610Y-13619484D01*
X12551610Y-13619484D02*
X12570658Y-13629008D01*
X12570658Y-13629008D02*
X12580182Y-13638531D01*
X12580182Y-13638531D02*
X12589705Y-13657579D01*
X12589705Y-13657579D02*
X12599229Y-13695674D01*
X12599229Y-13695674D02*
X12599229Y-13743293D01*
X12599229Y-13743293D02*
X12589705Y-13781388D01*
X12589705Y-13781388D02*
X12580182Y-13800436D01*
X12580182Y-13800436D02*
X12570658Y-13809960D01*
X12570658Y-13809960D02*
X12551610Y-13819484D01*
X12551610Y-13819484D02*
X12532562Y-13819484D01*
X12532562Y-13819484D02*
X12513515Y-13809960D01*
X12513515Y-13809960D02*
X12503991Y-13800436D01*
X12503991Y-13800436D02*
X12494467Y-13781388D01*
X12494467Y-13781388D02*
X12484943Y-13743293D01*
X12484943Y-13743293D02*
X12484943Y-13695674D01*
X12484943Y-13695674D02*
X12494467Y-13657579D01*
X12494467Y-13657579D02*
X12503991Y-13638531D01*
X12503991Y-13638531D02*
X12513515Y-13629008D01*
X12513515Y-13629008D02*
X12532562Y-13619484D01*
X12723039Y-13619484D02*
X12742086Y-13619484D01*
X12742086Y-13619484D02*
X12761134Y-13629008D01*
X12761134Y-13629008D02*
X12770658Y-13638531D01*
X12770658Y-13638531D02*
X12780182Y-13657579D01*
X12780182Y-13657579D02*
X12789705Y-13695674D01*
X12789705Y-13695674D02*
X12789705Y-13743293D01*
X12789705Y-13743293D02*
X12780182Y-13781388D01*
X12780182Y-13781388D02*
X12770658Y-13800436D01*
X12770658Y-13800436D02*
X12761134Y-13809960D01*
X12761134Y-13809960D02*
X12742086Y-13819484D01*
X12742086Y-13819484D02*
X12723039Y-13819484D01*
X12723039Y-13819484D02*
X12703991Y-13809960D01*
X12703991Y-13809960D02*
X12694467Y-13800436D01*
X12694467Y-13800436D02*
X12684943Y-13781388D01*
X12684943Y-13781388D02*
X12675420Y-13743293D01*
X12675420Y-13743293D02*
X12675420Y-13695674D01*
X12675420Y-13695674D02*
X12684943Y-13657579D01*
X12684943Y-13657579D02*
X12694467Y-13638531D01*
X12694467Y-13638531D02*
X12703991Y-13629008D01*
X12703991Y-13629008D02*
X12723039Y-13619484D01*
X12875420Y-13819484D02*
X12875420Y-13686150D01*
X12875420Y-13705198D02*
X12884943Y-13695674D01*
X12884943Y-13695674D02*
X12903991Y-13686150D01*
X12903991Y-13686150D02*
X12932563Y-13686150D01*
X12932563Y-13686150D02*
X12951610Y-13695674D01*
X12951610Y-13695674D02*
X12961134Y-13714722D01*
X12961134Y-13714722D02*
X12961134Y-13819484D01*
X12961134Y-13714722D02*
X12970658Y-13695674D01*
X12970658Y-13695674D02*
X12989705Y-13686150D01*
X12989705Y-13686150D02*
X13018277Y-13686150D01*
X13018277Y-13686150D02*
X13037324Y-13695674D01*
X13037324Y-13695674D02*
X13046848Y-13714722D01*
X13046848Y-13714722D02*
X13046848Y-13819484D01*
X13142086Y-13819484D02*
X13142086Y-13686150D01*
X13142086Y-13705198D02*
X13151610Y-13695674D01*
X13151610Y-13695674D02*
X13170658Y-13686150D01*
X13170658Y-13686150D02*
X13199229Y-13686150D01*
X13199229Y-13686150D02*
X13218277Y-13695674D01*
X13218277Y-13695674D02*
X13227801Y-13714722D01*
X13227801Y-13714722D02*
X13227801Y-13819484D01*
X13227801Y-13714722D02*
X13237324Y-13695674D01*
X13237324Y-13695674D02*
X13256372Y-13686150D01*
X13256372Y-13686150D02*
X13284943Y-13686150D01*
X13284943Y-13686150D02*
X13303991Y-13695674D01*
X13303991Y-13695674D02*
X13313515Y-13714722D01*
X13313515Y-13714722D02*
X13313515Y-13819484D01*
X13703991Y-13609960D02*
X13532563Y-13867103D01*
X13961134Y-13619484D02*
X13980182Y-13619484D01*
X13980182Y-13619484D02*
X13999229Y-13629008D01*
X13999229Y-13629008D02*
X14008753Y-13638531D01*
X14008753Y-13638531D02*
X14018277Y-13657579D01*
X14018277Y-13657579D02*
X14027801Y-13695674D01*
X14027801Y-13695674D02*
X14027801Y-13743293D01*
X14027801Y-13743293D02*
X14018277Y-13781388D01*
X14018277Y-13781388D02*
X14008753Y-13800436D01*
X14008753Y-13800436D02*
X13999229Y-13809960D01*
X13999229Y-13809960D02*
X13980182Y-13819484D01*
X13980182Y-13819484D02*
X13961134Y-13819484D01*
X13961134Y-13819484D02*
X13942086Y-13809960D01*
X13942086Y-13809960D02*
X13932563Y-13800436D01*
X13932563Y-13800436D02*
X13923039Y-13781388D01*
X13923039Y-13781388D02*
X13913515Y-13743293D01*
X13913515Y-13743293D02*
X13913515Y-13695674D01*
X13913515Y-13695674D02*
X13923039Y-13657579D01*
X13923039Y-13657579D02*
X13932563Y-13638531D01*
X13932563Y-13638531D02*
X13942086Y-13629008D01*
X13942086Y-13629008D02*
X13961134Y-13619484D01*
X14113515Y-13800436D02*
X14123039Y-13809960D01*
X14123039Y-13809960D02*
X14113515Y-13819484D01*
X14113515Y-13819484D02*
X14103991Y-13809960D01*
X14103991Y-13809960D02*
X14113515Y-13800436D01*
X14113515Y-13800436D02*
X14113515Y-13819484D01*
X14246848Y-13619484D02*
X14265896Y-13619484D01*
X14265896Y-13619484D02*
X14284944Y-13629008D01*
X14284944Y-13629008D02*
X14294467Y-13638531D01*
X14294467Y-13638531D02*
X14303991Y-13657579D01*
X14303991Y-13657579D02*
X14313515Y-13695674D01*
X14313515Y-13695674D02*
X14313515Y-13743293D01*
X14313515Y-13743293D02*
X14303991Y-13781388D01*
X14303991Y-13781388D02*
X14294467Y-13800436D01*
X14294467Y-13800436D02*
X14284944Y-13809960D01*
X14284944Y-13809960D02*
X14265896Y-13819484D01*
X14265896Y-13819484D02*
X14246848Y-13819484D01*
X14246848Y-13819484D02*
X14227801Y-13809960D01*
X14227801Y-13809960D02*
X14218277Y-13800436D01*
X14218277Y-13800436D02*
X14208753Y-13781388D01*
X14208753Y-13781388D02*
X14199229Y-13743293D01*
X14199229Y-13743293D02*
X14199229Y-13695674D01*
X14199229Y-13695674D02*
X14208753Y-13657579D01*
X14208753Y-13657579D02*
X14218277Y-13638531D01*
X14218277Y-13638531D02*
X14227801Y-13629008D01*
X14227801Y-13629008D02*
X14246848Y-13619484D01*
X14380182Y-13619484D02*
X14503991Y-13619484D01*
X14503991Y-13619484D02*
X14437325Y-13695674D01*
X14437325Y-13695674D02*
X14465896Y-13695674D01*
X14465896Y-13695674D02*
X14484944Y-13705198D01*
X14484944Y-13705198D02*
X14494467Y-13714722D01*
X14494467Y-13714722D02*
X14503991Y-13733769D01*
X14503991Y-13733769D02*
X14503991Y-13781388D01*
X14503991Y-13781388D02*
X14494467Y-13800436D01*
X14494467Y-13800436D02*
X14484944Y-13809960D01*
X14484944Y-13809960D02*
X14465896Y-13819484D01*
X14465896Y-13819484D02*
X14408753Y-13819484D01*
X14408753Y-13819484D02*
X14389706Y-13809960D01*
X14389706Y-13809960D02*
X14380182Y-13800436D01*
X14599229Y-13819484D02*
X14637325Y-13819484D01*
X14637325Y-13819484D02*
X14656372Y-13809960D01*
X14656372Y-13809960D02*
X14665896Y-13800436D01*
X14665896Y-13800436D02*
X14684944Y-13771865D01*
X14684944Y-13771865D02*
X14694467Y-13733769D01*
X14694467Y-13733769D02*
X14694467Y-13657579D01*
X14694467Y-13657579D02*
X14684944Y-13638531D01*
X14684944Y-13638531D02*
X14675420Y-13629008D01*
X14675420Y-13629008D02*
X14656372Y-13619484D01*
X14656372Y-13619484D02*
X14618277Y-13619484D01*
X14618277Y-13619484D02*
X14599229Y-13629008D01*
X14599229Y-13629008D02*
X14589706Y-13638531D01*
X14589706Y-13638531D02*
X14580182Y-13657579D01*
X14580182Y-13657579D02*
X14580182Y-13705198D01*
X14580182Y-13705198D02*
X14589706Y-13724246D01*
X14589706Y-13724246D02*
X14599229Y-13733769D01*
X14599229Y-13733769D02*
X14618277Y-13743293D01*
X14618277Y-13743293D02*
X14656372Y-13743293D01*
X14656372Y-13743293D02*
X14675420Y-13733769D01*
X14675420Y-13733769D02*
X14684944Y-13724246D01*
X14684944Y-13724246D02*
X14694467Y-13705198D01*
X14865896Y-13686150D02*
X14865896Y-13819484D01*
X14818277Y-13609960D02*
X14770658Y-13752817D01*
X14770658Y-13752817D02*
X14894467Y-13752817D01*
X14961134Y-13619484D02*
X14961134Y-13657579D01*
X15037325Y-13619484D02*
X15037325Y-13657579D01*
X15332563Y-13895674D02*
X15323039Y-13886150D01*
X15323039Y-13886150D02*
X15303991Y-13857579D01*
X15303991Y-13857579D02*
X15294468Y-13838531D01*
X15294468Y-13838531D02*
X15284944Y-13809960D01*
X15284944Y-13809960D02*
X15275420Y-13762341D01*
X15275420Y-13762341D02*
X15275420Y-13724246D01*
X15275420Y-13724246D02*
X15284944Y-13676627D01*
X15284944Y-13676627D02*
X15294468Y-13648055D01*
X15294468Y-13648055D02*
X15303991Y-13629008D01*
X15303991Y-13629008D02*
X15323039Y-13600436D01*
X15323039Y-13600436D02*
X15332563Y-13590912D01*
X15399229Y-13638531D02*
X15408753Y-13629008D01*
X15408753Y-13629008D02*
X15427801Y-13619484D01*
X15427801Y-13619484D02*
X15475420Y-13619484D01*
X15475420Y-13619484D02*
X15494468Y-13629008D01*
X15494468Y-13629008D02*
X15503991Y-13638531D01*
X15503991Y-13638531D02*
X15513515Y-13657579D01*
X15513515Y-13657579D02*
X15513515Y-13676627D01*
X15513515Y-13676627D02*
X15503991Y-13705198D01*
X15503991Y-13705198D02*
X15389706Y-13819484D01*
X15389706Y-13819484D02*
X15513515Y-13819484D01*
X15580182Y-13619484D02*
X15713515Y-13619484D01*
X15713515Y-13619484D02*
X15627801Y-13819484D01*
X15942087Y-13819484D02*
X15942087Y-13619484D01*
X16027801Y-13819484D02*
X16027801Y-13714722D01*
X16027801Y-13714722D02*
X16018277Y-13695674D01*
X16018277Y-13695674D02*
X15999230Y-13686150D01*
X15999230Y-13686150D02*
X15970658Y-13686150D01*
X15970658Y-13686150D02*
X15951610Y-13695674D01*
X15951610Y-13695674D02*
X15942087Y-13705198D01*
X16151610Y-13819484D02*
X16132563Y-13809960D01*
X16132563Y-13809960D02*
X16123039Y-13800436D01*
X16123039Y-13800436D02*
X16113515Y-13781388D01*
X16113515Y-13781388D02*
X16113515Y-13724246D01*
X16113515Y-13724246D02*
X16123039Y-13705198D01*
X16123039Y-13705198D02*
X16132563Y-13695674D01*
X16132563Y-13695674D02*
X16151610Y-13686150D01*
X16151610Y-13686150D02*
X16180182Y-13686150D01*
X16180182Y-13686150D02*
X16199230Y-13695674D01*
X16199230Y-13695674D02*
X16208753Y-13705198D01*
X16208753Y-13705198D02*
X16218277Y-13724246D01*
X16218277Y-13724246D02*
X16218277Y-13781388D01*
X16218277Y-13781388D02*
X16208753Y-13800436D01*
X16208753Y-13800436D02*
X16199230Y-13809960D01*
X16199230Y-13809960D02*
X16180182Y-13819484D01*
X16180182Y-13819484D02*
X16151610Y-13819484D01*
X16332563Y-13819484D02*
X16313515Y-13809960D01*
X16313515Y-13809960D02*
X16303991Y-13790912D01*
X16303991Y-13790912D02*
X16303991Y-13619484D01*
X16484944Y-13809960D02*
X16465896Y-13819484D01*
X16465896Y-13819484D02*
X16427801Y-13819484D01*
X16427801Y-13819484D02*
X16408753Y-13809960D01*
X16408753Y-13809960D02*
X16399230Y-13790912D01*
X16399230Y-13790912D02*
X16399230Y-13714722D01*
X16399230Y-13714722D02*
X16408753Y-13695674D01*
X16408753Y-13695674D02*
X16427801Y-13686150D01*
X16427801Y-13686150D02*
X16465896Y-13686150D01*
X16465896Y-13686150D02*
X16484944Y-13695674D01*
X16484944Y-13695674D02*
X16494468Y-13714722D01*
X16494468Y-13714722D02*
X16494468Y-13733769D01*
X16494468Y-13733769D02*
X16399230Y-13752817D01*
X16570658Y-13809960D02*
X16589706Y-13819484D01*
X16589706Y-13819484D02*
X16627801Y-13819484D01*
X16627801Y-13819484D02*
X16646849Y-13809960D01*
X16646849Y-13809960D02*
X16656372Y-13790912D01*
X16656372Y-13790912D02*
X16656372Y-13781388D01*
X16656372Y-13781388D02*
X16646849Y-13762341D01*
X16646849Y-13762341D02*
X16627801Y-13752817D01*
X16627801Y-13752817D02*
X16599230Y-13752817D01*
X16599230Y-13752817D02*
X16580182Y-13743293D01*
X16580182Y-13743293D02*
X16570658Y-13724246D01*
X16570658Y-13724246D02*
X16570658Y-13714722D01*
X16570658Y-13714722D02*
X16580182Y-13695674D01*
X16580182Y-13695674D02*
X16599230Y-13686150D01*
X16599230Y-13686150D02*
X16627801Y-13686150D01*
X16627801Y-13686150D02*
X16646849Y-13695674D01*
X16723039Y-13895674D02*
X16732563Y-13886150D01*
X16732563Y-13886150D02*
X16751611Y-13857579D01*
X16751611Y-13857579D02*
X16761134Y-13838531D01*
X16761134Y-13838531D02*
X16770658Y-13809960D01*
X16770658Y-13809960D02*
X16780182Y-13762341D01*
X16780182Y-13762341D02*
X16780182Y-13724246D01*
X16780182Y-13724246D02*
X16770658Y-13676627D01*
X16770658Y-13676627D02*
X16761134Y-13648055D01*
X16761134Y-13648055D02*
X16751611Y-13629008D01*
X16751611Y-13629008D02*
X16732563Y-13600436D01*
X16732563Y-13600436D02*
X16723039Y-13590912D01*
D12*
X11738462Y-14037962D02*
X11738462Y-13946038D01*
X11646538Y-13946038D01*
X11646538Y-14037962D01*
X11738462Y-14037962D01*
D10*
X12123039Y-14083484D02*
X12008753Y-14083484D01*
X12065896Y-14083484D02*
X12065896Y-13883484D01*
X12065896Y-13883484D02*
X12046848Y-13912055D01*
X12046848Y-13912055D02*
X12027801Y-13931103D01*
X12027801Y-13931103D02*
X12008753Y-13940627D01*
X12208753Y-14064436D02*
X12218277Y-14073960D01*
X12218277Y-14073960D02*
X12208753Y-14083484D01*
X12208753Y-14083484D02*
X12199229Y-14073960D01*
X12199229Y-14073960D02*
X12208753Y-14064436D01*
X12208753Y-14064436D02*
X12208753Y-14083484D01*
X12284943Y-13883484D02*
X12408753Y-13883484D01*
X12408753Y-13883484D02*
X12342086Y-13959674D01*
X12342086Y-13959674D02*
X12370658Y-13959674D01*
X12370658Y-13959674D02*
X12389705Y-13969198D01*
X12389705Y-13969198D02*
X12399229Y-13978722D01*
X12399229Y-13978722D02*
X12408753Y-13997769D01*
X12408753Y-13997769D02*
X12408753Y-14045388D01*
X12408753Y-14045388D02*
X12399229Y-14064436D01*
X12399229Y-14064436D02*
X12389705Y-14073960D01*
X12389705Y-14073960D02*
X12370658Y-14083484D01*
X12370658Y-14083484D02*
X12313515Y-14083484D01*
X12313515Y-14083484D02*
X12294467Y-14073960D01*
X12294467Y-14073960D02*
X12284943Y-14064436D01*
X12532562Y-13883484D02*
X12551610Y-13883484D01*
X12551610Y-13883484D02*
X12570658Y-13893008D01*
X12570658Y-13893008D02*
X12580182Y-13902531D01*
X12580182Y-13902531D02*
X12589705Y-13921579D01*
X12589705Y-13921579D02*
X12599229Y-13959674D01*
X12599229Y-13959674D02*
X12599229Y-14007293D01*
X12599229Y-14007293D02*
X12589705Y-14045388D01*
X12589705Y-14045388D02*
X12580182Y-14064436D01*
X12580182Y-14064436D02*
X12570658Y-14073960D01*
X12570658Y-14073960D02*
X12551610Y-14083484D01*
X12551610Y-14083484D02*
X12532562Y-14083484D01*
X12532562Y-14083484D02*
X12513515Y-14073960D01*
X12513515Y-14073960D02*
X12503991Y-14064436D01*
X12503991Y-14064436D02*
X12494467Y-14045388D01*
X12494467Y-14045388D02*
X12484943Y-14007293D01*
X12484943Y-14007293D02*
X12484943Y-13959674D01*
X12484943Y-13959674D02*
X12494467Y-13921579D01*
X12494467Y-13921579D02*
X12503991Y-13902531D01*
X12503991Y-13902531D02*
X12513515Y-13893008D01*
X12513515Y-13893008D02*
X12532562Y-13883484D01*
X12723039Y-13883484D02*
X12742086Y-13883484D01*
X12742086Y-13883484D02*
X12761134Y-13893008D01*
X12761134Y-13893008D02*
X12770658Y-13902531D01*
X12770658Y-13902531D02*
X12780182Y-13921579D01*
X12780182Y-13921579D02*
X12789705Y-13959674D01*
X12789705Y-13959674D02*
X12789705Y-14007293D01*
X12789705Y-14007293D02*
X12780182Y-14045388D01*
X12780182Y-14045388D02*
X12770658Y-14064436D01*
X12770658Y-14064436D02*
X12761134Y-14073960D01*
X12761134Y-14073960D02*
X12742086Y-14083484D01*
X12742086Y-14083484D02*
X12723039Y-14083484D01*
X12723039Y-14083484D02*
X12703991Y-14073960D01*
X12703991Y-14073960D02*
X12694467Y-14064436D01*
X12694467Y-14064436D02*
X12684943Y-14045388D01*
X12684943Y-14045388D02*
X12675420Y-14007293D01*
X12675420Y-14007293D02*
X12675420Y-13959674D01*
X12675420Y-13959674D02*
X12684943Y-13921579D01*
X12684943Y-13921579D02*
X12694467Y-13902531D01*
X12694467Y-13902531D02*
X12703991Y-13893008D01*
X12703991Y-13893008D02*
X12723039Y-13883484D01*
X12875420Y-14083484D02*
X12875420Y-13950150D01*
X12875420Y-13969198D02*
X12884943Y-13959674D01*
X12884943Y-13959674D02*
X12903991Y-13950150D01*
X12903991Y-13950150D02*
X12932563Y-13950150D01*
X12932563Y-13950150D02*
X12951610Y-13959674D01*
X12951610Y-13959674D02*
X12961134Y-13978722D01*
X12961134Y-13978722D02*
X12961134Y-14083484D01*
X12961134Y-13978722D02*
X12970658Y-13959674D01*
X12970658Y-13959674D02*
X12989705Y-13950150D01*
X12989705Y-13950150D02*
X13018277Y-13950150D01*
X13018277Y-13950150D02*
X13037324Y-13959674D01*
X13037324Y-13959674D02*
X13046848Y-13978722D01*
X13046848Y-13978722D02*
X13046848Y-14083484D01*
X13142086Y-14083484D02*
X13142086Y-13950150D01*
X13142086Y-13969198D02*
X13151610Y-13959674D01*
X13151610Y-13959674D02*
X13170658Y-13950150D01*
X13170658Y-13950150D02*
X13199229Y-13950150D01*
X13199229Y-13950150D02*
X13218277Y-13959674D01*
X13218277Y-13959674D02*
X13227801Y-13978722D01*
X13227801Y-13978722D02*
X13227801Y-14083484D01*
X13227801Y-13978722D02*
X13237324Y-13959674D01*
X13237324Y-13959674D02*
X13256372Y-13950150D01*
X13256372Y-13950150D02*
X13284943Y-13950150D01*
X13284943Y-13950150D02*
X13303991Y-13959674D01*
X13303991Y-13959674D02*
X13313515Y-13978722D01*
X13313515Y-13978722D02*
X13313515Y-14083484D01*
X13703991Y-13873960D02*
X13532563Y-14131103D01*
X13961134Y-13883484D02*
X13980182Y-13883484D01*
X13980182Y-13883484D02*
X13999229Y-13893008D01*
X13999229Y-13893008D02*
X14008753Y-13902531D01*
X14008753Y-13902531D02*
X14018277Y-13921579D01*
X14018277Y-13921579D02*
X14027801Y-13959674D01*
X14027801Y-13959674D02*
X14027801Y-14007293D01*
X14027801Y-14007293D02*
X14018277Y-14045388D01*
X14018277Y-14045388D02*
X14008753Y-14064436D01*
X14008753Y-14064436D02*
X13999229Y-14073960D01*
X13999229Y-14073960D02*
X13980182Y-14083484D01*
X13980182Y-14083484D02*
X13961134Y-14083484D01*
X13961134Y-14083484D02*
X13942086Y-14073960D01*
X13942086Y-14073960D02*
X13932563Y-14064436D01*
X13932563Y-14064436D02*
X13923039Y-14045388D01*
X13923039Y-14045388D02*
X13913515Y-14007293D01*
X13913515Y-14007293D02*
X13913515Y-13959674D01*
X13913515Y-13959674D02*
X13923039Y-13921579D01*
X13923039Y-13921579D02*
X13932563Y-13902531D01*
X13932563Y-13902531D02*
X13942086Y-13893008D01*
X13942086Y-13893008D02*
X13961134Y-13883484D01*
X14113515Y-14064436D02*
X14123039Y-14073960D01*
X14123039Y-14073960D02*
X14113515Y-14083484D01*
X14113515Y-14083484D02*
X14103991Y-14073960D01*
X14103991Y-14073960D02*
X14113515Y-14064436D01*
X14113515Y-14064436D02*
X14113515Y-14083484D01*
X14246848Y-13883484D02*
X14265896Y-13883484D01*
X14265896Y-13883484D02*
X14284944Y-13893008D01*
X14284944Y-13893008D02*
X14294467Y-13902531D01*
X14294467Y-13902531D02*
X14303991Y-13921579D01*
X14303991Y-13921579D02*
X14313515Y-13959674D01*
X14313515Y-13959674D02*
X14313515Y-14007293D01*
X14313515Y-14007293D02*
X14303991Y-14045388D01*
X14303991Y-14045388D02*
X14294467Y-14064436D01*
X14294467Y-14064436D02*
X14284944Y-14073960D01*
X14284944Y-14073960D02*
X14265896Y-14083484D01*
X14265896Y-14083484D02*
X14246848Y-14083484D01*
X14246848Y-14083484D02*
X14227801Y-14073960D01*
X14227801Y-14073960D02*
X14218277Y-14064436D01*
X14218277Y-14064436D02*
X14208753Y-14045388D01*
X14208753Y-14045388D02*
X14199229Y-14007293D01*
X14199229Y-14007293D02*
X14199229Y-13959674D01*
X14199229Y-13959674D02*
X14208753Y-13921579D01*
X14208753Y-13921579D02*
X14218277Y-13902531D01*
X14218277Y-13902531D02*
X14227801Y-13893008D01*
X14227801Y-13893008D02*
X14246848Y-13883484D01*
X14494467Y-13883484D02*
X14399229Y-13883484D01*
X14399229Y-13883484D02*
X14389706Y-13978722D01*
X14389706Y-13978722D02*
X14399229Y-13969198D01*
X14399229Y-13969198D02*
X14418277Y-13959674D01*
X14418277Y-13959674D02*
X14465896Y-13959674D01*
X14465896Y-13959674D02*
X14484944Y-13969198D01*
X14484944Y-13969198D02*
X14494467Y-13978722D01*
X14494467Y-13978722D02*
X14503991Y-13997769D01*
X14503991Y-13997769D02*
X14503991Y-14045388D01*
X14503991Y-14045388D02*
X14494467Y-14064436D01*
X14494467Y-14064436D02*
X14484944Y-14073960D01*
X14484944Y-14073960D02*
X14465896Y-14083484D01*
X14465896Y-14083484D02*
X14418277Y-14083484D01*
X14418277Y-14083484D02*
X14399229Y-14073960D01*
X14399229Y-14073960D02*
X14389706Y-14064436D01*
X14694467Y-14083484D02*
X14580182Y-14083484D01*
X14637325Y-14083484D02*
X14637325Y-13883484D01*
X14637325Y-13883484D02*
X14618277Y-13912055D01*
X14618277Y-13912055D02*
X14599229Y-13931103D01*
X14599229Y-13931103D02*
X14580182Y-13940627D01*
X14770658Y-13902531D02*
X14780182Y-13893008D01*
X14780182Y-13893008D02*
X14799229Y-13883484D01*
X14799229Y-13883484D02*
X14846848Y-13883484D01*
X14846848Y-13883484D02*
X14865896Y-13893008D01*
X14865896Y-13893008D02*
X14875420Y-13902531D01*
X14875420Y-13902531D02*
X14884944Y-13921579D01*
X14884944Y-13921579D02*
X14884944Y-13940627D01*
X14884944Y-13940627D02*
X14875420Y-13969198D01*
X14875420Y-13969198D02*
X14761134Y-14083484D01*
X14761134Y-14083484D02*
X14884944Y-14083484D01*
X14961134Y-13883484D02*
X14961134Y-13921579D01*
X15037325Y-13883484D02*
X15037325Y-13921579D01*
X15332563Y-14159674D02*
X15323039Y-14150150D01*
X15323039Y-14150150D02*
X15303991Y-14121579D01*
X15303991Y-14121579D02*
X15294468Y-14102531D01*
X15294468Y-14102531D02*
X15284944Y-14073960D01*
X15284944Y-14073960D02*
X15275420Y-14026341D01*
X15275420Y-14026341D02*
X15275420Y-13988246D01*
X15275420Y-13988246D02*
X15284944Y-13940627D01*
X15284944Y-13940627D02*
X15294468Y-13912055D01*
X15294468Y-13912055D02*
X15303991Y-13893008D01*
X15303991Y-13893008D02*
X15323039Y-13864436D01*
X15323039Y-13864436D02*
X15332563Y-13854912D01*
X15399229Y-13902531D02*
X15408753Y-13893008D01*
X15408753Y-13893008D02*
X15427801Y-13883484D01*
X15427801Y-13883484D02*
X15475420Y-13883484D01*
X15475420Y-13883484D02*
X15494468Y-13893008D01*
X15494468Y-13893008D02*
X15503991Y-13902531D01*
X15503991Y-13902531D02*
X15513515Y-13921579D01*
X15513515Y-13921579D02*
X15513515Y-13940627D01*
X15513515Y-13940627D02*
X15503991Y-13969198D01*
X15503991Y-13969198D02*
X15389706Y-14083484D01*
X15389706Y-14083484D02*
X15513515Y-14083484D01*
X15751610Y-14083484D02*
X15751610Y-13883484D01*
X15837325Y-14083484D02*
X15837325Y-13978722D01*
X15837325Y-13978722D02*
X15827801Y-13959674D01*
X15827801Y-13959674D02*
X15808753Y-13950150D01*
X15808753Y-13950150D02*
X15780182Y-13950150D01*
X15780182Y-13950150D02*
X15761134Y-13959674D01*
X15761134Y-13959674D02*
X15751610Y-13969198D01*
X15961134Y-14083484D02*
X15942087Y-14073960D01*
X15942087Y-14073960D02*
X15932563Y-14064436D01*
X15932563Y-14064436D02*
X15923039Y-14045388D01*
X15923039Y-14045388D02*
X15923039Y-13988246D01*
X15923039Y-13988246D02*
X15932563Y-13969198D01*
X15932563Y-13969198D02*
X15942087Y-13959674D01*
X15942087Y-13959674D02*
X15961134Y-13950150D01*
X15961134Y-13950150D02*
X15989706Y-13950150D01*
X15989706Y-13950150D02*
X16008753Y-13959674D01*
X16008753Y-13959674D02*
X16018277Y-13969198D01*
X16018277Y-13969198D02*
X16027801Y-13988246D01*
X16027801Y-13988246D02*
X16027801Y-14045388D01*
X16027801Y-14045388D02*
X16018277Y-14064436D01*
X16018277Y-14064436D02*
X16008753Y-14073960D01*
X16008753Y-14073960D02*
X15989706Y-14083484D01*
X15989706Y-14083484D02*
X15961134Y-14083484D01*
X16142087Y-14083484D02*
X16123039Y-14073960D01*
X16123039Y-14073960D02*
X16113515Y-14054912D01*
X16113515Y-14054912D02*
X16113515Y-13883484D01*
X16294468Y-14073960D02*
X16275420Y-14083484D01*
X16275420Y-14083484D02*
X16237325Y-14083484D01*
X16237325Y-14083484D02*
X16218277Y-14073960D01*
X16218277Y-14073960D02*
X16208753Y-14054912D01*
X16208753Y-14054912D02*
X16208753Y-13978722D01*
X16208753Y-13978722D02*
X16218277Y-13959674D01*
X16218277Y-13959674D02*
X16237325Y-13950150D01*
X16237325Y-13950150D02*
X16275420Y-13950150D01*
X16275420Y-13950150D02*
X16294468Y-13959674D01*
X16294468Y-13959674D02*
X16303991Y-13978722D01*
X16303991Y-13978722D02*
X16303991Y-13997769D01*
X16303991Y-13997769D02*
X16208753Y-14016817D01*
X16380182Y-14073960D02*
X16399230Y-14083484D01*
X16399230Y-14083484D02*
X16437325Y-14083484D01*
X16437325Y-14083484D02*
X16456372Y-14073960D01*
X16456372Y-14073960D02*
X16465896Y-14054912D01*
X16465896Y-14054912D02*
X16465896Y-14045388D01*
X16465896Y-14045388D02*
X16456372Y-14026341D01*
X16456372Y-14026341D02*
X16437325Y-14016817D01*
X16437325Y-14016817D02*
X16408753Y-14016817D01*
X16408753Y-14016817D02*
X16389706Y-14007293D01*
X16389706Y-14007293D02*
X16380182Y-13988246D01*
X16380182Y-13988246D02*
X16380182Y-13978722D01*
X16380182Y-13978722D02*
X16389706Y-13959674D01*
X16389706Y-13959674D02*
X16408753Y-13950150D01*
X16408753Y-13950150D02*
X16437325Y-13950150D01*
X16437325Y-13950150D02*
X16456372Y-13959674D01*
X16532563Y-14159674D02*
X16542087Y-14150150D01*
X16542087Y-14150150D02*
X16561134Y-14121579D01*
X16561134Y-14121579D02*
X16570658Y-14102531D01*
X16570658Y-14102531D02*
X16580182Y-14073960D01*
X16580182Y-14073960D02*
X16589706Y-14026341D01*
X16589706Y-14026341D02*
X16589706Y-13988246D01*
X16589706Y-13988246D02*
X16580182Y-13940627D01*
X16580182Y-13940627D02*
X16570658Y-13912055D01*
X16570658Y-13912055D02*
X16561134Y-13893008D01*
X16561134Y-13893008D02*
X16542087Y-13864436D01*
X16542087Y-13864436D02*
X16532563Y-13854912D01*
D13*
X11682500Y-14331000D02*
X11757500Y-14256000D01*
X11682500Y-14181000D01*
X11607500Y-14256000D01*
X11682500Y-14331000D01*
D10*
X12123039Y-14347484D02*
X12008753Y-14347484D01*
X12065896Y-14347484D02*
X12065896Y-14147484D01*
X12065896Y-14147484D02*
X12046848Y-14176055D01*
X12046848Y-14176055D02*
X12027801Y-14195103D01*
X12027801Y-14195103D02*
X12008753Y-14204627D01*
X12208753Y-14328436D02*
X12218277Y-14337960D01*
X12218277Y-14337960D02*
X12208753Y-14347484D01*
X12208753Y-14347484D02*
X12199229Y-14337960D01*
X12199229Y-14337960D02*
X12208753Y-14328436D01*
X12208753Y-14328436D02*
X12208753Y-14347484D01*
X12399229Y-14147484D02*
X12303991Y-14147484D01*
X12303991Y-14147484D02*
X12294467Y-14242722D01*
X12294467Y-14242722D02*
X12303991Y-14233198D01*
X12303991Y-14233198D02*
X12323039Y-14223674D01*
X12323039Y-14223674D02*
X12370658Y-14223674D01*
X12370658Y-14223674D02*
X12389705Y-14233198D01*
X12389705Y-14233198D02*
X12399229Y-14242722D01*
X12399229Y-14242722D02*
X12408753Y-14261769D01*
X12408753Y-14261769D02*
X12408753Y-14309388D01*
X12408753Y-14309388D02*
X12399229Y-14328436D01*
X12399229Y-14328436D02*
X12389705Y-14337960D01*
X12389705Y-14337960D02*
X12370658Y-14347484D01*
X12370658Y-14347484D02*
X12323039Y-14347484D01*
X12323039Y-14347484D02*
X12303991Y-14337960D01*
X12303991Y-14337960D02*
X12294467Y-14328436D01*
X12532562Y-14147484D02*
X12551610Y-14147484D01*
X12551610Y-14147484D02*
X12570658Y-14157008D01*
X12570658Y-14157008D02*
X12580182Y-14166531D01*
X12580182Y-14166531D02*
X12589705Y-14185579D01*
X12589705Y-14185579D02*
X12599229Y-14223674D01*
X12599229Y-14223674D02*
X12599229Y-14271293D01*
X12599229Y-14271293D02*
X12589705Y-14309388D01*
X12589705Y-14309388D02*
X12580182Y-14328436D01*
X12580182Y-14328436D02*
X12570658Y-14337960D01*
X12570658Y-14337960D02*
X12551610Y-14347484D01*
X12551610Y-14347484D02*
X12532562Y-14347484D01*
X12532562Y-14347484D02*
X12513515Y-14337960D01*
X12513515Y-14337960D02*
X12503991Y-14328436D01*
X12503991Y-14328436D02*
X12494467Y-14309388D01*
X12494467Y-14309388D02*
X12484943Y-14271293D01*
X12484943Y-14271293D02*
X12484943Y-14223674D01*
X12484943Y-14223674D02*
X12494467Y-14185579D01*
X12494467Y-14185579D02*
X12503991Y-14166531D01*
X12503991Y-14166531D02*
X12513515Y-14157008D01*
X12513515Y-14157008D02*
X12532562Y-14147484D01*
X12723039Y-14147484D02*
X12742086Y-14147484D01*
X12742086Y-14147484D02*
X12761134Y-14157008D01*
X12761134Y-14157008D02*
X12770658Y-14166531D01*
X12770658Y-14166531D02*
X12780182Y-14185579D01*
X12780182Y-14185579D02*
X12789705Y-14223674D01*
X12789705Y-14223674D02*
X12789705Y-14271293D01*
X12789705Y-14271293D02*
X12780182Y-14309388D01*
X12780182Y-14309388D02*
X12770658Y-14328436D01*
X12770658Y-14328436D02*
X12761134Y-14337960D01*
X12761134Y-14337960D02*
X12742086Y-14347484D01*
X12742086Y-14347484D02*
X12723039Y-14347484D01*
X12723039Y-14347484D02*
X12703991Y-14337960D01*
X12703991Y-14337960D02*
X12694467Y-14328436D01*
X12694467Y-14328436D02*
X12684943Y-14309388D01*
X12684943Y-14309388D02*
X12675420Y-14271293D01*
X12675420Y-14271293D02*
X12675420Y-14223674D01*
X12675420Y-14223674D02*
X12684943Y-14185579D01*
X12684943Y-14185579D02*
X12694467Y-14166531D01*
X12694467Y-14166531D02*
X12703991Y-14157008D01*
X12703991Y-14157008D02*
X12723039Y-14147484D01*
X12875420Y-14347484D02*
X12875420Y-14214150D01*
X12875420Y-14233198D02*
X12884943Y-14223674D01*
X12884943Y-14223674D02*
X12903991Y-14214150D01*
X12903991Y-14214150D02*
X12932563Y-14214150D01*
X12932563Y-14214150D02*
X12951610Y-14223674D01*
X12951610Y-14223674D02*
X12961134Y-14242722D01*
X12961134Y-14242722D02*
X12961134Y-14347484D01*
X12961134Y-14242722D02*
X12970658Y-14223674D01*
X12970658Y-14223674D02*
X12989705Y-14214150D01*
X12989705Y-14214150D02*
X13018277Y-14214150D01*
X13018277Y-14214150D02*
X13037324Y-14223674D01*
X13037324Y-14223674D02*
X13046848Y-14242722D01*
X13046848Y-14242722D02*
X13046848Y-14347484D01*
X13142086Y-14347484D02*
X13142086Y-14214150D01*
X13142086Y-14233198D02*
X13151610Y-14223674D01*
X13151610Y-14223674D02*
X13170658Y-14214150D01*
X13170658Y-14214150D02*
X13199229Y-14214150D01*
X13199229Y-14214150D02*
X13218277Y-14223674D01*
X13218277Y-14223674D02*
X13227801Y-14242722D01*
X13227801Y-14242722D02*
X13227801Y-14347484D01*
X13227801Y-14242722D02*
X13237324Y-14223674D01*
X13237324Y-14223674D02*
X13256372Y-14214150D01*
X13256372Y-14214150D02*
X13284943Y-14214150D01*
X13284943Y-14214150D02*
X13303991Y-14223674D01*
X13303991Y-14223674D02*
X13313515Y-14242722D01*
X13313515Y-14242722D02*
X13313515Y-14347484D01*
X13703991Y-14137960D02*
X13532563Y-14395103D01*
X13961134Y-14147484D02*
X13980182Y-14147484D01*
X13980182Y-14147484D02*
X13999229Y-14157008D01*
X13999229Y-14157008D02*
X14008753Y-14166531D01*
X14008753Y-14166531D02*
X14018277Y-14185579D01*
X14018277Y-14185579D02*
X14027801Y-14223674D01*
X14027801Y-14223674D02*
X14027801Y-14271293D01*
X14027801Y-14271293D02*
X14018277Y-14309388D01*
X14018277Y-14309388D02*
X14008753Y-14328436D01*
X14008753Y-14328436D02*
X13999229Y-14337960D01*
X13999229Y-14337960D02*
X13980182Y-14347484D01*
X13980182Y-14347484D02*
X13961134Y-14347484D01*
X13961134Y-14347484D02*
X13942086Y-14337960D01*
X13942086Y-14337960D02*
X13932563Y-14328436D01*
X13932563Y-14328436D02*
X13923039Y-14309388D01*
X13923039Y-14309388D02*
X13913515Y-14271293D01*
X13913515Y-14271293D02*
X13913515Y-14223674D01*
X13913515Y-14223674D02*
X13923039Y-14185579D01*
X13923039Y-14185579D02*
X13932563Y-14166531D01*
X13932563Y-14166531D02*
X13942086Y-14157008D01*
X13942086Y-14157008D02*
X13961134Y-14147484D01*
X14113515Y-14328436D02*
X14123039Y-14337960D01*
X14123039Y-14337960D02*
X14113515Y-14347484D01*
X14113515Y-14347484D02*
X14103991Y-14337960D01*
X14103991Y-14337960D02*
X14113515Y-14328436D01*
X14113515Y-14328436D02*
X14113515Y-14347484D01*
X14246848Y-14147484D02*
X14265896Y-14147484D01*
X14265896Y-14147484D02*
X14284944Y-14157008D01*
X14284944Y-14157008D02*
X14294467Y-14166531D01*
X14294467Y-14166531D02*
X14303991Y-14185579D01*
X14303991Y-14185579D02*
X14313515Y-14223674D01*
X14313515Y-14223674D02*
X14313515Y-14271293D01*
X14313515Y-14271293D02*
X14303991Y-14309388D01*
X14303991Y-14309388D02*
X14294467Y-14328436D01*
X14294467Y-14328436D02*
X14284944Y-14337960D01*
X14284944Y-14337960D02*
X14265896Y-14347484D01*
X14265896Y-14347484D02*
X14246848Y-14347484D01*
X14246848Y-14347484D02*
X14227801Y-14337960D01*
X14227801Y-14337960D02*
X14218277Y-14328436D01*
X14218277Y-14328436D02*
X14208753Y-14309388D01*
X14208753Y-14309388D02*
X14199229Y-14271293D01*
X14199229Y-14271293D02*
X14199229Y-14223674D01*
X14199229Y-14223674D02*
X14208753Y-14185579D01*
X14208753Y-14185579D02*
X14218277Y-14166531D01*
X14218277Y-14166531D02*
X14227801Y-14157008D01*
X14227801Y-14157008D02*
X14246848Y-14147484D01*
X14494467Y-14147484D02*
X14399229Y-14147484D01*
X14399229Y-14147484D02*
X14389706Y-14242722D01*
X14389706Y-14242722D02*
X14399229Y-14233198D01*
X14399229Y-14233198D02*
X14418277Y-14223674D01*
X14418277Y-14223674D02*
X14465896Y-14223674D01*
X14465896Y-14223674D02*
X14484944Y-14233198D01*
X14484944Y-14233198D02*
X14494467Y-14242722D01*
X14494467Y-14242722D02*
X14503991Y-14261769D01*
X14503991Y-14261769D02*
X14503991Y-14309388D01*
X14503991Y-14309388D02*
X14494467Y-14328436D01*
X14494467Y-14328436D02*
X14484944Y-14337960D01*
X14484944Y-14337960D02*
X14465896Y-14347484D01*
X14465896Y-14347484D02*
X14418277Y-14347484D01*
X14418277Y-14347484D02*
X14399229Y-14337960D01*
X14399229Y-14337960D02*
X14389706Y-14328436D01*
X14599229Y-14347484D02*
X14637325Y-14347484D01*
X14637325Y-14347484D02*
X14656372Y-14337960D01*
X14656372Y-14337960D02*
X14665896Y-14328436D01*
X14665896Y-14328436D02*
X14684944Y-14299865D01*
X14684944Y-14299865D02*
X14694467Y-14261769D01*
X14694467Y-14261769D02*
X14694467Y-14185579D01*
X14694467Y-14185579D02*
X14684944Y-14166531D01*
X14684944Y-14166531D02*
X14675420Y-14157008D01*
X14675420Y-14157008D02*
X14656372Y-14147484D01*
X14656372Y-14147484D02*
X14618277Y-14147484D01*
X14618277Y-14147484D02*
X14599229Y-14157008D01*
X14599229Y-14157008D02*
X14589706Y-14166531D01*
X14589706Y-14166531D02*
X14580182Y-14185579D01*
X14580182Y-14185579D02*
X14580182Y-14233198D01*
X14580182Y-14233198D02*
X14589706Y-14252246D01*
X14589706Y-14252246D02*
X14599229Y-14261769D01*
X14599229Y-14261769D02*
X14618277Y-14271293D01*
X14618277Y-14271293D02*
X14656372Y-14271293D01*
X14656372Y-14271293D02*
X14675420Y-14261769D01*
X14675420Y-14261769D02*
X14684944Y-14252246D01*
X14684944Y-14252246D02*
X14694467Y-14233198D01*
X14884944Y-14347484D02*
X14770658Y-14347484D01*
X14827801Y-14347484D02*
X14827801Y-14147484D01*
X14827801Y-14147484D02*
X14808753Y-14176055D01*
X14808753Y-14176055D02*
X14789706Y-14195103D01*
X14789706Y-14195103D02*
X14770658Y-14204627D01*
X14961134Y-14147484D02*
X14961134Y-14185579D01*
X15037325Y-14147484D02*
X15037325Y-14185579D01*
X15332563Y-14423674D02*
X15323039Y-14414150D01*
X15323039Y-14414150D02*
X15303991Y-14385579D01*
X15303991Y-14385579D02*
X15294468Y-14366531D01*
X15294468Y-14366531D02*
X15284944Y-14337960D01*
X15284944Y-14337960D02*
X15275420Y-14290341D01*
X15275420Y-14290341D02*
X15275420Y-14252246D01*
X15275420Y-14252246D02*
X15284944Y-14204627D01*
X15284944Y-14204627D02*
X15294468Y-14176055D01*
X15294468Y-14176055D02*
X15303991Y-14157008D01*
X15303991Y-14157008D02*
X15323039Y-14128436D01*
X15323039Y-14128436D02*
X15332563Y-14118912D01*
X15399229Y-14166531D02*
X15408753Y-14157008D01*
X15408753Y-14157008D02*
X15427801Y-14147484D01*
X15427801Y-14147484D02*
X15475420Y-14147484D01*
X15475420Y-14147484D02*
X15494468Y-14157008D01*
X15494468Y-14157008D02*
X15503991Y-14166531D01*
X15503991Y-14166531D02*
X15513515Y-14185579D01*
X15513515Y-14185579D02*
X15513515Y-14204627D01*
X15513515Y-14204627D02*
X15503991Y-14233198D01*
X15503991Y-14233198D02*
X15389706Y-14347484D01*
X15389706Y-14347484D02*
X15513515Y-14347484D01*
X15751610Y-14347484D02*
X15751610Y-14147484D01*
X15837325Y-14347484D02*
X15837325Y-14242722D01*
X15837325Y-14242722D02*
X15827801Y-14223674D01*
X15827801Y-14223674D02*
X15808753Y-14214150D01*
X15808753Y-14214150D02*
X15780182Y-14214150D01*
X15780182Y-14214150D02*
X15761134Y-14223674D01*
X15761134Y-14223674D02*
X15751610Y-14233198D01*
X15961134Y-14347484D02*
X15942087Y-14337960D01*
X15942087Y-14337960D02*
X15932563Y-14328436D01*
X15932563Y-14328436D02*
X15923039Y-14309388D01*
X15923039Y-14309388D02*
X15923039Y-14252246D01*
X15923039Y-14252246D02*
X15932563Y-14233198D01*
X15932563Y-14233198D02*
X15942087Y-14223674D01*
X15942087Y-14223674D02*
X15961134Y-14214150D01*
X15961134Y-14214150D02*
X15989706Y-14214150D01*
X15989706Y-14214150D02*
X16008753Y-14223674D01*
X16008753Y-14223674D02*
X16018277Y-14233198D01*
X16018277Y-14233198D02*
X16027801Y-14252246D01*
X16027801Y-14252246D02*
X16027801Y-14309388D01*
X16027801Y-14309388D02*
X16018277Y-14328436D01*
X16018277Y-14328436D02*
X16008753Y-14337960D01*
X16008753Y-14337960D02*
X15989706Y-14347484D01*
X15989706Y-14347484D02*
X15961134Y-14347484D01*
X16142087Y-14347484D02*
X16123039Y-14337960D01*
X16123039Y-14337960D02*
X16113515Y-14318912D01*
X16113515Y-14318912D02*
X16113515Y-14147484D01*
X16294468Y-14337960D02*
X16275420Y-14347484D01*
X16275420Y-14347484D02*
X16237325Y-14347484D01*
X16237325Y-14347484D02*
X16218277Y-14337960D01*
X16218277Y-14337960D02*
X16208753Y-14318912D01*
X16208753Y-14318912D02*
X16208753Y-14242722D01*
X16208753Y-14242722D02*
X16218277Y-14223674D01*
X16218277Y-14223674D02*
X16237325Y-14214150D01*
X16237325Y-14214150D02*
X16275420Y-14214150D01*
X16275420Y-14214150D02*
X16294468Y-14223674D01*
X16294468Y-14223674D02*
X16303991Y-14242722D01*
X16303991Y-14242722D02*
X16303991Y-14261769D01*
X16303991Y-14261769D02*
X16208753Y-14280817D01*
X16380182Y-14337960D02*
X16399230Y-14347484D01*
X16399230Y-14347484D02*
X16437325Y-14347484D01*
X16437325Y-14347484D02*
X16456372Y-14337960D01*
X16456372Y-14337960D02*
X16465896Y-14318912D01*
X16465896Y-14318912D02*
X16465896Y-14309388D01*
X16465896Y-14309388D02*
X16456372Y-14290341D01*
X16456372Y-14290341D02*
X16437325Y-14280817D01*
X16437325Y-14280817D02*
X16408753Y-14280817D01*
X16408753Y-14280817D02*
X16389706Y-14271293D01*
X16389706Y-14271293D02*
X16380182Y-14252246D01*
X16380182Y-14252246D02*
X16380182Y-14242722D01*
X16380182Y-14242722D02*
X16389706Y-14223674D01*
X16389706Y-14223674D02*
X16408753Y-14214150D01*
X16408753Y-14214150D02*
X16437325Y-14214150D01*
X16437325Y-14214150D02*
X16456372Y-14223674D01*
X16532563Y-14423674D02*
X16542087Y-14414150D01*
X16542087Y-14414150D02*
X16561134Y-14385579D01*
X16561134Y-14385579D02*
X16570658Y-14366531D01*
X16570658Y-14366531D02*
X16580182Y-14337960D01*
X16580182Y-14337960D02*
X16589706Y-14290341D01*
X16589706Y-14290341D02*
X16589706Y-14252246D01*
X16589706Y-14252246D02*
X16580182Y-14204627D01*
X16580182Y-14204627D02*
X16570658Y-14176055D01*
X16570658Y-14176055D02*
X16561134Y-14157008D01*
X16561134Y-14157008D02*
X16542087Y-14128436D01*
X16542087Y-14128436D02*
X16532563Y-14118912D01*
D14*
X11587500Y-14441000D02*
X11757500Y-14611000D01*
X11757500Y-14441000D02*
X11587500Y-14611000D01*
X11757500Y-14526000D02*
G75*
G02*
X11587500Y-14526000I-85000J0D01*
G01*
X11587500Y-14526000D02*
G75*
G02*
X11757500Y-14526000I85000J0D01*
G01*
D10*
X12123039Y-14617484D02*
X12008753Y-14617484D01*
X12065896Y-14617484D02*
X12065896Y-14417484D01*
X12065896Y-14417484D02*
X12046848Y-14446055D01*
X12046848Y-14446055D02*
X12027801Y-14465103D01*
X12027801Y-14465103D02*
X12008753Y-14474627D01*
X12208753Y-14598436D02*
X12218277Y-14607960D01*
X12218277Y-14607960D02*
X12208753Y-14617484D01*
X12208753Y-14617484D02*
X12199229Y-14607960D01*
X12199229Y-14607960D02*
X12208753Y-14598436D01*
X12208753Y-14598436D02*
X12208753Y-14617484D01*
X12284943Y-14417484D02*
X12418277Y-14417484D01*
X12418277Y-14417484D02*
X12332562Y-14617484D01*
X12532562Y-14417484D02*
X12551610Y-14417484D01*
X12551610Y-14417484D02*
X12570658Y-14427008D01*
X12570658Y-14427008D02*
X12580182Y-14436531D01*
X12580182Y-14436531D02*
X12589705Y-14455579D01*
X12589705Y-14455579D02*
X12599229Y-14493674D01*
X12599229Y-14493674D02*
X12599229Y-14541293D01*
X12599229Y-14541293D02*
X12589705Y-14579388D01*
X12589705Y-14579388D02*
X12580182Y-14598436D01*
X12580182Y-14598436D02*
X12570658Y-14607960D01*
X12570658Y-14607960D02*
X12551610Y-14617484D01*
X12551610Y-14617484D02*
X12532562Y-14617484D01*
X12532562Y-14617484D02*
X12513515Y-14607960D01*
X12513515Y-14607960D02*
X12503991Y-14598436D01*
X12503991Y-14598436D02*
X12494467Y-14579388D01*
X12494467Y-14579388D02*
X12484943Y-14541293D01*
X12484943Y-14541293D02*
X12484943Y-14493674D01*
X12484943Y-14493674D02*
X12494467Y-14455579D01*
X12494467Y-14455579D02*
X12503991Y-14436531D01*
X12503991Y-14436531D02*
X12513515Y-14427008D01*
X12513515Y-14427008D02*
X12532562Y-14417484D01*
X12723039Y-14417484D02*
X12742086Y-14417484D01*
X12742086Y-14417484D02*
X12761134Y-14427008D01*
X12761134Y-14427008D02*
X12770658Y-14436531D01*
X12770658Y-14436531D02*
X12780182Y-14455579D01*
X12780182Y-14455579D02*
X12789705Y-14493674D01*
X12789705Y-14493674D02*
X12789705Y-14541293D01*
X12789705Y-14541293D02*
X12780182Y-14579388D01*
X12780182Y-14579388D02*
X12770658Y-14598436D01*
X12770658Y-14598436D02*
X12761134Y-14607960D01*
X12761134Y-14607960D02*
X12742086Y-14617484D01*
X12742086Y-14617484D02*
X12723039Y-14617484D01*
X12723039Y-14617484D02*
X12703991Y-14607960D01*
X12703991Y-14607960D02*
X12694467Y-14598436D01*
X12694467Y-14598436D02*
X12684943Y-14579388D01*
X12684943Y-14579388D02*
X12675420Y-14541293D01*
X12675420Y-14541293D02*
X12675420Y-14493674D01*
X12675420Y-14493674D02*
X12684943Y-14455579D01*
X12684943Y-14455579D02*
X12694467Y-14436531D01*
X12694467Y-14436531D02*
X12703991Y-14427008D01*
X12703991Y-14427008D02*
X12723039Y-14417484D01*
X12875420Y-14617484D02*
X12875420Y-14484150D01*
X12875420Y-14503198D02*
X12884943Y-14493674D01*
X12884943Y-14493674D02*
X12903991Y-14484150D01*
X12903991Y-14484150D02*
X12932563Y-14484150D01*
X12932563Y-14484150D02*
X12951610Y-14493674D01*
X12951610Y-14493674D02*
X12961134Y-14512722D01*
X12961134Y-14512722D02*
X12961134Y-14617484D01*
X12961134Y-14512722D02*
X12970658Y-14493674D01*
X12970658Y-14493674D02*
X12989705Y-14484150D01*
X12989705Y-14484150D02*
X13018277Y-14484150D01*
X13018277Y-14484150D02*
X13037324Y-14493674D01*
X13037324Y-14493674D02*
X13046848Y-14512722D01*
X13046848Y-14512722D02*
X13046848Y-14617484D01*
X13142086Y-14617484D02*
X13142086Y-14484150D01*
X13142086Y-14503198D02*
X13151610Y-14493674D01*
X13151610Y-14493674D02*
X13170658Y-14484150D01*
X13170658Y-14484150D02*
X13199229Y-14484150D01*
X13199229Y-14484150D02*
X13218277Y-14493674D01*
X13218277Y-14493674D02*
X13227801Y-14512722D01*
X13227801Y-14512722D02*
X13227801Y-14617484D01*
X13227801Y-14512722D02*
X13237324Y-14493674D01*
X13237324Y-14493674D02*
X13256372Y-14484150D01*
X13256372Y-14484150D02*
X13284943Y-14484150D01*
X13284943Y-14484150D02*
X13303991Y-14493674D01*
X13303991Y-14493674D02*
X13313515Y-14512722D01*
X13313515Y-14512722D02*
X13313515Y-14617484D01*
X13703991Y-14407960D02*
X13532563Y-14665103D01*
X13961134Y-14417484D02*
X13980182Y-14417484D01*
X13980182Y-14417484D02*
X13999229Y-14427008D01*
X13999229Y-14427008D02*
X14008753Y-14436531D01*
X14008753Y-14436531D02*
X14018277Y-14455579D01*
X14018277Y-14455579D02*
X14027801Y-14493674D01*
X14027801Y-14493674D02*
X14027801Y-14541293D01*
X14027801Y-14541293D02*
X14018277Y-14579388D01*
X14018277Y-14579388D02*
X14008753Y-14598436D01*
X14008753Y-14598436D02*
X13999229Y-14607960D01*
X13999229Y-14607960D02*
X13980182Y-14617484D01*
X13980182Y-14617484D02*
X13961134Y-14617484D01*
X13961134Y-14617484D02*
X13942086Y-14607960D01*
X13942086Y-14607960D02*
X13932563Y-14598436D01*
X13932563Y-14598436D02*
X13923039Y-14579388D01*
X13923039Y-14579388D02*
X13913515Y-14541293D01*
X13913515Y-14541293D02*
X13913515Y-14493674D01*
X13913515Y-14493674D02*
X13923039Y-14455579D01*
X13923039Y-14455579D02*
X13932563Y-14436531D01*
X13932563Y-14436531D02*
X13942086Y-14427008D01*
X13942086Y-14427008D02*
X13961134Y-14417484D01*
X14113515Y-14598436D02*
X14123039Y-14607960D01*
X14123039Y-14607960D02*
X14113515Y-14617484D01*
X14113515Y-14617484D02*
X14103991Y-14607960D01*
X14103991Y-14607960D02*
X14113515Y-14598436D01*
X14113515Y-14598436D02*
X14113515Y-14617484D01*
X14246848Y-14417484D02*
X14265896Y-14417484D01*
X14265896Y-14417484D02*
X14284944Y-14427008D01*
X14284944Y-14427008D02*
X14294467Y-14436531D01*
X14294467Y-14436531D02*
X14303991Y-14455579D01*
X14303991Y-14455579D02*
X14313515Y-14493674D01*
X14313515Y-14493674D02*
X14313515Y-14541293D01*
X14313515Y-14541293D02*
X14303991Y-14579388D01*
X14303991Y-14579388D02*
X14294467Y-14598436D01*
X14294467Y-14598436D02*
X14284944Y-14607960D01*
X14284944Y-14607960D02*
X14265896Y-14617484D01*
X14265896Y-14617484D02*
X14246848Y-14617484D01*
X14246848Y-14617484D02*
X14227801Y-14607960D01*
X14227801Y-14607960D02*
X14218277Y-14598436D01*
X14218277Y-14598436D02*
X14208753Y-14579388D01*
X14208753Y-14579388D02*
X14199229Y-14541293D01*
X14199229Y-14541293D02*
X14199229Y-14493674D01*
X14199229Y-14493674D02*
X14208753Y-14455579D01*
X14208753Y-14455579D02*
X14218277Y-14436531D01*
X14218277Y-14436531D02*
X14227801Y-14427008D01*
X14227801Y-14427008D02*
X14246848Y-14417484D01*
X14484944Y-14417484D02*
X14446848Y-14417484D01*
X14446848Y-14417484D02*
X14427801Y-14427008D01*
X14427801Y-14427008D02*
X14418277Y-14436531D01*
X14418277Y-14436531D02*
X14399229Y-14465103D01*
X14399229Y-14465103D02*
X14389706Y-14503198D01*
X14389706Y-14503198D02*
X14389706Y-14579388D01*
X14389706Y-14579388D02*
X14399229Y-14598436D01*
X14399229Y-14598436D02*
X14408753Y-14607960D01*
X14408753Y-14607960D02*
X14427801Y-14617484D01*
X14427801Y-14617484D02*
X14465896Y-14617484D01*
X14465896Y-14617484D02*
X14484944Y-14607960D01*
X14484944Y-14607960D02*
X14494467Y-14598436D01*
X14494467Y-14598436D02*
X14503991Y-14579388D01*
X14503991Y-14579388D02*
X14503991Y-14531769D01*
X14503991Y-14531769D02*
X14494467Y-14512722D01*
X14494467Y-14512722D02*
X14484944Y-14503198D01*
X14484944Y-14503198D02*
X14465896Y-14493674D01*
X14465896Y-14493674D02*
X14427801Y-14493674D01*
X14427801Y-14493674D02*
X14408753Y-14503198D01*
X14408753Y-14503198D02*
X14399229Y-14512722D01*
X14399229Y-14512722D02*
X14389706Y-14531769D01*
X14675420Y-14417484D02*
X14637325Y-14417484D01*
X14637325Y-14417484D02*
X14618277Y-14427008D01*
X14618277Y-14427008D02*
X14608753Y-14436531D01*
X14608753Y-14436531D02*
X14589706Y-14465103D01*
X14589706Y-14465103D02*
X14580182Y-14503198D01*
X14580182Y-14503198D02*
X14580182Y-14579388D01*
X14580182Y-14579388D02*
X14589706Y-14598436D01*
X14589706Y-14598436D02*
X14599229Y-14607960D01*
X14599229Y-14607960D02*
X14618277Y-14617484D01*
X14618277Y-14617484D02*
X14656372Y-14617484D01*
X14656372Y-14617484D02*
X14675420Y-14607960D01*
X14675420Y-14607960D02*
X14684944Y-14598436D01*
X14684944Y-14598436D02*
X14694467Y-14579388D01*
X14694467Y-14579388D02*
X14694467Y-14531769D01*
X14694467Y-14531769D02*
X14684944Y-14512722D01*
X14684944Y-14512722D02*
X14675420Y-14503198D01*
X14675420Y-14503198D02*
X14656372Y-14493674D01*
X14656372Y-14493674D02*
X14618277Y-14493674D01*
X14618277Y-14493674D02*
X14599229Y-14503198D01*
X14599229Y-14503198D02*
X14589706Y-14512722D01*
X14589706Y-14512722D02*
X14580182Y-14531769D01*
X14789706Y-14617484D02*
X14827801Y-14617484D01*
X14827801Y-14617484D02*
X14846848Y-14607960D01*
X14846848Y-14607960D02*
X14856372Y-14598436D01*
X14856372Y-14598436D02*
X14875420Y-14569865D01*
X14875420Y-14569865D02*
X14884944Y-14531769D01*
X14884944Y-14531769D02*
X14884944Y-14455579D01*
X14884944Y-14455579D02*
X14875420Y-14436531D01*
X14875420Y-14436531D02*
X14865896Y-14427008D01*
X14865896Y-14427008D02*
X14846848Y-14417484D01*
X14846848Y-14417484D02*
X14808753Y-14417484D01*
X14808753Y-14417484D02*
X14789706Y-14427008D01*
X14789706Y-14427008D02*
X14780182Y-14436531D01*
X14780182Y-14436531D02*
X14770658Y-14455579D01*
X14770658Y-14455579D02*
X14770658Y-14503198D01*
X14770658Y-14503198D02*
X14780182Y-14522246D01*
X14780182Y-14522246D02*
X14789706Y-14531769D01*
X14789706Y-14531769D02*
X14808753Y-14541293D01*
X14808753Y-14541293D02*
X14846848Y-14541293D01*
X14846848Y-14541293D02*
X14865896Y-14531769D01*
X14865896Y-14531769D02*
X14875420Y-14522246D01*
X14875420Y-14522246D02*
X14884944Y-14503198D01*
X14961134Y-14417484D02*
X14961134Y-14455579D01*
X15037325Y-14417484D02*
X15037325Y-14455579D01*
X15332563Y-14693674D02*
X15323039Y-14684150D01*
X15323039Y-14684150D02*
X15303991Y-14655579D01*
X15303991Y-14655579D02*
X15294468Y-14636531D01*
X15294468Y-14636531D02*
X15284944Y-14607960D01*
X15284944Y-14607960D02*
X15275420Y-14560341D01*
X15275420Y-14560341D02*
X15275420Y-14522246D01*
X15275420Y-14522246D02*
X15284944Y-14474627D01*
X15284944Y-14474627D02*
X15294468Y-14446055D01*
X15294468Y-14446055D02*
X15303991Y-14427008D01*
X15303991Y-14427008D02*
X15323039Y-14398436D01*
X15323039Y-14398436D02*
X15332563Y-14388912D01*
X15437325Y-14503198D02*
X15418277Y-14493674D01*
X15418277Y-14493674D02*
X15408753Y-14484150D01*
X15408753Y-14484150D02*
X15399229Y-14465103D01*
X15399229Y-14465103D02*
X15399229Y-14455579D01*
X15399229Y-14455579D02*
X15408753Y-14436531D01*
X15408753Y-14436531D02*
X15418277Y-14427008D01*
X15418277Y-14427008D02*
X15437325Y-14417484D01*
X15437325Y-14417484D02*
X15475420Y-14417484D01*
X15475420Y-14417484D02*
X15494468Y-14427008D01*
X15494468Y-14427008D02*
X15503991Y-14436531D01*
X15503991Y-14436531D02*
X15513515Y-14455579D01*
X15513515Y-14455579D02*
X15513515Y-14465103D01*
X15513515Y-14465103D02*
X15503991Y-14484150D01*
X15503991Y-14484150D02*
X15494468Y-14493674D01*
X15494468Y-14493674D02*
X15475420Y-14503198D01*
X15475420Y-14503198D02*
X15437325Y-14503198D01*
X15437325Y-14503198D02*
X15418277Y-14512722D01*
X15418277Y-14512722D02*
X15408753Y-14522246D01*
X15408753Y-14522246D02*
X15399229Y-14541293D01*
X15399229Y-14541293D02*
X15399229Y-14579388D01*
X15399229Y-14579388D02*
X15408753Y-14598436D01*
X15408753Y-14598436D02*
X15418277Y-14607960D01*
X15418277Y-14607960D02*
X15437325Y-14617484D01*
X15437325Y-14617484D02*
X15475420Y-14617484D01*
X15475420Y-14617484D02*
X15494468Y-14607960D01*
X15494468Y-14607960D02*
X15503991Y-14598436D01*
X15503991Y-14598436D02*
X15513515Y-14579388D01*
X15513515Y-14579388D02*
X15513515Y-14541293D01*
X15513515Y-14541293D02*
X15503991Y-14522246D01*
X15503991Y-14522246D02*
X15494468Y-14512722D01*
X15494468Y-14512722D02*
X15475420Y-14503198D01*
X15751610Y-14617484D02*
X15751610Y-14417484D01*
X15837325Y-14617484D02*
X15837325Y-14512722D01*
X15837325Y-14512722D02*
X15827801Y-14493674D01*
X15827801Y-14493674D02*
X15808753Y-14484150D01*
X15808753Y-14484150D02*
X15780182Y-14484150D01*
X15780182Y-14484150D02*
X15761134Y-14493674D01*
X15761134Y-14493674D02*
X15751610Y-14503198D01*
X15961134Y-14617484D02*
X15942087Y-14607960D01*
X15942087Y-14607960D02*
X15932563Y-14598436D01*
X15932563Y-14598436D02*
X15923039Y-14579388D01*
X15923039Y-14579388D02*
X15923039Y-14522246D01*
X15923039Y-14522246D02*
X15932563Y-14503198D01*
X15932563Y-14503198D02*
X15942087Y-14493674D01*
X15942087Y-14493674D02*
X15961134Y-14484150D01*
X15961134Y-14484150D02*
X15989706Y-14484150D01*
X15989706Y-14484150D02*
X16008753Y-14493674D01*
X16008753Y-14493674D02*
X16018277Y-14503198D01*
X16018277Y-14503198D02*
X16027801Y-14522246D01*
X16027801Y-14522246D02*
X16027801Y-14579388D01*
X16027801Y-14579388D02*
X16018277Y-14598436D01*
X16018277Y-14598436D02*
X16008753Y-14607960D01*
X16008753Y-14607960D02*
X15989706Y-14617484D01*
X15989706Y-14617484D02*
X15961134Y-14617484D01*
X16142087Y-14617484D02*
X16123039Y-14607960D01*
X16123039Y-14607960D02*
X16113515Y-14588912D01*
X16113515Y-14588912D02*
X16113515Y-14417484D01*
X16294468Y-14607960D02*
X16275420Y-14617484D01*
X16275420Y-14617484D02*
X16237325Y-14617484D01*
X16237325Y-14617484D02*
X16218277Y-14607960D01*
X16218277Y-14607960D02*
X16208753Y-14588912D01*
X16208753Y-14588912D02*
X16208753Y-14512722D01*
X16208753Y-14512722D02*
X16218277Y-14493674D01*
X16218277Y-14493674D02*
X16237325Y-14484150D01*
X16237325Y-14484150D02*
X16275420Y-14484150D01*
X16275420Y-14484150D02*
X16294468Y-14493674D01*
X16294468Y-14493674D02*
X16303991Y-14512722D01*
X16303991Y-14512722D02*
X16303991Y-14531769D01*
X16303991Y-14531769D02*
X16208753Y-14550817D01*
X16380182Y-14607960D02*
X16399230Y-14617484D01*
X16399230Y-14617484D02*
X16437325Y-14617484D01*
X16437325Y-14617484D02*
X16456372Y-14607960D01*
X16456372Y-14607960D02*
X16465896Y-14588912D01*
X16465896Y-14588912D02*
X16465896Y-14579388D01*
X16465896Y-14579388D02*
X16456372Y-14560341D01*
X16456372Y-14560341D02*
X16437325Y-14550817D01*
X16437325Y-14550817D02*
X16408753Y-14550817D01*
X16408753Y-14550817D02*
X16389706Y-14541293D01*
X16389706Y-14541293D02*
X16380182Y-14522246D01*
X16380182Y-14522246D02*
X16380182Y-14512722D01*
X16380182Y-14512722D02*
X16389706Y-14493674D01*
X16389706Y-14493674D02*
X16408753Y-14484150D01*
X16408753Y-14484150D02*
X16437325Y-14484150D01*
X16437325Y-14484150D02*
X16456372Y-14493674D01*
X16532563Y-14693674D02*
X16542087Y-14684150D01*
X16542087Y-14684150D02*
X16561134Y-14655579D01*
X16561134Y-14655579D02*
X16570658Y-14636531D01*
X16570658Y-14636531D02*
X16580182Y-14607960D01*
X16580182Y-14607960D02*
X16589706Y-14560341D01*
X16589706Y-14560341D02*
X16589706Y-14522246D01*
X16589706Y-14522246D02*
X16580182Y-14474627D01*
X16580182Y-14474627D02*
X16570658Y-14446055D01*
X16570658Y-14446055D02*
X16561134Y-14427008D01*
X16561134Y-14427008D02*
X16542087Y-14398436D01*
X16542087Y-14398436D02*
X16532563Y-14388912D01*
X11557500Y-14716000D02*
X11757500Y-14916000D01*
X11757500Y-14716000D02*
X11557500Y-14916000D01*
X11657500Y-14716000D02*
X11657500Y-14916000D01*
X11557500Y-14816000D02*
X11757500Y-14816000D01*
X12008753Y-14726531D02*
X12018277Y-14717008D01*
X12018277Y-14717008D02*
X12037324Y-14707484D01*
X12037324Y-14707484D02*
X12084943Y-14707484D01*
X12084943Y-14707484D02*
X12103991Y-14717008D01*
X12103991Y-14717008D02*
X12113515Y-14726531D01*
X12113515Y-14726531D02*
X12123039Y-14745579D01*
X12123039Y-14745579D02*
X12123039Y-14764627D01*
X12123039Y-14764627D02*
X12113515Y-14793198D01*
X12113515Y-14793198D02*
X11999229Y-14907484D01*
X11999229Y-14907484D02*
X12123039Y-14907484D01*
X12208753Y-14888436D02*
X12218277Y-14897960D01*
X12218277Y-14897960D02*
X12208753Y-14907484D01*
X12208753Y-14907484D02*
X12199229Y-14897960D01*
X12199229Y-14897960D02*
X12208753Y-14888436D01*
X12208753Y-14888436D02*
X12208753Y-14907484D01*
X12294467Y-14726531D02*
X12303991Y-14717008D01*
X12303991Y-14717008D02*
X12323039Y-14707484D01*
X12323039Y-14707484D02*
X12370658Y-14707484D01*
X12370658Y-14707484D02*
X12389705Y-14717008D01*
X12389705Y-14717008D02*
X12399229Y-14726531D01*
X12399229Y-14726531D02*
X12408753Y-14745579D01*
X12408753Y-14745579D02*
X12408753Y-14764627D01*
X12408753Y-14764627D02*
X12399229Y-14793198D01*
X12399229Y-14793198D02*
X12284943Y-14907484D01*
X12284943Y-14907484D02*
X12408753Y-14907484D01*
X12532562Y-14707484D02*
X12551610Y-14707484D01*
X12551610Y-14707484D02*
X12570658Y-14717008D01*
X12570658Y-14717008D02*
X12580182Y-14726531D01*
X12580182Y-14726531D02*
X12589705Y-14745579D01*
X12589705Y-14745579D02*
X12599229Y-14783674D01*
X12599229Y-14783674D02*
X12599229Y-14831293D01*
X12599229Y-14831293D02*
X12589705Y-14869388D01*
X12589705Y-14869388D02*
X12580182Y-14888436D01*
X12580182Y-14888436D02*
X12570658Y-14897960D01*
X12570658Y-14897960D02*
X12551610Y-14907484D01*
X12551610Y-14907484D02*
X12532562Y-14907484D01*
X12532562Y-14907484D02*
X12513515Y-14897960D01*
X12513515Y-14897960D02*
X12503991Y-14888436D01*
X12503991Y-14888436D02*
X12494467Y-14869388D01*
X12494467Y-14869388D02*
X12484943Y-14831293D01*
X12484943Y-14831293D02*
X12484943Y-14783674D01*
X12484943Y-14783674D02*
X12494467Y-14745579D01*
X12494467Y-14745579D02*
X12503991Y-14726531D01*
X12503991Y-14726531D02*
X12513515Y-14717008D01*
X12513515Y-14717008D02*
X12532562Y-14707484D01*
X12723039Y-14707484D02*
X12742086Y-14707484D01*
X12742086Y-14707484D02*
X12761134Y-14717008D01*
X12761134Y-14717008D02*
X12770658Y-14726531D01*
X12770658Y-14726531D02*
X12780182Y-14745579D01*
X12780182Y-14745579D02*
X12789705Y-14783674D01*
X12789705Y-14783674D02*
X12789705Y-14831293D01*
X12789705Y-14831293D02*
X12780182Y-14869388D01*
X12780182Y-14869388D02*
X12770658Y-14888436D01*
X12770658Y-14888436D02*
X12761134Y-14897960D01*
X12761134Y-14897960D02*
X12742086Y-14907484D01*
X12742086Y-14907484D02*
X12723039Y-14907484D01*
X12723039Y-14907484D02*
X12703991Y-14897960D01*
X12703991Y-14897960D02*
X12694467Y-14888436D01*
X12694467Y-14888436D02*
X12684943Y-14869388D01*
X12684943Y-14869388D02*
X12675420Y-14831293D01*
X12675420Y-14831293D02*
X12675420Y-14783674D01*
X12675420Y-14783674D02*
X12684943Y-14745579D01*
X12684943Y-14745579D02*
X12694467Y-14726531D01*
X12694467Y-14726531D02*
X12703991Y-14717008D01*
X12703991Y-14717008D02*
X12723039Y-14707484D01*
X12875420Y-14907484D02*
X12875420Y-14774150D01*
X12875420Y-14793198D02*
X12884943Y-14783674D01*
X12884943Y-14783674D02*
X12903991Y-14774150D01*
X12903991Y-14774150D02*
X12932563Y-14774150D01*
X12932563Y-14774150D02*
X12951610Y-14783674D01*
X12951610Y-14783674D02*
X12961134Y-14802722D01*
X12961134Y-14802722D02*
X12961134Y-14907484D01*
X12961134Y-14802722D02*
X12970658Y-14783674D01*
X12970658Y-14783674D02*
X12989705Y-14774150D01*
X12989705Y-14774150D02*
X13018277Y-14774150D01*
X13018277Y-14774150D02*
X13037324Y-14783674D01*
X13037324Y-14783674D02*
X13046848Y-14802722D01*
X13046848Y-14802722D02*
X13046848Y-14907484D01*
X13142086Y-14907484D02*
X13142086Y-14774150D01*
X13142086Y-14793198D02*
X13151610Y-14783674D01*
X13151610Y-14783674D02*
X13170658Y-14774150D01*
X13170658Y-14774150D02*
X13199229Y-14774150D01*
X13199229Y-14774150D02*
X13218277Y-14783674D01*
X13218277Y-14783674D02*
X13227801Y-14802722D01*
X13227801Y-14802722D02*
X13227801Y-14907484D01*
X13227801Y-14802722D02*
X13237324Y-14783674D01*
X13237324Y-14783674D02*
X13256372Y-14774150D01*
X13256372Y-14774150D02*
X13284943Y-14774150D01*
X13284943Y-14774150D02*
X13303991Y-14783674D01*
X13303991Y-14783674D02*
X13313515Y-14802722D01*
X13313515Y-14802722D02*
X13313515Y-14907484D01*
X13703991Y-14697960D02*
X13532563Y-14955103D01*
X13961134Y-14707484D02*
X13980182Y-14707484D01*
X13980182Y-14707484D02*
X13999229Y-14717008D01*
X13999229Y-14717008D02*
X14008753Y-14726531D01*
X14008753Y-14726531D02*
X14018277Y-14745579D01*
X14018277Y-14745579D02*
X14027801Y-14783674D01*
X14027801Y-14783674D02*
X14027801Y-14831293D01*
X14027801Y-14831293D02*
X14018277Y-14869388D01*
X14018277Y-14869388D02*
X14008753Y-14888436D01*
X14008753Y-14888436D02*
X13999229Y-14897960D01*
X13999229Y-14897960D02*
X13980182Y-14907484D01*
X13980182Y-14907484D02*
X13961134Y-14907484D01*
X13961134Y-14907484D02*
X13942086Y-14897960D01*
X13942086Y-14897960D02*
X13932563Y-14888436D01*
X13932563Y-14888436D02*
X13923039Y-14869388D01*
X13923039Y-14869388D02*
X13913515Y-14831293D01*
X13913515Y-14831293D02*
X13913515Y-14783674D01*
X13913515Y-14783674D02*
X13923039Y-14745579D01*
X13923039Y-14745579D02*
X13932563Y-14726531D01*
X13932563Y-14726531D02*
X13942086Y-14717008D01*
X13942086Y-14717008D02*
X13961134Y-14707484D01*
X14113515Y-14888436D02*
X14123039Y-14897960D01*
X14123039Y-14897960D02*
X14113515Y-14907484D01*
X14113515Y-14907484D02*
X14103991Y-14897960D01*
X14103991Y-14897960D02*
X14113515Y-14888436D01*
X14113515Y-14888436D02*
X14113515Y-14907484D01*
X14246848Y-14707484D02*
X14265896Y-14707484D01*
X14265896Y-14707484D02*
X14284944Y-14717008D01*
X14284944Y-14717008D02*
X14294467Y-14726531D01*
X14294467Y-14726531D02*
X14303991Y-14745579D01*
X14303991Y-14745579D02*
X14313515Y-14783674D01*
X14313515Y-14783674D02*
X14313515Y-14831293D01*
X14313515Y-14831293D02*
X14303991Y-14869388D01*
X14303991Y-14869388D02*
X14294467Y-14888436D01*
X14294467Y-14888436D02*
X14284944Y-14897960D01*
X14284944Y-14897960D02*
X14265896Y-14907484D01*
X14265896Y-14907484D02*
X14246848Y-14907484D01*
X14246848Y-14907484D02*
X14227801Y-14897960D01*
X14227801Y-14897960D02*
X14218277Y-14888436D01*
X14218277Y-14888436D02*
X14208753Y-14869388D01*
X14208753Y-14869388D02*
X14199229Y-14831293D01*
X14199229Y-14831293D02*
X14199229Y-14783674D01*
X14199229Y-14783674D02*
X14208753Y-14745579D01*
X14208753Y-14745579D02*
X14218277Y-14726531D01*
X14218277Y-14726531D02*
X14227801Y-14717008D01*
X14227801Y-14717008D02*
X14246848Y-14707484D01*
X14427801Y-14793198D02*
X14408753Y-14783674D01*
X14408753Y-14783674D02*
X14399229Y-14774150D01*
X14399229Y-14774150D02*
X14389706Y-14755103D01*
X14389706Y-14755103D02*
X14389706Y-14745579D01*
X14389706Y-14745579D02*
X14399229Y-14726531D01*
X14399229Y-14726531D02*
X14408753Y-14717008D01*
X14408753Y-14717008D02*
X14427801Y-14707484D01*
X14427801Y-14707484D02*
X14465896Y-14707484D01*
X14465896Y-14707484D02*
X14484944Y-14717008D01*
X14484944Y-14717008D02*
X14494467Y-14726531D01*
X14494467Y-14726531D02*
X14503991Y-14745579D01*
X14503991Y-14745579D02*
X14503991Y-14755103D01*
X14503991Y-14755103D02*
X14494467Y-14774150D01*
X14494467Y-14774150D02*
X14484944Y-14783674D01*
X14484944Y-14783674D02*
X14465896Y-14793198D01*
X14465896Y-14793198D02*
X14427801Y-14793198D01*
X14427801Y-14793198D02*
X14408753Y-14802722D01*
X14408753Y-14802722D02*
X14399229Y-14812246D01*
X14399229Y-14812246D02*
X14389706Y-14831293D01*
X14389706Y-14831293D02*
X14389706Y-14869388D01*
X14389706Y-14869388D02*
X14399229Y-14888436D01*
X14399229Y-14888436D02*
X14408753Y-14897960D01*
X14408753Y-14897960D02*
X14427801Y-14907484D01*
X14427801Y-14907484D02*
X14465896Y-14907484D01*
X14465896Y-14907484D02*
X14484944Y-14897960D01*
X14484944Y-14897960D02*
X14494467Y-14888436D01*
X14494467Y-14888436D02*
X14503991Y-14869388D01*
X14503991Y-14869388D02*
X14503991Y-14831293D01*
X14503991Y-14831293D02*
X14494467Y-14812246D01*
X14494467Y-14812246D02*
X14484944Y-14802722D01*
X14484944Y-14802722D02*
X14465896Y-14793198D01*
X14675420Y-14707484D02*
X14637325Y-14707484D01*
X14637325Y-14707484D02*
X14618277Y-14717008D01*
X14618277Y-14717008D02*
X14608753Y-14726531D01*
X14608753Y-14726531D02*
X14589706Y-14755103D01*
X14589706Y-14755103D02*
X14580182Y-14793198D01*
X14580182Y-14793198D02*
X14580182Y-14869388D01*
X14580182Y-14869388D02*
X14589706Y-14888436D01*
X14589706Y-14888436D02*
X14599229Y-14897960D01*
X14599229Y-14897960D02*
X14618277Y-14907484D01*
X14618277Y-14907484D02*
X14656372Y-14907484D01*
X14656372Y-14907484D02*
X14675420Y-14897960D01*
X14675420Y-14897960D02*
X14684944Y-14888436D01*
X14684944Y-14888436D02*
X14694467Y-14869388D01*
X14694467Y-14869388D02*
X14694467Y-14821769D01*
X14694467Y-14821769D02*
X14684944Y-14802722D01*
X14684944Y-14802722D02*
X14675420Y-14793198D01*
X14675420Y-14793198D02*
X14656372Y-14783674D01*
X14656372Y-14783674D02*
X14618277Y-14783674D01*
X14618277Y-14783674D02*
X14599229Y-14793198D01*
X14599229Y-14793198D02*
X14589706Y-14802722D01*
X14589706Y-14802722D02*
X14580182Y-14821769D01*
X14865896Y-14707484D02*
X14827801Y-14707484D01*
X14827801Y-14707484D02*
X14808753Y-14717008D01*
X14808753Y-14717008D02*
X14799229Y-14726531D01*
X14799229Y-14726531D02*
X14780182Y-14755103D01*
X14780182Y-14755103D02*
X14770658Y-14793198D01*
X14770658Y-14793198D02*
X14770658Y-14869388D01*
X14770658Y-14869388D02*
X14780182Y-14888436D01*
X14780182Y-14888436D02*
X14789706Y-14897960D01*
X14789706Y-14897960D02*
X14808753Y-14907484D01*
X14808753Y-14907484D02*
X14846848Y-14907484D01*
X14846848Y-14907484D02*
X14865896Y-14897960D01*
X14865896Y-14897960D02*
X14875420Y-14888436D01*
X14875420Y-14888436D02*
X14884944Y-14869388D01*
X14884944Y-14869388D02*
X14884944Y-14821769D01*
X14884944Y-14821769D02*
X14875420Y-14802722D01*
X14875420Y-14802722D02*
X14865896Y-14793198D01*
X14865896Y-14793198D02*
X14846848Y-14783674D01*
X14846848Y-14783674D02*
X14808753Y-14783674D01*
X14808753Y-14783674D02*
X14789706Y-14793198D01*
X14789706Y-14793198D02*
X14780182Y-14802722D01*
X14780182Y-14802722D02*
X14770658Y-14821769D01*
X14961134Y-14707484D02*
X14961134Y-14745579D01*
X15037325Y-14707484D02*
X15037325Y-14745579D01*
X15332563Y-14983674D02*
X15323039Y-14974150D01*
X15323039Y-14974150D02*
X15303991Y-14945579D01*
X15303991Y-14945579D02*
X15294468Y-14926531D01*
X15294468Y-14926531D02*
X15284944Y-14897960D01*
X15284944Y-14897960D02*
X15275420Y-14850341D01*
X15275420Y-14850341D02*
X15275420Y-14812246D01*
X15275420Y-14812246D02*
X15284944Y-14764627D01*
X15284944Y-14764627D02*
X15294468Y-14736055D01*
X15294468Y-14736055D02*
X15303991Y-14717008D01*
X15303991Y-14717008D02*
X15323039Y-14688436D01*
X15323039Y-14688436D02*
X15332563Y-14678912D01*
X15494468Y-14774150D02*
X15494468Y-14907484D01*
X15446848Y-14697960D02*
X15399229Y-14840817D01*
X15399229Y-14840817D02*
X15523039Y-14840817D01*
X15751610Y-14907484D02*
X15751610Y-14707484D01*
X15837325Y-14907484D02*
X15837325Y-14802722D01*
X15837325Y-14802722D02*
X15827801Y-14783674D01*
X15827801Y-14783674D02*
X15808753Y-14774150D01*
X15808753Y-14774150D02*
X15780182Y-14774150D01*
X15780182Y-14774150D02*
X15761134Y-14783674D01*
X15761134Y-14783674D02*
X15751610Y-14793198D01*
X15961134Y-14907484D02*
X15942087Y-14897960D01*
X15942087Y-14897960D02*
X15932563Y-14888436D01*
X15932563Y-14888436D02*
X15923039Y-14869388D01*
X15923039Y-14869388D02*
X15923039Y-14812246D01*
X15923039Y-14812246D02*
X15932563Y-14793198D01*
X15932563Y-14793198D02*
X15942087Y-14783674D01*
X15942087Y-14783674D02*
X15961134Y-14774150D01*
X15961134Y-14774150D02*
X15989706Y-14774150D01*
X15989706Y-14774150D02*
X16008753Y-14783674D01*
X16008753Y-14783674D02*
X16018277Y-14793198D01*
X16018277Y-14793198D02*
X16027801Y-14812246D01*
X16027801Y-14812246D02*
X16027801Y-14869388D01*
X16027801Y-14869388D02*
X16018277Y-14888436D01*
X16018277Y-14888436D02*
X16008753Y-14897960D01*
X16008753Y-14897960D02*
X15989706Y-14907484D01*
X15989706Y-14907484D02*
X15961134Y-14907484D01*
X16142087Y-14907484D02*
X16123039Y-14897960D01*
X16123039Y-14897960D02*
X16113515Y-14878912D01*
X16113515Y-14878912D02*
X16113515Y-14707484D01*
X16294468Y-14897960D02*
X16275420Y-14907484D01*
X16275420Y-14907484D02*
X16237325Y-14907484D01*
X16237325Y-14907484D02*
X16218277Y-14897960D01*
X16218277Y-14897960D02*
X16208753Y-14878912D01*
X16208753Y-14878912D02*
X16208753Y-14802722D01*
X16208753Y-14802722D02*
X16218277Y-14783674D01*
X16218277Y-14783674D02*
X16237325Y-14774150D01*
X16237325Y-14774150D02*
X16275420Y-14774150D01*
X16275420Y-14774150D02*
X16294468Y-14783674D01*
X16294468Y-14783674D02*
X16303991Y-14802722D01*
X16303991Y-14802722D02*
X16303991Y-14821769D01*
X16303991Y-14821769D02*
X16208753Y-14840817D01*
X16380182Y-14897960D02*
X16399230Y-14907484D01*
X16399230Y-14907484D02*
X16437325Y-14907484D01*
X16437325Y-14907484D02*
X16456372Y-14897960D01*
X16456372Y-14897960D02*
X16465896Y-14878912D01*
X16465896Y-14878912D02*
X16465896Y-14869388D01*
X16465896Y-14869388D02*
X16456372Y-14850341D01*
X16456372Y-14850341D02*
X16437325Y-14840817D01*
X16437325Y-14840817D02*
X16408753Y-14840817D01*
X16408753Y-14840817D02*
X16389706Y-14831293D01*
X16389706Y-14831293D02*
X16380182Y-14812246D01*
X16380182Y-14812246D02*
X16380182Y-14802722D01*
X16380182Y-14802722D02*
X16389706Y-14783674D01*
X16389706Y-14783674D02*
X16408753Y-14774150D01*
X16408753Y-14774150D02*
X16437325Y-14774150D01*
X16437325Y-14774150D02*
X16456372Y-14783674D01*
X16532563Y-14983674D02*
X16542087Y-14974150D01*
X16542087Y-14974150D02*
X16561134Y-14945579D01*
X16561134Y-14945579D02*
X16570658Y-14926531D01*
X16570658Y-14926531D02*
X16580182Y-14897960D01*
X16580182Y-14897960D02*
X16589706Y-14850341D01*
X16589706Y-14850341D02*
X16589706Y-14812246D01*
X16589706Y-14812246D02*
X16580182Y-14764627D01*
X16580182Y-14764627D02*
X16570658Y-14736055D01*
X16570658Y-14736055D02*
X16561134Y-14717008D01*
X16561134Y-14717008D02*
X16542087Y-14688436D01*
X16542087Y-14688436D02*
X16532563Y-14678912D01*
M02*
