G04 #@! TF.GenerationSoftware,KiCad,Pcbnew,8.0.6*
G04 #@! TF.CreationDate,2025-01-16T21:26:41-07:00*
G04 #@! TF.ProjectId,AD9744 Ersatz Eval Board Rev. A,41443937-3434-4204-9572-7361747a2045,rev?*
G04 #@! TF.SameCoordinates,Original*
G04 #@! TF.FileFunction,Soldermask,Bot*
G04 #@! TF.FilePolarity,Negative*
%FSLAX46Y46*%
G04 Gerber Fmt 4.6, Leading zero omitted, Abs format (unit mm)*
G04 Created by KiCad (PCBNEW 8.0.6) date 2025-01-16 21:26:41*
%MOMM*%
%LPD*%
G01*
G04 APERTURE LIST*
G04 Aperture macros list*
%AMFreePoly0*
4,1,19,0.500000,-0.750000,0.000000,-0.750000,0.000000,-0.744911,-0.071157,-0.744911,-0.207708,-0.704816,-0.327430,-0.627875,-0.420627,-0.520320,-0.479746,-0.390866,-0.500000,-0.250000,-0.500000,0.250000,-0.479746,0.390866,-0.420627,0.520320,-0.327430,0.627875,-0.207708,0.704816,-0.071157,0.744911,0.000000,0.744911,0.000000,0.750000,0.500000,0.750000,0.500000,-0.750000,0.500000,-0.750000,
$1*%
%AMFreePoly1*
4,1,19,0.000000,0.744911,0.071157,0.744911,0.207708,0.704816,0.327430,0.627875,0.420627,0.520320,0.479746,0.390866,0.500000,0.250000,0.500000,-0.250000,0.479746,-0.390866,0.420627,-0.520320,0.327430,-0.627875,0.207708,-0.704816,0.071157,-0.744911,0.000000,-0.744911,0.000000,-0.750000,-0.500000,-0.750000,-0.500000,0.750000,0.000000,0.750000,0.000000,0.744911,0.000000,0.744911,
$1*%
G04 Aperture macros list end*
%ADD10R,1.700000X1.700000*%
%ADD11O,1.700000X1.700000*%
%ADD12C,3.800000*%
%ADD13C,2.050000*%
%ADD14C,2.250000*%
%ADD15C,2.000000*%
%ADD16R,2.600000X2.600000*%
%ADD17C,2.600000*%
%ADD18R,1.600000X1.600000*%
%ADD19O,1.600000X1.600000*%
%ADD20FreePoly0,0.000000*%
%ADD21FreePoly1,0.000000*%
G04 APERTURE END LIST*
D10*
X133735000Y-121300000D03*
D11*
X136275000Y-121300000D03*
X138815000Y-121300000D03*
D12*
X162775000Y-122600000D03*
D10*
X124735000Y-100640000D03*
D11*
X127275000Y-100640000D03*
X124735000Y-103180000D03*
X127275000Y-103180000D03*
X124735000Y-105720000D03*
X127275000Y-105720000D03*
X124735000Y-108260000D03*
X127275000Y-108260000D03*
X124735000Y-110800000D03*
X127275000Y-110800000D03*
X124735000Y-113340000D03*
X127275000Y-113340000D03*
X124735000Y-115880000D03*
X127275000Y-115880000D03*
X124735000Y-118420000D03*
X127275000Y-118420000D03*
X124735000Y-120960000D03*
X127275000Y-120960000D03*
D13*
X152365000Y-91050000D03*
D14*
X149825000Y-88510000D03*
X149825000Y-93590000D03*
X154905000Y-88510000D03*
X154905000Y-93590000D03*
D13*
X160760000Y-107410000D03*
D14*
X158220000Y-104870000D03*
X158220000Y-109950000D03*
X163300000Y-104870000D03*
X163300000Y-109950000D03*
D15*
X149750000Y-116900000D03*
D12*
X162775000Y-80400000D03*
X120575000Y-122600000D03*
D10*
X135775000Y-83475000D03*
D11*
X135775000Y-80935000D03*
D15*
X156450000Y-117550000D03*
D12*
X120575000Y-80400000D03*
D15*
X134275000Y-98700000D03*
D16*
X127775000Y-85520000D03*
D17*
X127775000Y-90600000D03*
D18*
X155100000Y-112500000D03*
D19*
X155100000Y-109960000D03*
X155100000Y-107420000D03*
X147480000Y-107420000D03*
X147480000Y-109960000D03*
X147480000Y-112500000D03*
D15*
X149750000Y-103200000D03*
D20*
X140625000Y-104300000D03*
D21*
X141925000Y-104300000D03*
M02*
